<?xml version="1.0" encoding="utf-8"?>
<!-- Generator: Adobe Illustrator 27.3.1, SVG Export Plug-In . SVG Version: 6.00 Build 0)  -->
<svg version="1.1" id="Layer_1" xmlns="http://www.w3.org/2000/svg" xmlns:xlink="http://www.w3.org/1999/xlink" x="0px" y="0px"
	 viewBox="0 0 3710 3710" style="enable-background:new 0 0 3710 3710;" xml:space="preserve">
<style type="text/css">
	.st0{fill:url(#SVGID_00000004510485666191129470000016197410733611091122_);}
	.st1{clip-path:url(#SVGID_00000108993249154352702470000017314642721936749190_);}
	.st2{fill:#FFFFFF;}
	.st3{fill:url(#SVGID_00000176764747609235623760000002887552713889738410_);}
	.st4{clip-path:url(#SVGID_00000014631852771458337480000002613151985041956769_);}
	.st5{fill:url(#SVGID_00000137104641436763691340000013520735387276943285_);}
	.st6{fill:url(#SVGID_00000042712511204592234360000014732142542340183432_);}
	.st7{clip-path:url(#SVGID_00000079458354691415950280000008677918580569075645_);}
	.st8{fill:url(#SVGID_00000151541453337563625280000012158760314774399888_);}
	.st9{fill:url(#SVGID_00000008858897893346861240000010773460086993547960_);}
	.st10{fill:url(#SVGID_00000179611742512104620800000015222998205134310060_);}
	.st11{opacity:0.3;fill:url(#SVGID_00000180344417620429975470000000788226416830215849_);enable-background:new    ;}
	.st12{fill:url(#SVGID_00000168802051694275400420000014618332091234611594_);}
	.st13{opacity:0.3;}
	.st14{fill:url(#SVGID_00000048485970152979599360000007848632037419477436_);}
	.st15{fill:url(#SVGID_00000070093898801661231290000016709071824521108639_);}
	.st16{fill:url(#SVGID_00000160172102869489257490000010799693163643985289_);}
	.st17{fill:url(#SVGID_00000180334771291427869920000014948324695514423443_);}
	.st18{fill:#D8DEE8;}
	.st19{fill:#F4F7FA;}
	.st20{fill:#26264F;}
	.st21{fill:url(#SVGID_00000093872158447901675450000018188479996917172872_);}
	.st22{fill:url(#SVGID_00000065058887228721817040000005630709264394564778_);}
	.st23{fill:url(#SVGID_00000132785503102330322820000017574585301120021169_);}
	.st24{opacity:0.15;}
	.st25{fill:url(#SVGID_00000023988043258997000850000017961588753089772972_);}
	.st26{opacity:0.3;fill:url(#SVGID_00000181766435646766665770000015726803068170286766_);enable-background:new    ;}
	.st27{opacity:0.3;fill:url(#SVGID_00000052824466437509809630000018096810105323140794_);enable-background:new    ;}
	.st28{opacity:0.4;fill:#F4F7FA;enable-background:new    ;}
	.st29{fill:url(#SVGID_00000088113203023715054670000016648377836723957379_);}
	.st30{fill:url(#SVGID_00000170279281986296402000000004299977998188208831_);}
	.st31{fill:url(#SVGID_00000158723434574994073200000017174126540285883058_);}
	.st32{fill:#FCB048;}
	.st33{fill:url(#SVGID_00000163041462505572629460000017240386585837839020_);}
	.st34{fill:url(#SVGID_00000131361952587945956000000010905039636449467581_);}
	.st35{fill:url(#SVGID_00000067227017124819328560000007486941944024013753_);}
	.st36{fill:url(#SVGID_00000151519712988857448120000014023670489480770232_);}
	.st37{fill:url(#SVGID_00000052092341015831547860000013142486926640241047_);}
	.st38{fill:url(#SVGID_00000016042597137270744160000015053046416227254458_);}
	.st39{fill:url(#SVGID_00000061447290247889205700000002513606280258776213_);}
	.st40{fill:url(#SVGID_00000059272931949171617760000007505020284476861861_);}
	.st41{fill:url(#SVGID_00000124863166192180258360000014099907823566289562_);}
	.st42{fill:url(#SVGID_00000160155903716579099500000018072378873661049995_);}
	.st43{fill:url(#SVGID_00000043452216032664290060000013804666539735838376_);}
	.st44{fill:url(#SVGID_00000151503207937373672440000010788966501694485422_);}
	.st45{fill:url(#SVGID_00000019649529805514103900000014851658518113643658_);}
	.st46{fill:url(#SVGID_00000034785194267119979270000010900060788334782645_);}
	.st47{fill:url(#SVGID_00000111175810679719510540000000987258732337309366_);}
	.st48{fill:url(#SVGID_00000036962614444693717800000011402564917377992084_);}
	.st49{fill:url(#SVGID_00000147219073848103166720000004976232711854375325_);}
	.st50{fill:url(#SVGID_00000054232613387685698800000001936347862578338200_);}
	.st51{fill:url(#SVGID_00000041271227665548115460000012185193090628711584_);}
	.st52{fill:url(#SVGID_00000120537548077760376220000000732095126668450732_);}
	.st53{fill:url(#SVGID_00000000210410379043572090000003718579396006188939_);}
	.st54{fill:url(#SVGID_00000165931725845357609790000012697327083592748688_);}
	.st55{fill:url(#SVGID_00000024696118447850768280000017444485942110202551_);}
	.st56{fill:url(#SVGID_00000050658114745311189860000014556514031226702226_);}
	.st57{fill:url(#SVGID_00000060013763963244936800000002868721084034562221_);}
	.st58{fill:url(#SVGID_00000020359145453694357840000004845671216625986957_);}
	.st59{fill:url(#SVGID_00000134235808748840941160000013437059962891903633_);}
	.st60{fill:url(#SVGID_00000063597773287239605030000012015112634243235227_);}
	.st61{fill:url(#SVGID_00000103976800637347945490000007471974938123464632_);}
	.st62{fill:url(#SVGID_00000058552386949160048880000002160179164164700562_);}
	.st63{fill:url(#SVGID_00000118362531547851708960000006960502213103368084_);}
	.st64{fill:url(#SVGID_00000149344695817100621790000012191025940000613274_);}
	.st65{fill:url(#SVGID_00000130612703277913722120000016678781334297136563_);}
	.st66{fill:url(#SVGID_00000046338568235081122780000008466544918430987141_);}
	.st67{fill:url(#SVGID_00000154407388112789667070000010671147582163555201_);}
	.st68{fill:url(#SVGID_00000134955618409127548240000010535697673885751469_);}
	.st69{opacity:0.3;fill:url(#SVGID_00000121981839949394464050000006029616591097673611_);enable-background:new    ;}
	.st70{fill:url(#SVGID_00000155854250669848710510000016323196830415874728_);}
	.st71{fill:url(#SVGID_00000021817490752181313450000017660537524270622369_);}
	.st72{fill:url(#SVGID_00000092441010590536118780000004830514586884307593_);}
	.st73{fill:url(#SVGID_00000017491005189020909980000014616554703259963304_);}
	.st74{fill:url(#SVGID_00000155839949911588041240000009501615013453271169_);}
	.st75{fill:url(#SVGID_00000015324644952523030220000007443390793202577326_);}
	.st76{fill:url(#SVGID_00000000215149485597480510000003831285252588232881_);}
	.st77{fill:url(#SVGID_00000123421654821872441060000014526489340780997784_);}
	.st78{fill:url(#SVGID_00000160883321927608876150000004515192406140466566_);}
</style>
<g id="Illustration">
	<g>
		<g>
			<g>
				<g>
					<g>
						
							<linearGradient id="SVGID_00000019636293305022982130000010138190464820162452_" gradientUnits="userSpaceOnUse" x1="2349.0876" y1="2960.8013" x2="2903.989" y2="1195.2067" gradientTransform="matrix(1 0 0 -1 0 3710)">
							<stop  offset="0" style="stop-color:#FF9085"/>
							<stop  offset="1" style="stop-color:#FB6FBB"/>
						</linearGradient>
						<path id="SVGID_1_" style="fill:url(#SVGID_00000019636293305022982130000010138190464820162452_);" d="M2669,2812.6
							c-92.3-105.8-212.8-276.1-252.8-504.8c-46-262.6,56-362.1,57.6-664.3c2.3-431.3-286.9-620.7-171.9-800.8
							c56.1-87.9,180.4-140.5,280.2-118.3c284.7,63.3,511.9,767.4,276.8,1179.1c-106.3,186.2-249.3,229.9-301.6,434.8
							C2511.1,2519.3,2595.7,2696.5,2669,2812.6z"/>
					</g>
					<g>
						<defs>
							<path id="SVGID_00000089549127253277155230000004580959098471312807_" d="M2669,2812.6c-92.3-105.8-212.8-276.1-252.8-504.8
								c-46-262.6,56-362.1,57.6-664.3c2.3-431.3-286.9-620.7-171.9-800.8c56.1-87.9,180.4-140.5,280.2-118.3
								c284.7,63.3,511.9,767.4,276.8,1179.1c-106.3,186.2-249.3,229.9-301.6,434.8C2511.1,2519.3,2595.7,2696.5,2669,2812.6z"/>
						</defs>
						<clipPath id="SVGID_00000096020704991394770090000002856493679684695218_">
							<use xlink:href="#SVGID_00000089549127253277155230000004580959098471312807_"  style="overflow:visible;"/>
						</clipPath>
						<g style="clip-path:url(#SVGID_00000096020704991394770090000002856493679684695218_);">
							<path class="st2" d="M2509.4,2514.3c-8.7-57.4-12.6-116-11.4-173.9c2.8-133.2,32.1-218.1,69.1-325.5
								c24.1-69.8,51.4-148.9,76.1-256.3c46.3-200.8,58-269.3,52.2-369.1c-11.6-197.7-86.1-347.7-129.5-419.6
								c-61.6-101.9-141.7-189.8-238.2-261.3l2.3-3.1c96.9,71.7,177.3,160,239.2,262.4c43.6,72.2,118.5,222.9,130.1,421.4
								c5.9,100.3-5.9,169-52.3,370.2c-24.8,107.5-52.1,186.8-76.2,256.7c-36.9,107.1-66.1,191.8-68.9,324.3
								c-1.2,57.7,2.6,116,11.3,173.2L2509.4,2514.3z"/>
							<path class="st2" d="M2678,1254.3l-1.3-2.9c-55.7-125.5-171.2-173.2-258.3-191.1c-94.5-19.4-177-9-177.8-8.8l-0.5-3.8
								c0.8-0.1,83.8-10.7,179,8.9c87.3,17.9,202.9,65.5,259.8,190.4c9.4-12.6,50.8-71.4,74.5-156.6
								c24.6-88.6,34.4-224.7-58.3-370.1l3.2-2.1c93.5,146.7,83.5,284,58.7,373.3c-26.9,96.8-76.6,159.8-77.1,160.4L2678,1254.3z"/>
							<path class="st2" d="M2660.6,1704.9c-1.7,0-2.6,0-2.7,0l-1.6,0l-0.2-1.6c-20-138-86.9-217.6-139.6-260
								c-57.1-46-110.2-59.6-110.7-59.7l0.9-3.7c0.5,0.1,54.3,13.8,112.1,60.3c53.1,42.7,120.5,122.6,140.9,260.9c0.2,0,0.3,0,0.5,0
								c24.1,0,244.4-5.4,350.9-196.3l3.4,1.9c-59.3,106.2-153.1,154.4-221.3,176.2C2728.1,1703.6,2673.1,1704.9,2660.6,1704.9z"/>
							<path class="st2" d="M2643.5,1999.1c-41.3,0-66-8.5-66.3-8.6l-1.3-0.5l0-1.4c1.7-149.5-162.5-323.5-164.2-325.2l2.8-2.7
								c1.7,1.7,165.9,175.8,165.2,326.5c7.5,2.3,47.1,13.1,106.2,5c60.6-8.2,154.7-38.5,259-135.7l2.6,2.8
								c-105.1,98-200.1,128.5-261.3,136.7C2670.6,1998.2,2656.2,1999.1,2643.5,1999.1z"/>
						</g>
					</g>
				</g>
			</g>
			<g>
				<g>
					<g>
						
							<linearGradient id="SVGID_00000096756105492649928780000011961693790908294811_" gradientUnits="userSpaceOnUse" x1="3351.8303" y1="2709.6177" x2="4082.5862" y2="4033.3965" gradientTransform="matrix(1 0 0 -1 0 3710)">
							<stop  offset="3.600000e-03" style="stop-color:#E38DDD"/>
							<stop  offset="1" style="stop-color:#9571F6"/>
						</linearGradient>
						
							<path id="SVGID_00000167392229111640340980000008354505463593133466_" style="fill:url(#SVGID_00000096756105492649928780000011961693790908294811_);" d="
							M2462.4,2672.8c-48.6-76.8-111-202.4-92.5-346.2c32.1-250.8,274.1-274.4,387.5-576.5c91.4-243.6-17.7-356.7,116.2-549.6
							c22.4-32.3,139.1-207.1,286.4-193.9c83,7.5,138.9,71.2,149.4,83.2c158.6,180.9,83.7,600.9-131.9,869.7
							c-123.9,154.4-187.6,148-427.3,368.4C2609.5,2457.5,2517.2,2586.6,2462.4,2672.8z"/>
					</g>
					<g>
						<defs>
							<path id="SVGID_00000018952115009831910920000011296302321230965386_" d="M2462.4,2672.8c-48.6-76.8-111-202.4-92.5-346.2
								c32.1-250.8,274.1-274.4,387.5-576.5c91.4-243.6-17.7-356.7,116.2-549.6c22.4-32.3,139.1-207.1,286.4-193.9
								c83,7.5,138.9,71.2,149.4,83.2c158.6,180.9,83.7,600.9-131.9,869.7c-123.9,154.4-187.6,148-427.3,368.4
								C2609.5,2457.5,2517.2,2586.6,2462.4,2672.8z"/>
						</defs>
						<clipPath id="SVGID_00000174564692830119461820000001967974414925436308_">
							<use xlink:href="#SVGID_00000018952115009831910920000011296302321230965386_"  style="overflow:visible;"/>
						</clipPath>
						<g style="clip-path:url(#SVGID_00000174564692830119461820000001967974414925436308_);">
							<path class="st2" d="M2476.8,2783c-42.4-214.8-20.6-380.4,65-492.3c41.9-54.8,83.7-78.3,128-103.2
								c47.6-26.8,96.7-54.5,147.4-124.5c49.3-68.1,56.7-116.7,66.1-178.2c8.5-55.4,19-124.4,63.8-229.3
								c39.3-91.9,74.9-142.2,106.3-186.6c34-48,60.9-86,79.7-159.1c30.7-119.3,17.7-250.3-38.5-389.1l3.6-1.4
								c56.6,139.6,69.6,271.4,38.7,391.5c-19,73.7-46,111.9-80.2,160.3c-31.3,44.2-66.8,94.4-105.9,185.9
								c-44.6,104.4-55.1,173.1-63.5,228.3c-9.5,62.1-17,111.1-66.8,179.9c-51.2,70.7-100.8,98.6-148.7,125.6
								c-43.9,24.7-85.4,48.1-126.8,102.2c-84.8,110.9-106.4,275.5-64.2,489.2L2476.8,2783z"/>
							<path class="st2" d="M3039.6,1492l-0.2-2.6c-0.3-3.1-27.5-314.4-176.2-384.8l1.7-3.5c143.4,68,175.2,355.1,178.1,385.4
								c151.6-59.5,239-163.4,285.8-240.3c50.9-83.7,65.8-154.3,65.9-155l3.8,0.8c-0.1,0.7-15.2,71.9-66.4,156.2
								c-47.3,77.8-136,183.1-290,242.8L3039.6,1492z"/>
							<path class="st2" d="M2910.5,1769.9c-0.9,0-1.4,0-1.5,0l-1.7,0l-0.2-1.6c-10.9-83.3-49.2-173.9-79.4-235.3
								c-32.7-66.6-63.2-114-63.5-114.4l3.2-2.1c0.3,0.5,30.9,48.1,63.7,114.8c30.1,61.2,68.2,151.5,79.5,234.9
								c12.3,0,91.6-1.4,191.9-32.9c100.3-31.5,242.7-100.4,351.8-249.8l3.1,2.3c-109.7,150.3-253,219.6-353.9,251.3
								C3002.3,1768.6,2922.3,1769.9,2910.5,1769.9z"/>
							<path class="st2" d="M2823.8,2175.6c-69.3,0-110.3-9.4-111.2-9.6l-2-0.5l0.6-1.9c52.4-178.1-82.3-378.9-83.7-380.9l3.2-2.2
								c1.4,2,136.1,202.8,84.8,382.1c22.1,4.6,225.6,41.7,489.7-76.8l1.6,3.5C3049.2,2160.1,2913.1,2175.6,2823.8,2175.6z"/>
						</g>
					</g>
				</g>
			</g>
			<g>
				
					<linearGradient id="SVGID_00000165202339959756474850000009831772588034329497_" gradientUnits="userSpaceOnUse" x1="-84.9649" y1="2889.0349" x2="-1396.498" y2="1811.7028" gradientTransform="matrix(0.9975 -6.900000e-02 -6.900000e-02 -0.9975 3603.1316 4735.188)">
					<stop  offset="0" style="stop-color:#AA80F9"/>
					<stop  offset="0.9964" style="stop-color:#6165D7"/>
				</linearGradient>
				<path style="fill:url(#SVGID_00000165202339959756474850000009831772588034329497_);" d="M2429.9,2603.8
					c32-52.4,86.9-132,172.8-210.6c152.8-139.8,251.2-137.1,295.1-245.3c45.5-112-38.3-167.9,18.8-295.7
					c4.8-10.7,67.2-145.5,173.3-150c74.2-3.2,130,59.1,156.2,88.3c101.5,113.4,160.6,326.6,61.3,486.1
					c-94.2,151.2-283,178-343.1,186.2c-105.5,14.3-143.5-13.1-249.5,4.2C2585.9,2488.2,2489.7,2553.6,2429.9,2603.8z"/>
			</g>
		</g>
		<g>
			<g>
				<g>
					<g>
						
							<linearGradient id="SVGID_00000126283440764732063570000003425255224651605641_" gradientUnits="userSpaceOnUse" x1="5419.8501" y1="-8295.9102" x2="6687.0669" y2="-11047.9521" gradientTransform="matrix(1 0 0 -1 0 3710)">
							<stop  offset="3.600000e-03" style="stop-color:#E38DDD"/>
							<stop  offset="1" style="stop-color:#9571F6"/>
						</linearGradient>
						
							<path id="SVGID_00000050622724509493424380000014942530235363335297_" style="fill:url(#SVGID_00000126283440764732063570000003425255224651605641_);" d="
							M1340.8,2992c48.6-76.8,111-202.4,92.5-346.2c-32.1-250.8-274.1-274.4-387.5-576.5c-91.4-243.6,17.7-356.7-116.2-549.6
							c-22.4-32.3-139.1-207.1-286.4-193.9c-83,7.5-138.9,71.2-149.4,83.2c-158.6,180.9-83.7,600.9,131.9,869.7
							c123.9,154.4,187.6,148,427.3,368.4C1193.7,2776.7,1286,2905.8,1340.8,2992z"/>
					</g>
					<g>
						<defs>
							<path id="SVGID_00000147192490914483621210000009905591755602667444_" d="M1340.8,2992c48.6-76.8,111-202.4,92.5-346.2
								c-32.1-250.8-274.1-274.4-387.5-576.5c-91.4-243.6,17.7-356.7-116.2-549.6c-22.4-32.3-139.1-207.1-286.4-193.9
								c-83,7.5-138.9,71.2-149.4,83.2c-158.6,180.9-83.7,600.9,131.9,869.7c123.9,154.4,187.6,148,427.3,368.4
								C1193.7,2776.7,1286,2905.8,1340.8,2992z"/>
						</defs>
						<clipPath id="SVGID_00000055706191134207521140000000247529323103879559_">
							<use xlink:href="#SVGID_00000147192490914483621210000009905591755602667444_"  style="overflow:visible;"/>
						</clipPath>
						<g style="clip-path:url(#SVGID_00000055706191134207521140000000247529323103879559_);">
							<path class="st2" d="M1326.4,3102.2l-3.8-0.7c42.2-213.7,20.6-378.3-64.2-489.2c-41.4-54.1-82.9-77.5-126.8-102.2
								c-47.9-27-97.5-54.9-148.7-125.6c-49.8-68.8-57.3-117.8-66.8-179.9c-8.4-55.2-18.9-123.9-63.5-228.3
								c-39.1-91.5-74.6-141.7-105.9-185.9c-34.2-48.4-61.3-86.6-80.2-160.3c-30.9-120.2-17.9-251.9,38.7-391.5l3.6,1.4
								c-56.2,138.8-69.2,269.8-38.5,389.1c18.8,73.1,45.6,111,79.7,159.1c31.4,44.4,67,94.7,106.3,186.6
								c44.8,104.9,55.3,173.8,63.8,229.3c9.4,61.6,16.8,110.2,66.1,178.2c50.7,70,99.9,97.7,147.4,124.5
								c44.3,24.9,86.1,48.5,128,103.2C1347,2721.7,1368.8,2887.4,1326.4,3102.2z"/>
							<path class="st2" d="M763.6,1811.2l-2.4-0.9c-154-59.7-242.7-165-290-242.8c-51.2-84.3-66.3-155.5-66.4-156.2l3.8-0.8
								c0.1,0.7,15.1,71.4,66,155.1c46.7,76.8,134.2,180.7,285.7,240.1c3-30.3,34.8-317.5,178.1-385.4l1.7,3.5
								c-148.7,70.5-175.9,381.7-176.2,384.8L763.6,1811.2z"/>
							<path class="st2" d="M892.7,2089.1c-11.8,0-91.8-1.3-193.1-33.1c-100.9-31.7-244.1-101-353.9-251.3l3.1-2.3
								C458,1952,600.4,2020.9,700.8,2052.4c100.3,31.5,179.5,32.9,191.8,32.9c11.3-83.3,49.4-173.6,79.5-234.9
								c32.8-66.8,63.4-114.4,63.7-114.8l3.2,2.1c-0.3,0.5-30.8,47.9-63.5,114.5c-30.2,61.4-68.4,152-79.4,235.3l-0.2,1.6l-1.7,0
								C894.2,2089.1,893.7,2089.1,892.7,2089.1z"/>
							<path class="st2" d="M979.4,2494.8c-89.3,0-225.4-15.5-382.9-86.2l1.6-3.5c264,118.5,467.5,81.4,489.7,76.8
								c-51.3-179.4,83.4-380.1,84.8-382.1l3.2,2.2c-1.4,2-136.1,202.8-83.7,380.9l0.6,1.9l-2,0.5
								C1089.7,2485.5,1048.6,2494.8,979.4,2494.8z"/>
						</g>
					</g>
				</g>
			</g>
			<g>
				
					<linearGradient id="SVGID_00000097501374419869532530000014595671618503566978_" gradientUnits="userSpaceOnUse" x1="4205.875" y1="2272.2002" x2="2894.3418" y2="1194.8679" gradientTransform="matrix(-0.9975 -6.900000e-02 6.900000e-02 -0.9975 4522.7441 4735.188)">
					<stop  offset="0" style="stop-color:#FF9085"/>
					<stop  offset="1" style="stop-color:#FB6FBB"/>
				</linearGradient>
				<path style="fill:url(#SVGID_00000097501374419869532530000014595671618503566978_);" d="M1373.3,2923.1
					c-32-52.4-86.9-132-172.8-210.6c-152.8-139.8-251.2-137.1-295.1-245.3c-45.5-112,38.3-167.9-18.8-295.7
					c-4.8-10.7-67.2-145.5-173.3-150c-74.2-3.2-130,59.1-156.2,88.3c-101.5,113.4-160.6,326.6-61.3,486.1
					c94.2,151.2,283,178,343.1,186.2c105.5,14.3,143.5-13.1,249.5,4.2C1217.3,2807.4,1313.5,2872.8,1373.3,2923.1z"/>
			</g>
		</g>
		<g>
			
				<linearGradient id="SVGID_00000074438944918168319630000004507292635196819598_" gradientUnits="userSpaceOnUse" x1="810.8247" y1="2898.5684" x2="1593.776" y2="2932.6099" gradientTransform="matrix(1 0 0 -1 0 3710)">
				<stop  offset="0" style="stop-color:#AB316D"/>
				<stop  offset="1" style="stop-color:#792D3D"/>
			</linearGradient>
			<path style="fill:url(#SVGID_00000074438944918168319630000004507292635196819598_);" d="M2130,1204.6c-0.7,0.1-1.4,0.1-2.1,0.1
				c-11.3,0-21-9.2-22.1-21.6c-19.4-218.9-85.9-426.8-187.1-585.5C1829.1,456.9,1722.3,373,1633.2,373c-0.1,0-0.2,0-0.3,0
				c-324.9,0.7-392.8,801.8-393.5,809.9c-1.1,13.1-11.7,22.8-24,21.7c-12.2-1.1-21.2-12.7-20.2-25.8
				c2.8-34.8,72.3-852.7,437.6-853.4c0.1,0,0.3,0,0.4,0c105.4,0,222.8,89.4,322.2,245.3c105.4,165.3,174.5,381.2,194.6,607.9
				C2151.1,1191.7,2142.2,1203.3,2130,1204.6z"/>
			
				<linearGradient id="SVGID_00000038415600768025236030000011822612241730610073_" gradientUnits="userSpaceOnUse" x1="728.9841" y1="1623.5455" x2="1461.257" y2="1623.5455" gradientTransform="matrix(1 0 0 -1 0 3710)">
				<stop  offset="0" style="stop-color:#FFC444"/>
				<stop  offset="0.9964" style="stop-color:#F36F56"/>
			</linearGradient>
			<path style="fill:url(#SVGID_00000038415600768025236030000011822612241730610073_);" d="M774.5,2853.4l427.6,232.5l259.1-854
				L1034.3,1087l-121.1,31.9L729.6,2763.2C725.4,2800.4,743.4,2836.4,774.5,2853.4z"/>
			
				<linearGradient id="SVGID_00000170986126502266811850000013397962723573332373_" gradientUnits="userSpaceOnUse" x1="926.6778" y1="1623.5466" x2="1461.257" y2="1623.5466" gradientTransform="matrix(1 0 0 -1 0 3710)">
				<stop  offset="0" style="stop-color:#FFC444"/>
				<stop  offset="0.9964" style="stop-color:#F36F56"/>
			</linearGradient>
			<path style="opacity:0.3;fill:url(#SVGID_00000170986126502266811850000013397962723573332373_);enable-background:new    ;" d="
				M1461.3,2231.9L1034.3,1087l-71.4,18.8c-9.9,152.9-5.6,278.7,1.2,370.3c28.6,389.8,123.7,498.3,77.6,770.2
				c-38.3,226.1-121.9,256.8-114.6,408.9c8,165.7,115.6,304.4,243.5,413.5l31.6,17.2L1461.3,2231.9z"/>
			
				<linearGradient id="SVGID_00000070821287184734614610000003101242140519551888_" gradientUnits="userSpaceOnUse" x1="1823.9415" y1="1747.3601" x2="3102.7156" y2="-407.1805" gradientTransform="matrix(1 0 0 -1 0 3710)">
				<stop  offset="0" style="stop-color:#FFC444"/>
				<stop  offset="0.9964" style="stop-color:#F36F56"/>
			</linearGradient>
			<polygon style="fill:url(#SVGID_00000070821287184734614610000003101242140519551888_);" points="1034.3,1087 2644.7,1174.7 
				3156.5,2916.8 1202.2,3085.9 			"/>
			<g class="st13">
				
					<linearGradient id="SVGID_00000151525910940334977320000011690019530642199185_" gradientUnits="userSpaceOnUse" x1="1820.2157" y1="1938.5723" x2="2855.4512" y2="-492.6646" gradientTransform="matrix(1 0 0 -1 0 3710)">
					<stop  offset="0" style="stop-color:#FFC444"/>
					<stop  offset="0.9964" style="stop-color:#F36F56"/>
				</linearGradient>
				<path style="fill:url(#SVGID_00000151525910940334977320000011690019530642199185_);" d="M2644.7,1174.7l-839.8-45.7
					c-14.2,22.3-32.9,58.6-36.4,104.9c-20.7,273.9,544.5,362.6,595.1,698.8c38.5,256-198.7,551.3-410.3,682.9
					c-223,138.6-374.1,68.4-524.9,222.3c-66.3,67.6-106.6,152.2-130.6,239.8l1858.7-160.9L2644.7,1174.7z"/>
			</g>
			
				<linearGradient id="SVGID_00000101782151690638446420000010175066660844884365_" gradientUnits="userSpaceOnUse" x1="2011.1957" y1="3608.1675" x2="1670.7969" y2="702.6136" gradientTransform="matrix(1 0 0 -1 0 3710)">
				<stop  offset="0" style="stop-color:#AB316D"/>
				<stop  offset="1" style="stop-color:#792D3D"/>
			</linearGradient>
			<path style="fill:url(#SVGID_00000101782151690638446420000010175066660844884365_);" d="M1528.3,1243.8
				c-10.1,0-19.2-7.4-21.6-18.4c-4.5-20.7-109.3-511,38.4-751.7c42.3-69,101.5-111.1,175.8-125.1
				c381.8-72.3,616.9,808.6,626.8,846.2c3.3,12.7-3.6,25.8-15.4,29.4c-11.8,3.6-24-3.8-27.4-16.5c-2.3-8.8-233.7-877.1-576.4-812.1
				c-62.7,11.9-110.6,46-146.5,104.5c-137.3,223.7-33.3,709.7-32.3,714.6c2.8,12.8-4.6,25.6-16.5,28.6
				C1531.7,1243.6,1529.9,1243.8,1528.3,1243.8z"/>
			
				<linearGradient id="SVGID_00000068649342610959318400000014576118048232834195_" gradientUnits="userSpaceOnUse" x1="2190.3743" y1="3721.8896" x2="1205.4812" y2="1848.194" gradientTransform="matrix(1 0 0 -1 0 3710)">
				<stop  offset="0" style="stop-color:#AB316D"/>
				<stop  offset="1" style="stop-color:#792D3D"/>
			</linearGradient>
			
				<ellipse style="fill:url(#SVGID_00000068649342610959318400000014576118048232834195_);" cx="1528.4" cy="1247.4" rx="62" ry="66.6"/>
			
				<linearGradient id="SVGID_00000031198308457166310990000005253560317082819729_" gradientUnits="userSpaceOnUse" x1="2810.9629" y1="3370.9102" x2="1826.074" y2="1497.222" gradientTransform="matrix(1 0 0 -1 0 3710)">
				<stop  offset="0" style="stop-color:#AB316D"/>
				<stop  offset="1" style="stop-color:#792D3D"/>
			</linearGradient>
			
				<ellipse style="fill:url(#SVGID_00000031198308457166310990000005253560317082819729_);" cx="2336.8" cy="1241.2" rx="62" ry="66.6"/>
			<path class="st18" d="M2768,2012.9l-500-487.5c-10.5-10.3-25.6-13.2-38.8-7.4l-266.8,116.5c-22.5,9.8-30.2,39.8-15.7,60.7
				l435.5,623.5c12,17.2,34.7,21,51,8.6l331.3-252.4C2783.8,2060.1,2785.5,2030,2768,2012.9z M2196.2,1696.8
				c-16.8,12.2-43.4,1.4-59.3-24c-15.9-25.4-15.1-55.9,1.7-68c16.8-12.2,43.4-1.4,59.3,24
				C2213.9,1654.2,2213.1,1684.6,2196.2,1696.8z"/>
			<path class="st19" d="M2768,2006.3l-500-487.5c-10.5-10.3-25.6-13.2-38.8-7.4l-266.8,116.5c-22.5,9.8-30.2,39.8-15.7,60.7
				l435.5,623.5c12,17.2,34.7,21,51,8.6l331.3-252.4C2783.8,2053.5,2785.5,2023.4,2768,2006.3z M2196.2,1690.2
				c-16.8,12.2-43.4,1.4-59.3-24c-15.9-25.4-15.1-55.9,1.7-68c16.8-12.2,43.4-1.4,59.3,24C2213.9,1647.5,2213.1,1678,2196.2,1690.2z
				"/>
			<g>
				<path class="st20" d="M2092.3,1570.4c-1.6,0-3.1-0.9-3.8-2.5c-17.3-40.8-40.7-76.1-69.4-104.8
					c-78.8-78.7-180.5-91.1-278.9-103.1c-97.9-11.9-190.4-23.2-245.6-101.1c-14-19.7-35.7-55.4-24.1-72.5c4.7-6.9,14-10,27.7-9.4
					c2.3,0.1,4,2,3.9,4.3c-0.1,2.3-2,4-4.3,3.9c-7.3-0.3-16.9,0.4-20.5,5.8c-6.2,9.1,3.2,33.9,24,63.2c53.1,75,143.9,86,239.9,97.7
					c99.8,12.1,202.9,24.7,283.7,105.4c29.5,29.5,53.5,65.6,71.2,107.4c0.9,2.1-0.1,4.5-2.2,5.4
					C2093.4,1570.3,2092.9,1570.4,2092.3,1570.4z"/>
			</g>
			<g>
				<path class="st20" d="M2135,1652.9c-1.1,0-2.1-0.4-2.9-1.2c-1.6-1.6-1.6-4.2,0-5.8c0.3-0.3,34.6-35,34.4-81.2
					c-0.1-28.4-13-55.4-38.4-80.3c-53.8-52.8-196.5-114-322.4-168c-76.9-32.9-149.4-64.1-197.1-90.9c-10.8-6.1-22.2-11.9-34-17.2
					c-2.1-0.9-3-3.4-2-5.4c0.9-2.1,3.4-3,5.4-2c12,5.4,23.6,11.3,34.6,17.5c47.3,26.6,119.7,57.6,196.3,90.5
					c126.6,54.3,270,115.8,324.9,169.7c27,26.5,40.8,55.5,40.8,86.2c0.1,49.7-35.3,85.5-36.8,87
					C2137.1,1652.5,2136.1,1652.9,2135,1652.9z"/>
			</g>
			<path class="st2" d="M2768,2006.3l-500-487.5c-10.5-10.3-25.6-13.2-38.8-7.4l-23.8,10.4c6.2,22.7,15.5,48.2,29.7,74.2
				c73.9,135.4,195,129.6,223,223.6c24.8,83.3-58.4,128-69.4,244.9c-5.5,58.4,7,136.1,74,233.7l301.7-229.9
				C2783.8,2053.5,2785.5,2023.4,2768,2006.3z"/>
			<g>
				<path class="st18" d="M2319.3,1840.3c27.4,45.3,21.7,82.9-0.1,98.1c-23,16-56,4-80.6-36.6c-23.4-38.6-24.6-79.4,1.2-97.4
					C2265.8,1786.3,2297,1803.4,2319.3,1840.3z M2264.1,1882.2c13.7,22.6,28.9,35.2,39.1,28.1c10-7,6-25-8.7-49.3
					c-13.3-22-27.7-36-38.7-28.4C2245.4,1839.8,2251,1860.5,2264.1,1882.2z M2375.9,2027.7l-48.7-284.2l19-13.3l48.5,284.4
					L2375.9,2027.7z M2482.3,1854.5c27.4,45.3,21.7,82.9-0.1,98.1c-22.7,15.9-55.8,3.9-80.6-36.6c-23.4-38.6-24.6-79.4,1.2-97.4
					C2428.9,1800.4,2460,1817.5,2482.3,1854.5z M2427.3,1896.2c13.5,22.8,28.7,35.4,38.9,28.3c10-7,6-25-8.7-49.3
					c-13.3-22-27.5-36.2-38.4-28.6C2408.4,1854,2414.3,1874.5,2427.3,1896.2z"/>
			</g>
			<path class="st18" d="M2386.3,2184.9c-6.7,0-13.2-3.6-17-10.2c-5.7-10-2.7-23.1,6.7-29.2l240.8-157c9.4-6.1,21.6-2.9,27.2,7.2
				c5.7,10.1,2.7,23.1-6.7,29.3l-240.8,157C2393.4,2183.9,2389.8,2184.9,2386.3,2184.9z"/>
		</g>
		<g>
			<g>
				
					<linearGradient id="SVGID_00000047768243719306180360000004515473811714404237_" gradientUnits="userSpaceOnUse" x1="403.35" y1="1134.1499" x2="627.8201" y2="1098.0745" gradientTransform="matrix(1 0 0 -1 0 3710)">
					<stop  offset="0" style="stop-color:#AA80F9"/>
					<stop  offset="0.9964" style="stop-color:#6165D7"/>
				</linearGradient>
				<path style="fill:url(#SVGID_00000047768243719306180360000004515473811714404237_);" d="M2068.6,3092.3
					c0,21.9-15.5,40.7-34.6,41.8l-1341.8,82c-25.4,1.5-54.1-20-54.1-45.4v-939.1c0-25.4,29.4-46.8,54.8-45.7l1341.1,57.4
					c19,0.8,34.6,19.3,34.6,41.2V3092.3z"/>
				
					<linearGradient id="SVGID_00000183937018523827262780000003351629466688139428_" gradientUnits="userSpaceOnUse" x1="1243.2388" y1="1139.8402" x2="2173.188" y2="29.5134" gradientTransform="matrix(1 0 0 -1 0 3710)">
					<stop  offset="0" style="stop-color:#AA80F9"/>
					<stop  offset="0.9964" style="stop-color:#6165D7"/>
				</linearGradient>
				<path style="fill:url(#SVGID_00000183937018523827262780000003351629466688139428_);" d="M2093.4,3093.8c0,22-15.6,40.9-34.7,42
					l-1356.2,80.4c-25.5,1.5-46.5-18.1-46.5-43.7V2229c0-25.5,21-45.6,46.5-44.5l1356.2,56.2c19.1,0.8,34.7,19.4,34.7,41.4V3093.8z"
					/>
				<g>
					
						<linearGradient id="SVGID_00000125568489793910123630000008655889153689775038_" gradientUnits="userSpaceOnUse" x1="1006.516" y1="830.3779" x2="2225.0698" y2="445.5708" gradientTransform="matrix(1 0 0 -1 0 3710)">
						<stop  offset="0" style="stop-color:#444B8C"/>
						<stop  offset="0.9964" style="stop-color:#26264F"/>
					</linearGradient>
					<polygon style="fill:url(#SVGID_00000125568489793910123630000008655889153689775038_);" points="2093.4,2872.6 656,2946.4 
						656,3119.2 2093.4,3034.8 					"/>
				</g>
				<g>
					<g class="st24">
						
							<linearGradient id="SVGID_00000024002708878572054320000016517351171276515982_" gradientUnits="userSpaceOnUse" x1="801.8162" y1="1092.2599" x2="1419.0681" y2="1092.2599" gradientTransform="matrix(0.9999 1.510000e-02 1.510000e-02 -0.9999 -28.0369 3683.3447)">
							<stop  offset="0" style="stop-color:#FF9085"/>
							<stop  offset="1" style="stop-color:#FB6FBB"/>
						</linearGradient>
						<path style="fill:url(#SVGID_00000024002708878572054320000016517351171276515982_);" d="M1080.2,2496.5
							c-1.6,107.2-68.7,163-143.4,162.7c-81.4-0.3-146.6-62.7-145-165.1c1.5-97.4,62.8-166.8,154-160
							C1034.3,2340.7,1081.6,2409,1080.2,2496.5z M887.1,2494.4c-0.8,55.9,17.5,96.6,53.2,97.3c34.4,0.6,51.6-34.4,52.5-93.1
							c0.8-53.1-12.8-94.9-50.4-97.2C905.8,2399.2,887.9,2441,887.1,2494.4z M962.6,2839.2l259.1-469.2c5-9,14.7-14.2,24.9-13.5l0,0
							c19,1.4,30.2,22,21.1,38.7l-256.3,469c-4.4,8.1-12.7,13.2-21.9,13.6l-2.9,0.1C966.2,2879,952.7,2857.1,962.6,2839.2z
							 M1406,2707c-1.5,99.3-59.1,153.7-123,156.5c-68.7,3-124.1-51.8-123.4-146.2c1.4-89.8,53.7-156.5,131.4-154.4
							C1366.7,2564.9,1407.2,2625.9,1406,2707z M1241.4,2713.5c-1.5,51.7,14.1,88.4,44.6,87.5c29.4-0.9,44.1-34,45-88.3
							c0.7-49.1-10.2-87.1-42.3-87.5C1256.8,2624.8,1242.1,2664.1,1241.4,2713.5z"/>
					</g>
					<g>
						<path class="st2" d="M1092.7,2491.5c-1.6,107.2-68.7,163-143.4,162.7c-81.4-0.3-146.6-62.7-145-165.1
							c1.5-97.4,62.8-166.8,154-160C1046.8,2335.7,1094.1,2404,1092.7,2491.5z M899.6,2489.4c-0.8,55.9,17.5,96.6,53.2,97.3
							c34.4,0.6,51.6-34.4,52.5-93.1c0.8-53.1-12.8-94.9-50.4-97.2C918.3,2394.2,900.4,2436,899.6,2489.4z M975.1,2834.2
							l259.1-469.2c5-9,14.7-14.2,24.9-13.5l0,0c19,1.4,30.2,22,21.1,38.7l-256.3,469c-4.4,8.1-12.7,13.2-21.9,13.6l-2.9,0.1
							C978.8,2874,965.2,2852.1,975.1,2834.2z M1418.5,2702c-1.5,99.3-59.1,153.7-123,156.5c-68.7,3-124.1-51.8-123.4-146.2
							c1.4-89.8,53.7-156.5,131.4-154.4C1379.2,2559.9,1419.7,2620.9,1418.5,2702z M1253.9,2708.5c-1.5,51.7,14.1,88.4,44.6,87.5
							c29.4-0.9,44.1-34,45-88.3c0.7-49.1-10.2-87.1-42.3-87.5C1269.3,2619.8,1254.6,2659.1,1253.9,2708.5z"/>
					</g>
				</g>
				
					<linearGradient id="SVGID_00000090296381319001367020000000095254319801486769_" gradientUnits="userSpaceOnUse" x1="1210.9788" y1="1679.3248" x2="2140.9282" y2="568.9975" gradientTransform="matrix(1 0 0 -1 0 3710)">
					<stop  offset="0" style="stop-color:#AA80F9"/>
					<stop  offset="0.9964" style="stop-color:#6165D7"/>
				</linearGradient>
				
					<path style="opacity:0.3;fill:url(#SVGID_00000090296381319001367020000000095254319801486769_);enable-background:new    ;" d="
					M2058.7,2240.7l-1340.5-55.6c60.5,179.2,147.2,259.4,221.6,298.7c141.7,74.8,243.3,3.4,364.8,100.2
					c124.6,99.4,77.2,222,208.4,304.6c98.7,62.1,162.2,16,264.6,72.2c75.8,41.6,123.1,112,153.4,182.6l127.8-7.6
					c19.1-1.1,34.7-20,34.7-42v-811.7C2093.4,2260.1,2077.8,2241.5,2058.7,2240.7z"/>
				
					<linearGradient id="SVGID_00000098217187925759288340000013620685471610022299_" gradientUnits="userSpaceOnUse" x1="1487.1582" y1="805.808" x2="2093.437" y2="805.808" gradientTransform="matrix(1 0 0 -1 0 3710)">
					<stop  offset="0" style="stop-color:#AA80F9"/>
					<stop  offset="0.9964" style="stop-color:#6165D7"/>
				</linearGradient>
				
					<path style="opacity:0.3;fill:url(#SVGID_00000098217187925759288340000013620685471610022299_);enable-background:new    ;" d="
					M2074.6,2670.1l-32.7-31l-31,32.7l-32.7-31l-31,32.7l-32.7-31l-31,32.7l-32.7-31l-31,32.7l-32.7-31l-31,32.7l-32.7-31l-31,32.7
					l-32.7-31l-31,32.7l-32.7-31l-31,32.7l-41.8-39.7c0,15.8,0,490,0,490s-1.7,28.1-35.6,35.4l578.5-42.4c6.6-0.5,12.8-2.3,18.3-5.2
					c5.8-7.5,9.4-17.3,9.4-27.8v-443.6L2074.6,2670.1z"/>
			</g>
			<g>
				<path class="st2" d="M2167.6,2653.9v446.3c0,24.9-19.8,45.6-44.7,47.4l-183.4,13.4l-396.4,29c33.9-7.4,34.7-35.4,34.7-35.4
					s0-474.1,0-490l42.6,39.7l22.3-23.1l9.3-9.6l32.8,31l31.1-32.7l32.7,31l31-32.7l32.7,31l31-32.7l32.7,31l31-32.7l32.7,31
					l31.1-32.7l32.7,31l31-32.7l32.7,31.1l31-32.7l33.3,31.1L2167.6,2653.9z"/>
				<g>
					<path class="st18" d="M2100.8,2913.1l-71.5,3.2c-4.8,0.2-8.6,4.2-8.6,9v32.8c0,5.2,4.3,9.3,9.5,9l71.5-4c4.8-0.3,8.5-4.2,8.5-9
						v-32C2110.2,2917,2105.9,2912.9,2100.8,2913.1z"/>
					<path class="st18" d="M2100.7,2976.6l-71.5,4c-4.8,0.3-8.5,4.2-8.5,9v34.3c0,5.2,4.4,9.3,9.6,9l71.5-4.6c4.7-0.3,8.4-4.2,8.4-9
						v-33.8C2110.2,2980.4,2105.8,2976.3,2100.7,2976.6z"/>
					<path class="st18" d="M2110.2,2822.1v-58.8c0-5.1-4.2-9.2-9.3-9l-71.5,2.6c-4.8,0.2-8.7,4.2-8.7,9v59.4c0,5.1,4.3,9.2,9.4,9
						l71.5-3.2C2106.4,2830.9,2110.2,2826.9,2110.2,2822.1z"/>
				</g>
				<g>
					<path class="st18" d="M1952.1,2919.8l-291.3,13.1c-4.8,0.2-8.6,4.2-8.6,9v37c0,5.2,4.3,9.3,9.5,9l291.3-16.4
						c4.8-0.3,8.5-4.2,8.5-9v-33.7C1961.5,2923.7,1957.3,2919.6,1952.1,2919.8z"/>
					<path class="st18" d="M1952,2984.9l-291.3,16.4c-4.8,0.3-8.5,4.2-8.5,9v37c0,5.2,4.4,9.3,9.6,9l291.3-18.6
						c4.7-0.3,8.4-4.2,8.4-9v-34.9C1961.5,2988.8,1957.2,2984.7,1952,2984.9z"/>
					<path class="st18" d="M1961.5,2828.8v-60.1c0-5.1-4.2-9.2-9.3-9l-291.3,10.5c-4.8,0.2-8.7,4.2-8.7,9v62.8c0,5.1,4.3,9.2,9.4,9
						l291.3-13.1C1957.8,2837.6,1961.5,2833.6,1961.5,2828.8z"/>
				</g>
				<path class="st28" d="M1939.1,3161.1l-396.2,29c33.9-7.4,34.8-35.4,34.8-35.4s0-474.1,0-490l42.6,39.7l22.3-23.1
					c18.6,16.8,33.6,43.9,37.7,86.8c13.9,142.7,80.7,133.3,159.6,138.7c78.9,5.4,115.3,96.7,83.3,167.3
					C1909.1,3105.6,1914.9,3137.4,1939.1,3161.1z"/>
			</g>
		</g>
		<g>
			<g>
				
					<linearGradient id="SVGID_00000147208915941945769940000015942658961819409843_" gradientUnits="userSpaceOnUse" x1="574.2639" y1="485.776" x2="1181.1758" y2="485.776" gradientTransform="matrix(1 0 0 -1 0 3710)">
					<stop  offset="0" style="stop-color:#FCB148"/>
					<stop  offset="5.210000e-02" style="stop-color:#FDBA46"/>
					<stop  offset="0.1424" style="stop-color:#FFC244"/>
					<stop  offset="0.3183" style="stop-color:#FFC444"/>
					<stop  offset="0.4849" style="stop-color:#FDB946"/>
					<stop  offset="0.7754" style="stop-color:#F99C4D"/>
					<stop  offset="0.8658" style="stop-color:#F8924F"/>
					<stop  offset="1" style="stop-color:#F8924F"/>
				</linearGradient>
				<path style="fill:url(#SVGID_00000147208915941945769940000015942658961819409843_);" d="M619.4,3177.9v58.5
					c0,18.9,118.1,34.2,263.8,34.2s263.8-15.3,263.8-34.2v-58.5H619.4z"/>
				
					<linearGradient id="SVGID_00000011006181007650271540000007029645835428860806_" gradientUnits="userSpaceOnUse" x1="880.5096" y1="554.1418" x2="912.5053" y2="286.2907" gradientTransform="matrix(1 0 0 -1 0 3710)">
					<stop  offset="0" style="stop-color:#FFDB44"/>
					<stop  offset="1" style="stop-color:#FEEF06"/>
				</linearGradient>
				<path style="fill:url(#SVGID_00000011006181007650271540000007029645835428860806_);" d="M1146.9,3177.9
					c0,18.9-118.1,34.2-263.8,34.2s-263.8-15.3-263.8-34.2c0-18.9,118.1-34.2,263.8-34.2S1146.9,3159,1146.9,3177.9z"/>
				
					<linearGradient id="SVGID_00000012459601999670741700000017166925423484183464_" gradientUnits="userSpaceOnUse" x1="879.1174" y1="566.0865" x2="888.9438" y2="483.8252" gradientTransform="matrix(1 0 0 -1 0 3710)">
					<stop  offset="0" style="stop-color:#FFDB44"/>
					<stop  offset="1" style="stop-color:#FEEF06"/>
				</linearGradient>
				<path style="fill:url(#SVGID_00000012459601999670741700000017166925423484183464_);" d="M883.1,3214.4
					c-129,0-263.9-12.3-263.9-36.1c0-1.3,0.5-3.6,1.8-3.6c1.3,0,0.7,1.8,0.7,3.1c0,15.1,107.4,31.9,261.4,31.9
					c154.1,0,261.4-16.8,261.4-31.9c0-1.3,0.2-2.5,1.5-2.5c1.3,0,1,1.7,1,3C1147.1,3202.1,1012.2,3214.4,883.1,3214.4z"/>
				<g>
					<path class="st32" d="M858.2,3179.8c2.6-1.8,5.3-3.6,8.3-5.3c2.9-1.7,6.7-3.3,11.3-4.7c4.6-1.4,10.4-2.6,17.4-3.4
						c7-0.9,15.7-1.4,26-1.4c10.2-0.1,19.8,0.3,28.7,1c8.9,0.7,16.8,1.7,23.6,3.1c6.8,1.4,12.3,3.1,16.6,5.1c4.2,2,6.8,4.4,7.6,7
						l29.7,0.3c2.2,0,4.1,0.2,5.7,0.5c1.7,0.3,2.5,0.8,2.5,1.3l0,2.4l-38.2-0.4c-1.3,3-4.8,5.7-10.2,8.2c-5.5,2.5-12.4,4.6-20.9,6.5
						l-13.9-1.9c-1.2-0.2-2.3-0.4-3.1-0.7c-0.8-0.3-1.2-0.6-1.2-1c0-0.5,1.1-1,3.2-1.6c2.2-0.6,4.6-1.4,7.3-2.2
						c2.7-0.9,5.4-1.9,8-3.2c2.6-1.2,4.3-2.7,5.2-4.3l-90.1-0.9c-2.4,1.7-5,3.5-8,5.1c-2.9,1.7-6.8,3.2-11.7,4.5
						c-4.9,1.3-10.9,2.4-18.1,3.3c-7.3,0.8-16.3,1.3-27.3,1.3c-8.3,0-16.3-0.3-24.2-0.9c-7.9-0.7-14.9-1.7-21-3
						c-6.1-1.3-11.1-3-15.1-4.9c-3.9-2-6.1-4.2-6.6-6.8l-24.5-0.3c-2.2,0-4.1-0.2-5.8-0.5c-1.7-0.3-2.5-0.8-2.5-1.3l0-2.4l33.4,0.3
						c1.5-2.6,4.5-4.8,9.1-6.7c4.6-1.9,10.3-3.6,17-5.1l11.2,1.5c3.4,0.5,5.1,1,5.1,1.7c0,0.3-0.7,0.8-2.1,1.3
						c-1.4,0.5-3.1,1.1-5,1.8c-1.9,0.7-3.8,1.6-5.6,2.5c-1.8,1-3.2,2-4.1,3.3L858.2,3179.8z M775.7,3183.1c0.7,1.6,2.2,3,4.4,4.1
						c2.3,1.2,5.1,2.1,8.5,2.9c3.4,0.8,7.2,1.3,11.4,1.6c4.3,0.4,8.7,0.5,13.3,0.5c5.4,0,10.1-0.3,14.2-0.7c4-0.4,7.5-1,10.6-1.8
						c3-0.8,5.7-1.6,8-2.6c2.3-1,4.3-2.1,6.1-3.3L775.7,3183.1z M971.9,3180.9c-0.7-1.6-2.3-3-4.9-4.3c-2.5-1.2-5.8-2.3-9.8-3.1
						c-4-0.8-8.6-1.5-13.9-1.9c-5.3-0.4-11.1-0.6-17.4-0.6c-5.6,0-10.5,0.3-14.6,0.8c-4.1,0.5-7.6,1.1-10.6,1.9
						c-3,0.8-5.5,1.7-7.6,2.8c-2.1,1.1-4.1,2.2-5.8,3.4L971.9,3180.9z"/>
				</g>
				
					<linearGradient id="SVGID_00000168837409934059830350000007269247368902389120_" gradientUnits="userSpaceOnUse" x1="2570.8943" y1="169.7121" x2="2580.6858" y2="87.7421" gradientTransform="matrix(-1 0 0 1 3459.249 3047.8389)">
					<stop  offset="3.600000e-03" style="stop-color:#F36F56"/>
					<stop  offset="0.3059" style="stop-color:#F99C4C"/>
					<stop  offset="0.545" style="stop-color:#FDB946"/>
					<stop  offset="0.6817" style="stop-color:#FFC444"/>
					<stop  offset="0.8038" style="stop-color:#FFC244"/>
					<stop  offset="0.8667" style="stop-color:#FEBA46"/>
					<stop  offset="0.916" style="stop-color:#FCAD49"/>
					<stop  offset="0.958" style="stop-color:#F99A4D"/>
					<stop  offset="0.9955" style="stop-color:#F58152"/>
					<stop  offset="1" style="stop-color:#F57E53"/>
				</linearGradient>
				<path style="fill:url(#SVGID_00000168837409934059830350000007269247368902389120_);" d="M883.2,3147.3
					c-117.6,0-240.1,10.3-259.7,30.4c0.8,0.7,1.5,1.5,2.1,2.3c16.5-13.9,117.6-27.9,257.5-27.9c143.5,0,246.2,14.7,258.7,29
					c0.6-0.8,1.3-1.5,2-2.2C1127.6,3158.1,1002.9,3147.3,883.2,3147.3z"/>
			</g>
			<g>
				
					<linearGradient id="SVGID_00000042707104336386986890000012622216307911683507_" gradientUnits="userSpaceOnUse" x1="500.9367" y1="547.2294" x2="1107.8478" y2="547.2294" gradientTransform="matrix(1 0 0 -1 0 3710)">
					<stop  offset="0" style="stop-color:#FCB148"/>
					<stop  offset="5.210000e-02" style="stop-color:#FDBA46"/>
					<stop  offset="0.1424" style="stop-color:#FFC244"/>
					<stop  offset="0.3183" style="stop-color:#FFC444"/>
					<stop  offset="0.4849" style="stop-color:#FDB946"/>
					<stop  offset="0.7754" style="stop-color:#F99C4D"/>
					<stop  offset="0.8658" style="stop-color:#F8924F"/>
					<stop  offset="1" style="stop-color:#F8924F"/>
				</linearGradient>
				<path style="fill:url(#SVGID_00000042707104336386986890000012622216307911683507_);" d="M546,3116.4v58.5
					c0,18.9,118.1,34.2,263.8,34.2s263.8-15.3,263.8-34.2v-58.5H546z"/>
				
					<linearGradient id="SVGID_00000096763129277884397440000004283723090245241760_" gradientUnits="userSpaceOnUse" x1="807.1818" y1="615.5952" x2="839.1774" y2="347.7446" gradientTransform="matrix(1 0 0 -1 0 3710)">
					<stop  offset="0" style="stop-color:#FFDB44"/>
					<stop  offset="1" style="stop-color:#FEEF06"/>
				</linearGradient>
				<path style="fill:url(#SVGID_00000096763129277884397440000004283723090245241760_);" d="M1073.6,3116.4
					c0,18.9-118.1,34.2-263.8,34.2S546,3135.3,546,3116.4c0-18.9,118.1-34.2,263.8-34.2S1073.6,3097.5,1073.6,3116.4z"/>
				
					<linearGradient id="SVGID_00000133523438233749964880000001105461872617820547_" gradientUnits="userSpaceOnUse" x1="805.791" y1="627.5394" x2="815.6172" y2="545.2791" gradientTransform="matrix(1 0 0 -1 0 3710)">
					<stop  offset="0" style="stop-color:#FFDB44"/>
					<stop  offset="1" style="stop-color:#FEEF06"/>
				</linearGradient>
				<path style="fill:url(#SVGID_00000133523438233749964880000001105461872617820547_);" d="M809.8,3153
					c-129,0-263.9-12.3-263.9-36.1c0-1.3,0.5-3.6,1.8-3.6c1.3,0,0.7,1.8,0.7,3.1c0,15.1,107.4,31.9,261.4,31.9
					s261.4-16.8,261.4-31.9c0-1.3,0.2-2.5,1.5-2.5s1,1.7,1,3C1073.7,3140.7,938.8,3153,809.8,3153z"/>
				<g>
					<path class="st32" d="M784.9,3118.3c2.6-1.8,5.3-3.6,8.3-5.3c2.9-1.7,6.7-3.3,11.3-4.7c4.6-1.4,10.4-2.6,17.4-3.4
						c7-0.9,15.7-1.4,26-1.4c10.2-0.1,19.8,0.3,28.7,1c8.9,0.7,16.8,1.7,23.6,3.1c6.8,1.4,12.3,3.1,16.6,5.1c4.2,2,6.8,4.4,7.6,7
						l29.7,0.3c2.2,0,4.1,0.2,5.7,0.5c1.7,0.3,2.5,0.8,2.5,1.3l0,2.4l-38.2-0.4c-1.3,3-4.8,5.7-10.2,8.2c-5.5,2.5-12.4,4.6-20.9,6.5
						l-13.9-1.9c-1.2-0.2-2.3-0.4-3.1-0.7c-0.8-0.3-1.2-0.6-1.2-1c0-0.5,1.1-1,3.2-1.6c2.2-0.6,4.6-1.4,7.3-2.2
						c2.7-0.9,5.3-1.9,8-3.2c2.6-1.2,4.3-2.7,5.2-4.3l-90.1-0.9c-2.4,1.7-5,3.5-8,5.1c-2.9,1.7-6.8,3.2-11.7,4.5
						c-4.9,1.3-10.9,2.4-18.1,3.3c-7.3,0.8-16.3,1.3-27.3,1.3c-8.3,0-16.3-0.3-24.2-0.9c-7.9-0.7-14.9-1.7-21-3
						c-6.1-1.3-11.1-3-15.1-4.9c-3.9-2-6.1-4.2-6.6-6.7l-24.5-0.3c-2.2,0-4.1-0.2-5.8-0.5c-1.7-0.3-2.5-0.8-2.5-1.3l0-2.4l33.4,0.3
						c1.5-2.6,4.5-4.8,9.1-6.7c4.6-1.9,10.3-3.6,17-5.1l11.2,1.5c3.4,0.5,5.1,1,5.1,1.7c0,0.3-0.7,0.8-2.1,1.3
						c-1.4,0.5-3.1,1.1-5,1.8c-1.9,0.7-3.8,1.6-5.6,2.5c-1.8,1-3.2,2-4.1,3.3L784.9,3118.3z M702.4,3121.6c0.7,1.6,2.2,3,4.4,4.1
						c2.3,1.2,5.1,2.1,8.5,2.9c3.4,0.7,7.2,1.3,11.4,1.6c4.3,0.3,8.7,0.5,13.3,0.5c5.4,0,10.1-0.3,14.2-0.7c4-0.4,7.5-1,10.6-1.8
						c3-0.8,5.7-1.6,8-2.6c2.3-1,4.3-2.1,6.1-3.3L702.4,3121.6z M898.6,3119.5c-0.7-1.6-2.3-3-4.9-4.3c-2.5-1.2-5.8-2.3-9.8-3.1
						c-4-0.8-8.6-1.5-13.8-1.9c-5.3-0.4-11.1-0.6-17.4-0.6c-5.6,0-10.5,0.3-14.6,0.8c-4.1,0.5-7.6,1.1-10.6,1.9
						c-3,0.8-5.5,1.7-7.6,2.8c-2.1,1.1-4.1,2.2-5.8,3.4L898.6,3119.5z"/>
				</g>
				
					<linearGradient id="SVGID_00000046331008859804750640000003534110608554640270_" gradientUnits="userSpaceOnUse" x1="2644.2227" y1="108.2582" x2="2654.0142" y2="26.2886" gradientTransform="matrix(-1 0 0 1 3459.249 3047.8389)">
					<stop  offset="3.600000e-03" style="stop-color:#F36F56"/>
					<stop  offset="0.3059" style="stop-color:#F99C4C"/>
					<stop  offset="0.545" style="stop-color:#FDB946"/>
					<stop  offset="0.6817" style="stop-color:#FFC444"/>
					<stop  offset="0.8038" style="stop-color:#FFC244"/>
					<stop  offset="0.8667" style="stop-color:#FEBA46"/>
					<stop  offset="0.916" style="stop-color:#FCAD49"/>
					<stop  offset="0.958" style="stop-color:#F99A4D"/>
					<stop  offset="0.9955" style="stop-color:#F58152"/>
					<stop  offset="1" style="stop-color:#F57E53"/>
				</linearGradient>
				<path style="fill:url(#SVGID_00000046331008859804750640000003534110608554640270_);" d="M809.8,3085.9
					c-117.6,0-240.1,10.3-259.7,30.4c0.8,0.7,1.5,1.5,2.1,2.3c16.5-13.9,117.6-27.9,257.5-27.9c143.5,0,246.2,14.7,258.7,29
					c0.6-0.8,1.3-1.5,2-2.2C1054.3,3096.6,929.5,3085.9,809.8,3085.9z"/>
			</g>
			<g>
				
					<linearGradient id="SVGID_00000047046854663760970260000008579107191394036156_" gradientUnits="userSpaceOnUse" x1="564.208" y1="608.5038" x2="1171.1198" y2="608.5038" gradientTransform="matrix(1 0 0 -1 0 3710)">
					<stop  offset="0" style="stop-color:#FCB148"/>
					<stop  offset="5.210000e-02" style="stop-color:#FDBA46"/>
					<stop  offset="0.1424" style="stop-color:#FFC244"/>
					<stop  offset="0.3183" style="stop-color:#FFC444"/>
					<stop  offset="0.4849" style="stop-color:#FDB946"/>
					<stop  offset="0.7754" style="stop-color:#F99C4D"/>
					<stop  offset="0.8658" style="stop-color:#F8924F"/>
					<stop  offset="1" style="stop-color:#F8924F"/>
				</linearGradient>
				<path style="fill:url(#SVGID_00000047046854663760970260000008579107191394036156_);" d="M609.3,3055.1v58.5
					c0,18.9,118.1,34.2,263.8,34.2c145.7,0,263.8-15.3,263.8-34.2v-58.5H609.3z"/>
				
					<linearGradient id="SVGID_00000056392916271329337980000016509302792954113203_" gradientUnits="userSpaceOnUse" x1="870.4528" y1="676.8687" x2="902.4484" y2="409.0179" gradientTransform="matrix(1 0 0 -1 0 3710)">
					<stop  offset="0" style="stop-color:#FFDB44"/>
					<stop  offset="1" style="stop-color:#FEEF06"/>
				</linearGradient>
				<path style="fill:url(#SVGID_00000056392916271329337980000016509302792954113203_);" d="M1136.9,3055.1
					c0,18.9-118.1,34.2-263.8,34.2s-263.8-15.3-263.8-34.2c0-18.9,118.1-34.2,263.8-34.2S1136.9,3036.2,1136.9,3055.1z"/>
				
					<linearGradient id="SVGID_00000162313920347389247320000006036037287293286032_" gradientUnits="userSpaceOnUse" x1="869.0613" y1="688.8135" x2="878.8878" y2="606.5521" gradientTransform="matrix(1 0 0 -1 0 3710)">
					<stop  offset="0" style="stop-color:#FFDB44"/>
					<stop  offset="1" style="stop-color:#FEEF06"/>
				</linearGradient>
				<path style="fill:url(#SVGID_00000162313920347389247320000006036037287293286032_);" d="M873.1,3091.7
					c-129,0-263.9-12.3-263.9-36.1c0-1.3,0.5-3.6,1.8-3.6c1.3,0,0.7,1.8,0.7,3.1c0,15.1,107.4,31.9,261.4,31.9
					s261.4-16.8,261.4-31.9c0-1.3,0.2-2.5,1.5-2.5s1,1.7,1,3C1137,3079.4,1002.1,3091.7,873.1,3091.7z"/>
				<g>
					<path class="st32" d="M848.2,3057c2.6-1.8,5.3-3.6,8.3-5.3c2.9-1.7,6.7-3.3,11.3-4.7c4.6-1.4,10.4-2.6,17.4-3.4
						c7-0.9,15.7-1.4,26-1.4c10.2-0.1,19.8,0.3,28.7,1c8.9,0.7,16.8,1.7,23.6,3.1c6.8,1.4,12.3,3.1,16.6,5.1c4.2,2,6.8,4.4,7.6,7
						l29.7,0.3c2.2,0,4.1,0.2,5.7,0.5c1.7,0.3,2.5,0.8,2.5,1.3l0,2.4l-38.2-0.4c-1.3,3-4.8,5.7-10.2,8.2c-5.5,2.5-12.4,4.6-20.9,6.5
						l-13.9-1.9c-1.2-0.2-2.3-0.4-3.1-0.7c-0.8-0.3-1.2-0.6-1.2-1c0-0.5,1.1-1,3.2-1.6c2.2-0.6,4.6-1.4,7.3-2.2
						c2.7-0.9,5.3-1.9,8-3.2c2.6-1.2,4.3-2.7,5.2-4.3l-90.1-0.9c-2.4,1.7-5,3.5-8,5.1c-2.9,1.7-6.8,3.2-11.7,4.5
						c-4.9,1.3-10.9,2.4-18.1,3.3c-7.3,0.8-16.3,1.3-27.3,1.3c-8.3,0-16.3-0.3-24.2-0.9c-7.9-0.7-14.9-1.7-21-3
						c-6.1-1.3-11.1-3-15.1-4.9c-3.9-2-6.1-4.2-6.6-6.7l-24.5-0.3c-2.2,0-4.1-0.2-5.8-0.5c-1.7-0.3-2.5-0.8-2.5-1.3l0-2.4l33.4,0.3
						c1.5-2.6,4.5-4.8,9.1-6.7c4.6-1.9,10.3-3.6,17-5.1l11.2,1.5c3.4,0.5,5.1,1,5.1,1.7c0,0.3-0.7,0.8-2.1,1.3
						c-1.4,0.5-3.1,1.1-5,1.8c-1.9,0.7-3.8,1.6-5.6,2.5c-1.8,1-3.2,2-4.1,3.3L848.2,3057z M765.7,3060.4c0.7,1.6,2.2,3,4.4,4.1
						c2.3,1.2,5.1,2.1,8.5,2.9c3.4,0.7,7.2,1.3,11.4,1.6c4.3,0.3,8.7,0.5,13.3,0.5c5.4,0,10.1-0.3,14.2-0.7c4-0.4,7.5-1,10.6-1.8
						c3-0.8,5.7-1.6,8-2.6c2.3-1,4.3-2.1,6.1-3.3L765.7,3060.4z M961.9,3058.2c-0.7-1.6-2.3-3-4.9-4.3c-2.5-1.2-5.8-2.3-9.8-3.1
						c-4-0.8-8.6-1.5-13.9-1.9c-5.3-0.4-11.1-0.6-17.4-0.6c-5.6,0-10.5,0.3-14.6,0.8c-4.1,0.5-7.6,1.1-10.6,1.9
						c-3,0.8-5.5,1.7-7.6,2.8c-2.1,1.1-4.1,2.2-5.8,3.4L961.9,3058.2z"/>
				</g>
				
					<linearGradient id="SVGID_00000161601273354847857550000001293890397785174409_" gradientUnits="userSpaceOnUse" x1="2580.9512" y1="46.9845" x2="2590.7427" y2="-34.9853" gradientTransform="matrix(-1 0 0 1 3459.249 3047.8389)">
					<stop  offset="3.600000e-03" style="stop-color:#F36F56"/>
					<stop  offset="0.3059" style="stop-color:#F99C4C"/>
					<stop  offset="0.545" style="stop-color:#FDB946"/>
					<stop  offset="0.6817" style="stop-color:#FFC444"/>
					<stop  offset="0.8038" style="stop-color:#FFC244"/>
					<stop  offset="0.8667" style="stop-color:#FEBA46"/>
					<stop  offset="0.916" style="stop-color:#FCAD49"/>
					<stop  offset="0.958" style="stop-color:#F99A4D"/>
					<stop  offset="0.9955" style="stop-color:#F58152"/>
					<stop  offset="1" style="stop-color:#F57E53"/>
				</linearGradient>
				<path style="fill:url(#SVGID_00000161601273354847857550000001293890397785174409_);" d="M873.1,3024.6
					c-117.6,0-240.1,10.3-259.7,30.4c0.8,0.7,1.5,1.5,2.1,2.3c16.5-13.9,117.6-27.9,257.5-27.9c143.5,0,246.2,14.7,258.7,29
					c0.6-0.8,1.3-1.5,2-2.2C1117.6,3035.3,992.8,3024.6,873.1,3024.6z"/>
			</g>
			<g>
				
					<linearGradient id="SVGID_00000132769874001604366500000000306312794111683219_" gradientUnits="userSpaceOnUse" x1="602.6038" y1="669.9567" x2="1209.515" y2="669.9567" gradientTransform="matrix(1 0 0 -1 0 3710)">
					<stop  offset="0" style="stop-color:#FCB148"/>
					<stop  offset="5.210000e-02" style="stop-color:#FDBA46"/>
					<stop  offset="0.1424" style="stop-color:#FFC244"/>
					<stop  offset="0.3183" style="stop-color:#FFC444"/>
					<stop  offset="0.4849" style="stop-color:#FDB946"/>
					<stop  offset="0.7754" style="stop-color:#F99C4D"/>
					<stop  offset="0.8658" style="stop-color:#F8924F"/>
					<stop  offset="1" style="stop-color:#F8924F"/>
				</linearGradient>
				<path style="fill:url(#SVGID_00000132769874001604366500000000306312794111683219_);" d="M647.7,2993.7v58.5
					c0,18.9,118.1,34.2,263.8,34.2c145.7,0,263.8-15.3,263.8-34.2v-58.5H647.7z"/>
				
					<linearGradient id="SVGID_00000153683006755769695230000005800105725907727005_" gradientUnits="userSpaceOnUse" x1="908.8486" y1="738.3226" x2="940.8445" y2="470.4716" gradientTransform="matrix(1 0 0 -1 0 3710)">
					<stop  offset="0" style="stop-color:#FFDB44"/>
					<stop  offset="1" style="stop-color:#FEEF06"/>
				</linearGradient>
				
					<ellipse style="fill:url(#SVGID_00000153683006755769695230000005800105725907727005_);" cx="911.5" cy="2993.7" rx="263.8" ry="34.2"/>
				
					<linearGradient id="SVGID_00000047769449162638969070000009526943164972114091_" gradientUnits="userSpaceOnUse" x1="907.4565" y1="750.2679" x2="917.2828" y2="668.0065" gradientTransform="matrix(1 0 0 -1 0 3710)">
					<stop  offset="0" style="stop-color:#FFDB44"/>
					<stop  offset="1" style="stop-color:#FEEF06"/>
				</linearGradient>
				<path style="fill:url(#SVGID_00000047769449162638969070000009526943164972114091_);" d="M911.5,3030.3
					c-129,0-263.9-12.3-263.9-36.1c0-1.3,0.5-3.6,1.8-3.6c1.3,0,0.7,1.8,0.7,3.1c0,15.1,107.4,31.9,261.4,31.9
					s261.4-16.8,261.4-31.9c0-1.3,0.2-2.5,1.5-2.5s1,1.7,1,3C1175.4,3018,1040.5,3030.3,911.5,3030.3z"/>
				<g>
					<path class="st32" d="M886.6,2995.6c2.6-1.8,5.3-3.6,8.3-5.3c2.9-1.7,6.7-3.3,11.3-4.7c4.6-1.4,10.4-2.6,17.4-3.4
						c7-0.9,15.7-1.4,26-1.4c10.2-0.1,19.8,0.3,28.7,1c8.9,0.7,16.8,1.7,23.6,3.1c6.8,1.4,12.3,3.1,16.6,5.1c4.2,2,6.8,4.4,7.6,7
						l29.7,0.3c2.2,0,4.1,0.2,5.7,0.5c1.7,0.3,2.5,0.8,2.5,1.3l0,2.4l-38.2-0.4c-1.3,3-4.8,5.7-10.2,8.2c-5.5,2.5-12.4,4.6-20.9,6.5
						l-13.9-1.9c-1.2-0.2-2.3-0.4-3.1-0.7c-0.8-0.3-1.2-0.6-1.2-1c0-0.5,1.1-1,3.2-1.6c2.2-0.6,4.6-1.4,7.3-2.2
						c2.7-0.9,5.3-1.9,8-3.2c2.6-1.2,4.3-2.7,5.2-4.3L910,3000c-2.4,1.7-5,3.5-8,5.1c-2.9,1.7-6.8,3.2-11.7,4.5
						c-4.9,1.3-10.9,2.4-18.1,3.3c-7.3,0.8-16.3,1.3-27.3,1.3c-8.3,0-16.3-0.3-24.2-0.9c-7.9-0.7-14.9-1.7-21-3
						c-6.1-1.3-11.1-3-15.1-4.9c-3.9-2-6.1-4.2-6.6-6.7l-24.5-0.3c-2.2,0-4.1-0.2-5.8-0.5c-1.7-0.3-2.5-0.8-2.5-1.3l0-2.4l33.4,0.3
						c1.5-2.6,4.5-4.8,9.1-6.7c4.6-1.9,10.3-3.6,17-5.1l11.2,1.5c3.4,0.5,5.1,1,5.1,1.7c0,0.3-0.7,0.8-2.1,1.3
						c-1.4,0.5-3.1,1.1-5,1.8c-1.9,0.7-3.8,1.6-5.6,2.5c-1.8,1-3.2,2-4.1,3.3L886.6,2995.6z M804.1,2998.9c0.7,1.6,2.2,3,4.4,4.1
						c2.3,1.2,5.1,2.1,8.5,2.9c3.4,0.7,7.2,1.3,11.4,1.6c4.3,0.4,8.7,0.5,13.3,0.5c5.4,0,10.1-0.3,14.2-0.7c4-0.4,7.5-1,10.6-1.8
						c3-0.8,5.7-1.6,8-2.6c2.3-1,4.3-2.1,6.1-3.3L804.1,2998.9z M1000.3,2996.7c-0.7-1.6-2.3-3-4.9-4.3c-2.5-1.2-5.8-2.3-9.8-3.1
						c-4-0.8-8.6-1.5-13.9-1.9c-5.3-0.4-11.1-0.6-17.4-0.6c-5.6,0-10.5,0.3-14.6,0.8c-4.1,0.5-7.6,1.1-10.6,1.9
						c-3,0.8-5.5,1.7-7.6,2.8c-2.1,1.1-4.1,2.2-5.8,3.4L1000.3,2996.7z"/>
				</g>
				
					<linearGradient id="SVGID_00000060020489906080610940000013399877969811231673_" gradientUnits="userSpaceOnUse" x1="2542.5552" y1="-14.469" x2="2552.3467" y2="-96.4388" gradientTransform="matrix(-1 0 0 1 3459.249 3047.8389)">
					<stop  offset="3.600000e-03" style="stop-color:#F36F56"/>
					<stop  offset="0.3059" style="stop-color:#F99C4C"/>
					<stop  offset="0.545" style="stop-color:#FDB946"/>
					<stop  offset="0.6817" style="stop-color:#FFC444"/>
					<stop  offset="0.8038" style="stop-color:#FFC244"/>
					<stop  offset="0.8667" style="stop-color:#FEBA46"/>
					<stop  offset="0.916" style="stop-color:#FCAD49"/>
					<stop  offset="0.958" style="stop-color:#F99A4D"/>
					<stop  offset="0.9955" style="stop-color:#F58152"/>
					<stop  offset="1" style="stop-color:#F57E53"/>
				</linearGradient>
				<path style="fill:url(#SVGID_00000060020489906080610940000013399877969811231673_);" d="M911.5,2963.1
					c-117.6,0-240.1,10.3-259.7,30.4c0.8,0.7,1.5,1.5,2.1,2.3c16.5-13.9,117.6-27.9,257.5-27.9c143.5,0,246.2,14.7,258.7,29
					c0.6-0.8,1.3-1.5,2-2.2C1156,2973.9,1031.2,2963.1,911.5,2963.1z"/>
			</g>
			<g>
				
					<linearGradient id="SVGID_00000138562104666143273520000012442471000014764202_" gradientUnits="userSpaceOnUse" x1="574.2639" y1="736.2584" x2="1181.1758" y2="736.2584" gradientTransform="matrix(1 0 0 -1 0 3710)">
					<stop  offset="0" style="stop-color:#FCB148"/>
					<stop  offset="5.210000e-02" style="stop-color:#FDBA46"/>
					<stop  offset="0.1424" style="stop-color:#FFC244"/>
					<stop  offset="0.3183" style="stop-color:#FFC444"/>
					<stop  offset="0.4849" style="stop-color:#FDB946"/>
					<stop  offset="0.7754" style="stop-color:#F99C4D"/>
					<stop  offset="0.8658" style="stop-color:#F8924F"/>
					<stop  offset="1" style="stop-color:#F8924F"/>
				</linearGradient>
				<path style="fill:url(#SVGID_00000138562104666143273520000012442471000014764202_);" d="M619.4,2927.4v58.5
					c0,18.9,118.1,34.2,263.8,34.2s263.8-15.3,263.8-34.2v-58.5H619.4z"/>
				
					<linearGradient id="SVGID_00000149361361995747170150000011496549829700359848_" gradientUnits="userSpaceOnUse" x1="880.5096" y1="804.6239" x2="912.5052" y2="536.7731" gradientTransform="matrix(1 0 0 -1 0 3710)">
					<stop  offset="0" style="stop-color:#FFDB44"/>
					<stop  offset="1" style="stop-color:#FEEF06"/>
				</linearGradient>
				<path style="fill:url(#SVGID_00000149361361995747170150000011496549829700359848_);" d="M1146.9,2927.4
					c0,18.9-118.1,34.2-263.8,34.2s-263.8-15.3-263.8-34.2s118.1-34.2,263.8-34.2S1146.9,2908.5,1146.9,2927.4z"/>
				
					<linearGradient id="SVGID_00000054256063071016433430000008399093403367296695_" gradientUnits="userSpaceOnUse" x1="879.1172" y1="816.569" x2="888.9437" y2="734.3073" gradientTransform="matrix(1 0 0 -1 0 3710)">
					<stop  offset="0" style="stop-color:#FFDB44"/>
					<stop  offset="1" style="stop-color:#FEEF06"/>
				</linearGradient>
				<path style="fill:url(#SVGID_00000054256063071016433430000008399093403367296695_);" d="M883.1,2964
					c-129,0-263.9-12.3-263.9-36.1c0-1.3,0.5-3.6,1.8-3.6c1.3,0,0.7,1.8,0.7,3.1c0,15.1,107.4,31.9,261.4,31.9
					c154.1,0,261.4-16.8,261.4-31.9c0-1.3,0.2-2.5,1.5-2.5c1.3,0,1,1.7,1,3C1147.1,2951.7,1012.2,2964,883.1,2964z"/>
				<g>
					<path class="st32" d="M858.2,2929.3c2.6-1.8,5.3-3.6,8.3-5.3c2.9-1.7,6.7-3.3,11.3-4.7c4.6-1.4,10.4-2.6,17.4-3.4
						c7-0.9,15.7-1.4,26-1.4c10.2-0.1,19.8,0.3,28.7,1c8.9,0.7,16.8,1.7,23.6,3.1c6.8,1.4,12.3,3.1,16.6,5.1c4.2,2,6.8,4.4,7.6,7
						l29.7,0.3c2.2,0,4.1,0.2,5.7,0.5c1.7,0.3,2.5,0.8,2.5,1.3l0,2.4l-38.2-0.4c-1.3,3-4.8,5.7-10.2,8.2c-5.5,2.5-12.4,4.6-20.9,6.5
						l-13.9-1.9c-1.2-0.2-2.3-0.4-3.1-0.7c-0.8-0.3-1.2-0.6-1.2-1c0-0.5,1.1-1,3.2-1.6c2.2-0.6,4.6-1.4,7.3-2.2
						c2.7-0.9,5.4-1.9,8-3.2c2.6-1.2,4.3-2.7,5.2-4.3l-90.1-0.9c-2.4,1.7-5,3.5-8,5.1c-2.9,1.7-6.8,3.2-11.7,4.5
						c-4.9,1.3-10.9,2.4-18.1,3.3c-7.3,0.8-16.3,1.3-27.3,1.3c-8.3,0-16.3-0.3-24.2-0.9c-7.9-0.7-14.9-1.7-21-3
						c-6.1-1.3-11.1-3-15.1-4.9c-3.9-2-6.1-4.2-6.6-6.7l-24.5-0.3c-2.2,0-4.1-0.2-5.8-0.5c-1.7-0.3-2.5-0.8-2.5-1.3l0-2.4l33.4,0.3
						c1.5-2.6,4.5-4.8,9.1-6.7c4.6-1.9,10.3-3.6,17-5.1l11.2,1.5c3.4,0.5,5.1,1,5.1,1.7c0,0.3-0.7,0.8-2.1,1.3
						c-1.4,0.5-3.1,1.1-5,1.8c-1.9,0.7-3.8,1.6-5.6,2.5c-1.8,1-3.2,2-4.1,3.3L858.2,2929.3z M775.7,2932.6c0.7,1.6,2.2,3,4.4,4.1
						c2.3,1.2,5.1,2.1,8.5,2.9c3.4,0.7,7.2,1.3,11.4,1.6c4.3,0.3,8.7,0.5,13.3,0.5c5.4,0,10.1-0.3,14.2-0.7c4-0.4,7.5-1,10.6-1.8
						c3-0.8,5.7-1.6,8-2.6c2.3-1,4.3-2.1,6.1-3.3L775.7,2932.6z M971.9,2930.4c-0.7-1.6-2.3-3-4.9-4.3c-2.5-1.2-5.8-2.3-9.8-3.1
						c-4-0.8-8.6-1.5-13.9-1.9c-5.3-0.4-11.1-0.6-17.4-0.6c-5.6,0-10.5,0.3-14.6,0.8c-4.1,0.5-7.6,1.1-10.6,1.9
						c-3,0.8-5.5,1.7-7.6,2.8c-2.1,1.1-4.1,2.2-5.8,3.4L971.9,2930.4z"/>
				</g>
				
					<linearGradient id="SVGID_00000070092250471804174400000014409145344273650566_" gradientUnits="userSpaceOnUse" x1="2570.8943" y1="-80.7708" x2="2580.6858" y2="-162.7403" gradientTransform="matrix(-1 0 0 1 3459.249 3047.8389)">
					<stop  offset="3.600000e-03" style="stop-color:#F36F56"/>
					<stop  offset="0.3059" style="stop-color:#F99C4C"/>
					<stop  offset="0.545" style="stop-color:#FDB946"/>
					<stop  offset="0.6817" style="stop-color:#FFC444"/>
					<stop  offset="0.8038" style="stop-color:#FFC244"/>
					<stop  offset="0.8667" style="stop-color:#FEBA46"/>
					<stop  offset="0.916" style="stop-color:#FCAD49"/>
					<stop  offset="0.958" style="stop-color:#F99A4D"/>
					<stop  offset="0.9955" style="stop-color:#F58152"/>
					<stop  offset="1" style="stop-color:#F57E53"/>
				</linearGradient>
				<path style="fill:url(#SVGID_00000070092250471804174400000014409145344273650566_);" d="M883.2,2896.8
					c-117.6,0-240.1,10.3-259.7,30.4c0.8,0.7,1.5,1.5,2.1,2.3c16.5-13.9,117.6-27.9,257.5-27.9c143.5,0,246.2,14.7,258.7,29
					c0.6-0.8,1.3-1.5,2-2.2C1127.6,2907.6,1002.9,2896.8,883.2,2896.8z"/>
			</g>
			<g>
				
					<linearGradient id="SVGID_00000002371924848620694750000006710453280988994184_" gradientUnits="userSpaceOnUse" x1="500.9367" y1="797.7122" x2="1107.8478" y2="797.7122" gradientTransform="matrix(1 0 0 -1 0 3710)">
					<stop  offset="0" style="stop-color:#FCB148"/>
					<stop  offset="5.210000e-02" style="stop-color:#FDBA46"/>
					<stop  offset="0.1424" style="stop-color:#FFC244"/>
					<stop  offset="0.3183" style="stop-color:#FFC444"/>
					<stop  offset="0.4849" style="stop-color:#FDB946"/>
					<stop  offset="0.7754" style="stop-color:#F99C4D"/>
					<stop  offset="0.8658" style="stop-color:#F8924F"/>
					<stop  offset="1" style="stop-color:#F8924F"/>
				</linearGradient>
				<path style="fill:url(#SVGID_00000002371924848620694750000006710453280988994184_);" d="M546,2865.9v58.5
					c0,18.9,118.1,34.2,263.8,34.2s263.8-15.3,263.8-34.2v-58.5H546z"/>
				
					<linearGradient id="SVGID_00000183239712941347036700000008394307964534501510_" gradientUnits="userSpaceOnUse" x1="807.1817" y1="866.0778" x2="839.1776" y2="598.2261" gradientTransform="matrix(1 0 0 -1 0 3710)">
					<stop  offset="0" style="stop-color:#FFDB44"/>
					<stop  offset="1" style="stop-color:#FEEF06"/>
				</linearGradient>
				
					<ellipse style="fill:url(#SVGID_00000183239712941347036700000008394307964534501510_);" cx="809.8" cy="2865.9" rx="263.8" ry="34.2"/>
				
					<linearGradient id="SVGID_00000032636319508732994840000013184094595220178056_" gradientUnits="userSpaceOnUse" x1="805.7911" y1="878.0225" x2="815.6174" y2="795.7613" gradientTransform="matrix(1 0 0 -1 0 3710)">
					<stop  offset="0" style="stop-color:#FFDB44"/>
					<stop  offset="1" style="stop-color:#FEEF06"/>
				</linearGradient>
				<path style="fill:url(#SVGID_00000032636319508732994840000013184094595220178056_);" d="M809.8,2902.5
					c-129,0-263.9-12.3-263.9-36.1c0-1.3,0.5-3.6,1.8-3.6c1.3,0,0.7,1.8,0.7,3.1c0,15.1,107.4,31.9,261.4,31.9
					s261.4-16.8,261.4-31.9c0-1.3,0.2-2.5,1.5-2.5s1,1.7,1,3C1073.7,2890.2,938.8,2902.5,809.8,2902.5z"/>
				<g>
					<path class="st32" d="M784.9,2867.8c2.6-1.8,5.3-3.6,8.3-5.3c2.9-1.7,6.7-3.3,11.3-4.7c4.6-1.4,10.4-2.6,17.4-3.4
						c7-0.9,15.7-1.4,26-1.4c10.2-0.1,19.8,0.3,28.7,1c8.9,0.7,16.8,1.7,23.6,3.1c6.8,1.4,12.3,3.1,16.6,5.1c4.2,2,6.8,4.4,7.6,7
						l29.7,0.3c2.2,0,4.1,0.2,5.7,0.5c1.7,0.3,2.5,0.8,2.5,1.3l0,2.4l-38.2-0.4c-1.3,3-4.8,5.7-10.2,8.2c-5.5,2.5-12.4,4.6-20.9,6.5
						l-13.9-1.9c-1.2-0.2-2.3-0.4-3.1-0.7c-0.8-0.3-1.2-0.6-1.2-1c0-0.5,1.1-1,3.2-1.6c2.2-0.6,4.6-1.4,7.3-2.2
						c2.7-0.9,5.3-1.9,8-3.2c2.6-1.2,4.3-2.7,5.2-4.3l-90.1-0.9c-2.4,1.7-5,3.5-8,5.1c-2.9,1.7-6.8,3.2-11.7,4.5
						c-4.9,1.3-10.9,2.4-18.1,3.3c-7.3,0.8-16.3,1.3-27.3,1.3c-8.3,0-16.3-0.3-24.2-0.9c-7.9-0.7-14.9-1.7-21-3
						c-6.1-1.3-11.1-3-15.1-4.9c-3.9-2-6.1-4.2-6.6-6.8l-24.5-0.3c-2.2,0-4.1-0.2-5.8-0.5c-1.7-0.3-2.5-0.8-2.5-1.3l0-2.4l33.4,0.3
						c1.5-2.6,4.5-4.8,9.1-6.7c4.6-1.9,10.3-3.6,17-5.1l11.2,1.5c3.4,0.5,5.1,1,5.1,1.7c0,0.3-0.7,0.8-2.1,1.3
						c-1.4,0.5-3.1,1.1-5,1.8c-1.9,0.7-3.8,1.6-5.6,2.5c-1.8,1-3.2,2-4.1,3.3L784.9,2867.8z M702.4,2871.2c0.7,1.6,2.2,3,4.4,4.1
						c2.3,1.2,5.1,2.1,8.5,2.9c3.4,0.7,7.2,1.3,11.4,1.6c4.3,0.4,8.7,0.5,13.3,0.5c5.4,0,10.1-0.3,14.2-0.7c4-0.4,7.5-1,10.6-1.8
						c3-0.8,5.7-1.6,8-2.6c2.3-1,4.3-2.1,6.1-3.3L702.4,2871.2z M898.6,2869c-0.7-1.6-2.3-3-4.9-4.3c-2.5-1.2-5.8-2.3-9.8-3.1
						c-4-0.8-8.6-1.5-13.8-1.9c-5.3-0.4-11.1-0.6-17.4-0.6c-5.6,0-10.5,0.3-14.6,0.8c-4.1,0.5-7.6,1.1-10.6,1.9
						c-3,0.8-5.5,1.7-7.6,2.8c-2.1,1.1-4.1,2.2-5.8,3.4L898.6,2869z"/>
				</g>
				
					<linearGradient id="SVGID_00000077304965971590683430000009304011413240888981_" gradientUnits="userSpaceOnUse" x1="2644.2227" y1="-142.2247" x2="2654.0142" y2="-224.1942" gradientTransform="matrix(-1 0 0 1 3459.249 3047.8389)">
					<stop  offset="3.600000e-03" style="stop-color:#F36F56"/>
					<stop  offset="0.3059" style="stop-color:#F99C4C"/>
					<stop  offset="0.545" style="stop-color:#FDB946"/>
					<stop  offset="0.6817" style="stop-color:#FFC444"/>
					<stop  offset="0.8038" style="stop-color:#FFC244"/>
					<stop  offset="0.8667" style="stop-color:#FEBA46"/>
					<stop  offset="0.916" style="stop-color:#FCAD49"/>
					<stop  offset="0.958" style="stop-color:#F99A4D"/>
					<stop  offset="0.9955" style="stop-color:#F58152"/>
					<stop  offset="1" style="stop-color:#F57E53"/>
				</linearGradient>
				<path style="fill:url(#SVGID_00000077304965971590683430000009304011413240888981_);" d="M809.8,2835.4
					c-117.6,0-240.1,10.3-259.7,30.4c0.8,0.7,1.5,1.5,2.1,2.3c16.5-13.9,117.6-27.9,257.5-27.9c143.5,0,246.2,14.7,258.7,29
					c0.6-0.8,1.3-1.5,2-2.2C1054.3,2846.1,929.5,2835.4,809.8,2835.4z"/>
			</g>
			<g>
				
					<linearGradient id="SVGID_00000114033821754640122140000004629859468841395351_" gradientUnits="userSpaceOnUse" x1="564.208" y1="858.9846" x2="1171.1198" y2="858.9846" gradientTransform="matrix(1 0 0 -1 0 3710)">
					<stop  offset="0" style="stop-color:#FCB148"/>
					<stop  offset="5.210000e-02" style="stop-color:#FDBA46"/>
					<stop  offset="0.1424" style="stop-color:#FFC244"/>
					<stop  offset="0.3183" style="stop-color:#FFC444"/>
					<stop  offset="0.4849" style="stop-color:#FDB946"/>
					<stop  offset="0.7754" style="stop-color:#F99C4D"/>
					<stop  offset="0.8658" style="stop-color:#F8924F"/>
					<stop  offset="1" style="stop-color:#F8924F"/>
				</linearGradient>
				<path style="fill:url(#SVGID_00000114033821754640122140000004629859468841395351_);" d="M609.3,2804.6v58.5
					c0,18.9,118.1,34.2,263.8,34.2c145.7,0,263.8-15.3,263.8-34.2v-58.5H609.3z"/>
				
					<linearGradient id="SVGID_00000085246600506708230720000008080488175065835435_" gradientUnits="userSpaceOnUse" x1="870.4534" y1="927.3516" x2="902.4492" y2="659.4998" gradientTransform="matrix(1 0 0 -1 0 3710)">
					<stop  offset="0" style="stop-color:#FFDB44"/>
					<stop  offset="1" style="stop-color:#FEEF06"/>
				</linearGradient>
				
					<ellipse style="fill:url(#SVGID_00000085246600506708230720000008080488175065835435_);" cx="873.1" cy="2804.6" rx="263.8" ry="34.2"/>
				
					<linearGradient id="SVGID_00000152249833407515325210000015756318917651251118_" gradientUnits="userSpaceOnUse" x1="869.0613" y1="939.2968" x2="878.8879" y2="857.0347" gradientTransform="matrix(1 0 0 -1 0 3710)">
					<stop  offset="0" style="stop-color:#FFDB44"/>
					<stop  offset="1" style="stop-color:#FEEF06"/>
				</linearGradient>
				<path style="fill:url(#SVGID_00000152249833407515325210000015756318917651251118_);" d="M873.1,2841.2
					c-129,0-263.9-12.3-263.9-36.1c0-1.3,0.5-3.6,1.8-3.6c1.3,0,0.7,1.8,0.7,3.1c0,15.1,107.4,31.9,261.4,31.9
					s261.4-16.8,261.4-31.9c0-1.3,0.2-2.5,1.5-2.5s1,1.7,1,3C1137,2828.9,1002.1,2841.2,873.1,2841.2z"/>
				<g>
					<path class="st32" d="M848.2,2806.6c2.6-1.8,5.3-3.6,8.3-5.3c2.9-1.7,6.7-3.3,11.3-4.7c4.6-1.4,10.4-2.6,17.4-3.4
						c7-0.9,15.7-1.4,26-1.4c10.2-0.1,19.8,0.3,28.7,1c8.9,0.7,16.8,1.7,23.6,3.1c6.8,1.4,12.3,3.1,16.6,5.1c4.2,2,6.8,4.4,7.6,7
						l29.7,0.3c2.2,0,4.1,0.2,5.7,0.5c1.7,0.3,2.5,0.8,2.5,1.3l0,2.4l-38.2-0.4c-1.3,3-4.8,5.7-10.2,8.2c-5.5,2.5-12.4,4.6-20.9,6.5
						l-13.9-1.9c-1.2-0.2-2.3-0.4-3.1-0.7c-0.8-0.3-1.2-0.6-1.2-1c0-0.5,1.1-1,3.2-1.6c2.2-0.6,4.6-1.4,7.3-2.2
						c2.7-0.9,5.3-1.9,8-3.2c2.6-1.2,4.3-2.7,5.2-4.3l-90.1-0.9c-2.4,1.7-5,3.5-8,5.1c-2.9,1.7-6.8,3.2-11.7,4.5
						c-4.9,1.3-10.9,2.4-18.1,3.3c-7.3,0.8-16.3,1.3-27.3,1.3c-8.3,0-16.3-0.3-24.2-0.9c-7.9-0.7-14.9-1.7-21-3
						c-6.1-1.3-11.1-3-15.1-4.9c-3.9-2-6.1-4.2-6.6-6.8l-24.5-0.3c-2.2,0-4.1-0.2-5.8-0.5c-1.7-0.3-2.5-0.8-2.5-1.3l0-2.4l33.4,0.3
						c1.5-2.6,4.5-4.8,9.1-6.7c4.6-1.9,10.3-3.6,17-5.1l11.2,1.5c3.4,0.5,5.1,1,5.1,1.7c0,0.3-0.7,0.8-2.1,1.3
						c-1.4,0.5-3.1,1.1-5,1.8c-1.9,0.7-3.8,1.6-5.6,2.5c-1.8,1-3.2,2-4.1,3.3L848.2,2806.6z M765.7,2809.9c0.7,1.6,2.2,3,4.4,4.1
						c2.3,1.2,5.1,2.1,8.5,2.9c3.4,0.7,7.2,1.3,11.4,1.6c4.3,0.3,8.7,0.5,13.3,0.5c5.4,0,10.1-0.3,14.2-0.7c4-0.4,7.5-1,10.6-1.8
						c3-0.8,5.7-1.6,8-2.6c2.3-1,4.3-2.1,6.1-3.3L765.7,2809.9z M961.9,2807.7c-0.7-1.6-2.3-3-4.9-4.3c-2.5-1.2-5.8-2.3-9.8-3.1
						c-4-0.8-8.6-1.5-13.9-1.9c-5.3-0.4-11.1-0.6-17.4-0.6c-5.6,0-10.5,0.3-14.6,0.8c-4.1,0.5-7.6,1.1-10.6,1.9
						c-3,0.8-5.5,1.7-7.6,2.8c-2.1,1.1-4.1,2.2-5.8,3.4L961.9,2807.7z"/>
				</g>
				
					<linearGradient id="SVGID_00000039104059298881678260000010251326642950606211_" gradientUnits="userSpaceOnUse" x1="2580.9512" y1="-203.4984" x2="2590.7427" y2="-285.4678" gradientTransform="matrix(-1 0 0 1 3459.249 3047.8389)">
					<stop  offset="3.600000e-03" style="stop-color:#F36F56"/>
					<stop  offset="0.3059" style="stop-color:#F99C4C"/>
					<stop  offset="0.545" style="stop-color:#FDB946"/>
					<stop  offset="0.6817" style="stop-color:#FFC444"/>
					<stop  offset="0.8038" style="stop-color:#FFC244"/>
					<stop  offset="0.8667" style="stop-color:#FEBA46"/>
					<stop  offset="0.916" style="stop-color:#FCAD49"/>
					<stop  offset="0.958" style="stop-color:#F99A4D"/>
					<stop  offset="0.9955" style="stop-color:#F58152"/>
					<stop  offset="1" style="stop-color:#F57E53"/>
				</linearGradient>
				<path style="fill:url(#SVGID_00000039104059298881678260000010251326642950606211_);" d="M873.1,2774.1
					c-117.6,0-240.1,10.3-259.7,30.4c0.8,0.7,1.5,1.5,2.1,2.3c16.5-13.9,117.6-27.9,257.5-27.9c143.5,0,246.2,14.7,258.7,29
					c0.6-0.8,1.3-1.5,2-2.2C1117.6,2784.9,992.8,2774.1,873.1,2774.1z"/>
			</g>
			<g>
				
					<linearGradient id="SVGID_00000011712183897628785300000017716262742161450379_" gradientUnits="userSpaceOnUse" x1="531.2983" y1="920.4384" x2="1138.2095" y2="920.4384" gradientTransform="matrix(1 0 0 -1 0 3710)">
					<stop  offset="0" style="stop-color:#FCB148"/>
					<stop  offset="5.210000e-02" style="stop-color:#FDBA46"/>
					<stop  offset="0.1424" style="stop-color:#FFC244"/>
					<stop  offset="0.3183" style="stop-color:#FFC444"/>
					<stop  offset="0.4849" style="stop-color:#FDB946"/>
					<stop  offset="0.7754" style="stop-color:#F99C4D"/>
					<stop  offset="0.8658" style="stop-color:#F8924F"/>
					<stop  offset="1" style="stop-color:#F8924F"/>
				</linearGradient>
				<path style="fill:url(#SVGID_00000011712183897628785300000017716262742161450379_);" d="M576.4,2743.2v58.5
					c0,18.9,118.1,34.2,263.8,34.2s263.8-15.3,263.8-34.2v-58.5H576.4z"/>
				
					<linearGradient id="SVGID_00000070107984774065900240000015220431222188771993_" gradientUnits="userSpaceOnUse" x1="837.5432" y1="988.8047" x2="869.5391" y2="720.9526" gradientTransform="matrix(1 0 0 -1 0 3710)">
					<stop  offset="0" style="stop-color:#FFDB44"/>
					<stop  offset="1" style="stop-color:#FEEF06"/>
				</linearGradient>
				
					<ellipse style="fill:url(#SVGID_00000070107984774065900240000015220431222188771993_);" cx="840.2" cy="2743.2" rx="263.8" ry="34.2"/>
				
					<linearGradient id="SVGID_00000096750441071345718170000002911682033301154459_" gradientUnits="userSpaceOnUse" x1="836.1519" y1="1000.7494" x2="845.9782" y2="918.4886" gradientTransform="matrix(1 0 0 -1 0 3710)">
					<stop  offset="0" style="stop-color:#FFDB44"/>
					<stop  offset="1" style="stop-color:#FEEF06"/>
				</linearGradient>
				<path style="fill:url(#SVGID_00000096750441071345718170000002911682033301154459_);" d="M840.2,2779.8
					c-129,0-263.9-12.3-263.9-36.1c0-1.3,0.5-3.6,1.8-3.6c1.3,0,0.7,1.8,0.7,3.1c0,15.1,107.4,31.9,261.4,31.9
					c154.1,0,261.4-16.8,261.4-31.9c0-1.3,0.2-2.5,1.5-2.5c1.3,0,1,1.7,1,3C1104.1,2767.5,969.2,2779.8,840.2,2779.8z"/>
				<g>
					<path class="st32" d="M815.2,2745.1c2.6-1.8,5.3-3.6,8.3-5.3c2.9-1.7,6.7-3.3,11.3-4.7c4.6-1.4,10.4-2.6,17.4-3.4
						c7-0.9,15.7-1.4,26-1.4c10.2-0.1,19.8,0.3,28.7,1c8.9,0.7,16.8,1.7,23.6,3.1c6.8,1.4,12.3,3.1,16.6,5.1c4.2,2,6.8,4.4,7.6,7
						l29.7,0.3c2.2,0,4.1,0.2,5.7,0.5c1.7,0.3,2.5,0.8,2.5,1.3l0,2.4l-38.2-0.4c-1.3,3-4.8,5.7-10.2,8.2c-5.5,2.5-12.4,4.6-20.9,6.5
						l-13.9-1.9c-1.2-0.2-2.3-0.4-3.1-0.7c-0.8-0.3-1.2-0.6-1.2-1c0-0.5,1.1-1,3.2-1.6c2.2-0.6,4.6-1.4,7.3-2.2
						c2.7-0.9,5.3-1.9,8-3.2c2.6-1.2,4.3-2.7,5.2-4.3l-90.1-0.9c-2.4,1.7-5,3.5-8,5.1c-2.9,1.7-6.8,3.2-11.7,4.5
						c-4.9,1.3-10.9,2.4-18.1,3.3c-7.3,0.8-16.3,1.3-27.3,1.3c-8.3,0-16.3-0.3-24.2-0.9c-7.9-0.7-14.9-1.7-21-3
						c-6.1-1.3-11.1-3-15.1-4.9c-3.9-2-6.1-4.2-6.6-6.7l-24.5-0.3c-2.2,0-4.1-0.2-5.8-0.5c-1.7-0.3-2.5-0.8-2.5-1.3l0-2.4l33.4,0.3
						c1.5-2.6,4.5-4.8,9.1-6.7c4.6-1.9,10.3-3.6,17-5.1l11.2,1.5c3.4,0.5,5.1,1,5.1,1.7c0,0.3-0.7,0.8-2.1,1.3
						c-1.4,0.5-3.1,1.1-5,1.8c-1.9,0.7-3.8,1.6-5.6,2.5c-1.8,1-3.2,2-4.1,3.3L815.2,2745.1z M732.8,2748.4c0.7,1.6,2.2,3,4.4,4.1
						c2.3,1.2,5.1,2.1,8.5,2.9c3.4,0.7,7.2,1.3,11.4,1.6c4.3,0.4,8.7,0.5,13.3,0.5c5.4,0,10.1-0.3,14.2-0.7c4-0.4,7.5-1,10.6-1.8
						c3-0.8,5.7-1.6,8-2.6c2.3-1,4.3-2.1,6.1-3.3L732.8,2748.4z M929,2746.2c-0.7-1.6-2.3-3-4.9-4.3c-2.5-1.2-5.8-2.3-9.8-3.1
						c-4-0.8-8.6-1.5-13.8-1.9c-5.3-0.4-11.1-0.6-17.4-0.6c-5.6,0-10.5,0.3-14.6,0.8c-4.1,0.5-7.6,1.1-10.6,1.9
						c-3,0.8-5.5,1.7-7.6,2.8c-2.1,1.1-4,2.2-5.8,3.4L929,2746.2z"/>
				</g>
				
					<linearGradient id="SVGID_00000029017338850188579960000002297670596937690285_" gradientUnits="userSpaceOnUse" x1="2613.8613" y1="-264.9517" x2="2623.6528" y2="-346.9212" gradientTransform="matrix(-1 0 0 1 3459.249 3047.8389)">
					<stop  offset="3.600000e-03" style="stop-color:#F36F56"/>
					<stop  offset="0.3059" style="stop-color:#F99C4C"/>
					<stop  offset="0.545" style="stop-color:#FDB946"/>
					<stop  offset="0.6817" style="stop-color:#FFC444"/>
					<stop  offset="0.8038" style="stop-color:#FFC244"/>
					<stop  offset="0.8667" style="stop-color:#FEBA46"/>
					<stop  offset="0.916" style="stop-color:#FCAD49"/>
					<stop  offset="0.958" style="stop-color:#F99A4D"/>
					<stop  offset="0.9955" style="stop-color:#F58152"/>
					<stop  offset="1" style="stop-color:#F57E53"/>
				</linearGradient>
				<path style="fill:url(#SVGID_00000029017338850188579960000002297670596937690285_);" d="M840.2,2712.7
					c-117.6,0-240.1,10.3-259.7,30.4c0.8,0.7,1.5,1.5,2.1,2.3c16.5-13.9,117.6-27.9,257.5-27.9c143.5,0,246.2,14.7,258.7,29
					c0.6-0.8,1.3-1.5,2-2.2C1084.7,2723.4,959.9,2712.7,840.2,2712.7z"/>
			</g>
			<g>
				
					<linearGradient id="SVGID_00000101786254232291674490000008733110372658691213_" gradientUnits="userSpaceOnUse" x1="1116.1902" y1="-209.6361" x2="1723.1044" y2="-209.6361" gradientTransform="matrix(0.5796 0.8149 0.8149 -0.5796 638.949 1743.4656)">
					<stop  offset="0" style="stop-color:#FCB148"/>
					<stop  offset="5.210000e-02" style="stop-color:#FDBA46"/>
					<stop  offset="0.1424" style="stop-color:#FFC244"/>
					<stop  offset="0.3183" style="stop-color:#FFC444"/>
					<stop  offset="0.4849" style="stop-color:#FDB946"/>
					<stop  offset="0.7754" style="stop-color:#F99C4D"/>
					<stop  offset="0.8658" style="stop-color:#F8924F"/>
					<stop  offset="1" style="stop-color:#F8924F"/>
				</linearGradient>
				<path style="fill:url(#SVGID_00000101786254232291674490000008733110372658691213_);" d="M1179,2784.4l-47.7,33.9
					c-15.4,11,40.6,116.1,125,234.8c84.4,118.7,165.4,206.1,180.8,195.1l47.7-33.9L1179,2784.4z"/>
				
					<linearGradient id="SVGID_00000018217076795057460120000015715423534305471373_" gradientUnits="userSpaceOnUse" x1="1422.4357" y1="-141.2769" x2="1454.4275" y2="-409.0959" gradientTransform="matrix(0.5796 0.8149 0.8149 -0.5796 638.949 1743.4656)">
					<stop  offset="0" style="stop-color:#FFDB44"/>
					<stop  offset="1" style="stop-color:#FEEF06"/>
				</linearGradient>
				<path style="fill:url(#SVGID_00000018217076795057460120000015715423534305471373_);" d="M1484.8,3214.3
					c-15.4,11-96.3-76.4-180.8-195.1c-84.4-118.7-140.4-223.8-125-234.8c15.4-11,96.3,76.4,180.8,195.1
					C1444.2,3098.3,1500.2,3203.4,1484.8,3214.3z"/>
				
					<linearGradient id="SVGID_00000017499765263976974000000011906851649727033242_" gradientUnits="userSpaceOnUse" x1="1421.0454" y1="-129.3377" x2="1430.87" y2="-211.5847" gradientTransform="matrix(0.5796 0.8149 0.8149 -0.5796 638.949 1743.4656)">
					<stop  offset="0" style="stop-color:#FFDB44"/>
					<stop  offset="1" style="stop-color:#FEEF06"/>
				</linearGradient>
				<path style="fill:url(#SVGID_00000017499765263976974000000011906851649727033242_);" d="M1302,3020.6
					c-74.8-105.1-142.9-222.2-123.6-236c1.1-0.8,3.2-1.7,4-0.6c0.8,1.1-1,1.6-2.1,2.4c-12.3,8.7,36.3,106,125.6,231.5
					c89.3,125.5,165.2,203.3,177.5,194.5c1.1-0.8,2.2-1.3,2.9-0.2s-0.8,1.8-1.9,2.6C1465.1,3228.5,1376.8,3125.7,1302,3020.6z"/>
				<g>
					<path class="st32" d="M1315.9,2980.2c3,1.1,6,2.3,9.1,3.7c3.1,1.4,6.6,3.6,10.4,6.5c3.8,3,8.1,7,12.9,12.2
						c4.8,5.2,10.2,12,16.2,20.4c5.9,8.3,11.2,16.3,15.8,24c4.6,7.7,8.3,14.7,11.1,21.1c2.8,6.3,4.6,11.8,5.4,16.5
						c0.8,4.6,0.3,8.1-1.3,10.2l17,24.4c1.2,1.8,2.2,3.4,2.9,4.9c0.7,1.5,0.8,2.5,0.4,2.8l-2,1.4l-21.8-31.3
						c-3.2,0.6-7.4-0.5-12.6-3.6c-5.2-3-11-7.4-17.4-13.3l-6.5-12.5c-0.6-1.1-1-2.1-1.2-2.9c-0.2-0.8-0.2-1.3,0.1-1.5
						c0.4-0.3,1.4,0.3,3.2,1.7c1.7,1.4,3.8,2.9,6,4.6c2.3,1.7,4.7,3.2,7.2,4.7c2.5,1.4,4.7,2,6.6,1.7l-51.5-74
						c-2.8-0.9-5.7-2.1-8.8-3.5c-3.1-1.4-6.6-3.7-10.5-6.9c-3.9-3.2-8.3-7.5-13.2-12.9c-4.9-5.4-10.5-12.6-16.9-21.5
						c-4.8-6.7-9.2-13.4-13.3-20.2c-4-6.8-7.3-13.1-9.7-18.8c-2.5-5.8-4-10.8-4.7-15.1c-0.7-4.3-0.1-7.4,1.7-9.3l-14-20.1
						c-1.2-1.8-2.2-3.4-2.9-5c-0.7-1.6-0.9-2.5-0.4-2.8l2-1.4l19.1,27.4c3-0.3,6.5,0.9,10.8,3.5c4.2,2.7,8.9,6.3,14,10.9l5.2,10
						c1.6,3,2.1,4.7,1.6,5.1c-0.3,0.2-1-0.1-2.3-1c-1.2-0.9-2.7-1.9-4.4-3c-1.7-1.1-3.5-2.2-5.3-3.1c-1.8-0.9-3.5-1.4-5-1.4
						L1315.9,2980.2z M1265.3,2914.9c-0.9,1.5-1.2,3.5-0.8,6c0.4,2.5,1.2,5.4,2.6,8.6c1.4,3.2,3.1,6.6,5.3,10.3
						c2.2,3.7,4.6,7.4,7.3,11.2c3.2,4.4,6.1,8.1,8.8,11.1c2.7,3,5.2,5.5,7.6,7.6c2.4,2,4.6,3.7,6.8,5c2.1,1.3,4.2,2.3,6.2,3.1
						L1265.3,2914.9z M1380.8,3073.5c0.9-1.5,1.1-3.6,0.7-6.4c-0.5-2.8-1.5-6-3.2-9.7c-1.6-3.7-3.8-7.8-6.5-12.4
						c-2.7-4.5-5.9-9.4-9.6-14.5c-3.3-4.6-6.3-8.4-9.1-11.4c-2.7-3-5.3-5.5-7.7-7.5c-2.4-2-4.6-3.5-6.7-4.6c-2.1-1.1-4.2-2-6.2-2.8
						L1380.8,3073.5z"/>
				</g>
				
					<linearGradient id="SVGID_00000134970077214450939920000005572108595789144230_" gradientUnits="userSpaceOnUse" x1="2029.5356" y1="865.5753" x2="2039.3253" y2="783.6208" gradientTransform="matrix(-0.5796 -0.8149 -0.8149 0.5796 3184.2256 4178.8159)">
					<stop  offset="3.600000e-03" style="stop-color:#F36F56"/>
					<stop  offset="0.3059" style="stop-color:#F99C4C"/>
					<stop  offset="0.545" style="stop-color:#FDB946"/>
					<stop  offset="0.6817" style="stop-color:#FFC444"/>
					<stop  offset="0.8038" style="stop-color:#FFC244"/>
					<stop  offset="0.8667" style="stop-color:#FEBA46"/>
					<stop  offset="0.916" style="stop-color:#FCAD49"/>
					<stop  offset="0.958" style="stop-color:#F99A4D"/>
					<stop  offset="0.9955" style="stop-color:#F58152"/>
					<stop  offset="1" style="stop-color:#F57E53"/>
				</linearGradient>
				<path style="fill:url(#SVGID_00000134970077214450939920000005572108595789144230_);" d="M1356.8,2981.7
					c-68.2-95.8-147.6-189.6-175.3-194c-0.1,1-0.3,2.1-0.6,3.1c20.9,5.4,90.9,79.7,172,193.7c83.2,116.9,130.7,209.2,126.3,227.6
					c1,0,2,0.1,3,0.3C1489.7,3187.1,1426.1,3079.3,1356.8,2981.7z"/>
			</g>
		</g>
		<g>
			
				<linearGradient id="SVGID_00000150818551836748461090000006428311496374668679_" gradientUnits="userSpaceOnUse" x1="2261.4114" y1="1334.9192" x2="2502.3928" y2="970.7089" gradientTransform="matrix(1 0 0 -1 0 3710)">
				<stop  offset="0" style="stop-color:#AA80F9"/>
				<stop  offset="0.9964" style="stop-color:#6165D7"/>
			</linearGradient>
			<path style="fill:url(#SVGID_00000150818551836748461090000006428311496374668679_);" d="M2721.4,3097.1l-23.9,1.9
				c-6.2,0.5-12.4,0.2-18.5-0.8l-94.7-15.4l-1.6-0.2l-110-18l-0.7,0l-86.2-14v-485.1l86.7-0.1h0.2l110,5.5l1.6,0.8l133.1,5.1
				L2721.4,3097.1z"/>
			
				<linearGradient id="SVGID_00000000218187539425281020000005494639825625747602_" gradientUnits="userSpaceOnUse" x1="3011.4502" y1="1117.9988" x2="2658.8125" y2="522.4329" gradientTransform="matrix(1 0 0 -1 0 3710)">
				<stop  offset="0" style="stop-color:#AA80F9"/>
				<stop  offset="0.9964" style="stop-color:#6165D7"/>
			</linearGradient>
			<path style="fill:url(#SVGID_00000000218187539425281020000005494639825625747602_);" d="M3056.1,2596.4v452.7
				c0,16.2-12.4,29.4-28.5,30.4l-315.7,18.8c-12.8,0.8-23.7-9.8-23.7-23v-471.7c0-13.2,10.3-24.1,23.2-24.5l318-8.9
				C3044.1,2569.9,3056.1,2581.6,3056.1,2596.4z"/>
			
				<linearGradient id="SVGID_00000018222698734037324210000012853161173905840303_" gradientUnits="userSpaceOnUse" x1="2754.3689" y1="1305.6058" x2="2698.5032" y2="1108.7462" gradientTransform="matrix(1 0 0 -1 0 3710)">
				<stop  offset="3.600000e-03" style="stop-color:#E38DDD"/>
				<stop  offset="1" style="stop-color:#9571F6"/>
			</linearGradient>
			<polygon style="fill:url(#SVGID_00000018222698734037324210000012853161173905840303_);" points="2386.5,2565.6 2688.2,2579.8 
				3029.4,2570.3 2679.6,2558.9 			"/>
			
				<linearGradient id="SVGID_00000152225017233950485730000003693197484865654674_" gradientUnits="userSpaceOnUse" x1="3036.1621" y1="1102.8356" x2="2680.3689" y2="501.9405" gradientTransform="matrix(1 0 0 -1 0 3710)">
				<stop  offset="3.600000e-03" style="stop-color:#E38DDD"/>
				<stop  offset="1" style="stop-color:#9571F6"/>
			</linearGradient>
			<path style="opacity:0.3;fill:url(#SVGID_00000152225017233950485730000003693197484865654674_);enable-background:new    ;" d="
				M3028.9,2570.3l-249.1,6.9c-14.2,0.4-25.7,12.3-25.7,26.8c0,24.2,4.1,49.1,14.7,73.2c35.5,80.3,114.7,83.3,131.2,157
				c13.7,61.4-34.9,87.8-40.1,166.3c-1.4,20.6,0.4,42.8,6.6,66.6c3.2,12.5,14.9,21,27.6,20.3l137.1-8.2
				c14.1-0.8,24.9-12.4,24.9-26.6v-455.9C3056.1,2581.8,3043.9,2569.9,3028.9,2570.3z"/>
			
				<linearGradient id="SVGID_00000137854042344471764560000008061426903203474871_" gradientUnits="userSpaceOnUse" x1="2813.2083" y1="1099.3126" x2="2956.3916" y2="377.9961" gradientTransform="matrix(1 0 0 -1 0 3710)">
				<stop  offset="0" style="stop-color:#AB316D"/>
				<stop  offset="1" style="stop-color:#792D3D"/>
			</linearGradient>
			<polygon style="fill:url(#SVGID_00000137854042344471764560000008061426903203474871_);" points="2798.9,3093.2 2915.9,3086.2 
				2915.9,2573.5 2798.9,2576.8 			"/>
			
				<linearGradient id="SVGID_00000047036647053670021970000001976215042643464376_" gradientUnits="userSpaceOnUse" x1="2834.9163" y1="874.8807" x2="3088.5322" y2="912.3871" gradientTransform="matrix(1 0 0 -1 0 3710)">
				<stop  offset="0" style="stop-color:#AB316D"/>
				<stop  offset="1" style="stop-color:#792D3D"/>
			</linearGradient>
			<polygon style="fill:url(#SVGID_00000047036647053670021970000001976215042643464376_);" points="2804.1,3092.8 2915.9,3086.2 
				2915.9,2573.5 2804.1,2576.6 			"/>
			
				<linearGradient id="SVGID_00000043420852027238968270000016004515128245489547_" gradientUnits="userSpaceOnUse" x1="2504.9485" y1="880.4354" x2="2747.0176" y2="916.2343" gradientTransform="matrix(1 0 0 -1 0 3710)">
				<stop  offset="0" style="stop-color:#AB316D"/>
				<stop  offset="1" style="stop-color:#792D3D"/>
			</linearGradient>
			<polygon style="fill:url(#SVGID_00000043420852027238968270000016004515128245489547_);" points="2581.2,2572.5 2581.2,3082.8 
				2474,3064.6 2474,2569.6 2508.1,2569 			"/>
			
				<linearGradient id="SVGID_00000039122226692268277070000015226199048804070591_" gradientUnits="userSpaceOnUse" x1="2664.4519" y1="1131.1432" x2="3202.5479" y2="1210.7207" gradientTransform="matrix(1 0 0 -1 0 3710)">
				<stop  offset="0" style="stop-color:#AB316D"/>
				<stop  offset="1" style="stop-color:#792D3D"/>
			</linearGradient>
			<polygon style="fill:url(#SVGID_00000039122226692268277070000015226199048804070591_);" points="2592.2,2560.9 2918.5,2579.5 
				2801.2,2579.5 2515.9,2562.6 			"/>
			<g>
				
					<linearGradient id="SVGID_00000039826119046165058810000016669572510974438800_" gradientUnits="userSpaceOnUse" x1="2937.1992" y1="1289.0815" x2="2803.8755" y2="1150.4248" gradientTransform="matrix(1 0 0 -1 0 3710)">
					<stop  offset="0" style="stop-color:#AB316D"/>
					<stop  offset="1" style="stop-color:#792D3D"/>
				</linearGradient>
				<path style="fill:url(#SVGID_00000039826119046165058810000016669572510974438800_);" d="M2751,2545.2
					c7.6-46.6,13.2-80.6,43.6-112c12.8-13.2,26.8-27.7,49.8-31.6c26.4-4.4,60.1,6,69.3,27.6c8.8,20.5-11.9,33.8-3.1,57.3
					c8.8,23.6,34.5,23.1,37.3,42.2c2.4,16.2-13.4,34.5-29.3,43.1c-27.5,14.8-43.1-6-96.9-2.7c-37,2.3-58.4,14-68.4,2.2
					C2748.4,2565.8,2748.9,2558,2751,2545.2z"/>
				<g class="st13">
					
						<linearGradient id="SVGID_00000083088188686256823970000004373826967562678963_" gradientUnits="userSpaceOnUse" x1="2958.6682" y1="1268.4385" x2="2825.3438" y2="1129.781" gradientTransform="matrix(1 0 0 -1 0 3710)">
						<stop  offset="0" style="stop-color:#AB316D"/>
						<stop  offset="1" style="stop-color:#792D3D"/>
					</linearGradient>
					<path style="fill:url(#SVGID_00000083088188686256823970000004373826967562678963_);" d="M2898.1,2527
						c-33.2-12.7-50.2-40.3-64.9-33.8c-13.1,5.8-5.1,30-20.4,49.8c-14,18-39.7,22.3-62.6,22.3c0.6,2.3,1.5,4.3,3,6.1
						c10,11.8,31.4,0.1,68.4-2.2c53.7-3.4,69.4,17.5,96.9,2.7c14.6-7.9,29.1-24,29.5-39.1C2932.5,2534.5,2915.3,2533.6,2898.1,2527z
						"/>
				</g>
			</g>
			<g>
				
					<linearGradient id="SVGID_00000131349440564081138050000018120551168667396268_" gradientUnits="userSpaceOnUse" x1="2622.1753" y1="1233.8076" x2="2976.2581" y2="1286.1722" gradientTransform="matrix(1 0 0 -1 0 3710)">
					<stop  offset="0" style="stop-color:#AB316D"/>
					<stop  offset="1" style="stop-color:#792D3D"/>
				</linearGradient>
				<path style="fill:url(#SVGID_00000131349440564081138050000018120551168667396268_);" d="M2550.6,2430.1
					c22.3-17.6,45.8,2,73.3-17.3c27.8-19.6,19.7-51.1,41.3-60c25.1-10.4,62.2,21.3,80,41.3c45.1,51,66.3,141.5,30.7,173.3
					c-13.4,11.9-51.3,7-126.6-3.3c-86.1-11.8-98.5-20.3-106.7-31.4C2520.4,2503,2525.3,2450.1,2550.6,2430.1z"/>
				<g class="st13">
					
						<linearGradient id="SVGID_00000048488660684491701690000013447519638093177525_" gradientUnits="userSpaceOnUse" x1="2626.2942" y1="1205.9558" x2="2980.3765" y2="1258.3202" gradientTransform="matrix(1 0 0 -1 0 3710)">
						<stop  offset="0" style="stop-color:#AB316D"/>
						<stop  offset="1" style="stop-color:#792D3D"/>
					</linearGradient>
					<path style="fill:url(#SVGID_00000048488660684491701690000013447519638093177525_);" d="M2691.9,2468.4
						c-12.4-3.9-18.1,10.3-43.6,16c-4.7,1-49.6,10.4-73.8-17.8c-9.6-11.2-14.1-26.3-13.5-42.2c-3.5,1.2-7,3.1-10.5,5.8
						c-25.3,19.9-30.2,72.8-8,102.7c8.2,11.1,20.6,19.5,106.7,31.4c75.3,10.3,113.2,15.3,126.6,3.3c1.8-1.6,3.4-3.4,4.9-5.3
						c-18.1-0.6-37-5-50.7-18.3C2703.7,2518.3,2713,2475,2691.9,2468.4z"/>
				</g>
			</g>
			
				<linearGradient id="SVGID_00000107572498603850533230000001814842980832862113_" gradientUnits="userSpaceOnUse" x1="2555.3103" y1="1135.541" x2="2857.2061" y2="1180.1875" gradientTransform="matrix(1 0 0 -1 0 3710)">
				<stop  offset="0" style="stop-color:#AB316D"/>
				<stop  offset="1" style="stop-color:#792D3D"/>
			</linearGradient>
			<polygon style="fill:url(#SVGID_00000107572498603850533230000001814842980832862113_);" points="2697.2,2570.5 2582.8,2574.9 
				2472.6,2569.6 2508.2,2569 2664.2,2566.2 			"/>
		</g>
	</g>
</g>
</svg>
