<?xml version="1.0" encoding="utf-8"?>
<!-- Generator: Adobe Illustrator 27.3.1, SVG Export Plug-In . SVG Version: 6.00 Build 0)  -->
<svg version="1.1" id="_x30_" xmlns="http://www.w3.org/2000/svg" xmlns:xlink="http://www.w3.org/1999/xlink" x="0px" y="0px"
	 viewBox="0 0 450 450" style="enable-background:new 0 0 450 450;" xml:space="preserve">
<style type="text/css">
	.st0{opacity:0.6;fill:#D6A85F;}
	.st1{fill:#4F3F3F;}
	.st2{opacity:0.5;}
	.st3{fill:#2C2623;}
	.st4{fill:#3C4AAE;}
	.st5{fill:#4A60C6;}
	.st6{fill:#3A322E;}
	.st7{fill:#597DE2;}
	.st8{fill:#C8C4BA;}
	.st9{fill:#E1DDD7;}
	.st10{fill:#F2EFEB;}
	.st11{enable-background:new    ;}
	.st12{fill:#F6F3EF;}
	.st13{fill:#949494;}
	.st14{fill:#B2B2B2;}
	.st15{fill:url(#Cube_face_-_top_00000056394792849076885400000012571177301805269181_);}
	.st16{fill:url(#SVGID_1_);}
	.st17{fill:#9F9F9F;}
	.st18{fill:#B5B5B5;}
	.st19{fill:url(#SVGID_00000016782491788750423850000003552706595545499042_);}
	.st20{fill:#A6A6A6;}
	.st21{fill:url(#SVGID_00000025428679344950480440000011769567467397896086_);}
	.st22{fill:#787878;}
	.st23{fill:#838383;}
	.st24{fill:#A9A49A;}
	.st25{fill:#463C37;}
	.st26{fill:#342D2A;}
	.st27{fill:#DB9D12;}
	.st28{fill:#FFBE43;}
	.st29{fill:#E14444;}
	.st30{fill:#95B900;}
	.st31{fill:url(#SVGID_00000162326278718665747550000004912462831957372559_);}
	.st32{fill:#AAAAAA;}
	.st33{fill:url(#SVGID_00000016075354735790306010000017977885375922721711_);}
	.st34{fill:url(#SVGID_00000011030878824453371790000000261344145519046827_);}
	.st35{opacity:0.6;fill:#388CA3;}
	.st36{opacity:0.5;fill:#95DAED;}
	.st37{fill:url(#SVGID_00000180336978518383418030000003876003015351995791_);}
	.st38{opacity:0.3;fill:url(#SVGID_00000087388957425739539120000009502441120484483467_);}
	.st39{fill:#4453BB;}
	.st40{fill:#2C3C8E;}
	.st41{fill:#DDA414;}
	.st42{fill:#FFCF48;}
	.st43{fill:#FBBD9E;}
	.st44{fill:#FFFFFF;}
	.st45{fill:#191619;}
	.st46{fill:#E58D2E;}
	.st47{fill:#899914;}
	.st48{fill:#513120;}
	.st49{fill:#A3AD18;}
</style>
<g id="_x34__1_">
	<g id="_x33_">
		<ellipse class="st0" cx="232.15" cy="293.38" rx="182.95" ry="105.62"/>
		<ellipse class="st1" cx="232.15" cy="266.77" rx="182.94" ry="105.62"/>
	</g>
	<g class="st2">
		<polygon class="st1" points="248.25,203.36 194.65,234.3 208.84,242.49 174.36,262.39 214.1,285.33 233.37,274.21 253.67,285.93 
			275.25,285.93 278.14,265.92 		"/>
		<polygon class="st1" points="144.02,287.97 106,266.01 71.69,285.82 111.57,308.85 131.3,311.23 146.76,320.15 150.91,320.15 		
			"/>
		<path class="st1" d="M315.19,269.77c-8.67-0.37-20.23,6.56-27.99,14.13c-6.55,6.39-5.38,10.43-2.98,12.39
			c4.46,3.66,9.7,3.57,15.48,3.44c10.93-0.25,20.07-1.33,20.07-1.33c4.09-0.29,4.04-10.24,6.3-13.53c4.52-6.6,11.91-4.34,12.58-7.68
			C338.28,271.88,328.82,270.35,315.19,269.77z"/>
	</g>
	<g>
		<g>
			<g id="_x37_">
				<path class="st3" d="M234.33,62.75l-14.68-8.47c-0.96-0.55-2.11-0.55-3.08,0c-0.29,0.17-0.53,0.38-0.74,0.62
					c-0.2,0.07-0.42,0.06-0.61,0.17c-0.29,0.17-0.53,0.38-0.74,0.62c-0.2,0.07-0.42,0.06-0.62,0.17c-0.29,0.17-0.53,0.38-0.74,0.62
					c-0.2,0.07-0.42,0.06-0.61,0.17c-0.29,0.17-0.53,0.38-0.74,0.62c-0.2,0.07-0.42,0.06-0.61,0.17c-0.96,0.55-1.54,1.55-1.54,2.66
					v29.72c0,1.72,0.39,3.46,1.13,5.02l4.52,9.54c0.13,0.27,0.4,0.43,0.68,0.43c0.11,0,0.22-0.02,0.32-0.07
					c0.38-0.18,0.53-0.62,0.36-1v-0.14c0.13,0.27,0.4,0.43,0.68,0.43c0.11,0,0.22-0.02,0.32-0.07c0.38-0.18,0.53-0.62,0.36-1l0-0.14
					c0.13,0.27,0.4,0.43,0.68,0.43c0.11,0,0.22-0.02,0.32-0.07c0.38-0.18,0.53-0.62,0.36-1V102c0.13,0.27,0.4,0.43,0.68,0.43
					c0.11,0,0.22-0.02,0.32-0.07c0.38-0.18,0.53-0.62,0.36-1v-0.14c0.13,0.27,0.4,0.43,0.68,0.43c0.11,0,0.22-0.02,0.32-0.07
					c0.38-0.18,0.53-0.62,0.36-1l-4.52-9.54c-0.64-1.36-0.98-2.88-0.98-4.38V60.47l11.62,6.71c0.36,0.2,0.82,0.09,1.03-0.27
					c0.14-0.24,0.09-0.5-0.04-0.72l0.37,0.21c0.36,0.2,0.82,0.08,1.03-0.27c0.14-0.24,0.09-0.5-0.04-0.72l0.37,0.22
					c0.36,0.2,0.82,0.08,1.03-0.27c0.14-0.24,0.09-0.5-0.04-0.72l0.37,0.22c0.36,0.2,0.82,0.08,1.02-0.27
					c0.14-0.24,0.09-0.5-0.04-0.72l0.37,0.22c0.36,0.2,0.81,0.08,1.02-0.27C234.81,63.41,234.69,62.95,234.33,62.75z"/>
				<g>
					<g id="Axonometric_Cube_125_">
						<polygon id="Cube_face_-_left_1454_" class="st4" points="238.39,244.94 213.77,230.72 213.77,66.69 238.39,80.91 						"/>
						<polygon id="Cube_face_-_right_1395_" class="st5" points="268.95,227.3 238.39,244.94 238.39,80.91 268.95,63.27 						"/>
						<polygon id="Cube_face_-_right_1500_" class="st6" points="268.95,227.3 238.39,244.94 238.39,97.41 268.95,79.77 						"/>
						<polygon id="Cube_face_-_top_1406_" class="st7" points="238.39,80.91 213.77,66.69 244.32,49.05 268.95,63.27 						"/>
					</g>
					<g id="Axonometric_Cube_121_">
						<polygon id="Cube_face_-_left_1452_" class="st8" points="263.41,279.1 219.49,253.74 219.49,167.27 263.41,192.63 						"/>
						<polygon id="Cube_face_-_right_1393_" class="st9" points="330.15,240.56 263.41,279.1 263.41,192.63 330.15,154.1 						"/>
						<polygon id="Cube_face_-_top_1404_" class="st10" points="263.41,192.63 219.49,167.27 286.23,128.74 330.15,154.1 						"/>
					</g>
					<g id="Axonometric_Cube_126_">
						<polygon id="Cube_face_-_left_1479_" class="st8" points="229.65,207.06 188.95,183.56 188.95,188.86 229.65,212.36 						"/>
						<polygon id="Cube_face_-_right_1420_" class="st9" points="360.58,136.77 229.65,212.36 229.65,207.06 360.58,131.47 						
							"/>
						<polygon id="Cube_face_-_top_1431_" class="st10" points="229.65,207.06 188.95,183.56 319.88,107.97 360.58,131.47 						"/>
					</g>
					<g id="Axonometric_Cube_128_">
						<polygon id="Cube_face_-_left_1481_" class="st8" points="275.25,285.93 256.17,274.92 263.45,236.66 275.25,243.47 						"/>
						<polygon id="Cube_face_-_right_1422_" class="st9" points="341.99,247.4 275.25,285.93 275.25,243.47 341.99,204.94 						"/>
						<polygon id="Cube_face_-_top_1433_" class="st10" points="275.25,243.47 263.45,236.66 330.19,198.13 341.99,204.94 						"/>
					</g>
				</g>
				<g>
					<g class="st11">
						<g>
							<polygon class="st10" points="238.18,202.17 276.11,180.18 287.82,186.94 249.89,208.93 							"/>
						</g>
						<g>
							<polygon class="st9" points="261.76,224.63 299.69,202.65 299.68,205.98 261.75,227.97 							"/>
						</g>
						<g>
							<polygon class="st12" points="249.89,208.93 287.82,186.94 299.69,202.65 261.76,224.63 							"/>
							<path class="st8" d="M287.43,188.86l-35.37,20.5c0.18,0.23,9.91,13.11,10.08,13.35l35.37-20.5
								C297.34,201.98,287.61,189.1,287.43,188.86z M252.68,209.49l34.64-20.08l9.58,12.67l-34.64,20.08L252.68,209.49z"/>
						</g>
						<g>
							<polygon class="st8" points="249.89,208.93 261.76,224.63 261.75,227.97 238.2,214.37 238.18,202.17 							"/>
						</g>
					</g>
				</g>
				<g>
					<polygon class="st4" points="339.83,141.36 300.45,118.5 300.34,92.05 339.71,114.9 					"/>
					<polygon class="st7" points="339.71,114.9 300.34,92.05 302.17,90.99 341.54,113.84 					"/>
					<polygon class="st7" points="250.25,193.07 210.87,170.22 300.45,118.5 339.83,141.36 					"/>
					<polygon class="st7" points="248.41,189.75 209.03,166.89 210.86,165.84 250.24,188.69 					"/>
					<polygon class="st4" points="248.43,196.23 209.05,173.38 209.03,166.89 248.41,189.75 					"/>
					<polygon class="st5" points="341.54,113.84 341.66,142.4 248.43,196.23 248.41,189.75 250.24,188.69 250.25,193.07 
						339.83,141.36 339.71,114.9 					"/>
				</g>
				<g>
					<g id="Axonometric_Cube_133_">
						<polygon id="Cube_face_-_left_1558_" class="st3" points="259.53,183.39 250,177.88 226.47,164.3 226.47,160.45 
							259.53,179.54 						"/>
						<polygon id="Cube_face_-_right_1499_" class="st6" points="322.19,147.21 259.53,183.39 259.53,179.54 322.19,143.36 						
							"/>
					</g>
					<g id="Axonometric_Cube_132_">
						<polygon id="Cube_face_-_left_1557_" class="st13" points="259.53,180.19 226.47,161.11 226.47,159.09 259.53,178.18 						
							"/>
						<polygon id="Cube_face_-_right_1498_" class="st14" points="322.19,144.01 259.53,180.19 259.53,178.18 322.19,142 						"/>
						
							<linearGradient id="Cube_face_-_top_00000181067811453964439370000000050937839107144371_" gradientUnits="userSpaceOnUse" x1="226.473" y1="150.5469" x2="322.1895" y2="150.5469">
							<stop  offset="0" style="stop-color:#E4E4E4"/>
							<stop  offset="0.6404" style="stop-color:#D1D1D1"/>
							<stop  offset="0.6453" style="stop-color:#DCDCDC"/>
						</linearGradient>
						
							<polygon id="Cube_face_-_top_1509_" style="fill:url(#Cube_face_-_top_00000181067811453964439370000000050937839107144371_);" points="
							259.53,178.18 226.47,159.09 289.13,122.92 322.19,142 						"/>
					</g>
				</g>
				<g id="Axonometric_Cube_131_">
					<polygon id="Cube_face_-_left_1556_" class="st8" points="241.2,113.53 264.95,127.24 264.95,134.89 241.2,121.18 					"/>
					<polygon id="Cube_face_-_right_1497_" class="st9" points="288.71,121.18 264.95,134.89 264.95,127.24 288.71,113.53 					"/>
					<polygon id="Cube_face_-_top_1508_" class="st10" points="264.95,127.24 241.2,113.53 264.95,99.81 288.71,113.53 					"/>
				</g>
				<g>
					<linearGradient id="SVGID_1_" gradientUnits="userSpaceOnUse" x1="269.1452" y1="152.292" x2="293.7059" y2="152.292">
						<stop  offset="0.2959" style="stop-color:#9F9F9F"/>
						<stop  offset="1" style="stop-color:#B5B5B5"/>
					</linearGradient>
					<path class="st16" d="M269.59,157.22c1.66,0.63,3.51,1.06,5.42,1.31l6.74,0.04c1.88-0.24,3.73-0.66,5.4-1.28l4.8-2.74
						c1.1-0.97,1.81-2.03,2.24-3.13l0.02-5.25c-5.71,6.42-29.61,5.96-31.57-0.12l-0.33,2.45l0.32,2.8c0.4,1.1,1.14,2.17,2.21,3.15
						L269.59,157.22z"/>
					<polygon class="st17" points="262.32,137.01 262.31,142.27 264.9,144.24 264.92,138.99 					"/>
					<polygon class="st18" points="292.02,139.1 292,144.36 294.59,142.35 294.61,137.1 					"/>
					
						<linearGradient id="SVGID_00000135650413029370895870000012967159648481403026_" gradientUnits="userSpaceOnUse" x1="267.7179" y1="143.6693" x2="289.1442" y2="143.6693">
						<stop  offset="0" style="stop-color:#B5B5B5"/>
						<stop  offset="1" style="stop-color:#9F9F9F"/>
					</linearGradient>
					<path style="fill:url(#SVGID_00000135650413029370895870000012967159648481403026_);" d="M285.99,139.75
						c-4.2-2.42-10.98-2.41-15.15,0.01c-2.07,1.2-3.11,2.78-3.11,4.35l-0.01,5.25c0-1.58,1.04-3.15,3.11-4.35
						c4.17-2.42,10.95-2.43,15.15-0.01c2.11,1.22,3.16,2.81,3.15,4.41l0.01-5.25C289.15,142.56,288.1,140.96,285.99,139.75z"/>
					<polygon class="st17" points="258.39,145.68 258.38,150.93 262.62,151.28 262.64,146.03 					"/>
					<polygon class="st20" points="294.21,146.15 294.19,151.4 298.48,151.05 298.49,145.8 					"/>
					<polygon class="st17" points="262.26,151.18 262.24,156.43 266.17,158.7 266.19,153.45 					"/>
					<polygon class="st20" points="266.19,153.45 266.17,158.7 269.59,157.22 269.6,151.96 					"/>
					<polygon class="st17" points="287.17,152.02 287.15,157.27 290.63,158.78 290.64,153.53 					"/>
					<polygon class="st18" points="290.64,153.53 290.63,158.78 294.53,156.51 294.54,151.26 					"/>
					<polygon class="st20" points="281.18,155.76 281.17,161.01 281.75,158.56 281.76,153.31 					"/>
					<polygon class="st17" points="275.02,153.27 275.01,158.52 275.61,161 275.63,155.75 					"/>
					<g>
						
							<linearGradient id="SVGID_00000030449647294785816340000003533374293915459761_" gradientUnits="userSpaceOnUse" x1="258.394" y1="144.1391" x2="298.4933" y2="144.1391">
							<stop  offset="0" style="stop-color:#E4E4E4"/>
							<stop  offset="0.6404" style="stop-color:#D1D1D1"/>
							<stop  offset="0.6453" style="stop-color:#DCDCDC"/>
						</linearGradient>
						<path style="fill:url(#SVGID_00000030449647294785816340000003533374293915459761_);" d="M290.64,153.53l-3.47-1.51
							c-1.68,0.62-3.52,1.04-5.4,1.28l-0.58,2.46l-5.56-0.01l-0.61-2.48c-1.91-0.25-3.76-0.68-5.42-1.31l-3.42,1.48l-3.93-2.27
							l2.59-2.01c-1.07-0.97-1.82-2.04-2.21-3.15l-4.25-0.34l0.01-3.21l4.27-0.36c0.4-1.09,1.14-2.16,2.24-3.13l-2.59-1.97l3.9-2.27
							l3.47,1.51c1.7-0.63,3.54-1.06,5.43-1.27l0.56-2.47l5.58,0l0.59,2.49c1.91,0.25,3.78,0.66,5.44,1.29l3.39-1.47l3.93,2.27
							l-2.59,2.01c1.07,0.97,1.84,2.03,2.23,3.13l4.25,0.34l0,3.22l-4.28,0.34c-0.42,1.1-1.14,2.16-2.24,3.13l2.57,1.98
							L290.64,153.53z M270.89,148.52c4.2,2.42,10.96,2.42,15.13,0c4.17-2.42,4.17-6.35-0.03-8.77c-4.2-2.42-10.98-2.41-15.15,0.01
							C266.68,142.18,266.7,146.1,270.89,148.52L270.89,148.52z"/>
					</g>
					<g>
						
							<rect x="275.77" y="155.61" transform="matrix(2.846528e-03 -1 1 2.846528e-03 119.2239 436.3306)" class="st18" width="5.25" height="5.56"/>
					</g>
				</g>
				<g>
					<g id="Axonometric_Cylinder_57_">
						<path class="st22" d="M291.39,106.98c-2.59-1.55-6.19-1.36-10.17,0.94c-7.87,4.55-14.26,15.6-14.26,24.69
							c0,4.49,1.56,7.66,4.08,9.18l8.06,4.65l20.35-34.81L291.39,106.98z"/>
						<path id="Cylinder_face_406_" class="st23" d="M275.02,137.27c0,9.09,6.38,12.78,14.26,8.23c7.87-4.55,14.26-15.6,14.26-24.69
							c0-9.09-6.38-12.78-14.26-8.23C281.4,117.12,275.02,128.18,275.02,137.27z"/>
					</g>
					<g id="Axonometric_Cube_129_">
						<polygon id="Cube_face_-_left_1515_" class="st4" points="274.07,145.23 260.48,137.39 260.48,114.38 274.07,122.22 						"/>
						<polygon class="st6" points="265.43,119.17 262.16,117.28 262.16,136.42 265.43,138.31 						"/>
						<polygon id="Cube_face_-_right_1456_" class="st5" points="304.75,127.51 274.07,145.23 274.07,122.22 304.75,104.51 						
							"/>
						<polygon id="Cube_face_-_top_1467_" class="st7" points="274.07,122.22 260.48,114.38 291.17,96.66 304.75,104.51 						"/>
					</g>
					<path id="Cylinder_face_430_" class="st9" d="M287.09,130.3c0,1.39,0.98,1.95,2.18,1.26c1.2-0.69,2.18-2.38,2.18-3.77
						c0-1.39-0.98-1.95-2.18-1.26C288.07,127.22,287.09,128.91,287.09,130.3z"/>
				</g>
				<g>
					<path class="st24" d="M320.89,160.77c0.72-0.41,1.37-0.45,1.83-0.17l8.36,4.82c0.47,0.28,0.75,0.85,0.75,1.66
						c0,1.64-1.15,3.63-2.57,4.45c-0.65,0.38-1.27,0.44-1.74,0.24c-0.12-0.05-8.47-4.9-8.47-4.9c-0.46-0.27-0.74-0.84-0.74-1.65
						C318.32,163.58,319.47,161.59,320.89,160.77z"/>
					<g>
						<g id="Axonometric_Cylinder_59_">
							<path class="st25" d="M326.44,158.85c1.93-1.11,3.67-1.21,4.93-0.46l2.68,1.55l-9.86,16.86l-2.68-1.55
								c-1.22-0.73-1.98-2.27-1.98-4.44C319.53,166.41,322.63,161.05,326.44,158.85z"/>
							<path id="Cylinder_face_433_" class="st26" d="M322.21,172.36c0,4.4,3.09,6.19,6.91,3.99c3.81-2.2,6.91-7.56,6.91-11.96
								c0-4.4-3.09-6.19-6.91-3.99C325.3,162.6,322.21,167.96,322.21,172.36z"/>
							<path id="Cylinder_face_432_" class="st3" d="M325.01,170.75c0,2.62,1.84,3.68,4.11,2.37c2.27-1.31,4.11-4.5,4.11-7.12
								c0-2.62-1.84-3.68-4.11-2.37C326.85,164.94,325.01,168.12,325.01,170.75z"/>
							<path id="Cylinder_face_431_" class="st26" d="M327.86,169.1c0,0.8,0.56,1.13,1.26,0.73c0.69-0.4,1.26-1.38,1.26-2.18
								s-0.56-1.13-1.26-0.73C328.42,167.32,327.86,168.3,327.86,169.1z"/>
						</g>
						<path class="st25" d="M327.58,174.16c0.26-0.15,0.5-0.17,0.67-0.06l8.49,4.9c0.17,0.1,0.28,0.31,0.28,0.61
							c0,0.6-0.42,1.34-0.94,1.64c-0.24,0.14-0.47,0.16-0.64,0.09c-0.04-0.02-8.53-4.93-8.53-4.93c-0.17-0.1-0.27-0.31-0.27-0.61
							C326.64,175.19,327.06,174.46,327.58,174.16z"/>
					</g>
				</g>
				<g>
					<path class="st24" d="M297.17,174.46c0.72-0.41,1.37-0.45,1.83-0.17l8.36,4.82c0.47,0.28,0.75,0.85,0.75,1.66
						c0,1.64-1.15,3.63-2.57,4.45c-0.65,0.38-1.27,0.44-1.74,0.24c-0.12-0.05-8.47-4.9-8.47-4.9c-0.46-0.27-0.74-0.84-0.74-1.65
						C294.6,177.28,295.75,175.28,297.17,174.46z"/>
					<g>
						<g id="Axonometric_Cylinder_60_">
							<path class="st25" d="M302.72,172.55c1.93-1.11,3.67-1.21,4.93-0.46l2.68,1.55l-9.86,16.86l-2.68-1.55
								c-1.22-0.73-1.98-2.27-1.98-4.44C295.81,180.1,298.91,174.75,302.72,172.55z"/>
							<path id="Cylinder_face_436_" class="st26" d="M298.49,186.05c0,4.4,3.09,6.19,6.91,3.99c3.81-2.2,6.91-7.56,6.91-11.96
								c0-4.4-3.09-6.19-6.91-3.99C301.58,176.29,298.49,181.65,298.49,186.05z"/>
							<path id="Cylinder_face_435_" class="st3" d="M301.29,184.44c0,2.62,1.84,3.68,4.11,2.37c2.27-1.31,4.11-4.5,4.11-7.12
								s-1.84-3.68-4.11-2.37C303.13,178.63,301.29,181.82,301.29,184.44z"/>
							<path id="Cylinder_face_434_" class="st26" d="M304.14,182.79c0,0.8,0.56,1.13,1.26,0.73c0.69-0.4,1.26-1.38,1.26-2.18
								c0-0.8-0.56-1.13-1.26-0.73C304.7,181.02,304.14,181.99,304.14,182.79z"/>
						</g>
						<path class="st25" d="M303.86,187.85c0.26-0.15,0.5-0.17,0.67-0.06l8.49,4.9c0.17,0.1,0.28,0.31,0.28,0.61
							c0,0.6-0.42,1.34-0.94,1.64c-0.24,0.14-0.47,0.16-0.64,0.09c-0.04-0.02-8.53-4.93-8.53-4.93c-0.17-0.1-0.27-0.31-0.27-0.61
							C302.92,188.89,303.34,188.15,303.86,187.85z"/>
					</g>
				</g>
				<g>
					<g>
						<g>
							<path class="st24" d="M256.79,237.61l-20.01-11.55v-4.08l20.01,11.55V237.61z"/>
							<path class="st9" d="M256,235.81l-20.53-11.85l1.05-2.47l20.53,11.85L256,235.81z"/>
						</g>
						<g>
							<path class="st24" d="M256.79,243.6l-20.01-11.55v-4.08l20.01,11.55V243.6z"/>
							<path class="st9" d="M256,241.8l-20.53-11.85l1.05-2.47l20.53,11.85L256,241.8z"/>
						</g>
						<g>
							<path class="st24" d="M256.79,249.59l-20.01-11.55v-4.08l20.01,11.55V249.59z"/>
							<path class="st9" d="M256,247.79l-20.53-11.85l1.05-2.47l20.53,11.85L256,247.79z"/>
						</g>
						<g>
							<path class="st24" d="M256.79,255.58l-20.01-11.55v-4.08l20.01,11.55V255.58z"/>
							<path class="st9" d="M256,253.78l-20.53-11.85l1.05-2.47l20.53,11.85L256,253.78z"/>
						</g>
					</g>
				</g>
				<g>
					<path class="st6" d="M221.71,90.49c-0.25-0.15-0.48-0.41-0.6-0.7c-0.13-0.29-0.13-0.55,0-0.7l3.61-4.17
						c0.13-0.15,0.35-0.15,0.6,0c0.25,0.15,0.48,0.41,0.6,0.7l3.61,8.35c0.13,0.29,0.13,0.55,0,0.7c-0.13,0.14-0.35,0.14-0.6,0
						L221.71,90.49z"/>
					<path class="st27" d="M221.42,89.53l3.61-4.17c0.08-0.09,0.27,0.02,0.34,0.2l3.61,8.34c0.08,0.18-0.02,0.29-0.17,0.2
						l-7.23-4.17C221.44,89.84,221.35,89.62,221.42,89.53z"/>
					<path class="st6" d="M224.89,89.89c-0.09-0.05-0.16-0.16-0.16-0.25l-0.2-2.54c-0.08-0.9,1.21-0.06,1.14,0.66l-0.2,2.31
						c-0.01,0.08-0.08,0.11-0.16,0.06L224.89,89.89z M225.1,90.55c-0.27-0.15-0.48-0.06-0.48,0.2s0.22,0.61,0.48,0.76
						c0.27,0.15,0.48,0.06,0.48-0.2S225.37,90.71,225.1,90.55z"/>
				</g>
				<g>
					<g>
						<path class="st6" d="M301.43,113.58c0.7-0.4,1.27-1.3,1.27-1.99v-2.34c0-0.7-0.57-0.94-1.27-0.53l-6.58,3.8
							c-0.7,0.4-1.26,1.3-1.26,1.99v2.34c0,0.7,0.57,0.94,1.26,0.53L301.43,113.58z"/>
						<path class="st28" d="M294.85,117.06l6.58-3.8c0.52-0.3,0.94-0.96,0.94-1.48v-2.34c0-0.52-0.42-0.69-0.94-0.4l-6.58,3.8
							c-0.52,0.3-0.94,0.96-0.94,1.48v2.34C293.91,117.18,294.33,117.36,294.85,117.06z"/>
					</g>
					<g>
						<polygon class="st6" points="295.09,114.1 301.19,110.58 301.19,110.3 295.09,113.82 						"/>
						<polygon class="st6" points="295.09,114.93 301.19,111.41 301.19,111.12 295.09,114.64 						"/>
						<polygon class="st6" points="295.09,115.75 301.19,112.23 301.19,111.95 295.09,115.47 						"/>
					</g>
				</g>
				<g>
					<path class="st25" d="M261.19,209.21c0.67,0.87,0.54,1.96-0.28,2.44c-0.82,0.48-2.03,0.15-2.7-0.72
						c-0.67-0.87-0.54-1.96,0.28-2.44C259.32,208.02,260.53,208.34,261.19,209.21z"/>
					<path class="st25" d="M265.87,206.51c0.66,0.87,0.53,1.96-0.29,2.44c-0.82,0.48-2.03,0.15-2.69-0.72
						c-0.66-0.87-0.54-1.96,0.29-2.44C264,205.32,265.2,205.64,265.87,206.51z"/>
					<path class="st29" d="M270.54,203.81c0.66,0.87,0.53,1.96-0.29,2.44c-0.82,0.48-2.03,0.15-2.69-0.72
						c-0.66-0.87-0.53-1.96,0.29-2.44C268.68,202.61,269.88,202.93,270.54,203.81z"/>
					<g>
						<path class="st9" d="M274.29,202.81c0.32,0.42,0.26,0.95-0.14,1.18c-0.4,0.23-0.98,0.07-1.29-0.35
							c-0.32-0.42-0.26-0.95,0.14-1.18C273.4,202.24,273.98,202.39,274.29,202.81z"/>
						<path class="st9" d="M277.27,201.09c0.32,0.42,0.25,0.95-0.14,1.18c-0.4,0.23-0.98,0.07-1.29-0.35
							c-0.32-0.42-0.25-0.95,0.14-1.18C276.37,200.52,276.95,200.67,277.27,201.09z"/>
						<path class="st9" d="M280.24,199.38c0.32,0.42,0.25,0.95-0.14,1.18c-0.4,0.23-0.98,0.07-1.29-0.35
							c-0.32-0.42-0.25-0.95,0.14-1.18C279.35,198.8,279.92,198.96,280.24,199.38z"/>
						<path class="st9" d="M278.41,208.4c0.32,0.42,0.26,0.95-0.14,1.18c-0.4,0.23-0.97,0.07-1.29-0.35
							c-0.32-0.42-0.26-0.95,0.14-1.18C277.52,207.82,278.1,207.98,278.41,208.4z"/>
						<path class="st9" d="M281.38,206.68c0.32,0.42,0.25,0.95-0.14,1.18c-0.4,0.23-0.97,0.07-1.29-0.35
							c-0.32-0.42-0.26-0.95,0.14-1.18C280.48,206.1,281.06,206.26,281.38,206.68z"/>
						<path class="st9" d="M284.35,204.96c0.32,0.42,0.25,0.95-0.14,1.18c-0.4,0.23-0.97,0.07-1.29-0.35
							c-0.32-0.42-0.25-0.95,0.14-1.18C283.45,204.38,284.03,204.54,284.35,204.96z"/>
					</g>
					<path class="st25" d="M265.64,215.18c0.67,0.87,0.54,1.96-0.28,2.44c-0.82,0.48-2.03,0.15-2.69-0.72
						c-0.67-0.87-0.54-1.96,0.28-2.44C263.77,213.99,264.97,214.31,265.64,215.18z"/>
					<path class="st25" d="M270.3,212.48c0.66,0.87,0.54,1.96-0.28,2.44c-0.82,0.48-2.02,0.15-2.69-0.72
						c-0.66-0.87-0.54-1.96,0.28-2.44C268.43,211.29,269.64,211.61,270.3,212.48z"/>
					<path class="st30" d="M274.97,209.78c0.66,0.87,0.53,1.96-0.29,2.44c-0.82,0.48-2.02,0.15-2.69-0.72
						c-0.66-0.87-0.53-1.96,0.29-2.44C273.1,208.58,274.3,208.91,274.97,209.78z"/>
				</g>
			</g>
			<g id="_x35_">
				<g>
					<g id="Axonometric_Cube_91_">
						<polygon id="Cube_face_-_left_856_" class="st8" points="150.91,320.15 107.22,294.93 107.22,290.17 150.91,315.4 						"/>
						<polygon id="Cube_face_-_right_796_" class="st9" points="181.81,302.31 150.91,320.15 150.91,315.4 181.81,297.55 						"/>
						<polygon id="Cube_face_-_top_800_" class="st10" points="150.91,315.4 107.22,290.17 138.13,272.33 181.81,297.55 						"/>
					</g>
					<g class="st11">
						<g>
							<polygon class="st12" points="137.12,258.15 151.86,249.58 165.1,296.39 150.36,304.95 							"/>
						</g>
						<g>
							<polygon class="st9" points="137.16,244.12 151.9,235.56 151.86,249.58 137.12,258.15 							"/>
						</g>
						<g>
							<polygon class="st10" points="118.54,233.37 133.28,224.8 151.9,235.56 137.16,244.12 							"/>
						</g>
						<g>
							<polygon class="st8" points="137.16,244.12 137.12,258.15 150.36,304.95 118.39,286.49 118.54,233.37 							"/>
						</g>
					</g>
				</g>
				<g id="Axonometric_Cube_93_">
					<polygon id="Cube_face_-_left_890_" class="st4" points="137.18,211 118.54,200.24 118.54,233.37 137.18,244.13 					"/>
					<polygon id="Cube_face_-_right_830_" class="st5" points="151.96,235.6 137.18,244.13 137.18,211 151.96,202.47 					"/>
					<polygon id="Cube_face_-_top_834_" class="st7" points="137.18,211 118.54,200.24 133.32,191.71 151.96,202.47 					"/>
				</g>
				<g>
					<g>
						<g>
							<g class="st11">
								
									<linearGradient id="SVGID_00000010295844442163965180000013930758043643333806_" gradientUnits="userSpaceOnUse" x1="170.5897" y1="198.3661" x2="189.8896" y2="231.7944">
									<stop  offset="0" style="stop-color:#5874D9"/>
									<stop  offset="1" style="stop-color:#4A60C6"/>
								</linearGradient>
								<path style="fill:url(#SVGID_00000010295844442163965180000013930758043643333806_);" d="M199.17,208.76
									c-1.12-2.53-2.65-4.96-4.45-7c-1.52-1.73-3.22-3.19-5.02-4.23l-57.05-32.94l-3.24,1.88l57.05,32.94
									c1.8,1.04,3.5,2.5,5.02,4.23c1.8,2.05,3.33,4.47,4.45,7c1.26,2.86,2,5.86,1.99,8.62c-0.01,3.62-1.29,6.17-3.36,7.37
									l3.24-1.88c2.07-1.2,3.35-3.75,3.36-7.37C201.17,214.61,200.43,211.61,199.17,208.76z"/>
								<path class="st4" d="M186.46,199.41l-57.05-32.94l-0.07,26.43l57.05,32.94c6.35,3.66,11.52,0.72,11.54-6.58
									C197.94,211.97,192.81,203.07,186.46,199.41z"/>
							</g>
							<polygon id="Cube_face_-_top_1004_" class="st32" points="161.98,202.9 124.5,181.26 139.18,172.79 176.65,194.42 							"/>
							<g id="Axonometric_Cube_100_">
								<polygon id="Cube_face_-_right_992_" class="st5" points="139.95,173.23 125.28,181.71 125.28,181.01 139.95,172.54 
																	"/>
								<polygon id="Cube_face_-_top_1003_" class="st7" points="125.28,181.01 114.74,174.93 129.95,166.15 139.95,172.54 								
									"/>
							</g>
							<path class="st7" d="M191.48,203.63l3.24-1.88c1.8,2.05,3.33,4.47,4.45,7l-3.24,1.88
								C194.81,208.1,193.28,205.68,191.48,203.63L191.48,203.63z"/>
							<g id="Axonometric_Cylinder_29_">
								<path id="Cylinder_face_279_" class="st23" d="M180.24,228.47c0,6.53-4.58,9.17-10.23,5.91
									c-5.65-3.26-10.23-11.2-10.23-17.73s4.58-9.17,10.23-5.91C175.65,214.01,180.24,221.94,180.24,228.47z"/>
								<path id="Cylinder_body_254_" class="st32" d="M162.7,210.07l16.55-9.55c1.86-1.11,4.44-0.97,7.3,0.68
									c5.65,3.26,10.23,11.2,10.23,17.73c0,3.22-1.12,5.5-2.93,6.59l-16.55,9.56c1.81-1.09,2.93-3.36,2.93-6.59
									c0-6.53-4.58-14.46-10.23-17.73C167.14,209.09,164.56,208.95,162.7,210.07z"/>
							</g>
							
								<linearGradient id="SVGID_00000131340632231496518680000002711296786666486436_" gradientUnits="userSpaceOnUse" x1="173.1213" y1="195.694" x2="192.6434" y2="229.5072">
								<stop  offset="0" style="stop-color:#5874D9"/>
								<stop  offset="1" style="stop-color:#4A60C6"/>
							</linearGradient>
							<path style="fill:url(#SVGID_00000131340632231496518680000002711296786666486436_);" d="M186.51,199.36l-9.18-5.3
								l-14.25,8.24l9.18,5.3c1.8,1.04,3.5,2.5,5.02,4.23l14.25-8.24C190.02,201.86,188.31,200.4,186.51,199.36z"/>
							<g class="st11">
								
									<linearGradient id="SVGID_00000089567803424152013600000016505129191698073739_" gradientUnits="userSpaceOnUse" x1="153.3934" y1="207.5957" x2="172.6933" y2="241.024">
									<stop  offset="0" style="stop-color:#5874D9"/>
									<stop  offset="1" style="stop-color:#4A60C6"/>
								</linearGradient>
								<path style="fill:url(#SVGID_00000089567803424152013600000016505129191698073739_);" d="M182.28,218.51
									c-1.12-2.53-2.65-4.96-4.45-7c-1.52-1.73-3.22-3.19-5.02-4.23l-57.05-32.94l-3.24,1.88l57.05,32.94
									c1.8,1.04,3.5,2.5,5.02,4.23c1.8,2.05,3.33,4.47,4.45,7c1.26,2.86,2,5.86,1.99,8.62c-0.01,3.62-1.29,6.17-3.36,7.37
									l3.24-1.88c2.07-1.2,3.35-3.75,3.36-7.37C184.28,224.37,183.54,221.37,182.28,218.51z"/>
								<path class="st4" d="M169.56,209.16l-57.05-32.94l-0.03,26.46l57,32.91c6.35,3.66,11.52,0.72,11.54-6.58
									C181.05,221.72,175.91,212.82,169.56,209.16z"/>
								<polygon class="st3" points="168.77,219.09 136.87,200.67 136.86,206.73 168.77,225.16 								"/>
							</g>
							<path class="st7" d="M174.59,213.39l3.24-1.88c1.8,2.05,3.33,4.47,4.45,7l-3.24,1.88
								C177.92,217.86,176.38,215.44,174.59,213.39L174.59,213.39z"/>
						</g>
						<g id="Axonometric_Cube_95_">
							<polygon id="Cube_face_-_left_977_" class="st4" points="169.79,205.72 166.85,204.03 166.85,205.72 169.79,207.41 							
								"/>
							<polygon id="Cube_face_-_right_917_" class="st5" points="187.3,197.31 169.79,207.41 169.79,205.72 187.3,195.61 							"/>
							<polygon id="Cube_face_-_top_922_" class="st7" points="169.79,205.72 166.85,204.03 184.36,193.92 187.3,195.61 							"/>
						</g>
						<g>
							<g id="Axonometric_Cube_97_">
								<polygon class="st35" points="173.82,206.97 170.72,205.18 170.72,206.86 173.82,208.65 175.1,207.91 175.1,206.23 								
									"/>
								<polygon id="Cube_face_-_top_955_" class="st36" points="173.82,206.97 170.72,205.18 172,204.44 175.1,206.23 								"/>
							</g>
							<g id="Axonometric_Cube_99_">
								<polygon class="st35" points="188.21,198.66 185.11,196.87 185.11,198.55 188.21,200.34 189.49,199.6 189.49,197.93 
																	"/>
								<polygon id="Cube_face_-_top_957_" class="st36" points="188.21,198.66 185.11,196.87 186.39,196.14 189.49,197.93 								
									"/>
							</g>
							<g class="st11">
								<path class="st36" d="M195.89,198.41c-2.61-1.51-5.07-1.76-6.92-0.71l-15.58,9.04c1.85-1.05,4.31-0.8,6.92,0.71l11.39,6.58
									l15.58-9.04L195.89,198.41z"/>
								<path class="st35" d="M191.7,214.02l-11.39-6.58c-2.61-1.51-5.07-1.76-6.92-0.71l0.42,0.27c1.84-0.79,4.1-0.48,6.51,0.9
									l11.39,6.58c0,0,15.58-9.03,15.58-9.03l0-0.47L191.7,214.02z"/>
							</g>
						</g>
						<g>
							<g id="Axonometric_Cube_106_">
								<polygon class="st35" points="125.29,179.26 122.19,177.47 122.19,179.15 125.29,180.94 126.57,180.2 126.57,178.52 
																	"/>
								<polygon id="Cube_face_-_top_1040_" class="st36" points="125.29,179.26 122.19,177.47 123.47,176.73 126.56,178.52 
																	"/>
							</g>
							<g id="Axonometric_Cube_104_">
								<polygon class="st35" points="139.68,170.95 136.58,169.16 136.58,170.84 139.68,172.63 140.95,171.89 140.95,170.21 
																	"/>
								<polygon id="Cube_face_-_top_1039_" class="st36" points="139.68,170.95 136.58,169.16 137.86,168.42 140.95,170.21 
																	"/>
							</g>
							<g class="st11">
								<path class="st36" d="M147.36,170.7c-2.61-1.51-5.07-1.76-6.92-0.71l-15.58,9.04c1.85-1.05,4.31-0.8,6.92,0.71l20.23,11.68
									l15.58-9.04L147.36,170.7z"/>
								<path class="st35" d="M152.01,191.41l-20.23-11.68c-2.61-1.51-5.07-1.76-6.92-0.71l0.42,0.27c1.84-0.79,4.1-0.48,6.51,0.9
									l20.23,11.68c0,0,15.58-9.03,15.58-9.03l0-0.47L152.01,191.41z"/>
							</g>
						</g>
						<path class="st8" d="M169.33,217.26c-2.78-1.61-5.04-0.3-5.04,2.91s2.25,7.12,5.04,8.72c2.78,1.61,5.04,0.3,5.04-2.91
							C174.36,222.77,172.11,218.86,169.33,217.26z"/>
					</g>
					<g id="Axonometric_Cube_102_">
						<polygon id="Cube_face_-_left_1088_" class="st3" points="115.83,223.01 97.05,212.17 97.05,189.43 115.83,200.27 						"/>
						<polygon id="Cube_face_-_right_1026_" class="st6" points="131.28,214.09 115.83,223.01 115.83,200.27 131.28,191.35 						
							"/>
						<polygon id="Cube_face_-_top_1037_" class="st25" points="115.83,200.27 97.05,189.43 112.51,180.51 131.28,191.35 						"/>
						<polygon class="st7" points="100.83,188.86 113.92,181.3 119.52,184.54 106.43,192.09 						"/>
						<polygon class="st7" points="111.05,194.77 124.15,187.21 129.74,190.44 116.65,198 						"/>
					</g>
					<g class="st11">
						
							<linearGradient id="SVGID_00000096056422735804236390000011376160637315888267_" gradientUnits="userSpaceOnUse" x1="435.2835" y1="199.2517" x2="425.4608" y2="216.2651" gradientTransform="matrix(-1 0 0 1 532.9629 0)">
							<stop  offset="0" style="stop-color:#5874D9"/>
							<stop  offset="1" style="stop-color:#4A60C6"/>
						</linearGradient>
						<path style="fill:url(#SVGID_00000096056422735804236390000011376160637315888267_);" d="M100.76,197.48
							c1.52-0.88,3.64-0.74,5.97,0.65c4.52,2.7,8.11,9.07,8.02,14.21c-0.05,2.5-0.95,4.25-2.39,5.09l-11.95,6.95l-11.6-19.96
							L100.76,197.48z"/>
						<path class="st4" d="M85.08,211.38c-0.06,4.83,2.85,10.01,7.06,12.58c1.41,0.86,3.04,1.3,4.02,1.35
							c1.7,0.09,2.77-0.15,4.25-0.93c1.44-0.83,2.34-2.59,2.39-5.09c0.09-5.15-3.5-11.51-8.02-14.21c-2.33-1.39-4.45-1.54-5.97-0.65
							C85.32,206.54,85.15,210.05,85.08,211.38z"/>
						
							<linearGradient id="SVGID_00000168832996479347799480000006617962306222420662_" gradientUnits="userSpaceOnUse" x1="437.7285" y1="202.1672" x2="432.1398" y2="208.6966" gradientTransform="matrix(-1 0 0 1 532.9629 0)">
							<stop  offset="0" style="stop-color:#3C4AAE"/>
							<stop  offset="0.2126" style="stop-color:#313C8E"/>
							<stop  offset="0.6762" style="stop-color:#151A3C"/>
							<stop  offset="1" style="stop-color:#000000"/>
						</linearGradient>
						<path style="opacity:0.3;fill:url(#SVGID_00000168832996479347799480000006617962306222420662_);" d="M88.42,212.75
							c0.51-4.52,0.63-6.66,4.59-9.04c1.49-0.89,11.31-6.6,11.31-6.6c0.76,0.19,1.57,0.52,2.4,1.02c1.47,0.88,2.84,2.15,4.01,3.63
							c-0.74,0.44-10.42,5.06-12.52,6.97c-1.62,1.47-4.53,4.9-5.31,6.7C91.17,215.31,89.73,213.99,88.42,212.75z"/>
						<path class="st39" d="M91.46,210.68c2.72,1.62,4.87,5.45,4.82,8.54c-0.06,3.1-2.31,4.29-5.02,2.67
							c-2.72-1.62-4.88-5.45-4.82-8.54C86.5,210.25,88.74,209.06,91.46,210.68z"/>
						<path class="st40" d="M90.98,221.28c-0.44-0.29-0.85-0.65-1.24-1.05l3.24,1.87c-0.39-0.05-0.81-0.18-1.25-0.39L90.98,221.28z
							 M90.65,216.55c-0.06-0.13-0.11-0.27-0.14-0.41l-3.63-2.09c0,0.11,0.01,0.23,0.02,0.34L90.65,216.55z M93.93,222.07
							c0.13-0.03,0.25-0.07,0.37-0.12l-5.88-3.39c0.12,0.19,0.24,0.37,0.37,0.55L93.93,222.07z M90.51,215.56
							c0.03-0.1,0.08-0.19,0.14-0.25l-3.74-2.16c-0.01,0.1-0.02,0.2-0.03,0.31L90.51,215.56z M94.8,221.67
							c0.08-0.06,0.15-0.13,0.22-0.2l-7.32-4.22c0.07,0.16,0.15,0.31,0.22,0.46L94.8,221.67z M95.34,221.07
							c0.05-0.08,0.09-0.17,0.14-0.25l-8.22-4.75c0.05,0.14,0.09,0.27,0.14,0.41L95.34,221.07z M95.67,220.36
							c0.03-0.09,0.05-0.19,0.08-0.29L87,215.01c0.02,0.13,0.05,0.25,0.07,0.38L95.67,220.36z M92.24,217.13
							c-0.03,0.1-0.08,0.19-0.14,0.25l3.74,2.16c0.01-0.1,0.02-0.2,0.03-0.31L92.24,217.13z M92.1,216.15
							c0.06,0.13,0.11,0.27,0.14,0.41l3.63,2.09c0-0.11-0.01-0.23-0.02-0.34L92.1,216.15z M87.08,212.34
							c-0.03,0.09-0.05,0.19-0.08,0.29l8.75,5.05c-0.02-0.13-0.05-0.25-0.07-0.38L87.08,212.34z M87.41,211.62
							c-0.05,0.08-0.09,0.17-0.14,0.25l8.22,4.75c-0.05-0.14-0.09-0.27-0.14-0.41L87.41,211.62z M87.95,211.02
							c-0.08,0.06-0.15,0.13-0.22,0.2l7.32,4.22c-0.07-0.16-0.15-0.31-0.22-0.46L87.95,211.02z M88.82,210.62
							c-0.13,0.03-0.25,0.07-0.37,0.12l5.88,3.39c-0.12-0.19-0.24-0.37-0.37-0.55L88.82,210.62z M91.01,210.98
							c-0.44-0.21-0.86-0.34-1.25-0.39l3.24,1.87c-0.39-0.4-0.81-0.76-1.24-1.05L91.01,210.98z"/>
					</g>
					<g>
						<g id="Axonometric_Cube_103_">
							<polygon id="Cube_face_-_right_1027_" class="st5" points="127.92,213.27 117.95,219.03 117.95,207.02 127.92,201.26 							
								"/>
						</g>
						<g>
							<g>
								<g>
									<path class="st4" d="M122.79,207.78c-1.12,0.64-2.01,2.22-2.01,3.5c0,1.28,0.91,1.82,2.02,1.18
										c1.12-0.64,2.03-2.23,2.03-3.52C124.83,207.66,123.91,207.13,122.79,207.78z"/>
									<g class="st11">
										<path class="st41" d="M121.67,209.9c0.17-0.38,0.39-0.74,0.66-1.04c0.22-0.25,0.47-0.47,0.74-0.62
											c0.48-0.27,0.91-0.3,1.22-0.12l1.02,0.59l-2.41,4.19l-1.02-0.59c-0.31-0.18-0.5-0.57-0.5-1.11
											C121.37,210.79,121.48,210.33,121.67,209.9z"/>
										<g>
											<path class="st42" d="M124.09,208.84c-0.94,0.54-1.7,1.88-1.7,2.96c0,1.08,0.76,1.54,1.71,0.99
												c0.94-0.54,1.72-1.89,1.72-2.97C125.82,208.74,125.04,208.29,124.09,208.84z"/>
										</g>
									</g>
								</g>
							</g>
						</g>
					</g>
				</g>
			</g>
		</g>
		<g>
			<path class="st43" d="M336.59,156.24c5,2.4,4.54,33.6-0.32,34.04c-2.69,0.25-25.3-1.34-25.53-1.64c-0.74-0.97-0.77-4.83,0.5-5.72
				l20.73-1.93c0,0-2.54-18.81-2.48-21.6C329.52,158.13,331.62,153.86,336.59,156.24z"/>
			<path class="st44" d="M304.78,211.45c-1.5,9.02,31.95,7.74,30.45-2.52c-0.33-4.94-1.83-10.33-1.48-16.26
				c1.13-18.93,12.72-37.91-1.61-37.81c0.09,0-0.14-0.01-0.62,0c-1.94,0.04-3.87,0.35-5.74,0.87l-9.86,2.76
				c-3.56,1-7,2.44-10.16,4.36c-3.38,2.06-3.54,2.82-4.18,5.33C300.91,170.78,308.44,184.48,304.78,211.45z"/>
			<g>
				<path class="st45" d="M338.95,269.85l-18.33-2.57c-1.81,0.64-1.3,4.97-0.68,6.77c0.25,0.72,10.39,2.49,12.48,2.94
					c1.8,0.39,4.11,0.25,5.76-0.67c0.31-0.18,0.95-0.57,0.93-1.02C339.12,275.31,338.97,270.44,338.95,269.85z"/>
				<path class="st46" d="M336.27,276.77c-1.51,0.3-3.06,0.25-4.56-0.02c-1.93-0.35-8.65-1.98-10.63-2.68l0.67,2.09
					c1.8,0.67,11.2,2.47,12.15,2.42c3.85,0.07,4.88-1.03,5.17-1.52c0.08-0.14,0.11-0.31,0.1-0.47l-0.06-1.46
					C339.11,275.12,339.1,276.21,336.27,276.77z"/>
			</g>
			<g>
				<path class="st45" d="M320.66,296.56c0-0.23,0.01-0.47,0.01-0.7c0.05-2.74,0.1-5.48,0.15-8.22c-1.87-0.52-3.78-0.89-5.71-1.09
					l-6.22,1.05c-2.03,3.12-15.02,1.43-15.68,6.29c-1.01,4.27,11.84,4.53,13.8,4.16c1.44-0.28,3.82-0.56,4.94-0.88
					C311.96,297.16,320.65,296.85,320.66,296.56z"/>
				<path class="st46" d="M320.57,295.8c-0.51,0.49-6.65,1-8.12,1.13c-7.31,0.65-11.2,0.42-14.28,0.29
					c-1.36-0.06-2.72-0.42-3.79-1.26c-0.7-0.55-1.21-1.27-1.08-2.25c-0.31,0.6-0.33,1.31,0.05,2.2c0.55,1.29,1.74,2.23,3.11,2.54
					c3.56,0.8,12.35,0.21,14.35,0.04c1.96-0.17,9.1-0.62,9.61-1.1c0.21-0.2,0.23-0.53,0.24-0.82c0.01-0.32,0.01-0.64,0.02-0.96
					C320.64,295.66,320.63,295.74,320.57,295.8z"/>
				<path class="st47" d="M336.4,237.12c-0.38-1.4-1-4.69-0.91-6.14c0.49-8.02,1.32-23.92-1.7-34.02
					c-1.04,5.91-8.79,7.27-14.54,7.71c-8.04,0.61-13.67-1.68-13.67-1.68s-1.24,12.3-1.41,15.4c0,0-1.5,15.15-0.45,23.66
					c0.99,7.99,2.32,12,2.67,17.1c0.48,7.05,0.48,20.03,0.55,29.32c0.04,4.91,13.96,4.72,14.23,0.69c1.88-28.6,0.24-24.72-1-42.52
					c-0.22-3.22-0.04-5.65,0.53-8.84c0.38-2.11,0.76-4.22,1.13-6.34c0.11,1.81,0.2,3.32,0.26,4.36c0.31,5.55,4.06,27.21,4.94,34.21
					c0.47,4.2,12.76,2.71,12.68,0.71C338.71,247.9,338.13,243.5,336.4,237.12z"/>
			</g>
			<path class="st43" d="M301.35,177.64c0.56,6.81,1.41,14.44,1.41,14.44c-2.9,0.45-5.8,0.9-8.7,1.35c-2.1,0.33-4.21,0.65-6.31,0.98
				c-2.49,0.39-4.77-0.27-7.3-0.31c-0.46-0.01-0.92-0.01-1.37,0.12c-0.73,0.21-1.33,0.73-1.84,1.29c-1.22,1.35-2.05,3.01-2.66,4.72
				c-0.27,0.74-0.48,1.61-0.07,2.28c0.38,0.62,1.18,0.85,1.91,0.89c1.21,0.07,2.43-0.24,3.46-0.87c0.55-0.33,1.04-0.76,1.61-1.04
				c1.82-0.9,4.51-0.57,6.54-0.71c2.35-0.16,4.7-0.33,7.05-0.51c4.73-0.36,9.47-0.69,14.18-1.24c1.61-0.19,2.86-1.46,3.02-3.08
				c0.43-4.4,1.01-13.24-0.17-20.58C308.54,176.19,304.95,176.96,301.35,177.64z"/>
			<path class="st44" d="M315.15,188.35c0.3-7.84-2.54-17.58-6.51-22.33c-4.32-5.17-7.31,0.23-7.63,1.46
				c-0.45,1.76-1.68,12.88-1.01,19.57C299.37,190.57,314.43,191.61,315.15,188.35z"/>
			<path class="st44" d="M341.93,178.93c-0.48-7.83-1.25-18.73-4.71-22.69c-4.13-3.53-9.93,1.33-10.12,2.58
				c-0.27,1.79-0.4,12.98,0.93,19.57C327.74,181.95,341.54,182.24,341.93,178.93z"/>
			<path class="st43" d="M302.25,147.37c1.53-1.67,1.36-2.79,1.62-4.32c0.3-1.75,1.14-3.34,1.7-5.01c0.52-1.54,0.39-3.13,1.88-4.13
				c0.72-0.49,1.61-0.66,2.46-0.82c0.44-0.08,0.88-0.16,1.32-0.24c0.73-0.14,1.47-0.27,2.21-0.27c1.26,0,2.48,0.38,3.69,0.77
				c2.21,0.7,4.58,1.52,5.89,3.43c0.49,0.72,0.8,1.56,1.09,2.39c0.6,1.72,1.17,3.53,0.96,5.35c-0.26,2.25-1.68,4.24-1.95,6.49
				c-0.23,1.93,0.46,3.95,1.83,5.33c-0.09,1.11-0.62,2.11-2.07,2.88c-2.2,1.44-5.43,1.3-8.05,1.4c-0.31,0.01-0.64,0.02-0.94-0.07
				c-1.42-0.45-1.45-2.81-2.87-3.27c-0.32-0.1-0.66-0.09-1-0.06c-1.06,0.07-2.14,0.18-3.19-0.01c-1.05-0.19-2.09-0.75-2.58-1.7
				c-0.34-0.67-0.37-1.45-0.43-2.2c-0.08-1.02-0.21-2.03-0.39-3.04c-0.04-0.21-0.08-0.43-0.2-0.61c-0.38-0.6-1.44-0.73-1.45-1.44
				C301.77,147.88,302.02,147.61,302.25,147.37z"/>
			<path class="st48" d="M314.22,148.79c5.2,0.42,0.67,9.17,8.64,5.41c0.91-0.43,0.95-0.67,1.06-1.51
				c0.43-3.28,5.02-8.06,1.59-15.49c-2.3-4.99-9.45-6.92-14.29-5.7c-1.81,0.46-4.26,1.26-5.2,3.02c-0.49,0.93-0.66,2.77-0.55,3.32
				c0.11,0.57,0.93,1.9,2.26,2.82c1.22,0.83,1.45,0.9,1.64,2.9c0.15,1.67,0.55,3.32,1.18,4.87
				C311.26,150.19,311.89,148.6,314.22,148.79z"/>
			<g>
				<path class="st47" d="M316.95,144.66c-3.11,0-12.64-1.64-13.06-5.91c0,0,1.67-13.71,16-10.43c9.23,2.61,7.01,13.06,7.01,13.06
					C326.56,142.99,323.22,144.66,316.95,144.66z"/>
				<path class="st49" d="M304.37,136.71c0,0-5.85,0.46-6.06,1.31c-0.27,1.09,0.09,2.66,0.37,3.63c0.3,1.03,3.94,1.6,6.23,2.02
					c1.73,0.32,6.67,0.38,9.07,0.71C311.9,143.86,304.09,140.16,304.37,136.71z"/>
				<path class="st49" d="M315.18,129.39c-0.04,0.4,0.62,0.78,1.47,0.87c0.85,0.08,1.57-0.17,1.61-0.56
					c0.04-0.4-0.62-0.78-1.47-0.87C315.94,128.74,315.22,129,315.18,129.39z"/>
			</g>
			<path class="st47" d="M327.06,188c3.68-11.44,5.82-23.93,6.32-29.51c0.12-1.3-0.22-2.56-0.88-3.61c-0.12,0-0.23-0.01-0.36-0.01
				c0.09,0-0.14-0.01-0.62,0c-0.99,0.02-1.98,0.12-2.96,0.27c1.29,0.44,2.14,1.72,2.01,3.11c-0.51,5.67-2.39,16.24-5.37,26.27
				l-10.26-19.29c-1.04-2.12-2.67-3.79-4.58-4.74c-1.31,0.58-2.59,1.23-3.83,1.95c0.82-0.02,1.64,0.12,2.48,0.52
				c1.41,0.67,2.61,1.91,3.42,3.56l11.58,21.78c-2.68,8.04-6.08,15.25-10.06,18.59l1.81,2.16c4.01-3.36,7.37-9.94,10.05-17.36
				l5.67,10.67l2.49-1.32L327.06,188z"/>
		</g>
	</g>
</g>
</svg>
