<?xml version="1.0" encoding="utf-8"?>
<!-- Generator: Adobe Illustrator 27.3.1, SVG Export Plug-In . SVG Version: 6.00 Build 0)  -->
<svg version="1.1" id="Layer_1" xmlns="http://www.w3.org/2000/svg" xmlns:xlink="http://www.w3.org/1999/xlink" x="0px" y="0px"
	 viewBox="0 0 500 500" style="enable-background:new 0 0 500 500;" xml:space="preserve">
<style type="text/css">
	.st0{opacity:0.41;}
	.st1{fill:#E1E2FE;}
	.st2{opacity:0.31;}
	.st3{opacity:0.47;fill:#ECF1F7;enable-background:new    ;}
	.st4{opacity:0.47;fill:#E1E2FE;enable-background:new    ;}
	.st5{opacity:0.81;fill:#E1E2FE;enable-background:new    ;}
	.st6{opacity:0.58;fill:#3E479B;enable-background:new    ;}
	.st7{opacity:0.58;fill:#EF929C;enable-background:new    ;}
	.st8{opacity:0.66;}
	.st9{fill:#FFFFFF;}
	.st10{opacity:0.81;}
	.st11{opacity:0.66;fill:#FFFFFF;enable-background:new    ;}
	.st12{opacity:0.14;fill:#3E479B;enable-background:new    ;}
	.st13{fill:#F7A9B4;}
	.st14{opacity:0.39;fill:#F7A9B4;enable-background:new    ;}
	.st15{fill:#599AF2;}
	.st16{opacity:0.07;fill:#ECF1F7;enable-background:new    ;}
	.st17{fill:#3E479B;}
	.st18{opacity:0.74;fill:#6D6CD4;enable-background:new    ;}
	.st19{opacity:0.39;fill:#6D6CD4;enable-background:new    ;}
	.st20{opacity:0.39;fill:#3E479B;enable-background:new    ;}
	.st21{fill:#6161B5;}
	.st22{opacity:0.28;}
	.st23{opacity:0.21;fill:#FFFFFF;enable-background:new    ;}
	.st24{opacity:0.76;fill:#FFFFFF;enable-background:new    ;}
	.st25{fill:none;}
	.st26{fill:#4C65BA;}
	.st27{opacity:0.43;fill:#3E479B;enable-background:new    ;}
	.st28{fill:#F28393;}
	.st29{opacity:0.12;fill:#FFFFFF;enable-background:new    ;}
</style>
<g id="BACKGROUND">
	<g>
		<g>
			<g class="st0">
				<g>
					<g>
						<path class="st1" d="M499.76,314.49c0.47-8.03,0.26-16.1-0.65-24.09c-4.25-37.54-23.51-72.93-51.85-97.9
							c-10.11-8.91-21.62-16.89-28.2-28.65c-11.08-19.81-10.24-42.57-24-62.13c-13.77-19.58-33.84-34.85-56.47-42.69
							c-67.47-23.38-161.94,14.69-153.43,95.98c0.03,0.29,0.06,0.72,0.1,1.25c1.13,16.89-12.12,31.08-28.99,31.48
							c-62.25,1.48-115.84,49.47-127.31,110.27c-7.37,39.1,4.7,81.96,33.3,109.62c21.35,20.65,50,31.99,78.65,39.78
							c57.46,15.63,117.93,18.9,177.18,12.93c55.46-5.59,113.96-21.54,149.83-64.21C487.07,373.38,498.03,344.19,499.76,314.49z"/>
					</g>
				</g>
			</g>
			<g class="st2">
				<ellipse class="st1" cx="214.62" cy="38.73" rx="14.48" ry="14.48"/>
			</g>
			<g class="st2">
				<circle class="st1" cx="410.34" cy="29.9" r="7.47"/>
			</g>
			<g class="st2">
				
					<ellipse transform="matrix(0.242 -0.9703 0.9703 0.242 42.0359 196.1177)" class="st1" cx="146.54" cy="71.16" rx="10.01" ry="10.01"/>
			</g>
			<g class="st2">
				<circle class="st1" cx="31.05" cy="434.34" r="22.8"/>
			</g>
		</g>
	</g>
	<g>
		<g>
			<path class="st3" d="M493.56,78.57c6.5-12.66,1.5-28.19-11.16-34.69c-12.66-6.5-36.99-6.02-43.49,6.64
				c-6.5,12.66,12.99,23.53,20.93,35.33C470.92,102.32,487.05,91.23,493.56,78.57z"/>
			<path class="st4" d="M438.19,467.71c9.16,5.91,21.38,3.28,27.29-5.88s7.39-27.75-1.77-33.66c-9.16-5.91-18.92,8.12-28.52,13.28
				C421.8,448.66,429.03,461.8,438.19,467.71z"/>
			<path class="st4" d="M64.29,20.48c-10.08-9.36-25.83-8.77-35.19,1.3s-15.28,32.83-5.2,42.19s25.28-5.93,38.34-10.23
				C80.45,47.74,74.36,29.83,64.29,20.48z"/>
		</g>
		<g>
			<path class="st4" d="M8.75,129.25c-8.98,19.5-11.44,41.98-7.13,63c5.07,24.71,20.45,43.69,15.11,70.05
				c-3.25,16.06-4.07,30.93-5.71,46.82c-3.39,32.62,17.79,61.37,44.07,76.89c21.34,12.61,46.36,17.34,70.9,17
				c22.08-0.3,44.13-4.38,65.53-9.86c20.62-5.28,40.78-12.25,62.4-10.05c17.98,1.83,34.17,9.6,50.91,15.39
				c39.97,13.84,88.39,15.79,124.94-5.28c23.46-13.52,39.88-35.47,47.16-59.07c5.82-18.86,6.56-36.5,2.2-55.76
				c-4.48-19.77-12.04-39.7-9.69-60.3c1.64-14.36,8.2-28.21,7-42.61c-0.8-9.57-5.01-18.54-10.16-26.64
				c-18.81-29.58-50.3-49.39-83.61-60.3c-31.35-10.27-63.68-17.71-96.32-15.24c-67.48,5.11-81.24-5.61-150.21-20.36
				C91.6,43.4,41.8,77.35,15.75,116.67C13.09,120.68,10.75,124.89,8.75,129.25z"/>
			<g>
				<path class="st5" d="M55.17,159.64c-1.38,15.57,3.87,31.62-0.52,47.04c-5.26,18.46-20.47,32.29-26.67,50.42
					c-9.16,26.79-8.72,56.8,2.4,82.9c5.36,12.58,13.2,24.27,23.9,32.35c16.5,12.46,38.11,15.2,58.43,13.62
					c30.25-2.35,62.17-15.45,92.59-11.88c16.78,1.97,21.91,20.14,30.58,32.12c9.8,13.55,23.16,24.2,37.92,31.28
					c27.19,13.05,59.82,14.29,87.6,2.45c29.67-12.63,55.52-43.49,53.82-78.38c-0.79-16.14-7.25-32.18-4.26-48.04
					c3.75-19.91,18.75-38.04,29.62-54.26c12-17.91,19.27-39.27,20.69-61.06c0.02-0.25,0.03-0.49,0.05-0.74
					c2.23-37.59-21.48-71.88-57.26-83.65c0,0-76.12-25.03-76.12-25.03c-77.23-25.4-154.4-24.56-225.42,12.72
					c-15.37,8.07-40.39,32.1-45.54,48.68C56.02,153.31,55.46,156.46,55.17,159.64z"/>
			</g>
		</g>
	</g>
	<circle class="st6" cx="487.17" cy="405.04" r="4.9"/>
	<circle class="st6" cx="260.67" cy="22.9" r="4.9"/>
	<circle class="st6" cx="83.54" cy="450.25" r="4.9"/>
	<circle class="st7" cx="393.01" cy="470.87" r="3.81"/>
	<circle class="st6" cx="61.9" cy="106.41" r="1.63"/>
	<path class="st7" d="M410.04,57.65c-0.68,3.18-3.81,5.21-6.99,4.53c-3.18-0.68-5.21-3.81-4.53-6.99c0.68-3.18,3.81-5.21,6.99-4.53
		C408.69,51.35,410.72,54.47,410.04,57.65z"/>
	<path class="st7" d="M95.38,30.6c-0.27,1.25-1.49,2.04-2.74,1.78c-1.25-0.27-2.04-1.49-1.78-2.74c0.27-1.25,1.49-2.04,2.74-1.78
		C94.85,28.12,95.65,29.35,95.38,30.6z"/>
	<path class="st6" d="M463.39,20.9c-0.23,1.06-1.27,1.74-2.33,1.51c-1.06-0.23-1.74-1.27-1.51-2.33c0.23-1.06,1.27-1.74,2.33-1.51
		C462.94,18.79,463.62,19.84,463.39,20.9z"/>
	<path class="st6" d="M48.21,489.01c-0.23,1.06-1.27,1.74-2.33,1.51c-1.06-0.23-1.74-1.27-1.51-2.33s1.27-1.74,2.33-1.51
		C47.76,486.9,48.43,487.94,48.21,489.01z"/>
</g>
<g id="OBJECTS">
	<g>
		<g class="st8">
			<g>
				<g>
					<g>
						<path class="st9" d="M189.45,196.03l-8.67-0.66c-0.66-6.53-2.74-12.68-5.94-18.13l6.6-5.66c3.34-2.87,3.73-7.9,0.86-11.25
							c-2.87-3.34-7.9-3.73-11.25-0.86l-6.6,5.66c-4.9-3.99-10.66-6.97-17.02-8.62l0.66-8.67c0.34-4.39-2.95-8.22-7.34-8.56l0,0
							c-4.39-0.34-8.22,2.95-8.56,7.34l-0.66,8.67c-6.53,0.66-12.68,2.74-18.13,5.94l-5.66-6.6c-2.87-3.34-7.9-3.73-11.25-0.86
							c-3.34,2.87-3.73,7.9-0.86,11.25l5.66,6.6c-3.99,4.9-6.97,10.66-8.62,17.02l-8.67-0.66c-4.39-0.34-8.22,2.95-8.56,7.34l0,0
							c-0.34,4.39,2.95,8.22,7.34,8.56l8.67,0.66c0.66,6.53,2.74,12.68,5.94,18.13l-6.6,5.66c-3.34,2.87-3.73,7.9-0.86,11.25
							c2.87,3.34,7.9,3.73,11.25,0.86l6.6-5.66c4.9,3.99,10.66,6.97,17.02,8.62l-0.66,8.67c-0.34,4.39,2.95,8.22,7.34,8.56l0,0
							c4.39,0.34,8.22-2.95,8.56-7.34l0.66-8.67c6.53-0.66,12.68-2.74,18.13-5.94l5.66,6.6c2.87,3.34,7.9,3.73,11.25,0.86
							c3.34-2.87,3.73-7.9,0.86-11.25l-5.66-6.6c3.99-4.89,6.97-10.66,8.62-17.02l8.67,0.66c4.39,0.34,8.22-2.95,8.56-7.34l0,0
							C197.13,200.19,193.84,196.36,189.45,196.03z M133.65,232.35c-17.89-1.37-31.29-16.98-29.93-34.87
							c1.37-17.89,16.98-31.29,34.87-29.93c17.89,1.37,31.29,16.98,29.93,34.87C167.16,220.32,151.54,233.72,133.65,232.35z"/>
					</g>
				</g>
				<g>
					<g>
						<path class="st9" d="M374.72,440.54c-1.05,0-2.09-0.25-3.05-0.75c-1.57-0.82-2.74-2.2-3.27-3.89l-1.56-4.92
							c-4.03,0.41-8.03,0.07-11.92-1.03l-2.38,4.58c-1.69,3.25-5.71,4.52-8.96,2.84c-1.58-0.82-2.74-2.2-3.27-3.89
							c-0.54-1.69-0.38-3.49,0.44-5.07l2.38-4.58c-3.13-2.55-5.72-5.63-7.7-9.15l-4.92,1.56c-3.49,1.11-7.24-0.84-8.34-4.33
							c-0.54-1.69-0.38-3.49,0.44-5.07c0.82-1.58,2.2-2.74,3.89-3.27l4.92-1.56c-0.41-4.02-0.07-8.03,1.03-11.92l-4.58-2.38
							c-1.58-0.82-2.74-2.2-3.27-3.89c-0.54-1.69-0.38-3.49,0.44-5.07c0.82-1.57,2.2-2.74,3.89-3.27c1.69-0.53,3.49-0.38,5.07,0.44
							l4.58,2.38c2.55-3.13,5.63-5.72,9.15-7.7l-1.56-4.92c-1.11-3.49,0.84-7.24,4.33-8.34c1.69-0.54,3.49-0.38,5.07,0.44
							c1.58,0.82,2.74,2.2,3.27,3.89l1.56,4.92c4.03-0.41,8.03-0.07,11.92,1.03l2.38-4.58c1.69-3.25,5.7-4.52,8.96-2.84
							c3.25,1.69,4.52,5.71,2.84,8.96l-2.38,4.58c3.13,2.56,5.72,5.63,7.7,9.16l4.92-1.56c1.69-0.53,3.49-0.38,5.07,0.44
							c1.58,0.82,2.74,2.2,3.27,3.89c1.11,3.49-0.84,7.23-4.33,8.34l-4.92,1.56c0.41,4.02,0.07,8.03-1.03,11.92l4.58,2.38
							c3.25,1.69,4.52,5.71,2.84,8.96c-0.82,1.58-2.2,2.74-3.89,3.27c-1.69,0.54-3.49,0.38-5.07-0.44l-4.58-2.38
							c-2.56,3.13-5.63,5.72-9.16,7.7l1.56,4.92c0.54,1.69,0.38,3.49-0.44,5.07c-0.82,1.58-2.2,2.74-3.89,3.27
							C376.07,440.44,375.39,440.54,374.72,440.54z M368.36,428.6l2.1,6.65c0.36,1.14,1.14,2.07,2.2,2.61
							c1.06,0.55,2.27,0.65,3.41,0.29c1.14-0.36,2.07-1.14,2.62-2.2c0.55-1.06,0.65-2.27,0.29-3.41l-2.11-6.64l0.81-0.42
							c3.86-2.03,7.16-4.81,9.81-8.25l0.56-0.72l6.19,3.21c1.06,0.55,2.27,0.65,3.41,0.3c1.14-0.36,2.07-1.14,2.61-2.2
							c1.13-2.18,0.28-4.89-1.91-6.02l-6.19-3.21l0.27-0.87c1.29-4.16,1.66-8.46,1.1-12.78l-0.12-0.9l6.65-2.1
							c2.35-0.74,3.65-3.26,2.91-5.61c-0.36-1.14-1.14-2.07-2.2-2.62c-1.06-0.55-2.27-0.65-3.4-0.29l-6.64,2.11l-0.42-0.81
							c-2.03-3.86-4.81-7.16-8.26-9.81l-0.72-0.56l3.21-6.19c1.13-2.19,0.28-4.89-1.91-6.02c-2.19-1.14-4.89-0.28-6.02,1.91
							l-3.21,6.19l-0.87-0.27c-4.16-1.29-8.46-1.66-12.78-1.1l-0.9,0.12l-2.1-6.65c-0.36-1.14-1.14-2.07-2.2-2.61
							c-1.06-0.55-2.27-0.65-3.41-0.29c-2.35,0.74-3.65,3.26-2.91,5.61l2.11,6.64l-0.81,0.42c-3.86,2.03-7.16,4.81-9.81,8.26
							l-0.56,0.72l-6.19-3.21c-1.06-0.55-2.27-0.65-3.4-0.29c-1.14,0.36-2.07,1.14-2.61,2.2c-0.55,1.06-0.65,2.27-0.3,3.4
							c0.36,1.14,1.14,2.07,2.2,2.61l6.19,3.21l-0.27,0.87c-1.29,4.16-1.66,8.46-1.1,12.78l0.12,0.9l-6.65,2.1
							c-1.14,0.36-2.07,1.14-2.61,2.2c-0.55,1.06-0.65,2.27-0.29,3.41c0.74,2.35,3.26,3.66,5.61,2.91l6.64-2.11l0.42,0.81
							c2.03,3.86,4.81,7.16,8.25,9.81l0.72,0.56l-3.21,6.19c-0.55,1.06-0.65,2.27-0.3,3.4c0.36,1.14,1.14,2.07,2.2,2.61
							c2.19,1.14,4.89,0.28,6.02-1.91l3.21-6.19l0.87,0.27c4.16,1.29,8.46,1.66,12.78,1.1L368.36,428.6z M363.58,422.51
							c-3.75,0-7.47-0.9-10.9-2.68c-5.62-2.92-9.78-7.85-11.69-13.9c-1.91-6.04-1.36-12.47,1.56-18.09
							c2.92-5.62,7.85-9.78,13.9-11.69c6.04-1.91,12.46-1.36,18.09,1.56c5.62,2.92,9.78,7.85,11.69,13.9
							c1.91,6.04,1.36,12.47-1.56,18.09c-2.92,5.62-7.85,9.78-13.9,11.69C368.41,422.14,365.99,422.51,363.58,422.51z
							 M363.63,377.22c-2.19,0-4.38,0.34-6.53,1.02c-5.49,1.74-9.97,5.51-12.62,10.62c-2.65,5.11-3.16,10.94-1.42,16.43
							c1.74,5.49,5.51,9.97,10.62,12.62c5.11,2.65,10.95,3.15,16.43,1.42c5.49-1.74,9.97-5.51,12.62-10.62
							c2.65-5.11,3.16-10.94,1.42-16.43c-1.74-5.49-5.51-9.97-10.62-12.62C370.42,378.04,367.04,377.22,363.63,377.22z"/>
					</g>
				</g>
				<g>
					<g>
						<path class="st9" d="M431.93,399.87c-0.41,0-0.82-0.03-1.24-0.09c-4.67-0.68-7.92-5.03-7.24-9.7l1.04-7.17
							c-5.27-1.88-10.05-4.72-14.21-8.46l-5.8,4.33c-1.83,1.37-4.08,1.94-6.35,1.61c-2.26-0.33-4.26-1.52-5.63-3.35
							c-2.82-3.78-2.04-9.15,1.74-11.98l5.8-4.33c-2.4-5.06-3.76-10.44-4.07-16.03l-7.16-1.04c-4.67-0.68-7.92-5.03-7.24-9.7
							c0.33-2.26,1.52-4.26,3.35-5.63c1.83-1.37,4.09-1.94,6.35-1.61l7.17,1.04c1.88-5.27,4.72-10.05,8.46-14.21l-4.33-5.8
							c-1.37-1.83-1.94-4.09-1.61-6.35c0.33-2.26,1.52-4.26,3.35-5.63c1.83-1.37,4.08-1.94,6.35-1.61c2.26,0.33,4.26,1.52,5.63,3.35
							l4.33,5.8c5.05-2.4,10.44-3.76,16.03-4.07l1.04-7.16c0.68-4.67,5.04-7.92,9.7-7.24c2.26,0.33,4.26,1.52,5.63,3.35
							c1.37,1.83,1.94,4.09,1.61,6.35l-1.04,7.17c5.27,1.88,10.05,4.72,14.21,8.46l5.8-4.33c3.78-2.82,9.15-2.04,11.98,1.74
							c2.82,3.78,2.04,9.15-1.74,11.97l-5.8,4.33c2.4,5.05,3.76,10.44,4.07,16.03l7.17,1.04c4.67,0.68,7.92,5.03,7.24,9.7
							c-0.68,4.67-5.04,7.92-9.7,7.24l-7.17-1.04c-1.88,5.28-4.72,10.05-8.46,14.21l4.33,5.8c2.82,3.78,2.04,9.15-1.74,11.98
							c-1.83,1.37-4.09,1.94-6.35,1.61c-2.26-0.33-4.26-1.52-5.63-3.35l-4.33-5.8c-5.05,2.4-10.44,3.76-16.03,4.07l-1.04,7.17
							C439.78,396.8,436.11,399.87,431.93,399.87z M410.44,371.63l0.67,0.62c4.31,4.03,9.34,7.03,14.95,8.9l0.86,0.29l-1.3,8.96
							c-0.51,3.48,1.92,6.72,5.39,7.23c3.48,0.5,6.72-1.91,7.23-5.39l1.3-8.96l0.91-0.03c5.91-0.2,11.58-1.64,16.86-4.28l0.82-0.41
							l5.42,7.26c1.02,1.37,2.51,2.25,4.19,2.5c1.69,0.25,3.37-0.18,4.73-1.2c2.82-2.1,3.4-6.11,1.3-8.92l-5.41-7.26l0.62-0.67
							c4.03-4.31,7.03-9.34,8.9-14.95l0.29-0.86l8.96,1.3c3.48,0.5,6.72-1.92,7.23-5.39c0.5-3.48-1.92-6.72-5.39-7.23l-8.96-1.3
							l-0.03-0.91c-0.2-5.91-1.64-11.58-4.28-16.86l-0.41-0.82l7.25-5.42c2.82-2.1,3.4-6.11,1.3-8.92c-1.02-1.37-2.51-2.25-4.19-2.5
							c-1.69-0.25-3.37,0.18-4.73,1.2h0l-7.26,5.42l-0.67-0.62c-4.31-4.03-9.34-7.03-14.95-8.9l-0.86-0.29l1.3-8.96
							c0.25-1.69-0.18-3.37-1.2-4.73c-1.02-1.37-2.51-2.25-4.19-2.5c-3.49-0.51-6.72,1.92-7.23,5.39l-1.3,8.96l-0.91,0.03
							c-5.91,0.2-11.58,1.64-16.86,4.28l-0.82,0.41l-5.42-7.25c-1.02-1.37-2.51-2.25-4.19-2.5c-1.68-0.24-3.37,0.18-4.73,1.2
							c-1.37,1.02-2.25,2.51-2.5,4.19c-0.25,1.69,0.18,3.37,1.2,4.73l5.42,7.25l-0.62,0.67c-4.03,4.31-7.03,9.34-8.9,14.95
							l-0.29,0.86l-8.96-1.3c-1.68-0.24-3.37,0.18-4.73,1.2c-1.37,1.02-2.25,2.51-2.5,4.19c-0.51,3.48,1.92,6.72,5.39,7.23l8.96,1.3
							l0.03,0.91c0.2,5.91,1.64,11.58,4.28,16.86l0.41,0.82l-7.26,5.42c-1.36,1.02-2.25,2.51-2.5,4.19
							c-0.25,1.69,0.18,3.37,1.2,4.73c1.02,1.36,2.51,2.25,4.19,2.5c1.68,0.24,3.37-0.18,4.73-1.2L410.44,371.63z M439.08,373.82
							c-9.61,0-19.11-4.37-25.29-12.65c-10.39-13.93-7.52-33.71,6.41-44.1c6.75-5.03,15.05-7.14,23.38-5.93
							c8.33,1.21,15.69,5.59,20.72,12.34c5.03,6.75,7.14,15.05,5.93,23.38c-1.21,8.33-5.59,15.69-12.34,20.72l0,0
							C452.25,371.79,445.64,373.82,439.08,373.82z M438.98,312.98c-6.28,0-12.36,2.01-17.48,5.83
							c-12.96,9.67-15.64,28.09-5.96,41.05c9.67,12.96,28.09,15.63,41.05,5.96l0,0c6.28-4.69,10.36-11.54,11.48-19.29
							c1.13-7.75-0.83-15.48-5.52-21.76c-4.69-6.28-11.54-10.36-19.29-11.48C441.83,313.09,440.4,312.98,438.98,312.98z
							 M457.24,366.7h0.01H457.24z"/>
					</g>
				</g>
			</g>
		</g>
		<g>
			<g class="st10">
				<path class="st9" d="M291.05,404.26h-22.38c-0.6,0-1.09-0.49-1.09-1.09s0.49-1.09,1.09-1.09h22.38c0.6,0,1.09,0.49,1.09,1.09
					C292.14,403.77,291.66,404.26,291.05,404.26z"/>
				<path class="st9" d="M291.05,427.52h-22.38c-0.6,0-1.09-0.49-1.09-1.09s0.49-1.09,1.09-1.09h22.38c0.6,0,1.09,0.49,1.09,1.09
					C292.14,427.04,291.66,427.52,291.05,427.52z"/>
				<g>
					<g>
						<g>
							<path class="st9" d="M307.95,451.02H169.72c-1.63,0-2.95-1.32-2.95-2.95v-71.75c0-1.63,1.32-2.95,2.95-2.95h138.23
								c1.63,0,2.95,1.33,2.95,2.95v71.75C310.91,449.69,309.58,451.02,307.95,451.02z M169.72,375.54c-0.43,0-0.77,0.35-0.77,0.78
								v71.75c0,0.43,0.35,0.77,0.77,0.77h138.23c0.43,0,0.78-0.35,0.78-0.77v-71.75c0-0.43-0.35-0.78-0.78-0.78H169.72z"/>
							<path class="st11" d="M307.95,451.02H169.72c-1.63,0-2.95-1.32-2.95-2.95v-71.75c0-1.63,1.32-2.95,2.95-2.95h138.23
								c1.63,0,2.95,1.33,2.95,2.95v71.75C310.91,449.69,309.58,451.02,307.95,451.02z M169.72,375.54c-0.43,0-0.77,0.35-0.77,0.78
								v71.75c0,0.43,0.35,0.77,0.77,0.77h138.23c0.43,0,0.78-0.35,0.78-0.77v-71.75c0-0.43-0.35-0.78-0.78-0.78H169.72z"/>
						</g>
					</g>
					<path class="st9" d="M291.05,392.97H184.4c-0.6,0-1.09-0.49-1.09-1.09c0-0.6,0.49-1.09,1.09-1.09h106.66
						c0.6,0,1.09,0.49,1.09,1.09C292.14,392.48,291.66,392.97,291.05,392.97z"/>
					<path class="st9" d="M291.05,415.55H184.4c-0.6,0-1.09-0.49-1.09-1.09c0-0.6,0.49-1.09,1.09-1.09h106.66
						c0.6,0,1.09,0.49,1.09,1.09C292.14,415.06,291.66,415.55,291.05,415.55z"/>
					<path class="st9" d="M241.9,404.26h-57.5c-0.6,0-1.09-0.49-1.09-1.09s0.49-1.09,1.09-1.09h57.5c0.6,0,1.09,0.49,1.09,1.09
						C242.99,403.77,242.5,404.26,241.9,404.26z"/>
					<path class="st9" d="M241.9,427.52h-57.5c-0.6,0-1.09-0.49-1.09-1.09s0.49-1.09,1.09-1.09h57.5c0.6,0,1.09,0.49,1.09,1.09
						C242.99,427.04,242.5,427.52,241.9,427.52z"/>
					<path class="st9" d="M223.18,438.3H184.4c-0.6,0-1.09-0.49-1.09-1.09s0.49-1.09,1.09-1.09h38.78c0.6,0,1.09,0.49,1.09,1.09
						C224.27,437.81,223.78,438.3,223.18,438.3z"/>
				</g>
			</g>
			<g class="st10">
				<path class="st9" d="M76.91,334.5H51.75c-0.6,0-1.09-0.49-1.09-1.09c0-0.6,0.49-1.09,1.09-1.09h25.16c0.6,0,1.09,0.49,1.09,1.09
					C78,334.01,77.51,334.5,76.91,334.5z"/>
				<path class="st9" d="M76.91,308.35H51.75c-0.6,0-1.09-0.49-1.09-1.09s0.49-1.09,1.09-1.09h25.16c0.6,0,1.09,0.49,1.09,1.09
					C78,307.86,77.51,308.35,76.91,308.35z"/>
				<g>
					<g>
						<g>
							<path class="st9" d="M188.36,366.77H32.53c-1.63,0-2.95-1.33-2.95-2.95v-81.1c0-1.63,1.32-2.95,2.95-2.95h155.83
								c1.63,0,2.95,1.33,2.95,2.95v81.1C191.31,365.44,189.99,366.77,188.36,366.77z M32.53,281.94c-0.43,0-0.77,0.35-0.77,0.78
								v81.1c0,0.43,0.35,0.78,0.77,0.78h155.83c0.43,0,0.78-0.35,0.78-0.78v-81.1c0-0.43-0.35-0.78-0.78-0.78H32.53z"/>
							<path class="st11" d="M188.36,366.77H32.53c-1.63,0-2.95-1.33-2.95-2.95v-81.1c0-1.63,1.32-2.95,2.95-2.95h155.83
								c1.63,0,2.95,1.33,2.95,2.95v81.1C191.31,365.44,189.99,366.77,188.36,366.77z M32.53,281.94c-0.43,0-0.77,0.35-0.77,0.78
								v81.1c0,0.43,0.35,0.78,0.77,0.78h155.83c0.43,0,0.78-0.35,0.78-0.78v-81.1c0-0.43-0.35-0.78-0.78-0.78H32.53z"/>
						</g>
					</g>
					<path class="st9" d="M171.63,347.18H51.75c-0.6,0-1.09-0.49-1.09-1.09s0.49-1.09,1.09-1.09h119.88c0.6,0,1.09,0.49,1.09,1.09
						C172.72,346.7,172.23,347.18,171.63,347.18z"/>
					<path class="st9" d="M171.63,321.8H51.75c-0.6,0-1.09-0.49-1.09-1.09c0-0.6,0.49-1.09,1.09-1.09h119.88
						c0.6,0,1.09,0.49,1.09,1.09C172.72,321.32,172.23,321.8,171.63,321.8z"/>
					<path class="st9" d="M171.63,334.5H107c-0.6,0-1.09-0.49-1.09-1.09c0-0.6,0.49-1.09,1.09-1.09h64.63c0.6,0,1.09,0.49,1.09,1.09
						C172.72,334.01,172.23,334.5,171.63,334.5z"/>
					<path class="st9" d="M171.63,308.35H107c-0.6,0-1.09-0.49-1.09-1.09s0.49-1.09,1.09-1.09h64.63c0.6,0,1.09,0.49,1.09,1.09
						C172.72,307.86,172.23,308.35,171.63,308.35z"/>
					<path class="st9" d="M171.63,296.23h-43.59c-0.6,0-1.09-0.49-1.09-1.09c0-0.6,0.49-1.09,1.09-1.09h43.59
						c0.6,0,1.09,0.49,1.09,1.09C172.72,295.74,172.23,296.23,171.63,296.23z"/>
				</g>
			</g>
		</g>
	</g>
	<g>
		<g>
			<path class="st12" d="M369.86,410.8l-119.22-70.68c-0.96-0.57-1.27-1.81-0.71-2.76l96.24-162.33c0.57-0.96,1.81-1.27,2.76-0.71
				L468.16,245c0.96,0.57,1.27,1.81,0.71,2.76l-96.24,162.33C372.05,411.05,370.82,411.37,369.86,410.8z"/>
			<path class="st13" d="M366.76,404.29l-119.22-70.68c-0.96-0.57-1.27-1.81-0.71-2.76l96.24-162.33c0.57-0.96,1.81-1.27,2.76-0.71
				l119.22,70.68c0.96,0.57,1.27,1.81,0.71,2.76l-96.24,162.33C368.96,404.54,367.72,404.86,366.76,404.29z"/>
		</g>
		<g>
			<path class="st12" d="M401.01,402.3l-136.3-25.12c-1.1-0.2-1.82-1.25-1.62-2.35l34.21-185.59c0.2-1.1,1.25-1.82,2.35-1.62
				l136.3,25.12c1.1,0.2,1.82,1.25,1.62,2.35l-34.21,185.59C403.15,401.78,402.1,402.51,401.01,402.3z"/>
			
				<rect x="251.04" y="218.45" transform="matrix(0.1813 -0.9834 0.9834 0.1813 -0.5372 578.881)" class="st9" width="192.74" height="142.63"/>
			<path class="st14" d="M398.09,397.08l-136.3-25.12c-1.1-0.2-1.82-1.25-1.62-2.35l34.21-185.59c0.2-1.1,1.25-1.82,2.35-1.62
				l136.3,25.12c1.1,0.2,1.82,1.25,1.62,2.35l-34.21,185.59C400.24,396.56,399.19,397.29,398.09,397.08z"/>
			<path class="st9" d="M413.79,230.22c-0.06,0-0.13-0.01-0.2-0.02l-34.12-6.29c-0.59-0.11-0.98-0.68-0.87-1.27
				c0.11-0.59,0.67-0.98,1.27-0.87l34.12,6.29c0.59,0.11,0.98,0.68,0.87,1.27C414.76,229.86,414.31,230.22,413.79,230.22z"/>
			<path class="st9" d="M411.78,241.12c-0.07,0-0.13-0.01-0.2-0.02l-34.12-6.29c-0.59-0.11-0.98-0.68-0.87-1.27
				c0.11-0.59,0.67-0.98,1.27-0.87l34.12,6.29c0.59,0.11,0.98,0.68,0.87,1.27C412.75,240.76,412.3,241.12,411.78,241.12z"/>
			<path class="st9" d="M409.6,252.97c-0.07,0-0.13-0.01-0.2-0.02l-34.12-6.29c-0.59-0.11-0.98-0.68-0.87-1.27
				c0.11-0.59,0.67-0.98,1.27-0.87l34.12,6.29c0.59,0.11,0.98,0.68,0.87,1.27C410.57,252.6,410.11,252.97,409.6,252.97z"/>
			<g>
				<path class="st12" d="M356.81,263.04l-58.46-10.78c-1.19-0.22-1.97-1.36-1.75-2.54l11.59-62.87c0.22-1.19,1.36-1.97,2.54-1.75
					l58.46,10.78c1.19,0.22,1.97,1.36,1.75,2.54l-11.59,62.87C359.13,262.48,358,263.26,356.81,263.04z"/>
				<path class="st15" d="M354.66,259.39l-55.73-10.27c-1.19-0.22-1.97-1.36-1.75-2.54l10.97-59.52c0.22-1.19,1.36-1.97,2.54-1.75
					l55.73,10.27c1.19,0.22,1.97,1.36,1.75,2.54l-10.97,59.52C356.99,258.83,355.85,259.61,354.66,259.39z"/>
				<path class="st16" d="M367.14,203.74l-60.03-11.06l1.05-5.68c0.21-1.15,1.32-1.91,2.47-1.7l55.93,10.31
					c1.11,0.2,1.84,1.27,1.64,2.38L367.14,203.74z"/>
				<path class="st17" d="M323.91,222.28c-0.42,0-0.85-0.04-1.28-0.12l-0.83-0.15c-4.41-0.81-7.34-5.07-6.53-9.48l2.1-11.37
					c0.16-0.89,1.02-1.48,1.9-1.31c0.89,0.16,1.47,1.02,1.31,1.9l-2.1,11.37c-0.49,2.64,1.27,5.19,3.91,5.67l0.83,0.15
					c2.05,0.38,4.03-0.98,4.41-3.04l5.31-28.79c0.39-2.12-1.02-4.16-3.13-4.55l-1.42-0.26c-2.26-0.42-4.42,1.08-4.83,3.33
					l-0.13,0.71c-0.16,0.89-1.03,1.48-1.9,1.31c-0.89-0.16-1.48-1.02-1.31-1.9l0.13-0.71c0.74-4.02,4.62-6.69,8.64-5.95l1.42,0.26
					c3.89,0.72,6.47,4.47,5.76,8.36l-5.31,28.79C330.22,219.9,327.24,222.28,323.91,222.28z"/>
				<path class="st9" d="M329.58,198.1c-0.03,0-0.07,0-0.1-0.01l-21.78-4.02c-0.3-0.05-0.49-0.34-0.44-0.63
					c0.06-0.3,0.34-0.5,0.64-0.44l21.78,4.02c0.3,0.05,0.49,0.34,0.44,0.64C330.07,197.92,329.84,198.1,329.58,198.1z"/>
			</g>
			<g>
				<path class="st9" d="M396.18,310.7c-0.07,0-0.13-0.01-0.2-0.02l-104.25-19.22c-0.59-0.11-0.98-0.68-0.87-1.27
					c0.11-0.59,0.67-0.98,1.27-0.87l104.25,19.22c0.59,0.11,0.98,0.68,0.87,1.27C397.15,310.33,396.7,310.7,396.18,310.7z"/>
				<path class="st9" d="M388.73,351.13c-0.07,0-0.13-0.01-0.2-0.02L284.27,331.9c-0.59-0.11-0.98-0.68-0.87-1.27
					c0.11-0.59,0.67-0.99,1.27-0.87l104.26,19.22c0.59,0.11,0.98,0.68,0.87,1.27C389.7,350.77,389.24,351.13,388.73,351.13z"/>
				<path class="st9" d="M337.48,320.78c-0.07,0-0.13-0.01-0.2-0.02L288,311.68c-0.59-0.11-0.98-0.68-0.87-1.27
					c0.11-0.59,0.67-0.99,1.27-0.87l49.28,9.08c0.59,0.11,0.98,0.68,0.87,1.27C338.46,320.42,338,320.78,337.48,320.78z"/>
				<path class="st9" d="M344.27,283.94c-0.07,0-0.13-0.01-0.2-0.02l-49.28-9.08c-0.59-0.11-0.98-0.68-0.87-1.27
					c0.11-0.59,0.67-0.98,1.27-0.87l49.28,9.08c0.59,0.11,0.98,0.68,0.87,1.27C345.25,283.58,344.79,283.94,344.27,283.94z"/>
				<path class="st9" d="M392.48,330.76c-0.07,0-0.13-0.01-0.2-0.02l-46.96-8.66c-0.59-0.11-0.98-0.68-0.87-1.27
					c0.11-0.59,0.67-0.98,1.27-0.87l46.96,8.66c0.59,0.11,0.98,0.68,0.87,1.27C393.46,330.39,393,330.76,392.48,330.76z"/>
			</g>
		</g>
		<g>
			<path class="st15" d="M381.44,116.6H323.5c-2.01,0-3.63-1.63-3.63-3.63V93.59c0-2.01,1.63-3.63,3.63-3.63h57.94
				c2.01,0,3.63,1.63,3.63,3.63v19.38C385.08,114.97,383.45,116.6,381.44,116.6z"/>
			<path class="st13" d="M425.09,145.64h-81.05c-2.01,0-3.63-1.63-3.63-3.63v-28.82c0-2.01,1.63-3.63,3.63-3.63h81.05
				c2.01,0,3.63,1.63,3.63,3.63v28.82C428.73,144.01,427.1,145.64,425.09,145.64z"/>
			<g>
				<g>
					<g>
						<path class="st9" d="M361.99,138.01h89.75c2.71,0,4.93,2.22,4.93,4.93v27.5c0,2.71-2.22,4.93-4.93,4.93h-89.75
							c-2.71,0-4.93-2.22-4.93-4.93v-27.5C357.06,140.23,359.28,138.01,361.99,138.01z"/>
						<path class="st18" d="M361.99,138.01h89.75c2.71,0,4.93,2.22,4.93,4.93v27.5c0,2.71-2.22,4.93-4.93,4.93h-89.75
							c-2.71,0-4.93-2.22-4.93-4.93v-27.5C357.06,140.23,359.28,138.01,361.99,138.01z"/>
					</g>
					<g>
						<g>
							<path class="st9" d="M425.06,161.06c-2.39,0-4.33-1.94-4.33-4.33c0-2.39,1.94-4.33,4.33-4.33s4.33,1.94,4.33,4.33
								C429.38,159.12,427.44,161.06,425.06,161.06z M425.06,153.5c-1.79,0-3.24,1.45-3.24,3.24c0,1.79,1.45,3.24,3.24,3.24
								s3.24-1.45,3.24-3.24C428.29,154.95,426.84,153.5,425.06,153.5z"/>
							<path class="st9" d="M407.2,161.06c-2.39,0-4.33-1.94-4.33-4.33c0-2.39,1.94-4.33,4.33-4.33c2.39,0,4.33,1.94,4.33,4.33
								C411.53,159.12,409.59,161.06,407.2,161.06z M407.2,153.5c-1.79,0-3.24,1.45-3.24,3.24c0,1.79,1.45,3.24,3.24,3.24
								c1.79,0,3.24-1.45,3.24-3.24C410.44,154.95,408.99,153.5,407.2,153.5z"/>
							<path class="st9" d="M390.56,161.06c-2.39,0-4.33-1.94-4.33-4.33c0-2.39,1.94-4.33,4.33-4.33c2.39,0,4.33,1.94,4.33,4.33
								C394.89,159.12,392.95,161.06,390.56,161.06z M390.56,153.5c-1.79,0-3.24,1.45-3.24,3.24c0,1.79,1.45,3.24,3.24,3.24
								c1.79,0,3.24-1.45,3.24-3.24C393.8,154.95,392.34,153.5,390.56,153.5z"/>
						</g>
					</g>
				</g>
			</g>
		</g>
	</g>
	<g>
		<path class="st9" d="M143.65,92.56h139.08c2.8,0,5.07,2.27,5.07,5.07v204.84c0,9.66-7.83,17.5-17.5,17.5h-96.57
			c-20.59,0-37.28-16.69-37.28-37.29V99.76C136.45,95.79,139.68,92.56,143.65,92.56z"/>
		<path class="st19" d="M138.22,92.56h146.86c1.5,0,2.72,1.22,2.72,2.72v208.01c0,9.21-7.47,16.68-16.68,16.68H170.42
			c-18.76,0-33.97-15.21-33.97-33.97V94.33C136.45,93.36,137.24,92.56,138.22,92.56z"/>
		<path class="st20" d="M151.1,92.56h134.55c1.19,0,2.15,0.96,2.15,2.15v209.15c0,8.9-7.21,16.11-16.11,16.11H183.3
			c-18.45,0-33.4-14.95-33.4-33.4V93.77C149.9,93.1,150.43,92.56,151.1,92.56z"/>
		<g>
			<path class="st21" d="M171.02,319.94v0.04h121.56c13.99,0,25.33-11.34,25.33-25.33v-9.62H194.97v9.62
				C194.97,308.17,184.37,319.23,171.02,319.94z"/>
		</g>
		<g class="st22">
			<path class="st17" d="M187.13,319.94v0.04h108.23c12.46,0,22.55-11.34,22.55-25.33v-9.62H208.46v9.62
				C208.46,308.17,199.02,319.23,187.13,319.94z"/>
		</g>
		<g>
			<path class="st9" d="M264.83,258.81h-87.4c-0.6,0-1.09-0.49-1.09-1.09s0.49-1.09,1.09-1.09h87.4c0.6,0,1.09,0.49,1.09,1.09
				S265.43,258.81,264.83,258.81z"/>
			<path class="st9" d="M266.66,222.01h-90.87c-0.6,0-1.09-0.49-1.09-1.09c0-0.6,0.49-1.09,1.09-1.09h90.87
				c0.6,0,1.09,0.49,1.09,1.09C267.75,221.52,267.26,222.01,266.66,222.01z"/>
			<path class="st9" d="M221.13,240.39h-46.43c-0.6,0-1.09-0.49-1.09-1.09s0.49-1.09,1.09-1.09h46.43c0.6,0,1.09,0.49,1.09,1.09
				S221.73,240.39,221.13,240.39z"/>
			<path class="st9" d="M217.61,240.39h-39.4c-0.6,0-1.09-0.49-1.09-1.09s0.49-1.09,1.09-1.09h39.4c0.6,0,1.09,0.49,1.09,1.09
				S218.21,240.39,217.61,240.39z"/>
			<path class="st9" d="M236.24,182.66h-59.82c-0.6,0-1.09-0.49-1.09-1.09c0-0.6,0.49-1.09,1.09-1.09h59.82
				c0.6,0,1.09,0.49,1.09,1.09C237.33,182.17,236.84,182.66,236.24,182.66z"/>
			<path class="st9" d="M263.97,182.66h-18.22c-0.6,0-1.09-0.49-1.09-1.09c0-0.6,0.49-1.09,1.09-1.09h18.22
				c0.6,0,1.09,0.49,1.09,1.09C265.06,182.17,264.57,182.66,263.97,182.66z"/>
			<path class="st9" d="M266.66,201.04h-64.78c-0.6,0-1.09-0.49-1.09-1.09c0-0.6,0.49-1.09,1.09-1.09h64.78
				c0.6,0,1.09,0.49,1.09,1.09C267.75,200.56,267.26,201.04,266.66,201.04z"/>
			<path class="st9" d="M195.49,201.04h-19.7c-0.6,0-1.09-0.49-1.09-1.09c0-0.6,0.49-1.09,1.09-1.09h19.7c0.6,0,1.09,0.49,1.09,1.09
				C196.58,200.56,196.09,201.04,195.49,201.04z"/>
			<path class="st9" d="M264.83,167.09h-87.4c-0.6,0-1.09-0.49-1.09-1.09c0-0.6,0.49-1.09,1.09-1.09h87.4c0.6,0,1.09,0.49,1.09,1.09
				C265.92,166.6,265.43,167.09,264.83,167.09z"/>
			<path class="st9" d="M264.83,130.29h-87.4c-0.6,0-1.09-0.49-1.09-1.09c0-0.6,0.49-1.09,1.09-1.09h87.4c0.6,0,1.09,0.49,1.09,1.09
				C265.92,129.8,265.43,130.29,264.83,130.29z"/>
			<path class="st9" d="M209.5,148.68h-33.08c-0.6,0-1.09-0.49-1.09-1.09c0-0.6,0.49-1.09,1.09-1.09h33.08
				c0.6,0,1.09,0.49,1.09,1.09C210.59,148.19,210.1,148.68,209.5,148.68z"/>
			<path class="st9" d="M264.16,148.68h-39.4c-0.6,0-1.09-0.49-1.09-1.09c0-0.6,0.49-1.09,1.09-1.09h39.4c0.6,0,1.09,0.49,1.09,1.09
				S264.77,148.68,264.16,148.68z"/>
		</g>
	</g>
	<g>
		<g>
			<g>
				
					<ellipse transform="matrix(0.7071 -0.7071 0.7071 0.7071 -63.1668 301.9724)" class="st23" cx="332.93" cy="227.24" rx="68.96" ry="68.96"/>
			</g>
			<g>
				<path class="st24" d="M278.89,232.19c-2.41,0-4.36-1.95-4.36-4.36c0-34.79,28.3-63.09,63.09-63.09c2.41,0,4.36,1.95,4.36,4.36
					c0,2.41-1.95,4.36-4.36,4.36c-29.98,0-54.37,24.39-54.37,54.37C283.25,230.24,281.3,232.19,278.89,232.19z"/>
			</g>
			<path class="st6" d="M332.93,298.38c-39.23,0-71.14-31.91-71.14-71.14s31.91-71.14,71.14-71.14s71.14,31.91,71.14,71.14
				C404.07,266.46,372.16,298.38,332.93,298.38z M332.93,160.45c-36.82,0-66.78,29.96-66.78,66.78s29.96,66.78,66.78,66.78
				s66.78-29.96,66.78-66.78S369.76,160.45,332.93,160.45z"/>
			<g>
				<g>
					<circle class="st25" cx="332.93" cy="227.23" r="68.96"/>
					<g>
						<path class="st17" d="M396.32,276.64c0.1-0.1,0.22-0.18,0.33-0.27c10.5-13.59,16.76-30.63,16.76-49.14
							c0-44.44-36.03-80.47-80.47-80.47s-80.47,36.03-80.47,80.47s36.03,80.47,80.47,80.47c18.43,0,35.4-6.22,48.96-16.64l9.31-9.31
							L396.32,276.64z M332.93,296.2c-38.09,0-68.96-30.88-68.96-68.96s30.88-68.96,68.96-68.96s68.96,30.88,68.96,68.96
							C401.89,265.32,371.02,296.2,332.93,296.2z"/>
						<path class="st17" d="M332.93,308.8c-44.97,0-81.56-36.59-81.56-81.56s36.59-81.56,81.56-81.56s81.56,36.59,81.56,81.56
							c0,18.2-5.87,35.42-16.99,49.81l-0.2,0.2c-0.11,0.08-0.16,0.12-0.21,0.17l-14.53,14.52
							C368.2,302.97,351.04,308.8,332.93,308.8z M332.93,147.85c-43.77,0-79.38,35.61-79.38,79.38s35.61,79.38,79.38,79.38
							c17.6,0,34.28-5.66,48.24-16.37l14.37-14.37c0.1-0.1,0.21-0.19,0.32-0.28c10.76-13.98,16.45-30.7,16.45-48.36
							C412.32,183.46,376.7,147.85,332.93,147.85z M332.93,297.29c-38.63,0-70.05-31.42-70.05-70.05s31.42-70.05,70.05-70.05
							s70.05,31.42,70.05,70.05S371.56,297.29,332.93,297.29z M332.93,159.36c-37.42,0-67.87,30.45-67.87,67.87
							s30.45,67.87,67.87,67.87s67.87-30.45,67.87-67.87C400.81,189.81,370.36,159.36,332.93,159.36z"/>
					</g>
					<path class="st26" d="M394.33,289.23l-3.12-3.12c-1.2-1.2-1.2-3.15,0-4.35l-9.31,9.31l-0.15,0.15c-1.2,1.2-1.2,3.15,0,4.35
						l3.79,3.79C386.78,297.26,390.44,293.16,394.33,289.23z"/>
					<path class="st26" d="M391.21,281.76c-1.2,1.2-1.2,3.15,0,4.35l3.12,3.12c3.77-3.81,7.74-7.45,9.97-8.96l-3.63-3.63
						c-1.1-1.1-2.82-1.18-4.02-0.27c-0.11,0.08-0.23,0.17-0.33,0.27L391.21,281.76z"/>
					<path class="st27" d="M391.21,281.76c-1.2,1.2-1.2,3.15,0,4.35l3.12,3.12c3.77-3.81,7.74-7.45,9.97-8.96l-3.63-3.63
						c-1.1-1.1-2.82-1.18-4.02-0.27c-0.11,0.08-0.23,0.17-0.33,0.27L391.21,281.76z"/>
					<path class="st15" d="M462.68,336.89l-56.67-57.29c-0.2-0.21-0.82,0.07-1.72,0.67c-2.23,1.51-6.2,5.15-9.97,8.96
						c-3.89,3.93-7.54,8.03-8.8,10.13c-0.41,0.68-0.56,1.15-0.39,1.33l56.67,57.29c5.76,5.82,15.1,5.82,20.86,0
						C468.44,352.15,468.44,342.71,462.68,336.89z"/>
				</g>
				<g>
					<g>
						<path class="st12" d="M462.68,336.89l-56.67-57.29c-0.76-0.77-7.22,5.01-12.77,10.73c-4.72,4.86,63.67,73.47,69.44,67.65l0,0
							C468.44,352.15,468.44,342.71,462.68,336.89z"/>
					</g>
				</g>
			</g>
		</g>
		<g>
			<g>
				<path class="st9" d="M253.42,265.76H67.14c-10.88,0-19.7-8.82-19.7-19.7l0,0c0-10.88,8.82-19.7,19.7-19.7h186.28
					c10.88,0,19.7,8.82,19.7,19.7l0,0C273.12,256.94,264.3,265.76,253.42,265.76z"/>
				<path class="st15" d="M253.42,265.76h-30.3l-0.15-39.41h30.44c10.88,0,19.7,8.82,19.7,19.7l0,0
					C273.12,256.94,264.3,265.76,253.42,265.76z"/>
				<g>
					<path class="st9" d="M245.75,252.96c-4.75,0-8.62-3.87-8.62-8.62c0-4.75,3.87-8.62,8.62-8.62c4.75,0,8.62,3.87,8.62,8.62
						c0,2.3-0.9,4.47-2.52,6.1C250.22,252.06,248.05,252.96,245.75,252.96z M245.75,237.9c-3.55,0-6.44,2.89-6.44,6.44
						c0,3.55,2.89,6.44,6.44,6.44c1.72,0,3.34-0.67,4.55-1.89c1.22-1.22,1.89-2.83,1.89-4.55
						C252.19,240.79,249.3,237.9,245.75,237.9z"/>
					<path class="st9" d="M257.88,257.63c-0.28,0-0.56-0.11-0.77-0.32l-6.84-6.84c-0.43-0.43-0.43-1.11,0-1.54
						c0.43-0.43,1.12-0.42,1.54,0l6.84,6.84c0.43,0.43,0.43,1.11,0,1.54C258.43,257.52,258.15,257.63,257.88,257.63z"/>
				</g>
			</g>
		</g>
	</g>
	<g>
		<path class="st28" d="M256.07,306.48h-92.72c-6.49,0-11.75-5.26-11.75-11.75v-7.71c0-6.51-5.28-11.79-11.79-11.79H96.98
			c-6.51,0-11.79,5.28-11.79,11.79v30.44v34.99v56.96c0,6.07,4.92,10.98,10.98,10.98h159.9c6.07,0,10.98-4.92,10.98-10.98v-91.96
			C267.06,311.39,262.14,306.48,256.07,306.48z"/>
		<path class="st28" d="M245.86,306.48h-92.72c-6.49,0-11.75-5.26-11.75-11.75v-7.71c0-6.51-5.28-11.79-11.79-11.79H86.77
			c-6.51,0-11.79,5.28-11.79,11.79v30.44v34.99v56.96c0,6.07,4.92,10.98,10.98,10.98h159.9c6.07,0,10.98-4.92,10.98-10.98v-91.96
			C256.84,311.39,251.92,306.48,245.86,306.48z"/>
		<path class="st29" d="M245.86,306.48h-92.72c-6.49,0-11.75-5.26-11.75-11.75v-7.71c0-6.51-5.28-11.79-11.79-11.79H86.77
			c-6.51,0-11.79,5.28-11.79,11.79v30.44v34.99v56.96c0,6.07,4.92,10.98,10.98,10.98h159.9c6.07,0,10.98-4.92,10.98-10.98v-91.96
			C256.84,311.39,251.92,306.48,245.86,306.48z"/>
		<path class="st29" d="M222.34,306.48h-79.96c-5.6,0-10.13-5.26-10.13-11.75v-7.71c0-6.51-4.55-11.79-10.17-11.79H85.14
			c-5.62,0-10.17,5.28-10.17,11.79v30.44v34.99v56.96c0,6.07,4.24,10.98,9.47,10.98h137.89c5.23,0,9.47-4.92,9.47-10.98v-91.96
			C231.81,311.39,227.57,306.48,222.34,306.48z"/>
		<path class="st9" d="M83.54,318.71c-0.6,0-1.09-0.49-1.09-1.09v-26.74c0-4.14,3.37-7.51,7.51-7.51h31.56
			c0.6,0,1.09,0.49,1.09,1.09c0,0.6-0.49,1.09-1.09,1.09H89.96c-2.94,0-5.33,2.39-5.33,5.33v26.74
			C84.63,318.23,84.14,318.71,83.54,318.71z"/>
	</g>
</g>
</svg>
