<?xml version="1.0" encoding="utf-8"?>
<!-- Generator: Adobe Illustrator 27.3.1, SVG Export Plug-In . SVG Version: 6.00 Build 0)  -->
<svg version="1.1" id="Layer_1" xmlns="http://www.w3.org/2000/svg" xmlns:xlink="http://www.w3.org/1999/xlink" x="0px" y="0px"
	 viewBox="0 0 3710 3710" style="enable-background:new 0 0 3710 3710;" xml:space="preserve">
<style type="text/css">
	.st0{fill:url(#SVGID_1_);}
	.st1{fill:#BDD0FB;}
	.st2{opacity:0.43;fill:#FFFFFF;enable-background:new    ;}
	.st3{fill:#91B3FA;}
	.st4{fill:url(#SVGID_00000110435852434013083510000008444787823996819351_);}
	.st5{fill:#FFFFFF;}
	.st6{opacity:0.37;fill:#FFFFFF;enable-background:new    ;}
	.st7{fill:url(#SVGID_00000156584710526868449630000009787915196342030009_);}
	.st8{fill:url(#SVGID_00000106105665687672770300000008986292689470510756_);}
	.st9{fill:url(#SVGID_00000132802712555252851220000016860293828845539994_);}
	.st10{fill:url(#SVGID_00000057114909949392884400000013071445812712670095_);}
	.st11{fill:url(#SVGID_00000170970817126579248220000014315585266937034627_);}
	.st12{fill:url(#SVGID_00000178199263920829163890000006233366753424838552_);}
	.st13{fill:url(#SVGID_00000150090313565801402620000003964947876927893652_);}
	.st14{fill:url(#SVGID_00000078005422170522259050000000796629917825197481_);}
	.st15{fill:url(#SVGID_00000079485708168458662680000013633906121316855478_);}
	.st16{fill:url(#SVGID_00000008109392425149708720000002862717418641083523_);}
	.st17{fill:url(#SVGID_00000013168081818526451670000000609337015967560079_);}
	.st18{fill:url(#SVGID_00000037676766731597792640000017873007168145389481_);}
	.st19{fill:url(#SVGID_00000111157216700383850500000015729333218321355696_);}
	.st20{fill:url(#SVGID_00000008140150687544809010000016736925975219981486_);}
	.st21{fill:url(#SVGID_00000021088897962770707020000009957138513421333422_);}
	.st22{fill:url(#SVGID_00000107565617344058174270000009082523568297268139_);}
	.st23{fill:url(#SVGID_00000050665482446456610450000017954719723552108940_);}
	.st24{fill:url(#SVGID_00000052806664962311116690000013001210835816636351_);}
	.st25{fill:url(#SVGID_00000164492463865762402450000008856362973392306328_);}
	.st26{fill:url(#SVGID_00000095336727234737646890000004730730575000294071_);}
	.st27{fill:url(#SVGID_00000117664324810726461220000009133512663261398960_);}
	.st28{fill:url(#SVGID_00000056405369311190582150000014497600222042298302_);}
	.st29{fill:url(#SVGID_00000133525537783906029490000011241573005478004366_);}
	.st30{fill:url(#SVGID_00000145752405426295127470000000591347078200383134_);}
	.st31{fill:url(#SVGID_00000134223080589779305810000001469749200778784676_);}
	.st32{fill:url(#SVGID_00000148646289026030519210000018005828676794208924_);}
	.st33{fill:url(#SVGID_00000070091697591473949940000014463201362493123736_);}
	.st34{fill:url(#SVGID_00000009565181351045436760000007736237587757785004_);}
	.st35{fill:url(#SVGID_00000029731888067573395250000000435622266431789482_);}
	.st36{fill:url(#SVGID_00000057866206990693432250000014675383042446729365_);}
	.st37{fill:url(#SVGID_00000096766793060230520670000009246661847405618845_);}
	.st38{fill:url(#SVGID_00000089560473627913483960000016898861650692767617_);}
	.st39{fill:url(#SVGID_00000039824866638572059720000012109071175296510631_);}
	.st40{fill:#7D97F4;}
	.st41{fill:url(#SVGID_00000134967681459490252010000004397208921100778135_);}
	.st42{fill:url(#SVGID_00000098181555652642512170000003237667798831330970_);}
	.st43{fill:url(#SVGID_00000019672307338308163490000009448631286432611510_);}
	.st44{fill:url(#SVGID_00000060742343441620389920000017481050221033552525_);}
	.st45{fill:url(#SVGID_00000095314065443766565290000015188774234256733078_);}
	.st46{fill:url(#SVGID_00000074442103476867830460000001572636301583044512_);}
	.st47{fill:url(#SVGID_00000140006113539156567650000003229937995533187514_);}
	.st48{fill:url(#SVGID_00000146490174990536880330000009051270830055661997_);}
	.st49{fill:#666694;}
	.st50{fill:url(#SVGID_00000129163284921335377660000014403642011873147838_);}
	.st51{fill:url(#SVGID_00000022520650897968307580000002777773878553928361_);}
	.st52{fill:url(#SVGID_00000136405105247425384290000004641428900628229287_);}
	.st53{fill:url(#SVGID_00000116235391352309304720000010531912960949564088_);}
	.st54{fill:url(#SVGID_00000034801074552506683430000015434010119647375532_);}
	.st55{fill:url(#SVGID_00000129182982633473408290000002524831028108922522_);}
	.st56{fill:url(#SVGID_00000059278927312113726580000015932613220993227674_);}
	.st57{fill:url(#SVGID_00000017505017327110039030000016359804998672329649_);}
	.st58{fill:url(#SVGID_00000026885654172250780840000001204932286679945387_);}
	.st59{fill:url(#SVGID_00000030482514450369805000000013127214934500477831_);}
	.st60{fill:url(#SVGID_00000076568904325709239110000009871435417803194505_);}
	.st61{opacity:0.78;fill:#FFFFFF;enable-background:new    ;}
	.st62{fill:url(#SVGID_00000119096113467042527290000006130758462266441130_);}
</style>
<g id="Illustration">
	<g>
		
			<linearGradient id="SVGID_1_" gradientUnits="userSpaceOnUse" x1="3516.0154" y1="-218.2552" x2="1129.7653" y2="2745.3186" gradientTransform="matrix(1 0 0 -1 0 3710)">
			<stop  offset="0" style="stop-color:#DAE3FE"/>
			<stop  offset="1" style="stop-color:#E9EFFD"/>
		</linearGradient>
		<path class="st0" d="M2859.5,2759.5c-54.8,57.7-106.7,94.9-147.6,124.3c-481.7,345.6-1051.6,244.9-1172.7,220.3
			c-178.9-36.3-524.6-106.6-774.6-400.5c-378.2-444.7-319.3-1145.4-25.9-1607.9c53.7-84.6,337.1-554.2,913.1-629.5
			c348.6-45.6,755,46.3,1049.3,292.9C3318.9,1276.7,3274.9,2322.3,2859.5,2759.5z"/>
		<g>
			<g>
				<path class="st1" d="M3010.7,1141.9c-3.7-15.6-25.9-15.8-29.9-0.3c-38.4,149.8-151.5,539.6-334.2,749.1
					c-297.5,341.2-488.3,888.8-286.6,1165.6C2360,3056.4,3416.3,2837.3,3010.7,1141.9z"/>
				<path class="st2" d="M2986.1,1355.1c-0.3,4.9-0.9,8.9-1.3,13.2l-1.6,12.7l-3.6,25.4c-2.5,16.9-5.3,33.8-8,50.7
					c-5.6,33.7-11.7,67.4-18.1,101c-12.9,67.2-27.5,134-43.2,200.6c-15.6,66.6-33,132.8-51.9,198.6
					c-18.9,65.8-38.7,131.3-60.7,196.2c-43.7,129.8-94.5,257.3-154.2,380.7c-30.5,61.4-62.5,122-98,180.6
					c-35.9,58.3-74.4,115.2-116.8,169c-0.9,1.2-2.6,1.4-3.8,0.4c-1.1-0.9-1.4-2.5-0.5-3.7l0,0c40.1-55.2,77.2-112.4,111.4-171.4
					c34.4-58.9,65.3-119.7,94.6-181.2c29.3-61.6,56.1-124.3,81.4-187.6c25.3-63.3,48-127.6,70.4-192.1
					c44.1-129.1,81.3-260.5,114.9-392.8c16.6-66.2,32-132.7,46.1-199.5c7.1-33.4,13.9-66.8,20.3-100.4l9.2-50.4l4.3-25.2l2-12.6
					c0.6-4.1,1.3-8.6,1.7-12.2l0.1-0.6c0.1-1.5,1.5-2.5,2.9-2.4C2985.1,1352.4,2986.2,1353.6,2986.1,1355.1z"/>
			</g>
			<g>
				<path class="st3" d="M2487.1,815.4c-7.7-13.3-28-7.4-27.5,7.9c5.6,147.9,8.3,536.1-102.1,778.2
					c-179.8,394.1-205.4,948.3,55.2,1147.1C2412.7,2748.5,3321.6,2259.5,2487.1,815.4z"/>
				<path class="st2" d="M2522.8,1017.5c1.1,4.6,1.6,8.4,2.4,12.5l2,12.1l3.7,24.3c2.3,16.2,4.4,32.4,6.5,48.7
					c4,32.5,7.7,65,11,97.6c6.5,65.1,11.3,130.4,15.1,195.8c3.9,65.4,5.9,130.8,6.6,196.3c0.6,65.5,0.3,131-2.2,196.5
					c-4.7,130.9-16.5,261.7-37.5,391.2c-11.2,64.6-24.1,128.9-40.7,192.4c-17,63.3-36.8,125.9-61,186.8c-0.5,1.3-2.1,2-3.4,1.5
					c-1.3-0.5-2-2-1.5-3.3l0,0c21.7-61.6,40.1-124.2,55.4-187.6c15.5-63.4,27.2-127.6,37.3-192c10-64.4,17.5-129.3,23.5-194.2
					c6-65,9.2-130.1,12.1-195.3c5.3-130.4,3.5-261.1-1.8-391.5c-2.8-65.2-6.9-130.4-12.1-195.5c-2.6-32.6-5.4-65.1-8.7-97.6
					l-5.3-48.7l-2.9-24.3l-1.6-12.1c-0.6-4-1.1-8.2-1.8-11.7l-0.1-0.6c-0.3-1.4,0.7-2.8,2.1-3
					C2521.1,1015.3,2522.4,1016.2,2522.8,1017.5z"/>
			</g>
		</g>
		<g>
			<g>
				
					<linearGradient id="SVGID_00000075156424695725332920000013786056825180099494_" gradientUnits="userSpaceOnUse" x1="2261.3855" y1="1800.3673" x2="816.9691" y2="551.6874" gradientTransform="matrix(1 0 0 -1 0 3710)">
					<stop  offset="0" style="stop-color:#FF928E"/>
					<stop  offset="1" style="stop-color:#FE7062"/>
				</linearGradient>
				<path style="fill:url(#SVGID_00000075156424695725332920000013786056825180099494_);" d="M555.9,2968.6v-851.8
					c0-111.9,89.9-203,201.8-204.2c335.9-3.7,1028.5-3.8,1595.3,43.9c77.3,6.5,137.5,69.9,140.3,147.5l53,823.5
					c3.9,108.9-82.2,199.9-191.2,202L751,3160C643.9,3162.1,555.9,3075.8,555.9,2968.6z"/>
				<path class="st5" d="M750.4,2209c-1.4,72.5,0.7,187.5,2.5,261.8c0.9,38.7,34.9,68.1,73.3,63.6l276.4-32.4
					c36.8-4.3,62.8-38.3,57.3-74.9l-33.9-226.3c-4.8-32.1-32.4-55.9-64.9-55.9h-245C780.4,2144.9,751.1,2173.3,750.4,2209z"/>
				<path class="st6" d="M1472.8,2637.9l230.6,24.9c32.3,3.5,59.8-23.1,57.4-55.5l-50.4-685.9c-96.7-3.1-192-5.3-284-6.9v671.7
					C1426.4,2612.8,1446.4,2635.1,1472.8,2637.9z"/>
				<path class="st5" d="M1567.3,2519.1c0.7,12.3,10.9,21.9,23.1,21.9c0.5,0,0.9,0,1.4,0c12.8-0.7,22.6-11.7,21.8-24.5l-34.8-598.6
					c-15.6-0.4-31.1-0.7-46.5-1.1L1567.3,2519.1z"/>
				<g>
					
						<linearGradient id="SVGID_00000178892657891334673350000008852418222528844476_" gradientUnits="userSpaceOnUse" x1="-1215.3635" y1="2174.2834" x2="-1208.6145" y2="1661.3118" gradientTransform="matrix(1 0 0 -1 2077.291 3710)">
						<stop  offset="0" style="stop-color:#09005D"/>
						<stop  offset="1" style="stop-color:#1A0F91"/>
					</linearGradient>
					<path style="fill:url(#SVGID_00000178892657891334673350000008852418222528844476_);" d="M878.3,2425.1c-4,0-7.5-3.1-7.7-7.2
						l-12-188.5c-0.3-4.3,3-7.9,7.2-8.2c4.5-0.3,7.9,3,8.2,7.2l12,188.5c0.3,4.3-3,7.9-7.2,8.2
						C878.6,2425.1,878.4,2425.1,878.3,2425.1z"/>
					
						<linearGradient id="SVGID_00000175287824898193187180000009116931178840624540_" gradientUnits="userSpaceOnUse" x1="-1187.8867" y1="2174.6453" x2="-1181.1375" y2="1661.6746" gradientTransform="matrix(1 0 0 -1 2077.291 3710)">
						<stop  offset="0" style="stop-color:#09005D"/>
						<stop  offset="1" style="stop-color:#1A0F91"/>
					</linearGradient>
					<path style="fill:url(#SVGID_00000175287824898193187180000009116931178840624540_);" d="M902.9,2425.1c-4.2,0-7.6-3.3-7.7-7.5
						l-6.3-192.1c-0.1-4.3,3.2-7.9,7.5-8c4.9-0.2,7.8,3.2,8,7.5l6.3,192.2c0.1,4.3-3.2,7.9-7.5,8
						C903.1,2425.1,903,2425.1,902.9,2425.1z"/>
					
						<linearGradient id="SVGID_00000038372485146278366910000010766451730660085149_" gradientUnits="userSpaceOnUse" x1="-1156.2622" y1="2175.0613" x2="-1149.5131" y2="1662.09" gradientTransform="matrix(1 0 0 -1 2077.291 3710)">
						<stop  offset="0" style="stop-color:#09005D"/>
						<stop  offset="1" style="stop-color:#1A0F91"/>
					</linearGradient>
					<path style="fill:url(#SVGID_00000038372485146278366910000010766451730660085149_);" d="M935.9,2425.1c-4.1,0-7.5-3.2-7.7-7.4
						c-1.5-31.6-9-189.3-9-192.5c0-4.3,3.5-7.7,7.7-7.7c4.2,0,7.7,3.4,7.7,7.7c0.1,4.2,5.9,127.3,9,191.9c0.2,4.3-3.1,7.9-7.4,8.1
						C936.1,2425.1,936,2425.1,935.9,2425.1z M934.6,2225.2h0.2H934.6z"/>
					
						<linearGradient id="SVGID_00000139294814342493554210000012037781426551630764_" gradientUnits="userSpaceOnUse" x1="-1102.922" y1="2175.7625" x2="-1096.1727" y2="1662.792" gradientTransform="matrix(1 0 0 -1 2077.291 3710)">
						<stop  offset="0" style="stop-color:#09005D"/>
						<stop  offset="1" style="stop-color:#1A0F91"/>
					</linearGradient>
					<path style="fill:url(#SVGID_00000139294814342493554210000012037781426551630764_);" d="M987.4,2432.8
						c-8.3,0-15.1-6.6-15.4-14.9c-6.5-186.2-5.4-190.4-4.6-193.1c2.2-8.3,10.8-13.1,19-10.9c7.6,2.1,12.3,9.4,11.3,17
						c-0.5,11.2,3,119.5,5.3,185.9c0.3,8.5-6.4,15.7-14.9,16C987.8,2432.8,987.6,2432.8,987.4,2432.8z"/>
					
						<linearGradient id="SVGID_00000026139769240670235520000004733215989885125777_" gradientUnits="userSpaceOnUse" x1="-1066.7544" y1="2176.239" x2="-1060.0052" y2="1663.2692" gradientTransform="matrix(1 0 0 -1 2077.291 3710)">
						<stop  offset="0" style="stop-color:#09005D"/>
						<stop  offset="1" style="stop-color:#1A0F91"/>
					</linearGradient>
					<path style="fill:url(#SVGID_00000026139769240670235520000004733215989885125777_);" d="M1020.9,2425.1
						c-4.3,0-7.7-3.5-7.7-7.7v-188.5c0-4.3,3.5-7.7,7.7-7.7c4.3,0,7.7,3.5,7.7,7.7v188.5C1028.7,2421.6,1025.2,2425.1,1020.9,2425.1
						z"/>
					
						<linearGradient id="SVGID_00000037652483927196946520000002984484778710307985_" gradientUnits="userSpaceOnUse" x1="-1044.2036" y1="2176.5364" x2="-1037.4545" y2="1663.5664" gradientTransform="matrix(1 0 0 -1 2077.291 3710)">
						<stop  offset="0" style="stop-color:#09005D"/>
						<stop  offset="1" style="stop-color:#1A0F91"/>
					</linearGradient>
					<path style="fill:url(#SVGID_00000037652483927196946520000002984484778710307985_);" d="M1048,2425.1c-4.2,0-7.6-3.4-7.7-7.6
						c-1.5-65.5-4.9-172.5-8-185.4c-1.4-2.4-1.3-5.5,0.3-8c2.3-3.6,7.1-4.6,10.7-2.2c4.2,2.8,8.2,5.4,12.5,195.3
						c0.1,4.3-3.3,7.8-7.6,7.9L1048,2425.1L1048,2425.1z"/>
					
						<linearGradient id="SVGID_00000093155886033255438670000007800996010332095389_" gradientUnits="userSpaceOnUse" x1="-1256.1787" y1="2173.7468" x2="-1249.4294" y2="1660.7766" gradientTransform="matrix(1 0 0 -1 2077.291 3710)">
						<stop  offset="0" style="stop-color:#09005D"/>
						<stop  offset="1" style="stop-color:#1A0F91"/>
					</linearGradient>
					<path style="fill:url(#SVGID_00000093155886033255438670000007800996010332095389_);" d="M836.7,2442.2
						c-8.2,0-15-6.4-15.4-14.7l-10.3-198c-0.4-8.5,6.1-15.8,14.6-16.2c8.1-0.6,15.8,6.1,16.2,14.6l10.3,198
						c0.4,8.5-6.1,15.8-14.6,16.2C837.2,2442.2,836.9,2442.2,836.7,2442.2z"/>
				</g>
			</g>
			<g>
				
					<linearGradient id="SVGID_00000157274843274942557290000015072272158915896964_" gradientUnits="userSpaceOnUse" x1="2636.9167" y1="1577.7198" x2="936.0155" y2="2515.9165" gradientTransform="matrix(1 0 0 -1 0 3710)">
					<stop  offset="0" style="stop-color:#FF928E"/>
					<stop  offset="1" style="stop-color:#FE7062"/>
				</linearGradient>
				<path style="fill:url(#SVGID_00000157274843274942557290000015072272158915896964_);" d="M825.2,1802v-598.2
					c0-78.6,63.2-142.5,141.7-143.4c235.9-2.6,722.3-2.7,1120.4,30.8c54.3,4.6,96.6,49.1,98.5,103.6l37.2,578.3
					c2.8,76.5-57.7,140.4-134.2,141.9l-1126.6,21.4C886.9,1937.9,825.2,1877.3,825.2,1802z"/>
				<path class="st5" d="M961.8,1268.6c-1,50.9,0.5,131.7,1.7,183.8c0.6,27.1,24.5,47.8,51.4,44.7l194.1-22.8
					c25.9-3,44.1-26.9,40.2-52.6l-23.8-158.9c-3.4-22.6-22.8-39.3-45.6-39.3h-172C982.8,1223.5,962.3,1243.5,961.8,1268.6z"/>
				<path class="st6" d="M1469.1,1569.8l161.9,17.5c22.7,2.4,42-16.2,40.3-39l-35.4-481.7c-67.9-2.2-134.8-3.7-199.4-4.8v471.7
					C1436.5,1552.1,1450.5,1567.8,1469.1,1569.8z"/>
				<path class="st5" d="M1535.4,1486.3c0.5,8.7,7.7,15.3,16.2,15.3c0.3,0,0.6,0,1,0c9-0.5,15.8-8.2,15.3-17.2l-24.4-420.4
					c-10.9-0.3-21.8-0.5-32.7-0.8L1535.4,1486.3z"/>
				<g>
					
						<linearGradient id="SVGID_00000180356310737096304060000005045974961626405010_" gradientUnits="userSpaceOnUse" x1="-141.5109" y1="5115.4287" x2="-276.5033" y2="4696.9521" gradientTransform="matrix(1 0 0 -1 2077.291 3710)">
						<stop  offset="0" style="stop-color:#09005D"/>
						<stop  offset="1" style="stop-color:#1A0F91"/>
					</linearGradient>
					<path style="fill:url(#SVGID_00000180356310737096304060000005045974961626405010_);" d="M1051.6,1420.3
						c-2.8,0-5.2-2.2-5.4-5.1l-8.4-132.4c-0.2-3,2.1-5.6,5.1-5.8c3.2-0.2,5.6,2.1,5.8,5.1l8.4,132.4c0.2,3-2.1,5.6-5.1,5.8
						C1051.8,1420.3,1051.7,1420.3,1051.6,1420.3z"/>
					
						<linearGradient id="SVGID_00000170248423704051163420000002545265835356548248_" gradientUnits="userSpaceOnUse" x1="-124.4159" y1="5109.9146" x2="-259.4082" y2="4691.4385" gradientTransform="matrix(1 0 0 -1 2077.291 3710)">
						<stop  offset="0" style="stop-color:#09005D"/>
						<stop  offset="1" style="stop-color:#1A0F91"/>
					</linearGradient>
					<path style="fill:url(#SVGID_00000170248423704051163420000002545265835356548248_);" d="M1068.8,1420.3
						c-2.9,0-5.3-2.3-5.4-5.2l-4.4-134.9c-0.1-3,2.3-5.5,5.2-5.6c3.5-0.2,5.5,2.3,5.6,5.2l4.4,134.9c0.1,3-2.3,5.5-5.2,5.6
						C1069,1420.3,1068.9,1420.3,1068.8,1420.3z"/>
					
						<linearGradient id="SVGID_00000006693065611298598430000005089170047608168329_" gradientUnits="userSpaceOnUse" x1="-104.2951" y1="5103.4277" x2="-239.2872" y2="4684.9521" gradientTransform="matrix(1 0 0 -1 2077.291 3710)">
						<stop  offset="0" style="stop-color:#09005D"/>
						<stop  offset="1" style="stop-color:#1A0F91"/>
					</linearGradient>
					<path style="fill:url(#SVGID_00000006693065611298598430000005089170047608168329_);" d="M1092,1420.3c-2.9,0-5.3-2.3-5.4-5.2
						c-1.1-22.2-6.3-133-6.3-135.2c0-3,2.4-5.4,5.4-5.4c3,0,5.4,2.4,5.4,5.4c0.1,2.9,4.2,89.4,6.3,134.7c0.1,3-2.2,5.5-5.2,5.7
						C1092.2,1420.3,1092.1,1420.3,1092,1420.3z M1091.1,1279.9h0.1H1091.1z"/>
					
						<linearGradient id="SVGID_00000165223091173170258050000009323181879709228460_" gradientUnits="userSpaceOnUse" x1="-69.9091" y1="5092.3374" x2="-204.9016" y2="4673.8608" gradientTransform="matrix(1 0 0 -1 2077.291 3710)">
						<stop  offset="0" style="stop-color:#09005D"/>
						<stop  offset="1" style="stop-color:#1A0F91"/>
					</linearGradient>
					<path style="fill:url(#SVGID_00000165223091173170258050000009323181879709228460_);" d="M1128.2,1425.7
						c-5.8,0-10.6-4.6-10.8-10.5c-4.6-130.7-3.8-133.7-3.3-135.6c1.6-5.8,7.6-9.2,13.3-7.6c5.3,1.5,8.6,6.6,7.9,11.9
						c-0.3,7.9,2.1,83.9,3.7,130.6c0.2,6-4.5,11-10.5,11.2C1128.5,1425.7,1128.3,1425.7,1128.2,1425.7z"/>
					
						<linearGradient id="SVGID_00000114062021354129068900000010042791174640543873_" gradientUnits="userSpaceOnUse" x1="-46.9683" y1="5084.9263" x2="-181.9605" y2="4666.4502" gradientTransform="matrix(1 0 0 -1 2077.291 3710)">
						<stop  offset="0" style="stop-color:#09005D"/>
						<stop  offset="1" style="stop-color:#1A0F91"/>
					</linearGradient>
					<path style="fill:url(#SVGID_00000114062021354129068900000010042791174640543873_);" d="M1151.7,1420.3c-3,0-5.4-2.4-5.4-5.4
						v-132.4c0-3,2.4-5.4,5.4-5.4c3,0,5.4,2.4,5.4,5.4v132.4C1157.2,1417.9,1154.7,1420.3,1151.7,1420.3z"/>
					
						<linearGradient id="SVGID_00000048480087476325574990000012339913387916266410_" gradientUnits="userSpaceOnUse" x1="-32.665" y1="5080.3218" x2="-167.6574" y2="4661.8452" gradientTransform="matrix(1 0 0 -1 2077.291 3710)">
						<stop  offset="0" style="stop-color:#09005D"/>
						<stop  offset="1" style="stop-color:#1A0F91"/>
					</linearGradient>
					<path style="fill:url(#SVGID_00000048480087476325574990000012339913387916266410_);" d="M1170.7,1420.3
						c-2.9,0-5.4-2.4-5.4-5.3c-1-46-3.5-121.2-5.6-130.2c-1-1.7-0.9-3.9,0.2-5.6c1.6-2.5,5-3.2,7.5-1.6c3,1.9,5.8,3.8,8.8,137.1
						c0.1,3-2.3,5.5-5.3,5.6L1170.7,1420.3L1170.7,1420.3z"/>
					
						<linearGradient id="SVGID_00000107558885239581758110000015248000751276999615_" gradientUnits="userSpaceOnUse" x1="-166.4717" y1="5123.4746" x2="-301.4639" y2="4704.9985" gradientTransform="matrix(1 0 0 -1 2077.291 3710)">
						<stop  offset="0" style="stop-color:#09005D"/>
						<stop  offset="1" style="stop-color:#1A0F91"/>
					</linearGradient>
					<path style="fill:url(#SVGID_00000107558885239581758110000015248000751276999615_);" d="M1022.3,1432.4
						c-5.7,0-10.5-4.5-10.8-10.3l-7.2-139c-0.3-6,4.3-11.1,10.3-11.4c5.7-0.4,11.1,4.3,11.4,10.3l7.2,139c0.3,6-4.3,11.1-10.3,11.4
						C1022.7,1432.4,1022.5,1432.4,1022.3,1432.4z"/>
				</g>
			</g>
		</g>
		<g>
			<g>
				
					<linearGradient id="SVGID_00000062173605369954711030000014414007583139318405_" gradientUnits="userSpaceOnUse" x1="1574.745" y1="2292.5342" x2="600.955" y2="1046.6548" gradientTransform="matrix(1 0 0 -1 0 3710)">
					<stop  offset="0" style="stop-color:#A22B25"/>
					<stop  offset="1" style="stop-color:#C0423C"/>
				</linearGradient>
				<path style="fill:url(#SVGID_00000062173605369954711030000014414007583139318405_);" d="M1491.9,1897.8l-39.6,21.3
					c-47.5,28.9-90,44.2-128.3,49.9c-119.4,17.9-197.3-57.4-255.3-103.2c-76.6-60.4-136.2-31-136.2-31l81.7,155.9
					c122,115,247,89.5,325.9,52.2c50.2-23.7,81.6-52.2,81.6-52.2C1511.5,1937.3,1491.9,1897.8,1491.9,1897.8z"/>
				
					<linearGradient id="SVGID_00000160872522779523733360000016258421756639734686_" gradientUnits="userSpaceOnUse" x1="1686.6774" y1="1966.9674" x2="1138.2068" y2="1265.2472" gradientTransform="matrix(1 0 0 -1 0 3710)">
					<stop  offset="0" style="stop-color:#A22B25"/>
					<stop  offset="1" style="stop-color:#C0423C"/>
				</linearGradient>
				<path style="fill:url(#SVGID_00000160872522779523733360000016258421756639734686_);" d="M1608.6,1953.6
					c-2.6-8.5-8.8-15.4-17.1-18.7l-80.4-32.3c0,0-1.2-10.3,17-17.3c18.2-7,13.9-27.4,13.9-27.4s-24.9,11.3-61.3,29.3
					c-20.8,10.3-32.5,28.4-38.7,42.1l20.7,27.2c49.5,14.9,99.7,17.7,150.2,11.8L1608.6,1953.6z"/>
			</g>
			
				<linearGradient id="SVGID_00000144340133801015128640000015089443580252928703_" gradientUnits="userSpaceOnUse" x1="1741.3619" y1="693.9333" x2="1777.354" y2="518.8801" gradientTransform="matrix(-1 0 0 -1 2780.5664 3710)">
				<stop  offset="0" style="stop-color:#4F52FF"/>
				<stop  offset="1" style="stop-color:#4042E2"/>
			</linearGradient>
			<path style="fill:url(#SVGID_00000144340133801015128640000015089443580252928703_);" d="M915.1,3089.7c0,0-6.1,34.6-9.1,68.9
				c-1.2,13.4,9.2,25,22.6,25.6c45.7,1.9,143.3,5.6,178.4,4c5.3-0.2,8.7-5.6,6.8-10.5l0,0c-1.6-4.1-4.8-7.4-8.8-9.3l-161.3-74.1
				L915.1,3089.7z"/>
			
				<linearGradient id="SVGID_00000001654474350043620920000011241663378076764861_" gradientUnits="userSpaceOnUse" x1="3935.856" y1="620.467" x2="3988.334" y2="620.467" gradientTransform="matrix(1 0 0 -1 -3025.8091 3710)">
				<stop  offset="0" style="stop-color:#FEBBBA"/>
				<stop  offset="1" style="stop-color:#FF928E"/>
			</linearGradient>
			<path style="fill:url(#SVGID_00000001654474350043620920000011241663378076764861_);" d="M910,3069.3l4.9,41.4
				c0,0,28.3,13.2,47.6-1.7l-11.7-46.2L910,3069.3z"/>
			
				<linearGradient id="SVGID_00000137124272876480946260000001741213076915130530_" gradientUnits="userSpaceOnUse" x1="3694.8369" y1="2015.2003" x2="3956.6699" y2="877.1364" gradientTransform="matrix(1 0 0 -1 -3025.8091 3710)">
				<stop  offset="0" style="stop-color:#09005D"/>
				<stop  offset="1" style="stop-color:#1A0F91"/>
			</linearGradient>
			<path style="fill:url(#SVGID_00000137124272876480946260000001741213076915130530_);" d="M902.2,2263.1
				c-2.1,11.2,3.8,587.6,60.4,833.4c0.9,4,6.8,11.9,4.8,15.3c-4.9,8.4-41,6-61.4,6.7c-6.3,0.2-9.7-7.2-11.5-13.5
				c-16.2-57-93.6-342.8-103.7-615.8c-11.3-305,0-10.4,0-10.4l-5-193.3L902.2,2263.1z"/>
			
				<linearGradient id="SVGID_00000040546355003243063310000007629163996026986887_" gradientUnits="userSpaceOnUse" x1="2029.8906" y1="684.8157" x2="2028.2545" y2="511.3979" gradientTransform="matrix(-1 0 0 -1 2780.5664 3710)">
				<stop  offset="0" style="stop-color:#4F52FF"/>
				<stop  offset="1" style="stop-color:#4042E2"/>
			</linearGradient>
			<path style="fill:url(#SVGID_00000040546355003243063310000007629163996026986887_);" d="M729.5,3107.7c0,0-9.7,17.5-19.2,64
				c-1.7,8.4,4.2,16.4,12.7,17.3c15.1,1.5,38.3,3.4,56.9,3.3c8.6-0.1,15.3-7.5,14.2-16c-2.1-17-8.5-44.8-28.3-66.5L729.5,3107.7z"/>
			
				<linearGradient id="SVGID_00000150817375027919071850000010104771821978938759_" gradientUnits="userSpaceOnUse" x1="3746.7241" y1="623.1575" x2="3792.0352" y2="623.1575" gradientTransform="matrix(1 0 0 -1 -3025.8091 3710)">
				<stop  offset="0" style="stop-color:#FEBBBA"/>
				<stop  offset="1" style="stop-color:#FF928E"/>
			</linearGradient>
			<path style="fill:url(#SVGID_00000150817375027919071850000010104771821978938759_);" d="M720.9,3054.5l11.5,62.7
				c0,0,11.4,8.4,33.8,2.3l-5.5-67.4L720.9,3054.5z"/>
			
				<linearGradient id="SVGID_00000154415542461088969530000013705526663043692477_" gradientUnits="userSpaceOnUse" x1="3607.7664" y1="2015.4396" x2="3872.9709" y2="862.7201" gradientTransform="matrix(1 0 0 -1 -3025.8091 3710)">
				<stop  offset="0" style="stop-color:#09005D"/>
				<stop  offset="1" style="stop-color:#1A0F91"/>
			</linearGradient>
			<path style="fill:url(#SVGID_00000154415542461088969530000013705526663043692477_);" d="M693.3,2285.6
				c-46.3,291.4,6.6,742.5,25.6,826.5c1.2,5.1,5.1,9.1,10.1,9.9c8.5,1.5,22.4,2.7,36.2-1.5c4.7-1.4,8.1-5.9,8.3-11
				c2.5-67.9-2-484.4,41.1-649c2.2-8.3,7.1-15.6,13.8-20.6l70.9-57.8l1.3-124.6L693.3,2285.6z"/>
			
				<linearGradient id="SVGID_00000142173187070855523730000012429670195923745453_" gradientUnits="userSpaceOnUse" x1="957.905" y1="1804.8997" x2="530.4296" y2="1345.9265" gradientTransform="matrix(1 0 0 -1 0 3710)">
				<stop  offset="0" style="stop-color:#4F52FF"/>
				<stop  offset="1" style="stop-color:#4042E2"/>
			</linearGradient>
			<path style="fill:url(#SVGID_00000142173187070855523730000012429670195923745453_);" d="M958.3,1818.1
				c-121.9-2-256.4,32-256.4,32c-30,174.8-17.9,368.5-11.7,432.3c1.3,13.1-5.7,26.9,7.3,29c63.8,10.3,164.1-0.2,195.2-9.2
				c11.4-3.3,9.5-15.4,11.9-27c20.9-100.3,80.7-321.6,80.7-321.6c29,37.3,69.9,89.5,130.4,103.4c-30.8-35.7,28.3-110.7,22-137.5
				C1083,1857.9,995.9,1818.7,958.3,1818.1z"/>
			
				<linearGradient id="SVGID_00000166639416710752658400000004309429787603825310_" gradientUnits="userSpaceOnUse" x1="875.6139" y1="2008.0356" x2="823.8665" y2="1774.0486" gradientTransform="matrix(1 0 0 -1 0 3710)">
				<stop  offset="0" style="stop-color:#A22B25"/>
				<stop  offset="1" style="stop-color:#C0423C"/>
			</linearGradient>
			<path style="fill:url(#SVGID_00000166639416710752658400000004309429787603825310_);" d="M834.9,1719.1l-38.8,112.2
				c-0.6,1.9,0.1,3.9,1.8,4.9c10.6,5.8,48.7,22.7,94.6-6.4c4.8-3,8-8,8.8-13.6l12.6-97.1H834.9z"/>
			<g>
				
					<linearGradient id="SVGID_00000056427227635035581550000010569042277314321562_" gradientUnits="userSpaceOnUse" x1="-1912.1372" y1="3753.7886" x2="-1750.146" y2="3463.5547" gradientTransform="matrix(0.746 -0.6659 -0.6659 -0.746 3922.6868 2894.4778)">
					<stop  offset="0" style="stop-color:#A22B25"/>
					<stop  offset="1" style="stop-color:#C0423C"/>
				</linearGradient>
				<path style="fill:url(#SVGID_00000056427227635035581550000010569042277314321562_);" d="M919.3,1615.2
					c0,0,42.6,80.2,37.1,112.6c-5.5,32.4-58.3,30.1-104.3,3.8l-32.2-86.6L919.3,1615.2z"/>
				
					<linearGradient id="SVGID_00000141442492069765828260000017782244607045255046_" gradientUnits="userSpaceOnUse" x1="-1483.5867" y1="3088.5173" x2="-1452.5881" y2="2911.7109" gradientTransform="matrix(0.746 -0.6659 -0.6659 -0.746 3922.6868 2894.4778)">
					<stop  offset="0" style="stop-color:#09005D"/>
					<stop  offset="1" style="stop-color:#1A0F91"/>
				</linearGradient>
				<path style="fill:url(#SVGID_00000141442492069765828260000017782244607045255046_);" d="M854.1,1689c1.9-0.8,2.6-3.1,1.4-4.8
					c-3.4-5.2-9.8-15.8-11.9-25.2c0,0-7.7-4.9,19.5-11.4c14.8-3.5,41-6.5,52.5-17.1c12.9-11.9-10.9-34.4-20.9-40.4
					c-13.2-8-29.2-12.7-44.1-8.7c-7.2,1.9-13.7,5.8-20.1,9.6c-10.9,6.5-22.2,13.3-29.1,23.9c-4.5,6.9-6.8,14.9-9,22.8
					c-3.1,11.4-5.9,23-5.4,34.8c1.4,31.3,38.2,59.4,67.7,62.8c2.4,0.3,4.3-2.1,3.5-4.4l-12.1-35.1c-0.6-1.6,0.2-3.4,1.8-4.1
					L854.1,1689z"/>
				
					<linearGradient id="SVGID_00000096759999956600630610000002009979019135272846_" gradientUnits="userSpaceOnUse" x1="-1943.1154" y1="3736.5027" x2="-1781.1244" y2="3446.2688" gradientTransform="matrix(0.746 -0.6659 -0.6659 -0.746 3922.6868 2894.4778)">
					<stop  offset="0" style="stop-color:#A22B25"/>
					<stop  offset="1" style="stop-color:#C0423C"/>
				</linearGradient>
				<path style="fill:url(#SVGID_00000096759999956600630610000002009979019135272846_);" d="M858.9,1694c0,0-30.3-20.8-32.5-3.3
					c-2.2,17.5,27.3,25.4,41.9,18.8L858.9,1694z"/>
			</g>
			<g>
				
					<linearGradient id="SVGID_00000080192042952948148600000011183577647521590690_" gradientUnits="userSpaceOnUse" x1="773.8431" y1="2113.5864" x2="1025.8285" y2="2032.5911" gradientTransform="matrix(1 0 0 -1 0 3710)">
					<stop  offset="0" style="stop-color:#4F52FF"/>
					<stop  offset="1" style="stop-color:#4042E2"/>
				</linearGradient>
				<path style="fill:url(#SVGID_00000080192042952948148600000011183577647521590690_);" d="M934.8,1595.6
					c-62.2-117.5-223.5-10.8-148.5,88.3C842.1,1646.7,905.2,1591.5,934.8,1595.6z"/>
			</g>
			
				<linearGradient id="SVGID_00000124138126634487107550000004244758722381430432_" gradientUnits="userSpaceOnUse" x1="780.0263" y1="2132.9539" x2="1032.0114" y2="2051.9587" gradientTransform="matrix(1 0 0 -1 0 3710)">
				<stop  offset="0" style="stop-color:#4F52FF"/>
				<stop  offset="1" style="stop-color:#4042E2"/>
			</linearGradient>
			<path style="fill:url(#SVGID_00000124138126634487107550000004244758722381430432_);" d="M837.6,1645.3l111.7-3.5
				c2.8-0.1,5.4-1.7,6.8-4.1c10-18.1,24.7-29.6,43-35.9c2.3-0.8,1.8-4.2-0.6-4.4l-68.5-4.7c-0.1,0-0.2,0-0.2,0
				c-34.1,2.6-64.4,23.2-93.2,50.1C835.6,1643.8,836.3,1645.4,837.6,1645.3z"/>
			
				<linearGradient id="SVGID_00000034090494101677471960000008257558816393674376_" gradientUnits="userSpaceOnUse" x1="837.3341" y1="1917.1958" x2="409.8589" y2="1458.2229" gradientTransform="matrix(1 0 0 -1 0 3710)">
				<stop  offset="0" style="stop-color:#4F52FF"/>
				<stop  offset="1" style="stop-color:#4042E2"/>
			</linearGradient>
			<path style="fill:url(#SVGID_00000034090494101677471960000008257558816393674376_);" d="M715.7,2028
				c68.2-76.6,61.3-135.6-15.7-178c0,0-127.7,86.7-148.6,196.7c24.1,1.8,68,8,111,29.7C671.8,2024.5,715.7,2028,715.7,2028z"/>
			
				<linearGradient id="SVGID_00000057844582670060904050000008378396757887876261_" gradientUnits="userSpaceOnUse" x1="5647.3848" y1="1577.9124" x2="5981.8882" y2="1577.9124" gradientTransform="matrix(1 0 0 -1 -5098.915 3710)">
				<stop  offset="0" style="stop-color:#A22B25"/>
				<stop  offset="1" style="stop-color:#C0423C"/>
			</linearGradient>
			<path style="fill:url(#SVGID_00000057844582670060904050000008378396757887876261_);" d="M864,2106.9c0,0-143.3,81-191.7,11.8
				c-10-14.4-12.4-28.6-10-42.2c-43-21.7-86.9-28-111-29.7c-6.3,33.2-3,68.4,16.5,104.1c84.7,155,315.1-8.6,315.1-8.6L864,2106.9z"
				/>
			<g>
				
					<linearGradient id="SVGID_00000017516269101787861980000009794306678576682632_" gradientUnits="userSpaceOnUse" x1="816.0977" y1="1515.109" x2="1278.4474" y2="1842.4661" gradientTransform="matrix(1 0 0 -1 0 3710)">
					<stop  offset="0" style="stop-color:#09005D"/>
					<stop  offset="1" style="stop-color:#1A0F91"/>
				</linearGradient>
				<path style="fill:url(#SVGID_00000017516269101787861980000009794306678576682632_);" d="M846.8,2209.3l78.2-273.2
					c0.9-3.1,3.5-5.4,6.7-5.7c14.2-1.7,55.2-6.3,102.7-10.3c57.1-4.8,123.4-8.7,163.1-5.4c5.6,0.5,9,6.4,6.5,11.5
					c-22.5,45.6-115.2,231.1-161.7,291.8c-1.5,2-3.9,3.2-6.4,3.2l-181.5-1.7C849.1,2219.5,845.3,2214.4,846.8,2209.3z"/>
				<path class="st40" d="M1042.5,1896.4l56.7-9.4c3-0.5,5.5,2.4,4.5,5.3l-5.6,17c-0.5,1.5-1.8,2.6-3.3,2.8l-54.6,7.3
					c-2.8,0.4-5.2-2.2-4.5-5l3.5-14.9C1039.6,1897.9,1040.9,1896.7,1042.5,1896.4z"/>
				<path class="st40" d="M1000,1944.4l4.7-24.3c0.5-2.4,2.5-4.3,5-4.5l114.5-11.6c3.9-0.4,6.9,3.1,6,6.9l-7.3,30.3
					c-0.6,2.4-2.7,4.2-5.2,4.3l-111.9,5.6C1002.2,1951.3,999.4,1948,1000,1944.4z"/>
				
					<linearGradient id="SVGID_00000106114353719546328260000007645448060228904878_" gradientUnits="userSpaceOnUse" x1="5957.0522" y1="1612.9854" x2="6061.2642" y2="1612.9854" gradientTransform="matrix(1 0 0 -1 -5098.915 3710)">
					<stop  offset="0" style="stop-color:#A22B25"/>
					<stop  offset="1" style="stop-color:#C0423C"/>
				</linearGradient>
				<path style="fill:url(#SVGID_00000106114353719546328260000007645448060228904878_);" d="M865.7,2143.3c0,0-10.9-44.8-6.5-60.7
					c4.4-15.9,12.9-36.3,41.3-31.8s61.9,16.5,61.9,16.5s-1.7,20.7-23.3,14l13.4,10.4c0,0-1.9,16.6-20.1,7.7l12.4,13.7
					c0,0-7.8,13.6-21.2,4.9C910.1,2109.3,903.7,2148.7,865.7,2143.3z"/>
			</g>
			<g>
				
					<linearGradient id="SVGID_00000139292014314025289020000008744642180133999489_" gradientUnits="userSpaceOnUse" x1="850.1322" y1="2234.0522" x2="813.0093" y2="1957.3176" gradientTransform="matrix(1 0 0 -1 0 3710)">
					<stop  offset="0" style="stop-color:#4F52FF"/>
					<stop  offset="1" style="stop-color:#4042E2"/>
				</linearGradient>
				<path style="fill:url(#SVGID_00000139292014314025289020000008744642180133999489_);" d="M820.3,1972.8
					c-8.9,0.7-84.6,3.1-84.6,3.1l3.1,76.2l39.2,22.1l42.4-22.1V1972.8z"/>
				
					<linearGradient id="SVGID_00000159437582166481311540000016079744961306517125_" gradientUnits="userSpaceOnUse" x1="767.252" y1="1687.7523" x2="966.3652" y2="2166.9749" gradientTransform="matrix(1 0 0 -1 0 3710)">
					<stop  offset="0" style="stop-color:#4F52FF"/>
					<stop  offset="1" style="stop-color:#4042E2"/>
				</linearGradient>
				<polygon style="fill:url(#SVGID_00000159437582166481311540000016079744961306517125_);" points="826.3,1972.8 735.8,1975.9 
					732.1,2005.1 779.2,2017.4 829.2,1995.1 				"/>
			</g>
		</g>
		<g>
			<g>
				<g>
					
						<linearGradient id="SVGID_00000103957402914153192970000008863420717654637230_" gradientUnits="userSpaceOnUse" x1="10852.4502" y1="507.5116" x2="10959.4326" y2="507.5116" gradientTransform="matrix(-1 0 0 -1 14046.6602 3710)">
						<stop  offset="0" style="stop-color:#09005D"/>
						<stop  offset="1" style="stop-color:#1A0F91"/>
					</linearGradient>
					<path style="fill:url(#SVGID_00000103957402914153192970000008863420717654637230_);" d="M3179.3,3164.8
						c0,0,11.9,18.7,14.9,71.2c0.3,4.9-3.6,9.1-8.5,9.1h-93c-3.7,0-6.4-3.7-5.2-7.2c5.4-16.1,21.9-55.4,58.7-77.9L3179.3,3164.8z"/>
					
						<linearGradient id="SVGID_00000085952624914687541840000003607884291718719900_" gradientUnits="userSpaceOnUse" x1="10863.3027" y1="557.2242" x2="10906.6895" y2="557.2242" gradientTransform="matrix(-1 0 0 -1 14046.6602 3710)">
						<stop  offset="0" style="stop-color:#FEBBBA"/>
						<stop  offset="1" style="stop-color:#FF928E"/>
					</linearGradient>
					<path style="fill:url(#SVGID_00000085952624914687541840000003607884291718719900_);" d="M3183.4,3129.2l-5.3,44.1
						c-0.5,3.8-3.4,6.8-7.2,7.3c-5.1,0.6-12.5,1-19.7-0.2c-6.5-1.1-11.2-6.9-11.2-13.5v-42.6L3183.4,3129.2z"/>
					
						<linearGradient id="SVGID_00000132787859570506660650000014111187895382319799_" gradientUnits="userSpaceOnUse" x1="11079.958" y1="509.2218" x2="11247.8164" y2="509.2218" gradientTransform="matrix(-1 0 0 -1 14046.6602 3710)">
						<stop  offset="0" style="stop-color:#09005D"/>
						<stop  offset="1" style="stop-color:#1A0F91"/>
					</linearGradient>
					<path style="fill:url(#SVGID_00000132787859570506660650000014111187895382319799_);" d="M2949.3,3159.9
						c0,0,17.8,27.7,17.4,65.6c-0.1,8.9-7.6,16.1-16.5,16.1h-144.4c-6.8,0-9.5-8.7-4-12.6c27.3-19.2,81-55,119.9-69.1L2949.3,3159.9
						L2949.3,3159.9z"/>
					
						<linearGradient id="SVGID_00000125600260781834397170000003080004294652675469_" gradientUnits="userSpaceOnUse" x1="11082.5078" y1="576.4888" x2="11125.6572" y2="576.4888" gradientTransform="matrix(-1 0 0 -1 14046.6602 3710)">
						<stop  offset="0" style="stop-color:#FEBBBA"/>
						<stop  offset="1" style="stop-color:#FF928E"/>
					</linearGradient>
					<path style="fill:url(#SVGID_00000125600260781834397170000003080004294652675469_);" d="M2964.2,3112.3l-11.2,54.5
						c-1.3,6.1-7.2,10.2-13.3,8.8c-3.7-0.8-8-2.4-12.7-5.3c-4.4-2.8-6.7-8-5.8-13.2l11.6-66L2964.2,3112.3z"/>
					
						<linearGradient id="SVGID_00000111896732334969614250000009637870896345434009_" gradientUnits="userSpaceOnUse" x1="10836.3428" y1="959.2326" x2="11130.5039" y2="959.2326" gradientTransform="matrix(-1 0 0 -1 14046.6602 3710)">
						<stop  offset="0" style="stop-color:#09005D"/>
						<stop  offset="1" style="stop-color:#1A0F91"/>
					</linearGradient>
					<path style="fill:url(#SVGID_00000111896732334969614250000009637870896345434009_);" d="M3162.8,2355.2c0,0,39,34.4,46.3,75.8
						s-20.8,713.7-20.8,713.7s-39,6.5-59.1-5.7c0,0-23.8-436.4-42-537.2c0,0-95.1,452-121.4,533.7c0,0-37.6,4.6-49.7-2.6
						c0,0,24.9-585.9,56.2-690.1L3162.8,2355.2z"/>
					<path class="st49" d="M3088.4,2587.3c-0.3,0-0.7,0-1-0.1c-2.1-0.5-3.3-2.7-2.8-4.8l16.6-63.5c0.2-1,0.8-1.8,1.7-2.3l35.8-23
						c1.8-1.2,4.2-0.6,5.4,1.2c1.2,1.8,0.6,4.2-1.2,5.4l-34.5,22.1l-16.2,62.1C3091.7,2586.1,3090.1,2587.3,3088.4,2587.3z"/>
					
						<linearGradient id="SVGID_00000161589807680080612170000011781668993320688566_" gradientUnits="userSpaceOnUse" x1="11852.1191" y1="1387.843" x2="11510.3457" y2="1554.8162" gradientTransform="matrix(-1 0 0 -1 14046.6602 3710)">
						<stop  offset="0" style="stop-color:#4F52FF"/>
						<stop  offset="1" style="stop-color:#4042E2"/>
					</linearGradient>
					<path style="fill:url(#SVGID_00000161589807680080612170000011781668993320688566_);" d="M2777.9,1966.7
						C2942.1,1953,2985,1987,2985,1987l-78.9,124.6c0,0-161.3-3.2-276.9-92.3c21.6-23.3,36.7-49,46.3-69.1
						C2705.3,1962.6,2739.6,1969.8,2777.9,1966.7z"/>
					
						<linearGradient id="SVGID_00000143619388451686148310000004132042413368490908_" gradientUnits="userSpaceOnUse" x1="11371.2021" y1="1839.9431" x2="11531.5654" y2="1839.9431" gradientTransform="matrix(-1 0 0 -1 14046.6602 3710)">
						<stop  offset="0" style="stop-color:#FEBBBA"/>
						<stop  offset="1" style="stop-color:#FF928E"/>
					</linearGradient>
					<path style="fill:url(#SVGID_00000143619388451686148310000004132042413368490908_);" d="M2520.8,1725.7
						c0.2-5.3,7.4-6.7,9.6-1.9l20.9,44.7c4,8.6,5.3,18.3,3.7,27.7l-7.3,26c-2.2,12.7,1.1,25.7,9.2,35.7
						c19.2,24.1,60.2,68,118.6,92.3c-9.6,20-24.7,45.8-46.3,69.1c-42.4-32.7-78.7-76.9-98.6-136.8c-9.5-2.9-15.9-11.9-15.5-21.8
						L2520.8,1725.7z"/>
					
						<linearGradient id="SVGID_00000181796426855440142280000014347856765270417815_" gradientUnits="userSpaceOnUse" x1="11189.1592" y1="1556.2532" x2="11101.377" y2="724.9037" gradientTransform="matrix(-1 0 0 -1 14046.6602 3710)">
						<stop  offset="0" style="stop-color:#4F52FF"/>
						<stop  offset="1" style="stop-color:#4042E2"/>
					</linearGradient>
					<path style="fill:url(#SVGID_00000181796426855440142280000014347856765270417815_);" d="M2723.8,2038.9
						c57.8-62.3,167.9-90.4,231.6-102c27.9-5.1,55.4,10.5,65.3,37.1c28.7,77.1,106.7,277.7,121.8,312.2
						c12.4,28.3,25.4,55.9,33.6,73.2c4.9,10.3,0.6,22.7-9.7,27.6c-53.6,25.8-150.1,55.1-189.2,66.5c-8.6,2.5-17.2-4-17.2-12.9
						c0-7.6-2.1-15.1-6-21.6L2806,2172.1c-92.3,102.4-173.2,111.8-235.3,89.3c10.4-32.3,17.3-64.6,20.6-97
						C2683,2148.7,2723.8,2038.9,2723.8,2038.9z"/>
					
						<linearGradient id="SVGID_00000163768062084030326170000007357719439006334612_" gradientUnits="userSpaceOnUse" x1="-11377.2334" y1="-14381.0674" x2="-11576.3477" y2="-14519.4365" gradientTransform="matrix(-1 0 0 -1 14046.6602 3710)">
						<stop  offset="0" style="stop-color:#FEBBBA"/>
						<stop  offset="1" style="stop-color:#FF928E"/>
					</linearGradient>
					<path style="fill:url(#SVGID_00000163768062084030326170000007357719439006334612_);" d="M2413.7,2129.1l30-17.5
						c53.6,36.8,110.8,59.1,147.5,52.8c-3.3,32.4-10.1,64.7-20.6,97C2488.8,2231.9,2413.7,2129.1,2413.7,2129.1z"/>
					
						<linearGradient id="SVGID_00000053523677481234579110000011728851471458746790_" gradientUnits="userSpaceOnUse" x1="-11355.4854" y1="-14412.3486" x2="-11554.5996" y2="-14550.7158" gradientTransform="matrix(-1 0 0 -1 14046.6602 3710)">
						<stop  offset="0" style="stop-color:#FEBBBA"/>
						<stop  offset="1" style="stop-color:#FF928E"/>
					</linearGradient>
					<path style="fill:url(#SVGID_00000053523677481234579110000011728851471458746790_);" d="M2271.2,2135.4
						c18.7-10.2,74-18.9,74-18.9s63.6-37.2,82-44.6c15.2-6.1,21.8,16.7,23.5,24.6c0.4,1.6,0.5,2.6,0.5,2.6l-2.4,15.1l-64.3,28.6
						c-13.8,6.1-28.9,8.3-43.9,6.4l-68.6-9c-1.1-0.1-2-1-2.2-2.1C2269.7,2137,2270.2,2135.9,2271.2,2135.4z"/>
					
						<linearGradient id="SVGID_00000011713550478844020460000010295574749047012259_" gradientUnits="userSpaceOnUse" x1="11344.5039" y1="2065.5034" x2="11008.917" y2="1448.8964" gradientTransform="matrix(-1 0 0 -1 14046.6602 3710)">
						<stop  offset="0" style="stop-color:#FEBBBA"/>
						<stop  offset="1" style="stop-color:#FF928E"/>
					</linearGradient>
					<path style="fill:url(#SVGID_00000011713550478844020460000010295574749047012259_);" d="M2867.8,1822.5l49.2,120.1
						c0,0-56.6,39.2-102.1,35.4l-24.6-108L2867.8,1822.5z"/>
					<g>
						
							<linearGradient id="SVGID_00000072980409312455831550000015737739013497352367_" gradientUnits="userSpaceOnUse" x1="9918.9805" y1="-6265.6162" x2="9770.6699" y2="-6461.8184" gradientTransform="matrix(-0.817 -0.5767 0.5767 -0.817 14525.1074 2359.3657)">
							<stop  offset="0" style="stop-color:#FEBBBA"/>
							<stop  offset="1" style="stop-color:#FF928E"/>
						</linearGradient>
						<path style="fill:url(#SVGID_00000072980409312455831550000015737739013497352367_);" d="M2784.6,1740.6
							c-1.1,1.6-35.6,126.2-35.6,126.2l71.6,18.2l50.2-113.2C2870.8,1771.8,2803.5,1713.9,2784.6,1740.6z"/>
						
							<linearGradient id="SVGID_00000160153488564070776460000017336369516071646625_" gradientUnits="userSpaceOnUse" x1="9805.7129" y1="-6312.9448" x2="9982.8721" y2="-6312.9448" gradientTransform="matrix(-0.817 -0.5767 0.5767 -0.817 14525.1074 2359.3657)">
							<stop  offset="0" style="stop-color:#09005D"/>
							<stop  offset="1" style="stop-color:#1A0F91"/>
						</linearGradient>
						<path style="fill:url(#SVGID_00000160153488564070776460000017336369516071646625_);" d="M2843.9,1789l-21.8,61.7
							c-0.3,0.8-0.7,1.5-1.1,2.2c-3,4.2-14.2,17.9-27.5,5.6c-12.1-11.2-23.3-21.2-33.6-23.1c-4.6-0.8-9.1,2-10.4,6.6
							c-3.1,11.3-9.7,37-12,60.1c-0.5,4.7,2.8,8.9,7.4,9.8c14,2.7,43.6,7.4,68.4,5.7c3.4-0.2,6.3-2.2,7.7-5.3
							c6.8-14.9,27.7-60.1,35.5-71.8c7.3-11,25.2-10.7,32.7-10c2.5,0.2,4.9-0.6,6.7-2.2c6.6-5.8,19-20.4,1.5-38
							c-3.7-3.7-3.6-9.6,0.2-13.2c7.5-7.1,15.6-19.7,3-35.3c-12.8-15.9-29.6-13.3-40-9.6c-4.2,1.5-8.7-0.2-11-4.1
							c-1.3-2.2-3.5-3.8-7.5-3.5c-5.3,0.5-9.7-3.9-9.6-9.2c0.2-10.2-3.5-23-21.1-28.5c-31.3-9.7-50.8,20.5-52.7,43
							c-1.9,22.5,32.6,31.2,52.8,29.6c15.4-1.2,26.9,14.1,31.5,21.5C2844.5,1783.5,2844.8,1786.4,2843.9,1789z"/>
						
							<linearGradient id="SVGID_00000155139600685401485750000003890859347333353915_" gradientUnits="userSpaceOnUse" x1="9701.7637" y1="-6420.9932" x2="9820.7207" y2="-6298.9463" gradientTransform="matrix(-0.817 -0.5767 0.5767 -0.817 14525.1074 2359.3657)">
							<stop  offset="0" style="stop-color:#FEBBBA"/>
							<stop  offset="1" style="stop-color:#FF928E"/>
						</linearGradient>
						<path style="fill:url(#SVGID_00000155139600685401485750000003890859347333353915_);" d="M2848.2,1862.8c0,0,5.1-39.1,21.3-41
							s32.1,11.5,15.9,33.4C2865.3,1882.5,2848.2,1862.8,2848.2,1862.8z"/>
					</g>
				</g>
			</g>
			<g>
				
					<linearGradient id="SVGID_00000134947754303225823450000014540646632712614842_" gradientUnits="userSpaceOnUse" x1="2134.1091" y1="1901.1302" x2="1647.7355" y2="1079.4901" gradientTransform="matrix(1 0 0 -1 0 3710)">
					<stop  offset="0" style="stop-color:#E1473D"/>
					<stop  offset="1" style="stop-color:#E9605A"/>
				</linearGradient>
				<circle style="fill:url(#SVGID_00000134947754303225823450000014540646632712614842_);" cx="2165" cy="1756.7" r="402.5"/>
				
					<linearGradient id="SVGID_00000121968383468886357590000007931877407832265370_" gradientUnits="userSpaceOnUse" x1="2652.1047" y1="2722.4265" x2="2438.3672" y2="2384.9456" gradientTransform="matrix(1 0 0 -1 0 3710)">
					<stop  offset="0" style="stop-color:#FF928E"/>
					<stop  offset="1" style="stop-color:#FE7062"/>
				</linearGradient>
				<circle style="fill:url(#SVGID_00000121968383468886357590000007931877407832265370_);" cx="2165" cy="1756.7" r="389.1"/>
				<path class="st61" d="M1849.9,1591c-1.1,0-2.3-0.3-3.3-0.9c-3.6-2-4.9-6.5-2.9-10.2c67.3-122,195.5-194.7,334.7-189.6
					c22.2,0.8,44.4,3.6,65.9,8.4c4,0.9,6.6,4.9,5.7,8.9c-0.9,4-4.9,6.6-8.9,5.7c-20.6-4.5-41.9-7.2-63.2-8
					c-133.5-4.9-256.5,64.8-321,181.9C1855.4,1589.7,1852.7,1591.1,1849.9,1591z"/>
				
					<ellipse transform="matrix(0.7071 -0.7071 0.7071 0.7071 -611.912 2053.729)" class="st61" cx="2173.1" cy="1765.5" rx="329.3" ry="329.3"/>
				<g>
					
						<linearGradient id="SVGID_00000171691525820123596570000015618389868574245254_" gradientUnits="userSpaceOnUse" x1="1750.4615" y1="1236.1783" x2="2087.9421" y2="1789.6464" gradientTransform="matrix(1 0 0 -1 0 3710)">
						<stop  offset="0" style="stop-color:#FF928E"/>
						<stop  offset="1" style="stop-color:#FE7062"/>
					</linearGradient>
					<path style="fill:url(#SVGID_00000171691525820123596570000015618389868574245254_);" d="M2131.9,2009l1.3-35.8
						c-37.3-2.9-73.9-13-99.7-25.4c-9.2-4.4-13.6-15.1-10.6-24.9l10.3-33c3.8-12.1,17.3-18,28.8-12.6c25.6,11.9,57.4,21.7,92.1,22.9
						c36,1.3,63.2-9.9,64.1-34.9c0.8-22.5-19.4-36.7-68.9-51.9c-70.6-22.1-120.6-55-118.4-117.8c2.1-56.7,45.1-98.4,117.4-107.4
						l1.3-35.8c0.4-11.5,10.1-20.5,21.6-20.1l21,0.8c11.5,0.4,20.5,10.1,20.1,21.6l-1.2,32.2c34.5,2.6,59.4,9.5,79.1,17.2
						c10.1,4,15.3,15.2,12.1,25.5l-9.5,30.5c-3.7,11.8-16.6,17.8-28,13c-18.1-7.6-43.8-15.8-77.6-17c-42.7-1.6-55.5,15.7-56.1,31.5
						c-0.7,19.5,24.4,33.8,79.2,52.9c78.4,26.7,110.1,60.8,107.9,119.9c-2,54.2-44,101.5-122.4,110.9l-1.5,40.1
						c-0.4,11.5-10.1,20.5-21.6,20.1l-21-0.8C2140.5,2030.2,2131.5,2020.5,2131.9,2009z"/>
				</g>
			</g>
		</g>
	</g>
</g>
</svg>
