<?xml version="1.0" encoding="utf-8"?>
<!-- Generator: Adobe Illustrator 27.3.1, SVG Export Plug-In . SVG Version: 6.00 Build 0)  -->
<svg version="1.1" id="Layer_1" xmlns="http://www.w3.org/2000/svg" xmlns:xlink="http://www.w3.org/1999/xlink" x="0px" y="0px"
	 viewBox="0 0 3000 3000" style="enable-background:new 0 0 3000 3000;" xml:space="preserve">
<style type="text/css">
	.st0{fill:#FEEFDC;}
	.st1{fill:#3F9896;}
	.st2{fill:#7FC6A6;}
	.st3{fill:#21111D;}
	.st4{fill:#FD7583;}
	.st5{fill:#FEBAC7;}
	.st6{opacity:0.5;}
	.st7{fill:#F07162;}
	.st8{fill:#ED2B47;}
	.st9{fill:#DCF4FF;}
	.st10{opacity:0.5;fill:#F07162;enable-background:new    ;}
	.st11{fill:#D61339;}
	.st12{fill:#3AA1C9;}
	.st13{fill:#472A31;}
	.st14{fill:#FE9F73;}
	.st15{fill:#49263E;}
	.st16{fill:#FBFDFC;}
	.st17{fill:#4CB7D8;}
	.st18{fill:#683D46;}
	.st19{fill:#FEC786;}
	.st20{fill:#F99247;}
	.st21{fill:#995A47;}
	.st22{fill:#8C3535;}
	.st23{fill:#D7E4F7;}
	.st24{fill:#F75553;}
	.st25{fill:#FFFFFF;}
</style>
<g>
	<g>
		<path class="st0" d="M2216.8,2630.3c-393.1,107.1-621.8-231.4-1069.1-225.9c-209.1,2.6-411.5,35.4-681.6-166.2
			c-133.9-99.9-361.1-617.4-23.6-1241.4c27.9-77.3,71.8-157.8,112.4-223.8c58.6-95.5,144.6-171.2,246.5-217.8
			c271.4-124,851.2-352.1,1175-206.4c432.8,194.7,586.2,421.1,586.2,421.1s200,229.9,236.1,772.9
			C2829.3,2002,2640.1,2515,2216.8,2630.3z"/>
	</g>
	<g>
		<g>
			<g>
				<g>
					<path class="st1" d="M1461,1243.2c0,0-90-148.8-306-110.2C1155,1133,1300.4,1348.6,1461,1243.2z"/>
				</g>
			</g>
		</g>
		<g>
			<g>
				<g>
					<path class="st2" d="M1601.5,1282.5c0,0-26.8-298.3-390.1-401.8C1211.4,880.7,1273.4,1324.2,1601.5,1282.5z"/>
				</g>
			</g>
		</g>
	</g>
	<g>
		<g>
			<g>
				<path class="st3" d="M2485.1,1183.1c1.7,0.3,3.4-0.6,4.2-2.2c0.1-0.3,3.3-6.8,8.2-18.4c0.8-2-0.1-4.4-2.1-5.2
					c-2-0.8-4.4,0.1-5.2,2.1c-4.7,11.4-7.9,17.9-8,17.9c-1,2-0.2,4.4,1.8,5.3C2484.3,1182.9,2484.7,1183.1,2485.1,1183.1z"/>
			</g>
		</g>
		<g>
			<g>
				<path class="st3" d="M2506.8,1126.8c-2.1-0.7-3.2-3-2.5-5c4.3-12.7,8.2-25.7,11.6-38.6c0.6-2.1,2.7-3.4,4.9-2.8
					c2.1,0.6,3.4,2.7,2.8,4.9c-3.5,13.1-7.4,26.2-11.7,39.1c-0.6,1.9-2.5,3-4.4,2.7C2507.2,1126.9,2507,1126.9,2506.8,1126.8z
					 M2528,1048.5c-2.2-0.4-3.6-2.5-3.2-4.7c0.8-4,1.5-8.1,2.2-12c1.6-9.3,2.9-18.7,3.9-27.8c0.2-2.2,2.2-3.8,4.4-3.5
					c2.2,0.3,3.8,2.2,3.5,4.4c-1,9.3-2.4,18.8-3.9,28.2c-0.7,4-1.4,8.1-2.2,12.2C2532.3,1047.5,2530.2,1048.9,2528,1048.5
					C2528.1,1048.5,2528,1048.5,2528,1048.5z M2533.6,963.9c0.3-13.7,0-27.2-1.1-40.1c-0.2-2.2,1.5-4.1,3.7-4.3
					c2.2-0.2,4.1,1.5,4.3,3.7c1,13.2,1.4,27,1.1,40.9c-0.1,2.2-1.9,3.9-4.1,3.9c-0.2,0-0.4,0-0.6-0.1
					C2535,967.6,2533.6,965.9,2533.6,963.9z M2186.4,865.6c-14-5.2-25.4-13.6-34-25c-1.3-1.8-1-4.3,0.8-5.6c1.8-1.3,4.3-1,5.6,0.8
					c7.7,10.2,17.9,17.7,30.4,22.4c2.1,0.8,3.1,3.1,2.3,5.1c-0.7,1.8-2.5,2.8-4.4,2.5C2186.9,865.8,2186.7,865.7,2186.4,865.6z
					 M2223.8,867.7c-0.4-2.2,1.1-4.2,3.2-4.6c11.2-2,21.6-9.2,30.3-20.7c1.3-1.8,3.8-2.1,5.6-0.8c1.8,1.3,2.1,3.8,0.8,5.6
					c-9.8,13.2-22,21.4-35.2,23.8c-0.5,0.1-0.9,0.1-1.4,0C2225.4,870.7,2224.1,869.4,2223.8,867.7z M2527.2,884
					c-2.6-13.3-6-26.3-10.2-38.7c-0.7-2.1,0.4-4.3,2.5-5c2.1-0.7,4.3,0.4,5,2.5c4.3,12.7,7.8,26.1,10.5,39.7c0.4,2.2-1,4.3-3.1,4.7
					c-0.5,0.1-1,0.1-1.4,0C2528.9,886.9,2527.5,885.7,2527.2,884z M2136.6,801.6c-2-12.8-1.8-26.4,0.5-40.6l0.2-1.1
					c0.4-2.2,2.4-3.6,4.6-3.2c0,0,0,0,0,0c2.2,0.4,3.6,2.4,3.2,4.6l-0.2,1c-2.2,13.3-2.4,26.1-0.5,38c0.3,2.2-1.1,4.2-3.3,4.6
					c-0.4,0.1-0.9,0.1-1.3,0C2138.2,804.6,2136.9,803.3,2136.6,801.6z M2276.5,812.1c-2.1-0.6-3.3-2.8-2.7-4.9c1.6-5.7,3-11.8,4-18
					c1.1-6.8,1.9-13.9,2.3-21.1c0.1-2.2,2-3.9,4.2-3.7c2.2,0.1,3.9,2,3.7,4.2c-0.4,7.5-1.2,14.9-2.4,22c-1.1,6.5-2.5,12.9-4.2,18.9
					c-0.6,2-2.5,3.2-4.5,2.8C2276.8,812.1,2276.7,812.1,2276.5,812.1z M2501.7,808.4c-6-11.9-12.9-23.4-20.5-34.3
					c-1.3-1.8-0.8-4.3,1-5.5c1.8-1.3,4.3-0.8,5.5,1c7.9,11.2,15,23.1,21.1,35.3c1,2,0.2,4.4-1.8,5.3c-0.8,0.4-1.6,0.5-2.4,0.4
					C2503.4,810.3,2502.3,809.6,2501.7,808.4z M2151.8,725.6c-2-0.9-2.9-3.3-1.9-5.3c6-12.7,13.5-24.5,22.3-35
					c1.4-1.7,3.9-1.9,5.6-0.5c1.7,1.4,1.9,3.9,0.5,5.6c-8.4,10-15.5,21.2-21.2,33.3c-0.8,1.7-2.5,2.5-4.3,2.2
					C2152.5,725.9,2152.2,725.8,2151.8,725.6z M2279,728.2c-1.5-13-4-26.2-7.5-39.3c-0.6-2.1,0.7-4.3,2.8-4.9
					c2.1-0.6,4.3,0.7,4.9,2.8c3.6,13.5,6.2,27.1,7.7,40.4c0.2,2.2-1.3,4.2-3.5,4.4c-0.4,0-0.8,0-1.1,0
					C2280.6,731.4,2279.2,730,2279,728.2z M2456,742.9c-9-9.9-18.7-19.3-28.8-27.9c-1.7-1.4-1.9-3.9-0.4-5.6
					c1.4-1.7,3.9-1.9,5.6-0.4c10.3,8.9,20.2,18.5,29.5,28.6c1.5,1.6,1.4,4.1-0.3,5.6c-0.9,0.9-2.2,1.2-3.3,1
					C2457.4,744,2456.6,743.6,2456,742.9z M2202.6,663.8c-1.1-1.9-0.4-4.3,1.5-5.4c11.8-6.8,25-11.7,39.1-14.4
					c2.2-0.4,4.2,1,4.7,3.2c0.4,2.2-1,4.2-3.2,4.7c-13.3,2.6-25.6,7.1-36.7,13.5c-0.8,0.5-1.8,0.6-2.6,0.5
					C2204.3,665.6,2203.3,664.9,2202.6,663.8z M2395.3,690.9c-11.3-7.5-23.1-14.1-34.8-19.7c-2-0.9-2.8-3.3-1.9-5.3s3.3-2.8,5.3-1.9
					c12.1,5.7,24.1,12.5,35.8,20.2c1.8,1.2,2.3,3.7,1.1,5.5c-0.9,1.4-2.5,2-4,1.7C2396.3,691.4,2395.7,691.2,2395.3,690.9z
					 M2258.6,651.1c-5.1-12.2-11.1-24.2-17.8-35.9c-1.1-1.9-0.4-4.3,1.5-5.4c1.9-1.1,4.3-0.4,5.4,1.5c6.9,12,13,24.3,18.2,36.8
					c0.8,2-0.1,4.4-2.1,5.2c-0.7,0.3-1.5,0.4-2.2,0.3C2260.3,653.2,2259.1,652.4,2258.6,651.1z M2323.2,657
					c-13.2-3.8-26.5-6.2-39-7.2c-2.2-0.2-3.8-2.1-3.7-4.3c0.2-2.2,2.1-3.8,4.3-3.7c13.1,1,26.9,3.5,40.6,7.5
					c2.1,0.6,3.3,2.8,2.7,4.9c-0.6,2-2.5,3.2-4.5,2.8C2323.4,657.1,2323.3,657,2323.2,657z M2218.8,581.8
					c-7.9-10.3-16.9-20.3-26.8-29.7c-1.6-1.5-1.6-4-0.1-5.6c1.5-1.6,4-1.6,5.6-0.1c10.1,9.7,19.4,20,27.6,30.6
					c1.3,1.7,1,4.2-0.7,5.6c-0.9,0.7-2,0.9-3.1,0.8C2220.3,583.1,2219.4,582.6,2218.8,581.8z M2161.2,526.5
					c-10.4-7.6-21.8-15-33.7-21.8c-1.9-1.1-2.6-3.5-1.5-5.4c1.1-1.9,3.5-2.6,5.4-1.5c12.2,7,23.8,14.5,34.4,22.3
					c1.8,1.3,2.2,3.8,0.9,5.6c-0.9,1.3-2.4,1.8-3.9,1.6C2162.3,527.1,2161.8,526.8,2161.2,526.5z M2091.8,486.3
					c-11.9-5.4-24.4-10.6-37.3-15.3c-2.1-0.8-3.1-3-2.4-5.1c0.8-2.1,3-3.1,5.1-2.4c13.1,4.8,25.8,10,37.9,15.5c2,0.9,2.9,3.3,2,5.3
					c-0.8,1.7-2.5,2.6-4.3,2.3C2092.4,486.5,2092.1,486.4,2091.8,486.3z M2016.2,458.5c-12.8-3.7-25.9-7.1-39.1-10
					c-2.1-0.5-3.5-2.6-3-4.7c0.5-2.1,2.6-3.5,4.7-3c13.3,3,26.7,6.4,39.6,10.1c2.1,0.6,3.3,2.8,2.7,4.9c-0.6,2-2.5,3.1-4.5,2.8
					C2016.5,458.5,2016.3,458.5,2016.2,458.5z"/>
			</g>
		</g>
		<g>
			<g>
				<path class="st3" d="M1917.4,438.4c0.1,0,0.2,0,0.3,0c0.1,0,7.3,0.7,19.5,2.5c2.2,0.3,4.2-1.2,4.5-3.3c0.3-2.2-1.1-4.2-3.3-4.5
					c0,0,0,0-0.1,0c-12.4-1.9-19.7-2.6-20-2.6c-2.2-0.2-4.1,1.4-4.3,3.6C1913.9,436.2,1915.3,438.1,1917.4,438.4z"/>
			</g>
		</g>
	</g>
	<g>
		<g>
			<g>
				<path class="st4" d="M1867.6,460.5l-17.9-29.1c0,0-108-30.4-109.4-31.4c-1.4-1-53.2-38.9-53.2-38.9l71.8,7.8l113.4,36.2
					L1867.6,460.5z"/>
			</g>
		</g>
		<g>
			<g>
				<polygon class="st5" points="1908,352.6 1687.1,361.1 1872.2,405.1 				"/>
			</g>
		</g>
		<g>
			<g>
				<polygon class="st5" points="1849.7,431.4 1811.9,487.3 1687.1,361.1 				"/>
			</g>
		</g>
	</g>
	<g>
		<path class="st5" d="M2489.8,2235.2H1004.7c-18.7,0-33.8-15.2-33.8-33.8v-924.3c0-18.7,15.2-33.8,33.8-33.8h1485.1
			c18.7,0,33.8,15.2,33.8,33.8v924.3C2523.7,2220,2508.5,2235.2,2489.8,2235.2z"/>
	</g>
	<g class="st6">
		<path class="st7" d="M2523.7,2118.4v-830.1c0-24.9-20.2-45.1-45.1-45.1H1262.7c0.1,11.1,0,22,1.5,30.2
			c10.3,56.8,37.6,110.1,75.3,153.6c54.7,63,129.7,106.1,208.9,132.5c41,13.7,83.5,23.3,122.3,42.3c38.8,19,74.5,49.5,87.6,90.6
			c11.6,36.2,4.5,75.9,13.5,112.8c13.1,53.6,59.5,94.4,111,114.2c51.5,19.8,108.1,21.8,163.3,21.1c50.8-0.6,103.8-2.8,149.8,18.7
			c56.6,26.4,92.6,83.9,146.1,116c46.5,27.9,102.4,34.5,156.3,40.5C2506.8,2116.6,2515.2,2117.6,2523.7,2118.4z"/>
	</g>
	<g>
		<rect x="2141.1" y="1223.1" class="st8" width="175.1" height="1018.4"/>
	</g>
	<g>
		<rect x="948.2" y="1654.9" class="st8" width="1597.1" height="168.7"/>
	</g>
	<g>
		<path class="st9" d="M1379.7,1523H1117c-19.4,0-35.1-15.7-35.1-35.1V1383c0-19.4,15.7-35.1,35.1-35.1h262.7
			c19.4,0,35.1,15.7,35.1,35.1V1488C1414.8,1507.3,1399.1,1523,1379.7,1523z"/>
	</g>
	<g>
		<rect x="1081.5" y="2111.6" class="st10" width="389" height="15.3"/>
	</g>
	<g>
		<rect x="1081.1" y="2152.8" class="st10" width="674.6" height="15.3"/>
	</g>
	<g>
		<path class="st8" d="M2178.4,1749.7c0,0,192.5,134.1,324.6,159.6c53.2,10.3,102.3-31.8,102.3-86v-231.5
			c0-64.7-68.1-107.5-125.9-78.4C2349.1,1578.9,2178.4,1749.7,2178.4,1749.7z"/>
	</g>
	<g>
		<path class="st8" d="M2279,1749.7c0,0-192.5,134.1-324.6,159.6c-53.2,10.3-102.3-31.8-102.3-86v-231.5
			c0-64.7,68.1-107.5,125.9-78.4C2108.2,1578.9,2279,1749.7,2279,1749.7z"/>
	</g>
	<g>
		<path class="st11" d="M2336.8,1637.7c0,0,165.8-157.6,218-104.5C2607,1586.4,2336.8,1637.7,2336.8,1637.7z"/>
	</g>
	<g>
		<path class="st11" d="M2125.2,1637.7c0,0-165.8-157.6-218-104.5C1855,1586.4,2125.2,1637.7,2125.2,1637.7z"/>
	</g>
	<g>
		<path d="M1938.4,1913.2c-20.1,0-39.8-7-55.7-20.2c-20.9-17.2-32.9-42.7-32.9-69.7v-231.5c0-31.5,16-60.1,42.8-76.6
			c26.5-16.3,58.8-17.8,86.5-3.8c38.6,19.4,84.4,49.9,136.4,90.7l56.4,45.3l-3,3.7l-56.4-45.3c-51.7-40.6-97.3-70.9-135.6-90.2
			c-26.2-13.2-56.8-11.8-81.9,3.7c-25.4,15.7-40.6,42.8-40.6,72.6v231.5c0,25.7,11.4,49.7,31.2,66.1c19.2,15.9,44.1,22.3,68.3,17.6
			c103-19.9,243.3-106.4,298.9-142.6l2.6,3.9c-55.8,36.4-196.8,123.3-300.6,143.3C1949.3,1912.6,1943.8,1913.2,1938.4,1913.2z"/>
	</g>
	<g>
		<path d="M2519,1913.2c-5.5,0-11-0.5-16.4-1.6c-103.8-20-244.8-106.9-300.6-143.3l2.6-3.9c55.6,36.3,196,122.7,298.9,142.6
			c24.2,4.7,49.1-1.8,68.3-17.6c19.8-16.4,31.2-40.4,31.2-66.1v-231.5c0-29.8-15.2-57-40.6-72.6c-25.1-15.5-55.7-16.8-81.9-3.7
			c-38.3,19.3-83.9,49.6-135.6,90.2l-56.3,45.3l-2.9-3.7l56.4-45.3c51.9-40.8,97.8-71.3,136.4-90.7c27.7-13.9,60-12.5,86.5,3.8
			c26.8,16.5,42.8,45.2,42.8,76.6v231.5c0,27.1-12,52.5-32.9,69.7C2558.8,1906.2,2539.1,1913.2,2519,1913.2z"/>
	</g>
	<g>
		<path class="st11" d="M2288.6,1846h-111.1c-8.4,0-15.2-6.8-15.2-15.2v-177.9c0-8.4,6.8-15.2,15.2-15.2h111.1
			c8.4,0,15.2,6.8,15.2,15.2v177.9C2303.8,1839.2,2297,1846,2288.6,1846z"/>
	</g>
	<g>
		<rect x="1317.8" y="1652.5" width="534.3" height="4.7"/>
	</g>
	<g>
		<rect x="948.2" y="1821" width="903.9" height="4.7"/>
	</g>
	<g>
		<rect x="1238.3" y="1698.8" transform="matrix(0.877 -0.4805 0.4805 0.877 -661.6693 817.5814)" width="55.4" height="4.7"/>
	</g>
	<g>
		<rect x="1235" y="1723.5" transform="matrix(0.877 -0.4805 0.4805 0.877 -673.9499 819.0099)" width="55.4" height="4.7"/>
	</g>
	<g>
		<path d="M2288.1,1848.3H2178c-9.9,0-18-8.1-18-18v-176.9c0-9.9,8.1-18,18-18h110.2c9.9,0,18,8.1,18,18v176.9
			C2306.2,1840.3,2298.1,1848.3,2288.1,1848.3z M2178,1640.1c-7.3,0-13.3,6-13.3,13.3v176.9c0,7.3,6,13.3,13.3,13.3h110.2
			c7.3,0,13.3-6,13.3-13.3v-176.9c0-7.3-6-13.3-13.3-13.3H2178z"/>
	</g>
	<g>
		<path d="M2124.8,1640.1c-165.4-32-208.4-67.1-210.2-68.6l3-3.6c0.4,0.4,44.3,35.9,208.1,67.5L2124.8,1640.1z"/>
	</g>
	<g>
		<path d="M2427.5,1567.6l-2.9-3.7c2.9-2.2,71.3-54.1,114.5-42.3l-1.2,4.5C2497,1514.9,2428.2,1567,2427.5,1567.6z"/>
	</g>
	<g>
		<path d="M2588.5,1741.6c-1.7,0-2.2-1.3-2.3-2.4h0h0c0-0.4-0.1-0.7-0.1-1l-2.7-92l4.7-0.1c0.9,31.6,2.6,91.6,2.7,92.9l-2.4,0.1l0,0
			h2.4L2588.5,1741.6C2588.5,1741.6,2588.5,1741.6,2588.5,1741.6z"/>
	</g>
	<g>
		
			<rect x="2575.7" y="1717.5" transform="matrix(0.9987 -5.149861e-02 5.149861e-02 0.9987 -86.3789 135.0807)" width="4.7" height="52.5"/>
	</g>
	<g>
		<rect x="1865.4" y="1769.9" width="4.7" height="61.1"/>
	</g>
	<g>
		<rect x="1877.3" y="1743.7" width="4.7" height="47.3"/>
	</g>
	<g>
		<rect x="2195.5" y="1672.8" transform="matrix(0.8068 -0.5908 0.5908 0.8068 -575.0686 1625.3812)" width="4.7" height="38.4"/>
	</g>
	<g>
		<rect x="2194.2" y="1705.2" transform="matrix(0.8031 -0.5959 0.5959 0.8031 -590.2609 1646.9327)" width="4.7" height="22.6"/>
	</g>
	<g>
		<polygon points="2318.6,1625.7 2313.8,1625.7 2313.8,1225.5 2249.2,1225.5 2249.2,1220.8 2318.6,1220.8 		"/>
	</g>
	<g>
		<rect x="2138.8" y="1393.4" width="4.7" height="232.3"/>
	</g>
	<g>
		<rect x="2139.3" y="1833.5" width="4.7" height="338.9"/>
	</g>
	<g>
		<polygon points="2319.1,2239.6 2262.7,2239.6 2262.7,2234.9 2314.4,2234.9 2314.9,1834.4 2319.6,1834.4 		"/>
	</g>
	<g>
		<rect x="2224.4" y="1938.3" transform="matrix(0.7071 -0.7071 0.7071 0.7071 -716.5031 2151.5596)" width="29" height="4.7"/>
	</g>
	<g>
		<rect x="2224.6" y="1958.9" transform="matrix(0.7052 -0.7091 0.7091 0.7052 -730.4324 2165.926)" width="29.1" height="4.7"/>
	</g>
	<g>
		<path d="M2526,1504.1h-4.7v-218.2c0-22.2-18.1-40.3-40.3-40.3h-89.2v-4.7h89.2c24.8,0,45,20.2,45,45V1504.1z"/>
	</g>
	<g>
		<path d="M1358.8,2237.5h-343.6c-25.7,0-46.7-20.9-46.7-46.7v-296.1h4.7v296.1c0,23.1,18.8,42,42,42h343.6L1358.8,2237.5
			L1358.8,2237.5z"/>
	</g>
	<g>
		<rect x="1829.9" y="1283" width="134" height="4.7"/>
	</g>
	<g>
		<rect x="1916.1" y="1317.5" width="104.6" height="4.7"/>
	</g>
	<g>
		<g>
			<g>
				<g>
					<g>
						<g>
							<g>
								<g>
									<g>
										<g>
											<g>
												<polygon class="st9" points="1540.5,1551.3 1627.4,1552.5 1628.7,1471.2 1542.1,1460.5 												"/>
											</g>
										</g>
									</g>
								</g>
							</g>
						</g>
					</g>
				</g>
			</g>
		</g>
		<g>
			<g>
				<g>
					<g>
						<g>
							<g>
								<g>
									<path class="st12" d="M1451.1,1567h177.6v-35.4c0,0-12.9-17-32.6-8.3c0,0-29.1,20.9-55.3-4.1l-65.7,28
										C1475,1547.2,1451.1,1555,1451.1,1567z"/>
								</g>
							</g>
						</g>
					</g>
				</g>
			</g>
			<g>
				<g>
					<g>
						<g>
							<g>
								<g>
									<path class="st13" d="M1628.7,1579.4h-182.9c-1.3,0-2.3-1.1-2.3-2.3v-7.7c0-1.3,1.1-2.3,2.3-2.3h182.9V1579.4z"/>
								</g>
							</g>
						</g>
					</g>
				</g>
			</g>
		</g>
		<g>
			<g>
				<g>
					<g>
						<g>
							<path class="st12" d="M1729.6,1092.1c0,0-183.1,28.5-188.4,49.7c-5.3,21.2-20.5,247-9.1,343.3c0,0,69.8,4.8,103.1-3.3
								l8.1-234.8l55.1-6.3l126.2-151.7L1729.6,1092.1z"/>
						</g>
					</g>
				</g>
			</g>
		</g>
		<g>
			<g>
				<g>
					<g>
						<g>
							<path class="st3" d="M1757,1440.2c3.5-13.6,4.6-146.7,4.6-152.4l-2.6,0c0,1.4-1,138.4-4.5,151.8L1757,1440.2z"/>
						</g>
					</g>
				</g>
			</g>
		</g>
		<g>
			<g>
				<g>
					<g>
						<g>
							<path class="st3" d="M1625.2,1252.1c16.8-5.4,40-6.3,40.2-6.3l-0.1-2.6c-0.2,0-23.7,0.8-40.9,6.4L1625.2,1252.1z"/>
						</g>
					</g>
				</g>
			</g>
		</g>
		<g>
			<g>
				<g>
					<g>
						<g>
							<path class="st3" d="M1587.3,1487.8c28.3,0,47.9-4.6,48.1-4.7l0.9-0.2l8.2-237.4l-10.5,8.4l1.6,2l6.1-4.9l-8,229.9
								c-4.3,0.9-23.2,4.7-49,4.4l0,2.6C1585.7,1487.8,1586.5,1487.8,1587.3,1487.8z"/>
						</g>
					</g>
				</g>
			</g>
		</g>
		<g>
			<g>
				<g>
					<g>
						<g>
							<g>
								<path class="st8" d="M1822.4,1033.9c-2.5,0-104.4,43.8-104.4,43.8l20.5,39.3l57.2-12.5L1822.4,1033.9z"/>
							</g>
						</g>
					</g>
				</g>
			</g>
		</g>
		<g>
			<g>
				<g>
					<g>
						<path class="st8" d="M1969.9,851.4c0,0,43.3-1.5,64,10.2c30.9,17.5,19.9,117.6,19.9,117.6s-26.2-14.3-27.8-19.1
							C2024.4,955.3,1969.9,851.4,1969.9,851.4z"/>
					</g>
				</g>
			</g>
		</g>
		<g class="st6">
			<g>
				
					<rect x="1685" y="1328.5" transform="matrix(0.9794 -0.2018 0.2018 0.9794 -241.7658 369.7325)" class="st12" width="14.8" height="84.2"/>
			</g>
		</g>
		<g class="st6">
			<g>
				
					<rect x="1719.4" y="1321.4" transform="matrix(0.9794 -0.2018 0.2018 0.9794 -239.6284 376.5355)" class="st12" width="14.8" height="84.2"/>
			</g>
		</g>
		<g class="st6">
			<g>
				
					<rect x="1753.9" y="1314.3" transform="matrix(0.9794 -0.2018 0.2018 0.9794 -237.4846 383.3411)" class="st12" width="14.8" height="84.2"/>
			</g>
		</g>
		<g>
			<g>
				<g>
					<g>
						<path class="st8" d="M2011.9,859.2c-24.6-3.4-89.6-5.8-89.6-5.8s-8.6,2.3-5.9,1c-71.7,12.7-79.7,65.9-79.7,65.9l-35,153.7
							l-39,2.1c-12.6,23.9-3.3,88.3-3.3,88.3l188.7,21.3c0,0,40.8,6.7,75.3-37.5c22.8-29.3,30.6-119.1,30.6-184.8
							C2054,963.3,2050.1,864.5,2011.9,859.2z"/>
					</g>
				</g>
			</g>
		</g>
		<g>
			<g>
				<g>
					<g>
						<g>
							<g>
								<path class="st3" d="M1948.4,1076.6c-0.2,0.1-0.5,0.1-0.7,0c-0.6-0.2-1-0.8-0.9-1.4c0.2-0.8,19.9-84.7,28.3-137.5
									c0.1-0.7,0.7-1.1,1.4-1c0.7,0.1,1.1,0.7,1,1.4c-8.4,52.9-28.2,136.8-28.3,137.6C1949.1,1076.2,1948.8,1076.5,1948.4,1076.6z
									"/>
							</g>
						</g>
					</g>
				</g>
			</g>
		</g>
		<g>
			<g>
				<g>
					<g>
						<g>
							<g>
								<path class="st3" d="M1826.4,1075.2c-0.2,0.1-0.5,0.1-0.8,0c-0.6-0.2-1-0.9-0.8-1.5c0.3-0.9,29.6-93.8,35.7-125.9
									c0.1-0.6,0.7-1.1,1.4-0.9c0.6,0.1,1.1,0.7,0.9,1.4c-6.1,32.2-35.4,125.2-35.7,126.2
									C1827,1074.8,1826.7,1075.1,1826.4,1075.2z"/>
							</g>
						</g>
					</g>
				</g>
			</g>
		</g>
		<g>
			<g>
				<g>
					<g>
						<g>
							<g>
								<path class="st3" d="M1945.3,898.5c-0.9,0.1-1.9,0.2-2.8,0.2c-0.5,0-1-0.4-1.1-0.9c0-0.5,0.4-1,0.9-1.1
									c41-2.9,48.7-32.9,48.7-33.2c0.1-0.5,0.6-0.9,1.1-0.8c0.5,0.1,0.9,0.6,0.8,1.1C1993,864.1,1985.4,894.3,1945.3,898.5z"/>
							</g>
						</g>
					</g>
				</g>
			</g>
		</g>
		<g>
			<g>
				<g>
					<g>
						<g>
							<g>
								<path class="st3" d="M1818,1053.1c-0.5,0.2-1.2,0-1.4-0.5l-8-13.7l0.1-0.5l27-118.4c0.2-1.1,2.5-14.9,14.2-30.1
									c11-14.3,32.6-32.4,73.3-37.8c0.7-0.1,1.3,0.4,1.3,1c0.1,0.7-0.4,1.3-1,1.3c-39.8,5.3-61,22.9-71.7,36.8
									c-11.6,15-13.8,29-13.8,29.1l0,0.1l-26.9,117.9l7.5,12.9c0.3,0.6,0.1,1.3-0.4,1.6C1818.1,1053,1818,1053.1,1818,1053.1z"/>
							</g>
						</g>
					</g>
				</g>
			</g>
		</g>
		<g>
			<g>
				<g>
					<g>
						<g>
							<g>
								<g>
									<g>
										<g>
											<path class="st14" d="M1912.5,764l-1.3,51.9c0,0-1.1,16.7,13.4,19.1l-3.3,22.2c-1.2,8.2,3.5,16.3,11.4,19
												c3.9,1.3,8.5,2.3,13.7,2.5c16.7,0.4,26-11.8,27.6-18.1c1.6-6.2-1.8-36.2-1.8-36.2l0.9-14.7l-0.4-56.9L1912.5,764z"/>
										</g>
									</g>
								</g>
							</g>
						</g>
					</g>
				</g>
			</g>
			<g>
				<g>
					<g>
						<g>
							<g>
								<g>
									<g>
										<g>
											<path class="st7" d="M1958.7,821.7c0,0-1.7,27.9-36.6,29.6l2.4-16.4C1924.6,835,1947,840.1,1958.7,821.7z"/>
										</g>
									</g>
								</g>
							</g>
						</g>
					</g>
				</g>
			</g>
			<g>
				<g>
					<g>
						<g>
							<g>
								<g>
									<g>
										<g>
											<path class="st15" d="M1952,792.3c0.2,0,0.3-0.1,0.5-0.2c0.3-0.3,0.3-0.7,0-1c-0.1-0.1-9.4-10.1-18.3-3.3
												c-0.3,0.2-0.4,0.7-0.1,1c0.2,0.3,0.7,0.4,1,0.1c7.9-6,16.1,2.8,16.4,3.1C1951.7,792.2,1951.9,792.3,1952,792.3z"/>
										</g>
									</g>
								</g>
							</g>
						</g>
					</g>
				</g>
			</g>
			<g>
				<g>
					<g>
						<g>
							<g>
								<g>
									<path class="st15" d="M1976.2,785.6l-15.1,2.7l-2.8,2.7c0,0,1.9-25.1,4.9-30C1966.2,756.2,1976.2,785.6,1976.2,785.6z"/>
								</g>
							</g>
						</g>
					</g>
				</g>
			</g>
			<g>
				<g>
					<g>
						<g>
							<g>
								<g>
									<g>
										<g>
											<path class="st15" d="M1923.5,787.3c0.2,0,0.4-0.1,0.5-0.2c0.3-0.3,0.2-0.7,0-1c-0.3-0.2-6.8-6.1-11-2.6
												c-0.3,0.2-0.3,0.7-0.1,1c0.2,0.3,0.7,0.3,1,0.1c3.4-2.7,9.2,2.5,9.2,2.6C1923.2,787.3,1923.4,787.3,1923.5,787.3z"/>
										</g>
									</g>
								</g>
							</g>
						</g>
					</g>
				</g>
			</g>
			<g>
				<g>
					<g>
						<g>
							<g>
								<g>
									<g>
										<g>
											<path d="M1937.9,794.7c0,1.2,0.9,2.1,2,2.1s2.1-0.9,2.1-2c0-1.2-0.9-2.1-2-2.1C1938.9,792.6,1938,793.6,1937.9,794.7z"/>
										</g>
									</g>
								</g>
							</g>
						</g>
					</g>
				</g>
			</g>
			<g>
				<g>
					<g>
						<g>
							<g>
								<g>
									<g>
										<g>
											<path d="M1915.8,792c0,1.2,0.9,2.1,2,2.1s2.1-0.9,2.1-2c0-1.2-0.9-2.1-2-2.1C1916.8,790,1915.9,790.9,1915.8,792z"/>
										</g>
									</g>
								</g>
							</g>
						</g>
					</g>
				</g>
			</g>
			<g>
				<g>
					<g>
						<g>
							<g>
								<g>
									<g>
										<g>
											<path class="st14" d="M1955.2,794.4c-0.2,6.9,5.3,12.7,12.2,12.8c6.9,0.2,12.7-5.3,12.8-12.2c0.2-6.9-5.3-12.7-12.2-12.8
												C1961.1,782.1,1955.3,787.5,1955.2,794.4z"/>
										</g>
									</g>
								</g>
							</g>
						</g>
					</g>
				</g>
			</g>
			<g>
				<g>
					<g>
						<g>
							<g>
								<g>
									<g>
										<g>
											<path class="st7" d="M1969.7,801.7c2.6,0.1,4.4-1.8,5-3.8c0.7-2.3,0-4.6-1.8-5.8c-2.7-1.8-5.3-0.8-6.6,0.1
												c0.6-1.4,1.4-2.4,2.6-3c2.5-1.3,5.5-0.2,5.6-0.2c0.2,0.1,0.4,0,0.4-0.2c0.1-0.2,0-0.4-0.2-0.4c-0.1,0-3.3-1.2-6.1,0.2
												c-1.6,0.8-2.7,2.3-3.3,4.5l-0.3,1.2l0.9-0.9c0.1-0.1,3.2-2.9,6.6-0.7c1.9,1.3,2,3.5,1.5,5c-0.5,1.6-1.9,3.4-4.3,3.3
												c0,0,0,0-0.1,0c-0.2,0-0.3,0.1-0.4,0.3C1969.3,801.6,1969.4,801.7,1969.7,801.7C1969.6,801.7,1969.6,801.7,1969.7,801.7z
												"/>
										</g>
									</g>
								</g>
							</g>
						</g>
					</g>
				</g>
			</g>
			<g>
				<g>
					<g>
						<g>
							<g>
								<g>
									<g>
										<g>
											<path class="st7" d="M1930.2,808.6c0.1,0,0.3-0.1,0.3-0.2c0.1-0.2,0-0.4-0.2-0.4l-6.9-2.5l2.6-16.3
												c0-0.2-0.1-0.4-0.3-0.4c-0.2,0-0.4,0.1-0.4,0.3l-2.7,16.9l7.4,2.7C1930.1,808.6,1930.2,808.6,1930.2,808.6z"/>
										</g>
									</g>
								</g>
							</g>
						</g>
					</g>
				</g>
			</g>
			<g>
				<g>
					<g>
						<g>
							<g>
								<g>
									<g>
										<g>
											<path class="st16" d="M1935.4,815.5c-0.2,0-13.7-0.7-13.7-0.7s1.6,5.6,6.6,5.9C1933.3,820.9,1935.4,815.5,1935.4,815.5z"
												/>
										</g>
									</g>
								</g>
							</g>
						</g>
					</g>
				</g>
			</g>
			<g>
				<g>
					<g>
						<g>
							<g>
								<g>
									<path class="st15" d="M1976.2,785.6c0,0,4.9-24.2-2.4-33.5c-7.2-9.3-49.6-26.3-54.9-21.9c-5.3,4.4-0.3,10-0.3,10
										s-17-6-21.3,9.2s32.5,22.6,54.7,16C1952.1,765.5,1966.5,770.1,1976.2,785.6z"/>
								</g>
							</g>
						</g>
					</g>
				</g>
			</g>
		</g>
		<g>
			<g>
				<g>
					<g>
						<g>
							<g>
								<path class="st3" d="M1980.4,1068.7c-0.1,0-0.1,0-0.2,0l-31.9,7.3c-0.6,0.1-1.3-0.3-1.4-0.9c-0.1-0.6,0.3-1.3,0.9-1.4
									l31.9-7.3c0.6-0.1,1.3,0.3,1.4,0.9C1981.3,1067.9,1981,1068.5,1980.4,1068.7z"/>
							</g>
						</g>
					</g>
				</g>
			</g>
		</g>
		<g>
			<g>
				<g>
					<g>
						<g>
							<g>
								<path class="st3" d="M1775.8,1053.5c-0.6,0.2-1.3-0.1-1.5-0.7c-0.2-0.6,0.1-1.3,0.7-1.5l34.4-13.7c0.6-0.2,1.3,0.1,1.5,0.7
									c0.2,0.6-0.1,1.3-0.7,1.5L1775.8,1053.5C1775.8,1053.5,1775.8,1053.5,1775.8,1053.5z"/>
							</g>
						</g>
					</g>
				</g>
			</g>
		</g>
		<g>
			<g>
				<g>
					<g>
						<g>
							<g>
								<g>
									<g>
										<g>
											<g>
												<polygon class="st9" points="1675.5,1551.3 1762.4,1552.5 1763.7,1471.2 1677.1,1460.5 												"/>
											</g>
										</g>
									</g>
								</g>
							</g>
						</g>
					</g>
				</g>
			</g>
		</g>
		<g>
			<g>
				<path class="st17" d="M1948.2,1185.7l-122.4-13.8c-17.6,23.1-29.3,40.3-29.3,40.3l14.5,49.3c0,0,74.9,1.2,127.3-0.6
					c16.8-0.6,31.8,0.6,40.7-1.4c21.9-4.9,33.9-48,31-96.7C1979.2,1190.8,1948.2,1185.7,1948.2,1185.7z"/>
			</g>
		</g>
		<g>
			<g>
				<path class="st17" d="M1759.4,1164.4c0,0-2.7-18.6-3.2-39.5c-38.8,13.2-81.8,30.2-84.7,41.7c-5.3,21.2-20.4,222.7-9,319
					c0,0,75,4.3,108.4-3.8l9-221.5l32.4,1.1l48.7-85.6L1759.4,1164.4z"/>
			</g>
		</g>
		<g>
			<g>
				<g>
					<g>
						<g>
							<g>
								<path class="st3" d="M1981,1182.1c-2.8,1.1-5.4,1.9-7.9,2.5c-14.6,3.9-24.8,2.3-25.2,2.2c-0.6-0.1-1.1-0.7-1-1.4
									c0.1-0.6,0.7-1.1,1.4-1c0.1,0,10.2,1.6,24.3-2.2c13-3.5,32.2-12.4,49.8-34.9c22.1-28.3,30.1-115.4,30.3-181.5
									c0-0.7,0.5-1.2,1.2-1.2c0.7,0,1.2,0.5,1.2,1.2c-0.2,66.4-8.4,154.1-30.8,182.9C2009.6,1167.8,1993.7,1177.3,1981,1182.1z"/>
							</g>
						</g>
					</g>
				</g>
			</g>
		</g>
		<g>
			<g>
				<g>
					<g>
						<path class="st3" d="M1867.3,1263.8c32.7,0,71.8-1.1,115.8-4.4l-0.2-2.5c-131.2,9.9-219.1,0.1-220,0l-0.3,2.5
							C1763.2,1259.5,1802.4,1263.8,1867.3,1263.8z"/>
					</g>
				</g>
			</g>
		</g>
		<g>
			<g>
				<g>
					<g>
						<g>
							<path class="st3" d="M1725.9,1488.3c33.1,0,45-5,45.5-5.2l0.7-0.3l8.7-222.8l-13.7,6.5l1.1,2.3l9.9-4.7l-8.5,217
								c-3.6,1.2-20.8,6.2-61.4,4.3l-0.1,2.6C1714.6,1488.2,1720.5,1488.3,1725.9,1488.3z"/>
						</g>
					</g>
				</g>
			</g>
		</g>
		<g>
			<g>
				<g>
					<g>
						<g>
							<g>
								<g>
									<path class="st17" d="M1586.1,1567.6h177.6v-35.4c0,0-12.9-17-32.6-8.3c0,0-29.1,20.9-55.3-4.1l-65.7,28
										C1610,1547.7,1586.1,1555.5,1586.1,1567.6z"/>
								</g>
							</g>
						</g>
					</g>
				</g>
			</g>
			<g>
				<g>
					<g>
						<g>
							<g>
								<g>
									<path class="st18" d="M1763.7,1580h-182.9c-1.3,0-2.3-1.1-2.3-2.3v-7.7c0-1.3,1.1-2.3,2.3-2.3h182.9V1580z"/>
								</g>
							</g>
						</g>
					</g>
				</g>
			</g>
		</g>
		<g>
			<g>
				<g>
					<path class="st8" d="M1655.2,1003.1c-5.9,0.3-10.3-1.2-13.3-4.5c-7.3-7.9-2.9-22.6,2.2-33.6c5.5-12,11.2-21.6,16.7-28.4
						c11.4-14.1,21-14.1,26.9-11.6l0,0c18.8,7.8,28.3,18.2,28,30.7c-0.4,18.7-23.3,35.7-44.5,43.6
						C1665.1,1001.6,1659.7,1002.9,1655.2,1003.1z M1681.3,933.7c-7.5,0.4-17.9,13.4-28.1,35.5c-5.7,12.4-6.1,20.2-3.9,22.6
						c0.8,0.9,4.6,3.4,18.6-1.8c18.5-6.9,37.7-21.6,37.9-34.4c0.2-10-11.8-17.1-21.9-21.3C1683.1,933.8,1682.2,933.7,1681.3,933.7z"
						/>
				</g>
			</g>
			<g>
				<g>
					<path class="st8" d="M1629.5,1008.5c-4.5,0.2-9.9-0.5-16.4-2.3c-21.8-5.9-46.2-20.6-48.4-39.2c-1.4-12.5,7-23.7,25-33.2l0,0
						c5.7-3,15.2-3.9,27.9,9c6.2,6.3,12.7,15.3,19.3,26.7c6.1,10.4,11.9,24.6,5.3,33.2C1639.6,1006.3,1635.3,1008.2,1629.5,1008.5z
						 M1594.4,942.6c-9.6,5.1-20.9,13.3-19.8,23.3c1.4,12.7,22,25.6,41,30.7c14.4,3.9,17.9,1,18.7,0.1c1.9-2.5,0.8-10.3-6-22.1
						C1614.6,951,1601.6,938.8,1594.4,942.6L1594.4,942.6z"/>
				</g>
			</g>
			<g>
				<g>
					
						<rect x="1542.4" y="998.5" transform="matrix(0.9989 -4.719932e-02 4.719932e-02 0.9989 -49.7229 79.0038)" class="st19" width="211.3" height="187.8"/>
				</g>
			</g>
			<g>
				<g>
					
						<rect x="1533" y="998.6" transform="matrix(0.9989 -4.719932e-02 4.719932e-02 0.9989 -46.6187 78.7835)" class="st20" width="223.9" height="56"/>
				</g>
			</g>
			<g>
				<g>
					
						<rect x="1642.1" y="998.5" transform="matrix(0.9989 -4.719932e-02 4.719932e-02 0.9989 -49.7268 78.9513)" class="st8" width="9.6" height="187.8"/>
				</g>
			</g>
			<g>
				<g>
					
						<rect x="1538.8" y="1087.7" transform="matrix(0.9989 -4.719932e-02 4.719932e-02 0.9989 -49.7298 78.9502)" class="st8" width="216.2" height="9.6"/>
				</g>
			</g>
		</g>
		<g>
			<g>
				<path class="st14" d="M1683.4,1137.2c-0.5-3,1.7-5.9,4.7-6.5l18.8-4.1c0.6-0.1,1-0.6,1.1-1.2l0,0c0.1-0.9-0.6-1.6-1.5-1.6
					l-28.2,2.3c-3.2,0.3-5.6-2.2-5.2-5.4l0,0c0.4-3.2,3.3-6.1,6.6-6.3l28.8-2.3c0.7-0.1,1.2-0.6,1.3-1.2l0.1-0.5
					c0.1-0.8-0.5-1.5-1.2-1.6l-31.8-3.7c-3.1-0.4-5.5-3-5.3-6.1c0.2-3.4,3.2-5.8,6.5-5.5l32,3.7c0.8,0.1,1.5-0.5,1.6-1.2l0.2-1.5
					c0.1-0.7-0.4-1.4-1.1-1.5l-29.1-7.3c-3-0.8-5-3.7-4.5-6.7c0.6-3.3,3.9-5.4,7.1-4.6c0,0,44.9,8.8,52,9.6l-7.8-14.8
					c-2-2.5-1.6-6.1,0.9-8.1l0,0c2.5-2,6.1-1.6,8.1,0.9l26.4,26.3c1.3,1.6,0.8,5.8-0.4,9c-1.4,34.1-1.9,39.4-3.1,48.6l-36.1-5.5
					c-10.4-1.6-21-1.2-31.3,1l-2.6,0.6C1687.1,1142.7,1683.9,1140.5,1683.4,1137.2z"/>
			</g>
		</g>
		<g>
			<g>
				<g>
					<g>
						<path class="st8" d="M1762.8,1076.1c0,0-12.5,29.4-3.3,88.3l12.5-41.7l19.5-26.8L1762.8,1076.1z"/>
					</g>
				</g>
			</g>
		</g>
		<g>
			<g>
				<g>
					<g>
						<g>
							<g>
								<path class="st3" d="M1989.6,1077.7c-0.1,0.1-0.3,0.1-0.5,0.1c-1.7-0.1-170.3-5.1-225.5-0.6c-1.4,3.6-7.6,22.3-5.8,56.6
									c0,0.7-0.5,1.2-1.1,1.3c-0.7,0-1.2-0.5-1.3-1.1c-2-38.8,6-57.5,6.3-58.3l0.3-0.7l0.7-0.1c54.5-4.7,224.8,0.4,226.5,0.5
									c0.7,0,1.2,0.6,1.2,1.2C1990.3,1077.1,1990,1077.5,1989.6,1077.7z"/>
							</g>
						</g>
					</g>
				</g>
			</g>
		</g>
	</g>
	<g>
		<g>
			<g>
				<g>
					<path d="M792.2,1342.7c-0.7-3.4,0.8-6.8,3.4-8.8c-1.3-1.2-2.2-2.8-2.5-4.6c-0.7-3.5,0.8-6.9,3.5-8.9c-1.3-1.2-2.3-2.8-2.7-4.7
						c-0.7-3.3,0.6-6.4,3-8.4c0.1-3.7,2.7-7,6.3-8.1c-0.1-0.4-0.3-0.8-0.4-1.2c-0.9-4.3,1.6-8.5,5.7-10c0,0,0-0.1,0-0.1
						c-0.9-4.8,2.1-9.4,6.9-10.4c0.8-0.2,1.7-0.2,2.5-0.1c0.4-1.2,1-2.3,1.8-3.2c0.3-3.8,3.1-7.1,7-7.9c0.4-0.1,0.8-0.1,1.2-0.1
						c1-2.9,3.4-5.1,6.6-5.8c1.3-0.3,2.6-0.2,3.8,0.1c1.2-2.3,3.3-4,6-4.6c1.5-0.3,3-0.2,4.4,0.3c0.5-0.2,0.9-0.3,1.4-0.4
						c1.5-0.3,2.9-0.2,4.2,0.2c1.2-1.5,3-2.7,5.1-3.1c2.3-0.5,4.6,0.1,6.5,1.3c1.9-0.3,3.7,0.1,5.2,0.9c0.9-0.6,2-1.1,3.2-1.3
						c4.8-0.9,9.4,2.2,10.4,6.9c3.5-0.7,6.9,0.8,8.9,3.5c2.6-0.2,5.1,0.6,6.9,2.3c0.1,0,0.1,0,0.2-0.1c4.5-0.9,8.7,1.8,10.1,6
						c2,1.2,3.5,3.3,4,5.8c0.2,1,0.2,2,0,3c1.7,1.2,2.9,3.1,3.4,5.3c2.8,1,5,3.3,5.7,6.4c2.9,1,5.3,3.4,5.9,6.6
						c0.2,1.2,0.2,2.4,0,3.5c2.2,1.2,3.9,3.3,4.5,6c0.5,2.6-0.2,5.2-1.7,7.1c1.4,1.2,2.5,2.9,2.9,4.9c0.5,2.6-0.2,5.1-1.7,7.1
						c0.6,3.4-0.8,6.8-3.5,8.7c0.5,0.9,1,1.8,1.2,2.9c0.6,3.1-0.5,6.2-2.8,8.2c0,0.1,0.1,0.3,0.1,0.4c0.8,3.9-1.2,7.8-4.6,9.5
						c-0.5,2.5-2,4.7-4.3,6c-0.1,4.1-2.9,7.7-7.1,8.5c-0.2,0-0.3,0-0.5,0.1c-1.3,1.8-3.2,3.1-5.5,3.6c-0.8,0.2-1.5,0.2-2.3,0.1
						c-0.2,4-3,7.5-7.1,8.3c-2.4,0.5-4.7-0.1-6.6-1.3c-5.3,2.8-11.1,4.9-17.3,6.2c-4.8,0.9-9.5,1.3-14.2,1.2
						c-0.8,3.1-3.4,5.7-6.8,6.4c-2.1,0.4-4.1,0-5.9-0.9c-0.3,0.1-0.5,0.2-0.8,0.2c-3.2,0.6-6.3-0.6-8.4-2.9
						c-0.4,0.1-0.7,0.3-1.1,0.3c-3.5,0.7-7-0.8-8.9-3.6c-0.2,0.1-0.5,0.2-0.7,0.2c-4.8,0.9-9.4-2.1-10.4-6.9c0,0,0,0,0-0.1
						c-2.5-1.1-4.4-3.4-5-6.3c-0.4-2.2,0-4.3,1.1-6.1c-3.5-0.6-6.5-3.3-7.2-6.9c-0.1-0.6-0.2-1.2-0.2-1.7c-3.9-0.3-7.3-3-8.1-7
						c-0.4-2.1,0-4.1,0.9-5.8C795.2,1348.3,792.9,1345.9,792.2,1342.7z"/>
				</g>
			</g>
		</g>
		<g>
			<g>
				<g>
					<path d="M827.3,1335.9c0-3.5,2.1-6.5,5.1-7.9c-1-1.4-1.6-3.2-1.6-5c0-3.6,2.1-6.6,5.2-8c-1.1-1.5-1.7-3.2-1.7-5.2
						c0-3.3,1.9-6.2,4.6-7.7c0.9-3.6,4-6.3,7.8-6.7c-0.1-0.4-0.1-0.8-0.1-1.3c0-4.4,3.3-8,7.5-8.7c0,0,0-0.1,0-0.1
						c0-4.9,3.9-8.8,8.8-8.8c0.9,0,1.7,0.2,2.4,0.4c0.6-1.1,1.4-2.1,2.4-2.8c1.1-3.7,4.4-6.3,8.4-6.3c0.4,0,0.8,0.1,1.2,0.1
						c1.5-2.6,4.3-4.4,7.6-4.4c1.3,0,2.6,0.3,3.7,0.8c1.6-2,4.1-3.3,6.8-3.3c1.6,0,3,0.4,4.3,1.1c0.5-0.1,1-0.1,1.5-0.1
						c1.5,0,2.9,0.4,4.1,1.1c1.5-1.3,3.5-2.1,5.6-2.1c2.4,0,4.5,1,6.1,2.5c1.9,0.1,3.6,0.8,5,1.9c1-0.4,2.2-0.7,3.4-0.7
						c4.9,0,8.8,3.9,8.8,8.8c3.6,0,6.7,2.1,8,5.2c2.6,0.3,4.8,1.6,6.3,3.6c0.1,0,0.1,0,0.2,0c4.5,0,8.2,3.4,8.7,7.9
						c1.7,1.6,2.8,3.9,2.8,6.4c0,1-0.2,2-0.5,2.9c1.4,1.5,2.3,3.6,2.3,5.8c2.5,1.5,4.3,4.2,4.3,7.4c2.7,1.5,4.5,4.3,4.5,7.6
						c0,1.2-0.2,2.4-0.7,3.4c1.9,1.6,3.2,4,3.2,6.8c0,2.7-1.2,5-3.1,6.6c1.1,1.5,1.9,3.3,1.9,5.4c0,2.6-1.2,5-3,6.6
						c0,3.5-2.1,6.5-5.1,7.9c0.4,1,0.6,2,0.6,3.1c0,3.2-1.7,6-4.3,7.5c0,0.1,0,0.3,0,0.4c0,4-2.7,7.4-6.4,8.4
						c-0.9,2.4-2.9,4.2-5.3,5.1c-0.9,4-4.4,6.9-8.6,6.9c-0.2,0-0.3,0-0.5-0.1c-1.6,1.5-3.7,2.4-6,2.4c-0.8,0-1.5-0.1-2.2-0.3
						c-0.9,3.9-4.4,6.8-8.5,6.8c-2.4,0-4.6-1-6.2-2.5c-5.8,1.7-11.9,2.6-18.2,2.6c-4.9,0-9.6-0.6-14.1-1.6c-1.4,2.9-4.4,5-7.9,5
						c-2.1,0-4-0.8-5.6-2c-0.3,0-0.5,0.1-0.8,0.1c-3.3,0-6.1-1.8-7.6-4.5c-0.4,0.1-0.8,0.1-1.2,0.1c-3.6,0-6.7-2.2-8.1-5.3
						c-0.2,0-0.5,0.1-0.7,0.1c-4.9,0-8.8-3.9-8.8-8.8c0,0,0,0,0-0.1c-2.2-1.6-3.7-4.2-3.7-7.1c0-2.2,0.9-4.2,2.2-5.8
						c-3.3-1.3-5.7-4.4-5.7-8.2c0-0.6,0.1-1.2,0.2-1.7c-3.8-1-6.5-4.4-6.5-8.5c0-2.1,0.8-4,2-5.6
						C829.2,1342,827.3,1339.2,827.3,1335.9z"/>
				</g>
			</g>
		</g>
		<g>
			<g>
				<g>
					<g>
						<g>
							<g>
								<path class="st21" d="M549.7,1608.1c-12.6-7.8-1.4-11.4-1.4-11.4c-6.3-4.9-5.5-7.8-3.8-9.4c1.3-1.2,3.1-1.6,4.8-1.2
									c5.4,1.1,21.8,4.6,31.9,7.3c6.6-1.6,2.6-12.5-1.4-17.8c-2-2.7-3-7.6,5.1-3.9c6.6,3,17.7,14.9,17.7,14.9l36.6-9.8l3.1,52.2
									c0,0-42.6,6.5-49,7.6c-6.4,1-29.1-2.7-36.5-7.2c-13.5-8.3-6.2-10-6.2-10C537.5,1609.5,549.7,1608.1,549.7,1608.1z"/>
							</g>
						</g>
					</g>
				</g>
			</g>
		</g>
		<g>
			<g>
				<g>
					<g>
						<path class="st22" d="M562.7,1602.8c0.1-0.1,0.2-0.2,0.2-0.3c0.1-0.5-0.1-0.9-0.6-1c-5.7-1.6-13.9-5.8-14.2-5.9
							c-0.4-0.2-0.9,0-1.1,0.4c-0.2,0.4-0.1,0.9,0.4,1.1c0.4,0.2,8.7,4.5,14.5,6.1C562.2,1603.1,562.5,1603,562.7,1602.8z"/>
					</g>
				</g>
			</g>
			<g>
				<g>
					<g>
						<path class="st22" d="M563.7,1613.9c0.1-0.1,0.2-0.2,0.2-0.4c0.1-0.5-0.2-0.9-0.7-1c-6.9-1.4-13-5-13.3-5.2l-0.9,1.5
							c0.7,0.4,6.8,3.9,13.8,5.4C563.2,1614.2,563.5,1614.1,563.7,1613.9z"/>
					</g>
				</g>
			</g>
			<g>
				<g>
					<g>
						<path class="st22" d="M563.9,1624.6c0.1-0.1,0.2-0.3,0.2-0.4c0.1-0.5-0.2-0.9-0.7-1c-6.5-1.1-12.3-4.5-12.3-4.5
							c-0.4-0.2-0.9-0.1-1.2,0.3c-0.2,0.4-0.1,0.9,0.3,1.2c0.1,0,6.1,3.6,12.9,4.7C563.4,1624.9,563.7,1624.8,563.9,1624.6z"/>
					</g>
				</g>
			</g>
		</g>
		<g>
			<g>
				<path class="st21" d="M602.7,1586.7l105.8-36.4l55.9-140.4c15.8,9.8,6.5,105.9,35.7,110.1c-8.1,25.9-28,83.9-47.4,98
					c-25.2,18.3-161.4,18.8-161.4,18.8L602.7,1586.7z"/>
			</g>
		</g>
		<g>
			<g>
				<g>
					<path class="st17" d="M755.6,1365c4.6-12.3,19.4-22,41.4-24.7l0,0c0,0,0,0,0,0c1-0.1,2-0.2,3-0.4c5.7,20.3,20.5,56.3,54.6,57.1
						c41,1,75-44.7,83.5-57.2c5,0.4,10.4,0.9,16,1.6c10.6,0.4,78.8,5,84,63.8c5.3,60.2-6.4,151.5-6.4,151.5s-23.1-1.1-51.9-12.6
						l-5.1,34.5l5.2,77.5c0,0-146.2,51-240.2-11.4c0,0,4.6-88.2,8.6-166.2C751.3,1422.7,753.3,1371.3,755.6,1365z"/>
				</g>
			</g>
		</g>
		<g>
			<g>
				<g>
					<g>
						<g>
							<polygon class="st21" points="841.7,1864.2 831.5,2202.9 765.1,2202.9 736.5,1864.2 							"/>
						</g>
					</g>
				</g>
			</g>
		</g>
		<g>
			<g>
				<g>
					<g>
						<g>
							<polygon class="st21" points="951,1864.2 940.9,2202.9 874.5,2202.9 845.9,1864.2 							"/>
						</g>
					</g>
				</g>
			</g>
		</g>
		<g>
			<g>
				<g>
					<g>
						<g>
							<g>
								<path class="st12" d="M811.1,2233.1l-92.1-1.5c-0.8-0.1-1.5-0.3-2-0.4c-8.6-2.8-5.7-8.3-5.7-8.3l52.2-34l23.8,10.8
									c0,0,39,6.5,44.6-4.5l-0.8,28.9C831.1,2224,833.9,2233.3,811.1,2233.1z"/>
							</g>
						</g>
					</g>
				</g>
			</g>
		</g>
		<g>
			<g>
				<g>
					<g>
						<g>
							<g>
								<path class="st17" d="M920.5,2233.1l-92.1-1.5c-0.8-0.1-1.5-0.3-2-0.4c-8.6-2.8-5.7-8.3-5.7-8.3l52.2-34l23.8,10.8
									c0,0,39,6.5,44.6-4.5l-0.8,28.9C940.4,2224,943.3,2233.3,920.5,2233.1z"/>
							</g>
						</g>
					</g>
				</g>
			</g>
		</g>
		<g>
			<g>
				<g>
					<g>
						<path class="st17" d="M740.9,1624.7c0,0-13.7,145.4-36.7,362.4c0,0,71.1,21.4,190.6,21.9c80,0.3,133.8-21.2,133.8-21.2
							s-11.6-264.3-54.5-346.9c0,0-118.6-21.4-121.2-21.4C850.2,1619.5,740.9,1624.7,740.9,1624.7z"/>
					</g>
				</g>
			</g>
		</g>
		<g>
			<g>
				<g>
					<g>
						<g>
							<path d="M964,1762.1c0.5,0,0.9-0.2,1.2-0.7l7.9-13.7c0.4-0.7,0.1-1.5-0.5-1.9c-0.7-0.4-1.5-0.2-1.9,0.5l-7.9,13.7
								c-0.4,0.7-0.1,1.5,0.5,1.9C963.5,1762,963.8,1762.1,964,1762.1z"/>
						</g>
					</g>
				</g>
			</g>
			<g>
				<g>
					<g>
						<g>
							<path d="M964.7,1770.1c0.5,0,0.9-0.2,1.2-0.6l8.8-13.9c0.4-0.6,0.2-1.5-0.4-1.9c-0.6-0.4-1.5-0.2-1.9,0.4l-8.8,13.9
								c-0.4,0.6-0.2,1.5,0.4,1.9C964.2,1770,964.4,1770.1,964.7,1770.1z"/>
						</g>
					</g>
				</g>
			</g>
		</g>
		<g>
			<g>
				<g>
					<path class="st17" d="M758.5,1387.5c-1.9,1.7-7.1,11-7.1,11l-9.7,19.7l-4.2,17.6L736,1447l2.3,19.3l6,8.7l5.7,4.9l8.4-0.2
						c0,0,15.8-69,15.2-70.8C773,1407.2,758.5,1387.5,758.5,1387.5z"/>
				</g>
			</g>
		</g>
		<g>
			<g>
				<g>
					<g>
						<path class="st3" d="M1031.8,1557.5c0.4,0,0.7-0.3,0.7-0.7c0-0.4-0.3-0.8-0.7-0.8c-47-2.6-91.4-35-96-38.4l31-116.7
							c0.1-0.4-0.1-0.8-0.5-0.9c-0.4-0.1-0.8,0.1-0.9,0.5l-31.2,117.6l0.4,0.3C935,1518.8,982,1554.7,1031.8,1557.5
							C1031.8,1557.5,1031.8,1557.5,1031.8,1557.5z"/>
					</g>
				</g>
			</g>
		</g>
		<g>
			<g>
				<g>
					<g>
						<path class="st3" d="M955.6,1441.2c0,0,0.1,0,0.1,0c0.4-0.1,0.7-0.5,0.6-0.9l-5.5-28.5c-0.1-0.4-0.5-0.7-0.9-0.6
							c-0.4,0.1-0.7,0.5-0.6,0.9l5.5,28.5C954.9,1441,955.2,1441.2,955.6,1441.2z"/>
					</g>
				</g>
			</g>
		</g>
		<g>
			<g>
				<g>
					<g>
						<g>
							<path class="st3" d="M1025,1393.5C1025,1393.5,1025,1393.5,1025,1393.5c0.5,0,0.8-0.4,0.7-0.8c-0.1-0.5-1.4-12.7-9.6-22
								c-0.3-0.3-0.7-0.3-1-0.1c-0.3,0.3-0.3,0.7-0.1,1c7.8,8.9,9.2,21,9.2,21.2C1024.3,1393.2,1024.6,1393.5,1025,1393.5z"/>
						</g>
					</g>
				</g>
			</g>
			<g>
				<g>
					<g>
						<g>
							<path class="st3" d="M1018,1393.5C1018.1,1393.5,1018.1,1393.5,1018,1393.5c0.5,0,0.8-0.4,0.7-0.8c-0.1-0.5-1.4-12.7-9.6-22
								c-0.3-0.3-0.7-0.3-1-0.1c-0.3,0.3-0.3,0.7-0.1,1c7.8,8.9,9.2,21,9.2,21.2C1017.4,1393.2,1017.7,1393.5,1018,1393.5z"/>
						</g>
					</g>
				</g>
			</g>
		</g>
		<g>
			<g>
				<g>
					<path class="st21" d="M938.2,1339.9L938.2,1339.9c-8.5,12.5-42.5,58.2-83.5,57.2c-34.1-0.8-48.9-36.8-54.6-57.1
						C851.4,1335.1,938.2,1339.9,938.2,1339.9z"/>
				</g>
			</g>
		</g>
		<g>
			<g>
				<g>
					<path d="M806.3,1257.8c0-3.5,2.1-6.5,5.1-7.9c-1-1.4-1.6-3.2-1.6-5c0-3.6,2.1-6.6,5.2-8c-1.1-1.5-1.7-3.2-1.7-5.2
						c0-3.3,1.9-6.2,4.6-7.7c0.9-3.6,4-6.3,7.8-6.7c-0.1-0.4-0.1-0.8-0.1-1.3c0-4.4,3.3-8,7.5-8.7c0,0,0-0.1,0-0.1
						c0-4.9,3.9-8.8,8.8-8.8c0.9,0,1.7,0.2,2.4,0.4c0.6-1.1,1.4-2.1,2.4-2.8c1.1-3.7,4.4-6.3,8.4-6.3c0.4,0,0.8,0.1,1.2,0.1
						c1.5-2.6,4.3-4.4,7.6-4.4c1.3,0,2.6,0.3,3.7,0.8c1.6-2,4.1-3.3,6.8-3.3c1.6,0,3,0.4,4.3,1.1c0.5-0.1,1-0.1,1.5-0.1
						c1.5,0,2.9,0.4,4.1,1.1c1.5-1.3,3.5-2.1,5.6-2.1c2.4,0,4.5,1,6.1,2.5c1.9,0.1,3.6,0.8,5,1.9c1-0.4,2.2-0.7,3.4-0.7
						c4.9,0,8.8,3.9,8.8,8.8c3.6,0,6.7,2.1,8,5.2c2.6,0.3,4.8,1.6,6.3,3.6c0.1,0,0.1,0,0.2,0c4.5,0,8.2,3.4,8.7,7.9
						c1.7,1.6,2.8,3.9,2.8,6.4c0,1-0.2,2-0.5,2.9c1.4,1.5,2.3,3.6,2.3,5.8c2.5,1.5,4.3,4.2,4.3,7.4c2.7,1.5,4.5,4.3,4.5,7.6
						c0,1.2-0.2,2.4-0.7,3.4c1.9,1.6,3.2,4,3.2,6.8c0,2.7-1.2,5-3.1,6.6c1.1,1.5,1.9,3.3,1.9,5.4c0,2.6-1.2,5-3,6.6
						c0,3.5-2.1,6.5-5.1,7.9c0.4,1,0.6,2,0.6,3.1c0,3.2-1.7,6-4.3,7.5c0,0.1,0,0.3,0,0.4c0,4-2.7,7.4-6.4,8.4
						c-0.9,2.4-2.9,4.2-5.3,5.1c-0.9,4-4.4,6.9-8.6,6.9c-0.2,0-0.3,0-0.5-0.1c-1.6,1.5-3.7,2.4-6,2.4c-0.8,0-1.5-0.1-2.2-0.3
						c-0.9,3.9-4.4,6.8-8.5,6.8c-2.4,0-4.6-1-6.2-2.5c-5.8,1.7-11.9,2.6-18.2,2.6c-4.9,0-9.6-0.6-14.1-1.6c-1.4,2.9-4.4,5-7.9,5
						c-2.1,0-4-0.8-5.6-2c-0.3,0-0.5,0.1-0.8,0.1c-3.3,0-6.1-1.8-7.6-4.5c-0.4,0.1-0.8,0.1-1.2,0.1c-3.6,0-6.7-2.2-8.1-5.3
						c-0.2,0-0.5,0.1-0.7,0.1c-4.9,0-8.8-3.9-8.8-8.8c0,0,0,0,0-0.1c-2.2-1.6-3.7-4.2-3.7-7.1c0-2.2,0.9-4.2,2.2-5.8
						c-3.3-1.3-5.7-4.4-5.7-8.2c0-0.6,0.1-1.2,0.2-1.7c-3.8-1-6.5-4.4-6.5-8.5c0-2.1,0.8-4,2-5.6
						C808.1,1263.9,806.3,1261,806.3,1257.8z"/>
				</g>
			</g>
		</g>
		<g>
			<g>
				<g>
					<g>
						<g>
							<g>
								<path class="st21" d="M847.5,1231.1c0,0-11.6,59.9-4.1,71c0,0,3.6,5.9,13,6.6l-2.4,35.4l42.8-2.9l6.1-100.7
									c0,0-11-25.5-11.1-24.5C891.8,1217,847.5,1231.1,847.5,1231.1z"/>
							</g>
						</g>
					</g>
				</g>
			</g>
		</g>
		<g>
			<g>
				<g>
					<g>
						<g>
							<g>
								<path class="st22" d="M858.2,1282c0.1,0,0.2-0.1,0.3-0.3c0-0.2,0-0.4-0.2-0.5c-1.7-0.6-2.7-3.8-2.9-4.8c2.6-1.7,4.3-4.1,5-7
									c1.1-4.8-0.8-9.2-0.9-9.4c-0.1-0.2-0.2-0.2-0.4-0.1c-0.1,0.1-0.2,0.4-0.1,0.5c0,0,1.9,4.4,0.8,8.8c-0.7,2.8-2.3,5-4.9,6.7
									l-0.2,0.1l0.1,0.3C854.8,1276.6,855.8,1281.1,858.2,1282C858.1,1282,858.2,1282,858.2,1282z"/>
							</g>
						</g>
					</g>
				</g>
			</g>
		</g>
		<g>
			<g>
				<g>
					<g>
						<g>
							<g>
								<path class="st22" d="M855.7,1320.8l0.7-12c0,0,20.4,0,33.4-7.1C889.8,1301.6,871.8,1316.9,855.7,1320.8z"/>
							</g>
						</g>
					</g>
				</g>
			</g>
		</g>
		<g>
			<g>
				<g>
					<g>
						<g>
							<g>
								<path d="M882.4,1263.1c0.2,0,0.4,0,0.5-0.2c0.3-0.3,0.4-0.8,0.1-1.1c-0.1-0.1-9.4-10.8-18.8-4.1c-0.3,0.2-0.4,0.7-0.2,1.1
									c0.2,0.3,0.7,0.4,1.1,0.2c8.3-5.9,16.4,3.4,16.7,3.8C882,1263,882.2,1263.1,882.4,1263.1z"/>
							</g>
						</g>
					</g>
				</g>
			</g>
		</g>
		<g>
			<g>
				<g>
					<g>
						<g>
							<g>
								<path d="M855.7,1259.8c0.2,0,0.4-0.1,0.6-0.2c0.3-0.3,0.3-0.8,0-1.1c-0.3-0.3-6.8-6.5-11.4-3.1c-0.3,0.3-0.4,0.7-0.1,1.1
									c0.3,0.3,0.7,0.4,1.1,0.1c3.5-2.7,9.3,2.9,9.3,3C855.3,1259.7,855.5,1259.8,855.7,1259.8z"/>
							</g>
						</g>
					</g>
				</g>
			</g>
		</g>
		<g>
			<g>
				<g>
					<g>
						<g>
							<g>
								<path d="M866.7,1266.4c-0.1,1.2,0.8,2.2,2,2.3c1.2,0.1,2.2-0.8,2.3-2c0.1-1.2-0.8-2.2-2-2.3
									C867.8,1264.4,866.8,1265.3,866.7,1266.4z"/>
							</g>
						</g>
					</g>
				</g>
			</g>
		</g>
		<g>
			<g>
				<g>
					<g>
						<g>
							<g>
								<path d="M846.5,1265.2c-0.1,1.2,0.8,2.2,2,2.3c1.2,0.1,2.2-0.8,2.3-2c0.1-1.2-0.8-2.2-2-2.3
									C847.6,1263.1,846.6,1264,846.5,1265.2z"/>
							</g>
						</g>
					</g>
				</g>
			</g>
		</g>
		<g>
			<g>
				<g>
					<g>
						<g>
							<g>
								<path class="st16" d="M874.3,1282c-0.2,0-14.4,5.2-14.4,5.2s4,5.1,9.3,3.2C874.5,1288.5,874.3,1282,874.3,1282z"/>
							</g>
						</g>
					</g>
				</g>
			</g>
		</g>
		<g>
			<g>
				<g>
					<g>
						<g>
							<g>
								<g>
									<path class="st21" d="M892.2,1277.2c-0.4,6.6,4.7,12.4,11.3,12.8c6.6,0.4,12.4-4.7,12.8-11.3c0.4-6.6-4.7-12.4-11.3-12.8
										C898.4,1265.5,892.6,1270.6,892.2,1277.2z"/>
								</g>
							</g>
						</g>
					</g>
				</g>
			</g>
			<g>
				<g>
					<g>
						<g>
							<g>
								<g>
									<path class="st22" d="M904.7,1285.4c2.5,0.2,4.3-1.6,5-3.5c0.8-2.2,0.2-4.4-1.6-5.7c-2.5-1.8-4.9-1-6.2-0.2
										c0.6-1.2,1.4-2.1,2.5-2.6c2.4-1.2,5.3,0,5.3,0c0.2,0.1,0.4,0,0.5-0.2c0.1-0.2,0-0.4-0.2-0.5c-0.1-0.1-3.2-1.3-5.9,0
										c-1.6,0.7-2.7,2.2-3.4,4.2l-0.4,1.3l1-0.9c0.1-0.1,3.1-2.7,6.3-0.4c1.8,1.3,1.8,3.4,1.3,4.8c-0.5,1.5-2,3.2-4.3,3
										c-0.2,0-0.4,0.1-0.4,0.4C904.3,1285.2,904.4,1285.4,904.7,1285.4C904.7,1285.4,904.7,1285.4,904.7,1285.4z"/>
								</g>
							</g>
						</g>
					</g>
				</g>
			</g>
		</g>
		<g>
			<g>
				<g>
					<path d="M896.9,1264.4c0,1.9,1.5,3.4,3.4,3.4c1.9,0,3.4-1.5,3.4-3.4c0-1.9-1.5-3.4-3.4-3.4
						C898.4,1261,896.9,1262.6,896.9,1264.4z"/>
				</g>
			</g>
		</g>
		<g>
			<g>
				<g>
					<path d="M894,1258.6c0,2.5,2,4.5,4.5,4.5c2.5,0,4.5-2,4.5-4.5c0-2.5-2-4.5-4.5-4.5C896,1254.1,894,1256.1,894,1258.6z"/>
				</g>
			</g>
		</g>
		<g>
			<g>
				<g>
					<path d="M890.6,1242.3c0,2.5,2,4.5,4.5,4.5s4.5-2,4.5-4.5c0-2.5-2-4.5-4.5-4.5C892.6,1237.8,890.6,1239.8,890.6,1242.3z"/>
				</g>
			</g>
		</g>
		<g>
			<g>
				<g>
					<path d="M867.4,1233.6c0,2.5,2,4.5,4.5,4.5s4.5-2,4.5-4.5c0-2.5-2-4.5-4.5-4.5C869.4,1229.2,867.4,1231.2,867.4,1233.6z"/>
				</g>
			</g>
		</g>
		<g>
			<g>
				<g>
					<path d="M895,1245.7c0,4.8,3.9,8.6,8.6,8.6s8.6-3.9,8.6-8.6s-3.9-8.6-8.6-8.6S895,1241,895,1245.7z"/>
				</g>
			</g>
		</g>
		<g>
			<g>
				<g>
					<ellipse cx="902.5" cy="1250" rx="8.6" ry="8.6"/>
				</g>
			</g>
		</g>
		<g>
			<g>
				<g>
					<circle cx="894.7" cy="1235.3" r="8.6"/>
				</g>
			</g>
		</g>
		<g>
			<g>
				<g>
					<circle cx="881.7" cy="1232.8" r="8.6"/>
				</g>
			</g>
		</g>
		<g>
			<g>
				<g>
					<ellipse cx="868.8" cy="1226.7" rx="8.6" ry="8.6"/>
				</g>
			</g>
		</g>
		<g>
			<g>
				<g>
					<circle cx="884.3" cy="1232.2" r="8.6"/>
				</g>
			</g>
		</g>
		<g>
			<g>
				<g>
					<circle cx="861" cy="1232.8" r="8.6"/>
				</g>
			</g>
		</g>
		<g>
			<g>
				<g>
					<circle cx="850.6" cy="1232.2" r="8.6"/>
				</g>
			</g>
		</g>
		<g>
			<g>
				<g>
					<ellipse cx="891.3" cy="1216" rx="8.6" ry="8.6"/>
				</g>
			</g>
		</g>
		<g>
			<g>
				<g>
					<ellipse cx="896.7" cy="1224.6" rx="8.6" ry="8.6"/>
				</g>
			</g>
		</g>
		<g>
			<g>
				<g>
					<ellipse cx="875.8" cy="1220.6" rx="8.6" ry="8.6"/>
				</g>
			</g>
		</g>
		<g>
			<g>
				<g>
					<circle cx="884.3" cy="1222.3" r="8.6"/>
				</g>
			</g>
		</g>
		<g>
			<g>
				<g>
					<ellipse cx="892.2" cy="1207.4" rx="8.6" ry="8.6"/>
				</g>
			</g>
		</g>
		<g>
			<g>
				<g>
					<path class="st3" d="M826.5,1484.3c0.5,0,0.9-0.4,1-0.9c0-0.5-0.4-1-0.9-1l-77.1-4.6c-0.6,0-1,0.4-1,0.9c0,0.5,0.4,1,0.9,1
						L826.5,1484.3C826.5,1484.3,826.5,1484.3,826.5,1484.3z"/>
				</g>
			</g>
		</g>
		<g>
			<g>
				<g>
					<path class="st3" d="M826.5,1499.5c0.5,0,0.9-0.4,1-0.9c0-0.5-0.4-1-0.9-1l-60.6-3.6c-0.6-0.1-1,0.4-1,0.9c0,0.5,0.4,1,0.9,1
						L826.5,1499.5C826.5,1499.5,826.5,1499.5,826.5,1499.5z"/>
				</g>
			</g>
		</g>
		<g>
			<g>
				<g>
					<path class="st22" d="M945.4,1600C945.4,1600,945.4,1600,945.4,1600c0.3-0.4,0.3-0.9-0.1-1.2l-15.1-12.5
						c-0.4-0.3-0.9-0.3-1.2,0.1c-0.3,0.4-0.2,0.9,0.1,1.2l15.1,12.5C944.6,1600.4,945.1,1600.4,945.4,1600z"/>
				</g>
			</g>
		</g>
		<g>
			<g>
				<path d="M889.2,2010.1c96.2,0,139.3-21.3,139.8-21.5l0.5-0.3l0-0.6c-7.8-218.1-48.8-338.8-49.2-340l-1.7,0.6
					c0.4,1.2,41.2,121.5,49.1,338.9c-6.3,2.9-71.8,31.3-213.7,17.2l-0.2,1.8C841.9,2009,867,2010.1,889.2,2010.1z"/>
			</g>
		</g>
		<g>
			<g>
				<g>
					<g>
						<g>
							<g>
								<g>
									<g>
										<g>
											<g>
												<polygon class="st14" points="675.6,2210.9 609.8,2211.9 608.8,2149.8 674.4,2141.6 												"/>
											</g>
										</g>
									</g>
								</g>
							</g>
						</g>
					</g>
				</g>
			</g>
			<g>
				<g>
					<g>
						<g>
							<g>
								<g>
									<path class="st1" d="M743.2,2222.1H608.8v-27c0,0,9.8-13,24.7-6.4c0,0,22,16,41.9-3.1l49.8,21.4
										C725.1,2207,743.2,2212.9,743.2,2222.1z"/>
								</g>
							</g>
						</g>
					</g>
				</g>
				<g>
					<g>
						<g>
							<g>
								<g>
									<path class="st15" d="M608.8,2231.6h137.9c1.3,0,2.3-1.1,2.3-2.3v-4.8c0-1.3-1.1-2.3-2.3-2.3H608.8V2231.6z"/>
								</g>
							</g>
						</g>
					</g>
				</g>
				<g>
					<g>
						<g>
							<g>
								<g>
									<path class="st23" d="M690.1,2191.9c-4.5,7-13.6,21.2-19.3,30.2h-9.2c5.1-8,15.9-24.9,21.3-33.3L690.1,2191.9z"/>
								</g>
							</g>
						</g>
					</g>
				</g>
				<g>
					<g>
						<g>
							<g>
								<g>
									<path class="st23" d="M685.5,2222.1h-9.2c4.2-6.5,12.3-19.3,18.1-28.3l7.2,3.1C696.8,2204.5,690.1,2215,685.5,2222.1z"/>
								</g>
							</g>
						</g>
					</g>
				</g>
			</g>
			<g>
				<g>
					<g>
						<g>
							<g>
								<g>
									<g>
										<g>
											<g>
												<polygon class="st14" points="562.3,2210.9 496.5,2211.9 495.5,2149.8 561.1,2141.6 												"/>
											</g>
										</g>
									</g>
								</g>
							</g>
						</g>
					</g>
				</g>
			</g>
			<g>
				<g>
					<g>
						<g>
							<g>
								<g>
									<g>
										<path class="st20" d="M569.3,1673.6c2.2,64.1,11.7,314.8,31.6,478.9c1.3,10.8,10.5,19,21.4,18.9c12.1,0,28.8-1.5,47.4-7.1
											c9-2.7,15.2-10.9,15.4-20.3l8.1-499.2c0-1.2-0.1-2.4-0.2-3.6l-0.4-2.5c-2.1-13.6-16.2-21.8-29-16.8l-80.4,30.9
											C574.5,1656.1,569,1664.5,569.3,1673.6z"/>
									</g>
								</g>
							</g>
						</g>
					</g>
				</g>
			</g>
			<g>
				<g>
					<g>
						<g>
							<g>
								<g>
									<g>
										<path class="st19" d="M480.9,1660.7c0,0-5.5,308.3,8.8,498.5c0.7,9,7.8,16.1,16.8,16.8c12.7,1,32.1,0.8,54-5
											c7.4-2,12.8-8.4,13.5-16l38.2-442.2l23.5-122.8L480.9,1660.7z"/>
									</g>
								</g>
							</g>
						</g>
					</g>
				</g>
			</g>
			<g>
				<g>
					<g>
						<g>
							<g>
								<g>
									<g>
										<path class="st3" d="M490.8,2173.9L490.8,2173.9L490.8,2173.9z"/>
									</g>
								</g>
							</g>
						</g>
					</g>
				</g>
			</g>
			<g>
				<g>
					<g>
						<g>
							<g>
								<path class="st23" d="M516.2,2176.5c-2.5-57.1,8.5-413.7,8.6-417.3l-11.6-0.4c-0.5,14.9-11.2,360.7-8.6,417
									c0.6,0.1,1.2,0.2,1.8,0.2C509.4,2176.3,512.7,2176.4,516.2,2176.5z"/>
							</g>
						</g>
					</g>
				</g>
			</g>
			<g>
				<g>
					<g>
						<g>
							<g>
								<path class="st23" d="M627.9,2171.4c-1.9-69.2,8.7-409.3,8.8-412.8l-11.6-0.4c-0.5,14.5-10.7,344.2-8.7,412.5
									c1.9,0.5,3.9,0.8,6,0.8C624,2171.5,625.9,2171.4,627.9,2171.4z"/>
							</g>
						</g>
					</g>
				</g>
			</g>
			<g>
				<g>
					<g>
						<g>
							<g>
								<path class="st2" d="M456.4,1562.6c1.3,12.3,8.7,195.1,29.2,210.1c20.5,15.1,216.7,0.6,221.2-17.2
									c4.6-17.8-22.1-208.8-22.1-208.8L456.4,1562.6z"/>
							</g>
						</g>
					</g>
				</g>
			</g>
			<g>
				<g>
					<g>
						<g>
							<g>
								<g>
									<g>
										<g>
											<path class="st2" d="M677.9,1476.5c2.6,0,107.6,49.5,107.6,49.5l-22.9,40.3l-59.3-15.2L677.9,1476.5z"/>
										</g>
									</g>
								</g>
							</g>
						</g>
					</g>
				</g>
			</g>
			<g>
				<g>
					<g>
						<g>
							<g>
								<g>
									<path class="st2" d="M530.1,1280.4c0,0-45.2-3.1-67.3,8.4c-32.9,17.2-25,122.2-25,122.2s27.9-14,29.7-18.9
										C469.5,1387.1,530.1,1280.4,530.1,1280.4z"/>
								</g>
							</g>
						</g>
					</g>
				</g>
			</g>
			<g>
				<g>
					<g>
						<g>
							<g>
								<g>
									<path class="st2" d="M486,1287.1c25.9-2.7,93.8-2.8,93.8-2.8s8.9,2.7,6.1,1.2c74.5,15.8,80.9,71.7,80.9,71.7l31.1,161.9
										l40.7,3.6c12.3,25.4,0.4,92.5,0.4,92.5l-198,15.5c0,0-42.9,5.6-77.4-41.9c-22.8-31.4-27.7-125.6-25.4-194.3
										C438.2,1394.5,445.8,1291.2,486,1287.1z"/>
								</g>
							</g>
						</g>
					</g>
				</g>
			</g>
			<g>
				<g>
					<g>
						<g>
							<g>
								<g>
									<g>
										<g>
											<path class="st3" d="M544.6,1516.6c0.2,0.1,0.5,0.1,0.7,0.1c0.7-0.1,1.1-0.8,1-1.5c-0.2-0.9-17.8-89.2-24.7-144.7
												c-0.1-0.7-0.7-1.2-1.4-1.1c-0.7,0.1-1.2,0.7-1.1,1.4c6.9,55.5,24.6,144,24.7,144.9
												C543.9,1516.1,544.2,1516.5,544.6,1516.6z"/>
										</g>
									</g>
								</g>
							</g>
						</g>
					</g>
				</g>
			</g>
			<g>
				<g>
					<g>
						<g>
							<g>
								<g>
									<g>
										<g>
											<path class="st3" d="M666.8,1518.7c-0.2,0.2-0.5,0.3-0.8,0.3c-0.7,0-1.3-0.5-1.3-1.2c-0.1-1-5.9-102.7-11.9-136.3
												c-0.1-0.7,0.3-1.3,1-1.4c0.7-0.1,1.3,0.3,1.4,1c6,33.8,11.9,135.6,11.9,136.6C667.2,1518.1,667,1518.5,666.8,1518.7z"/>
										</g>
									</g>
								</g>
							</g>
						</g>
					</g>
				</g>
			</g>
			<g>
				<g>
					<g>
						<g>
							<g>
								<g>
									<g>
										<g>
											<path class="st3" d="M681.7,1496.7c0.6,0.2,1.2,0,1.5-0.5l8.9-14l-0.1-0.5l-24-124.7c-0.1-1.1-2.1-15.6-13.8-31.9
												c-10.9-15.3-32.9-35-75.3-42.1c-0.7-0.1-1.3,0.3-1.4,1c-0.1,0.7,0.3,1.3,1,1.4c41.5,7,62.9,26.1,73.6,41
												c11.6,16.1,13.4,30.8,13.4,30.9l0,0.1l23.9,124.2l-8.3,13.2c-0.4,0.6-0.2,1.4,0.4,1.7
												C681.6,1496.6,681.7,1496.6,681.7,1496.7z"/>
										</g>
									</g>
								</g>
							</g>
						</g>
					</g>
				</g>
			</g>
			<g>
				<g>
					<g>
						<g>
							<g>
								<g>
									<g>
										<g>
											<path class="st3" d="M511.4,1507.2c0.1,0,0.1,0,0.2,0.1l33,8.8c0.7,0.2,1.3-0.2,1.5-0.9c0.2-0.7-0.2-1.3-0.9-1.5l-33-8.8
												c-0.7-0.2-1.3,0.2-1.5,0.9C510.5,1506.3,510.8,1506.9,511.4,1507.2z"/>
										</g>
									</g>
								</g>
							</g>
						</g>
					</g>
				</g>
			</g>
			<g>
				<g>
					<g>
						<g>
							<g>
								<g>
									<g>
										<g>
											<path class="st3" d="M725.8,1498.6c0.6,0.3,1.3,0,1.6-0.6c0.3-0.6,0-1.4-0.6-1.6l-35.5-15.6c-0.7-0.3-1.4,0-1.6,0.6
												c-0.3,0.6,0,1.4,0.6,1.6L725.8,1498.6C725.8,1498.6,725.8,1498.6,725.8,1498.6z"/>
										</g>
									</g>
								</g>
							</g>
						</g>
					</g>
				</g>
			</g>
			<g>
				<g>
					<g>
						<g>
							<path class="st3" d="M531.5,1162.3c0,0-18,9.3-9,45.6l6.8-3.5l-2.3-19.3L531.5,1162.3z"/>
						</g>
					</g>
				</g>
			</g>
			<g>
				<g>
					<g>
						<g>
							<g>
								<g>
									<g>
										<path class="st14" d="M594.5,1184.8v53.2c0,0,0.7,18-14.9,20.2l2.9,24c1.1,8.9-4.2,17.5-12.7,20.2
											c-4.2,1.3-9.1,2.3-14.8,2.3c-17.9,0-27.6-13.5-29-20.2c-1.5-6.7,3-39,3-39l-0.5-15.8l2-61.4L594.5,1184.8z"/>
									</g>
								</g>
							</g>
						</g>
					</g>
				</g>
			</g>
			<g>
				<g>
					<g>
						<g>
							<g>
								<g>
									<g>
										<path class="st3" d="M551.4,1211.4c-0.2,0-0.4-0.1-0.5-0.2c-0.3-0.3-0.3-0.8,0-1.1c0.1-0.1,10.3-10.7,19.7-3.1
											c0.3,0.3,0.4,0.7,0.1,1.1c-0.3,0.3-0.7,0.4-1,0.1c-8.3-6.7-17.3,2.5-17.7,2.9C551.7,1211.3,551.5,1211.4,551.4,1211.4z"/>
									</g>
								</g>
							</g>
						</g>
					</g>
				</g>
			</g>
			<g>
				<g>
					<g>
						<g>
							<g>
								<g>
									<g>
										<path class="st3" d="M582.1,1206.9c-0.2,0-0.4-0.1-0.6-0.3c-0.3-0.3-0.2-0.8,0.1-1.1c0.3-0.3,7.4-6.4,11.9-2.5
											c0.3,0.3,0.3,0.7,0.1,1.1c-0.3,0.3-0.7,0.4-1,0.1c-3.5-3-9.9,2.4-10,2.5C582.4,1206.9,582.2,1206.9,582.1,1206.9z"/>
									</g>
								</g>
							</g>
						</g>
					</g>
				</g>
			</g>
			<g>
				<g>
					<g>
						<g>
							<g>
								<g>
									<g>
										<path d="M566.4,1214.5c0,1.2-1,2.2-2.2,2.2c-1.2,0-2.2-1-2.2-2.2s1-2.2,2.2-2.2S566.4,1213.2,566.4,1214.5z"/>
									</g>
								</g>
							</g>
						</g>
					</g>
				</g>
			</g>
			<g>
				<g>
					<g>
						<g>
							<g>
								<g>
									<g>
										<path d="M590.2,1212.2c0,1.2-1,2.2-2.2,2.2s-2.2-1-2.2-2.2c0-1.2,1-2.2,2.2-2.2S590.2,1211,590.2,1212.2z"/>
									</g>
								</g>
							</g>
						</g>
					</g>
				</g>
			</g>
			<g>
				<g>
					<g>
						<g>
							<g>
								<g>
									<g>
										<ellipse class="st14" cx="526.9" cy="1215.2" rx="13.4" ry="13.5"/>
									</g>
								</g>
							</g>
						</g>
					</g>
				</g>
			</g>
			<g>
				<g>
					<g>
						<g>
							<g>
								<g>
									<g>
										<path class="st7" d="M526,1223.5c-2.8,0-4.6-2.1-5.3-4.2c-0.7-2.5,0.1-4.9,2.1-6.2c3-1.9,5.7-0.7,7,0.2
											c-0.6-1.5-1.5-2.6-2.7-3.3c-2.6-1.5-5.9-0.4-5.9-0.4c-0.2,0.1-0.4,0-0.5-0.2c-0.1-0.2,0-0.4,0.2-0.5
											c0.1,0,3.6-1.2,6.5,0.4c1.7,0.9,2.8,2.6,3.4,4.9l0.3,1.3l-0.9-0.9c-0.1-0.1-3.3-3.3-7.1-0.9c-2.1,1.3-2.3,3.7-1.8,5.3
											c0.5,1.7,2,3.7,4.5,3.7c0,0,0,0,0.1,0c0.2,0,0.4,0.2,0.4,0.4C526.4,1223.3,526.2,1223.5,526,1223.5
											C526,1223.5,526,1223.5,526,1223.5z"/>
									</g>
								</g>
							</g>
						</g>
					</g>
				</g>
			</g>
			<g>
				<g>
					<g>
						<g>
							<g>
								<g>
									<path class="st3" d="M597.1,1229.6c0,0,4.9,36-18.9,37.3c-34,1.8-37.3-17.7-39.3-33.7l-0.3-33l1.1-9.6l0,0
										c2.4,2.7,3.9,6.2,4.2,9.8c0.7,7.9,2.4,29.2,4.4,30.2C551,1231.9,591.8,1226.1,597.1,1229.6z"/>
								</g>
							</g>
						</g>
					</g>
				</g>
			</g>
			<g>
				<g>
					<g>
						<g>
							<g>
								<g>
									<g>
										<path class="st7" d="M574.3,1229.6c-0.2,0-0.3-0.1-0.4-0.3c-0.1-0.2,0-0.4,0.2-0.5l7.5-2.5l-2.4-17.7
											c0-0.2,0.1-0.4,0.3-0.4c0.2,0,0.4,0.1,0.4,0.3l2.4,18.3l-8.1,2.7C574.4,1229.6,574.3,1229.6,574.3,1229.6z"/>
									</g>
								</g>
							</g>
						</g>
					</g>
				</g>
			</g>
			<g>
				<g>
					<g>
						<g>
							<g>
								<g>
									<g>
										<path class="st16" d="M568.5,1236.9c0.2,0,14.7-0.4,14.7-0.4s-1.8,6-7.2,6.2C570.6,1242.9,568.5,1236.9,568.5,1236.9z"/>
									</g>
								</g>
							</g>
						</g>
					</g>
				</g>
			</g>
			<g>
				<g>
					<g>
						<g>
							<path class="st3" d="M539.5,1191.2l-6.7-6.1l-7,16.7c0,0,8.6,1.4,8.8,10.4c0.1,9-4.7,22.9,10.8,43c15.5,20.1-1.2-30-1.4-31.7
								C543.9,1221.8,539.5,1191.2,539.5,1191.2z"/>
						</g>
					</g>
				</g>
			</g>
			<g>
				<g>
					<g>
						<g>
							<path class="st3" d="M531.5,1162.3c7.2-7.1,32.1-11.2,49.8-0.5l0,0c20.2,9.9,13.9,30,13.2,30.6l-0.3-0.2
								c0.1,0.5,0.2,0.9,0.3,1.4c0,0-0.8-1.4-2.7-3.2l-8-6.1c-4.5-2.5-10.4-4.7-18.2-5.2c-7.7-0.5-14.4-0.1-19.9,1.6
								c-1.5,4.6-2.6,13.6-0.9,31.5c2.6,27.2-9.3-5.8-13.6-18.4c-0.9,2.4-1.6,5-1.9,8.1C529.3,1201.8,517.1,1176.6,531.5,1162.3z"/>
						</g>
					</g>
				</g>
			</g>
			<g>
				<g>
					<g>
						<g>
							<path class="st14" d="M594.5,1199.8c0,0,0.5-10.9,0-13.3c-0.5-2.4-24.8-9.3-38.1-7.4c-13.3,1.8,12.5,16.5,12.8,16.5
								C569.5,1195.5,594.5,1199.8,594.5,1199.8z"/>
						</g>
					</g>
				</g>
			</g>
			<g>
				<g>
					<g>
						<g>
							<polygon class="st14" points="548.4,1181.8 535.5,1169.9 547.6,1187.4 							"/>
						</g>
					</g>
				</g>
			</g>
			<g>
				<g>
					<g>
						<g>
							<g>
								<path class="st2" d="M497.3,1332.9l24.1-40.5l42.4,12.8L581,1287c0,0,3.7,16.9,3.5,18.3c-0.1,1.4-19.4,21.4-21.8,21.2
									C560.2,1326.3,497.3,1332.9,497.3,1332.9z"/>
							</g>
						</g>
					</g>
				</g>
			</g>
			<g>
				<g>
					<g>
						<g>
							<g>
								<path class="st3" d="M500.7,1778.5c0.8,0,1.4-0.6,1.4-1.3c0.1-0.8-0.5-1.5-1.3-1.6c-20.4-1.5-23.1-18.8-27.8-47.4
									c-0.8-5.2-1.7-10.5-2.7-16.2c-6.9-38.1-9.9-130.3-10-131.2c0-0.8-0.7-1.4-1.5-1.4c0,0,0,0,0,0c-0.8,0-1.4,0.7-1.4,1.5
									c0,0.9,3.1,93.4,10,131.7c1,5.7,1.9,11,2.7,16.2c4.7,29,7.8,48.2,30.4,49.9C500.7,1778.5,500.7,1778.5,500.7,1778.5z"/>
							</g>
						</g>
					</g>
				</g>
			</g>
			<g>
				<g>
					<g>
						<g>
							<g>
								<path class="st1" d="M578.5,1267.9l1.7,15.2c0,0-10.5,15.7-17.7,20.8c-14.2-9.9-37-23.9-37-23.9l1.8-17.4
									c-26.4-3-56.3,13-49.4,21.6c6.9,8.6,42.7,11.2,52.2,14.3c9.4,3.1,33.3,10.3,33.3,10.3c6.3-4.7,23.2-24.5,23.2-24.5l17.1,4.7
									C604,1271.7,578.5,1267.9,578.5,1267.9z"/>
							</g>
						</g>
					</g>
				</g>
			</g>
			<g>
				<g>
					<g>
						<g>
							<g>
								<g>
									<path class="st2" d="M629.9,2222.1H495.5v-27c0,0,9.8-13,24.7-6.4c0,0,22,16,41.9-3.1l49.8,21.4
										C611.8,2207,629.9,2212.9,629.9,2222.1z"/>
								</g>
							</g>
						</g>
					</g>
				</g>
				<g>
					<g>
						<g>
							<g>
								<g>
									<path class="st15" d="M495.5,2231.6h137.9c1.3,0,2.3-1.1,2.3-2.3v-4.8c0-1.3-1.1-2.3-2.3-2.3H495.5V2231.6z"/>
								</g>
							</g>
						</g>
					</g>
				</g>
				<g>
					<g>
						<g>
							<g>
								<g>
									<path class="st23" d="M576.8,2191.9c-4.5,7-13.6,21.2-19.3,30.2h-9.2c5.1-8,15.9-24.9,21.3-33.3L576.8,2191.9z"/>
								</g>
							</g>
						</g>
					</g>
				</g>
				<g>
					<g>
						<g>
							<g>
								<g>
									<path class="st23" d="M572.2,2222.1H563c4.2-6.5,12.3-19.3,18.1-28.3l7.2,3.1C583.5,2204.5,576.7,2215,572.2,2222.1z"/>
								</g>
							</g>
						</g>
					</g>
				</g>
			</g>
			<g>
				<g>
					<g>
						<path d="M563.4,1309.9c0.2,0,0.5-0.1,0.7-0.3l29.9-30.3c0.4-0.4,0.4-1,0-1.4c-0.4-0.4-1-0.4-1.4,0l-29.9,30.3
							c-0.4,0.4-0.4,1,0,1.4C562.9,1309.8,563.2,1309.9,563.4,1309.9z"/>
					</g>
				</g>
			</g>
			<g>
				<g>
					<polygon class="st12" points="754.1,1522.9 752.9,1534.1 772.1,1527.8 					"/>
				</g>
			</g>
			<g>
				<g>
					<path class="st12" d="M758.7,1520.3l-2.6,2.1l-2,0.5l2.3,3.2l11.1,0.8c0,0,2.6-5.6,2.5-5.7c-0.1-0.1-7.7-4.4-7.7-4.4
						L758.7,1520.3z"/>
				</g>
			</g>
			<g>
				<g>
					<g>
						<polygon class="st8" points="863.1,1658.2 734.5,1633.7 757.4,1514 772.7,1433.7 901.3,1458.2 						"/>
					</g>
				</g>
				<g>
					<g>
						
							<rect x="713.7" y="1543.2" transform="matrix(0.1874 -0.9823 0.9823 0.1874 -855.425 2057.0149)" class="st15" width="203.6" height="4.7"/>
					</g>
				</g>
				<g>
					<g>
						
							<rect x="815.5" y="1480.5" transform="matrix(0.1874 -0.9823 0.9823 0.1874 -853.9265 2059.6118)" class="st15" width="4.7" height="130.9"/>
					</g>
				</g>
				<g>
					<g>
						<path class="st15" d="M817.5,1547.8l-0.8-1.9l-3.3-1.2c0.4-1,8.8-23.8,20.5-27.8c3.3-1.1,6.6-0.7,9.7,1.2
							c3.7,2.3,4.3,5.1,4.1,7C847,1535.1,822.4,1545.7,817.5,1547.8z M838.7,1520.9c-1.1-0.2-2.2-0.1-3.3,0.3
							c-6.5,2.2-12.7,13.5-16,20.8c10.7-4.9,23.5-12.5,23.9-17.3c0-0.4,0.1-1.5-2-2.8C840.4,1521.5,839.6,1521.1,838.7,1520.9z"/>
					</g>
				</g>
				<g>
					<g>
						<path class="st15" d="M812.9,1546.9c-3.8-3.7-22.7-22.6-19.8-32.2c0.6-1.8,2.1-4.2,6.4-5c3.6-0.7,6.8,0.2,9.5,2.5
							c9.4,8,8.8,32.3,8.8,33.4l-3.5-0.1L812.9,1546.9z M803.1,1514.1c-0.9-0.2-1.8-0.2-2.7,0c-2.5,0.5-2.8,1.5-2.9,1.9
							c-1.4,4.6,7.7,16.4,15.8,24.8c-0.3-8-1.9-20.8-7.2-25.2C805.2,1514.8,804.2,1514.4,803.1,1514.1z"/>
					</g>
				</g>
				<g>
					<g>
						<path class="st15" d="M779.9,1581.6l-2.8-3.5c2.8-2.2,3.8-6.4,4.5-10.1l0.1-0.4c0.8-4.3,1.6-9.1,4.9-12.7
							c3-3.2,7.2-4.4,11.2-5.6c0.7-0.2,1.4-0.4,2.1-0.6c4.7-1.5,9.1-3.6,13.1-6.4l2.6,3.7c-4.4,3.1-9.2,5.4-14.4,7
							c-0.7,0.2-1.5,0.4-2.2,0.7c-3.6,1-6.9,2-9.1,4.4c-2.4,2.6-3.1,6.5-3.8,10.4l-0.1,0.4C785.2,1573.6,783.8,1578.6,779.9,1581.6z
							"/>
					</g>
				</g>
				<g>
					<g>
						<path class="st15" d="M827.8,1601.1c-3.3-5.4-6.1-11.2-8.2-17.2c-0.5-1.5-1-3.1-1-4.8c0-2,0.7-3.7,1.2-5.3
							c0.3-0.8,0.6-1.5,0.7-2.2c1.1-4.2-0.6-8.9-2.4-13l-0.3-0.8c-2-4.6-4-9.3-3.5-14.6l4.5,0.4c-0.3,4.1,1.5,8.3,3.2,12.4l0.3,0.8
							c2.2,5.1,4,10.5,2.6,15.9c-0.2,0.9-0.6,1.8-0.9,2.7c-0.5,1.3-1,2.6-1,3.7c0,1,0.4,2.2,0.8,3.3c2,5.7,4.6,11.2,7.8,16.3
							L827.8,1601.1z"/>
					</g>
				</g>
			</g>
			<g>
				<g>
					<g>
						<g>
							<g>
								<g>
									<g>
										<g>
											<g>
												<g>
													<g>
														<g>
															<path class="st14" d="M816.4,1580.5c0.1-3.2-2.7-6-5.9-6.2l-19.8-1.3c-0.6,0-1.2-0.5-1.3-1.1l0,0
																c-0.2-0.9,0.4-1.8,1.3-1.8l29.4-1.9c3.4-0.2,5.4-3.1,4.5-6.3l0,0c-0.9-3.3-4.3-5.7-7.7-5.5l-30,2
																c-0.7,0-1.3-0.4-1.5-1.1l-0.1-0.5c-0.2-0.8,0.3-1.6,1-1.8l32.1-8.6c3.1-0.8,5.3-4.1,4.5-7.3
																c-0.8-3.3-4.1-5.3-7.4-4.4l-32.4,8.7c-0.8,0.2-1.6-0.3-1.8-1l-0.4-1.5c-0.2-0.7,0.2-1.4,0.9-1.7l28.7-11.9
																c3-1.2,4.7-4.8,3.6-7.8c-1.2-3.2-4.8-4.7-7.9-3.4c0,0-44.2,15.6-51.4,17.5l13.3-6.2c9.8,9.2-1.3-3.3-9.3-5
																c-8.9-1.8-32.5,20-32.5,20c-1.1,1.9,0,6.1,1.7,9.2c6.6,34.9,7.9,40.2,10.5,49.4l36.3-11.1
																c10.5-3.2,21.4-4.5,32.4-3.7l2.7,0.2C813.4,1586.5,816.3,1583.9,816.4,1580.5z"/>
														</g>
													</g>
												</g>
											</g>
										</g>
									</g>
								</g>
							</g>
						</g>
					</g>
				</g>
			</g>
			<g>
				<g>
					<g>
						<g>
							<g>
								<g>
									<path class="st2" d="M738.6,1522.7c0,0,12,31.2,0.4,92.5l-31.6,2.5l0.6-75.2L738.6,1522.7z"/>
								</g>
							</g>
						</g>
					</g>
				</g>
			</g>
			<g>
				<g>
					<g>
						<g>
							<g>
								<g>
									<g>
										<g>
											<path class="st3" d="M501.5,1516.3c0.1,0.1,0.3,0.1,0.5,0.1c1.8,0,178.2,0.7,235.7,7.4c1.3,3.8,7.1,23.6,4.1,59.3
												c-0.1,0.7,0.4,1.3,1.1,1.3c0.7,0.1,1.3-0.5,1.3-1.1c3.4-40.5-4.2-60.3-4.5-61.2l-0.3-0.7l-0.7-0.1
												c-56.8-6.8-235-7.6-236.8-7.6c-0.7,0-1.2,0.6-1.3,1.2C500.7,1515.6,501,1516.1,501.5,1516.3z"/>
										</g>
									</g>
								</g>
							</g>
						</g>
					</g>
				</g>
			</g>
			<g>
				<g>
					<g>
						<g>
							<g>
								<path class="st3" d="M573.5,1626.4c72,0,160.2-9.3,165.7-9.9c0.8-0.1,1.4-0.8,1.3-1.6c-0.1-0.8-0.8-1.4-1.6-1.3
									c-2,0.2-197.1,20.8-246.2,1.6c-48.4-19-51.8-125.7-51.9-126.8c0-0.8-0.7-1.5-1.5-1.4c-0.8,0-1.4,0.7-1.4,1.5
									c0.1,4.5,3.5,109.7,53.7,129.4C507.8,1624.3,538.7,1626.4,573.5,1626.4z"/>
							</g>
						</g>
					</g>
				</g>
			</g>
			<g>
				<polygon class="st8" points="754.9,1533.4 755.7,1522.4 758.1,1510.4 774.8,1515.4 773.8,1527.2 				"/>
			</g>
		</g>
		<g>
			<g>
				<g>
					<g>
						<g>
							<g>
								<path class="st21" d="M770.8,1644.5c-12.6-7.8-1.4-11.4-1.4-11.4c-6.3-4.9-5.5-7.8-3.8-9.4c1.3-1.2,3.1-1.6,4.8-1.2
									c5.4,1.1,21.8,4.6,31.9,7.3c6.6-1.6,2.6-12.5-1.4-17.8c-2-2.7-3-7.6,5.1-3.9c6.6,3,17.7,14.9,17.7,14.9l36.6-9.8l3.1,52.2
									c0,0-42.6,6.5-49,7.6c-6.4,1-29.1-2.7-36.5-7.2c-13.5-8.3-6.2-10-6.2-10C758.6,1645.9,770.8,1644.5,770.8,1644.5z"/>
							</g>
						</g>
					</g>
				</g>
			</g>
		</g>
		<g>
			<g>
				<g>
					<g>
						<path class="st22" d="M783.8,1639.2c0.1-0.1,0.2-0.2,0.2-0.3c0.1-0.5-0.1-0.9-0.6-1c-5.7-1.6-13.9-5.8-14.2-5.9
							c-0.4-0.2-0.9,0-1.1,0.4c-0.2,0.4-0.1,0.9,0.4,1.1c0.4,0.2,8.7,4.5,14.5,6.1C783.3,1639.5,783.6,1639.4,783.8,1639.2z"/>
					</g>
				</g>
			</g>
			<g>
				<g>
					<g>
						<path class="st22" d="M784.7,1650.3c0.1-0.1,0.2-0.2,0.2-0.4c0.1-0.5-0.2-0.9-0.7-1c-6.9-1.4-13-5-13.3-5.2l-0.9,1.5
							c0.7,0.4,6.8,3.9,13.8,5.4C784.2,1650.7,784.5,1650.6,784.7,1650.3z"/>
					</g>
				</g>
			</g>
			<g>
				<g>
					<g>
						<path class="st22" d="M785,1661c0.1-0.1,0.2-0.3,0.2-0.4c0.1-0.5-0.2-0.9-0.7-1c-6.5-1.1-12.3-4.5-12.3-4.5
							c-0.4-0.2-0.9-0.1-1.2,0.3c-0.2,0.4-0.1,0.9,0.3,1.2c0.1,0,6.1,3.6,12.9,4.7C784.5,1661.4,784.8,1661.3,785,1661z"/>
					</g>
				</g>
			</g>
		</g>
		<g>
			<g>
				<path class="st21" d="M823.7,1623.1l105.8-36.4l19.4-58.5c15.8,9.8,42.9,24,72.2,28.2c-8.1,25.9-28,83.9-47.4,98
					c-25.2,18.3-161.4,18.8-161.4,18.8L823.7,1623.1z"/>
			</g>
		</g>
		<g>
			<path d="M747.9,1479.6c-0.5-0.3-13-7.8-13.1-29.6c-0.1-21.9,11.9-45.3,15.5-52c0.3-0.6,0.6-1.1,0.7-1.3l2.7-28.3
				c0.2-0.8,5.7-18.5,26.2-25.4l0.7,2.2c-18.6,6.2-24.2,22.3-24.7,23.7l-2.7,28.5l-0.1,0.2c0,0-0.3,0.5-0.8,1.5
				c-3.6,6.5-15.3,29.5-15.2,50.9c0.1,20.4,11.8,27.5,11.9,27.6L747.9,1479.6z"/>
		</g>
	</g>
	<g>
		<g>
			<g>
				<path class="st24" d="M564.5,1037.6c-11.1-4-14.3,8-15,11c-2.1-2.2-11.3-10.6-18.5-1.3c-9.8,12.6,15.2,31.5,28.5,35.7l0,0
					C568.5,1072.3,579.5,1043,564.5,1037.6z"/>
			</g>
		</g>
	</g>
	<g>
		<g>
			<g>
				<path class="st24" d="M688.6,1109.5c-7.8-13-20.7-3.7-23.8-1.2c-0.3-3.9-2.6-19.7-17.4-16.2c-19.9,4.6-10.4,43.6-0.5,58.5l0,0
					C664.5,1147.4,699.2,1127,688.6,1109.5z"/>
			</g>
		</g>
	</g>
	<g>
		<g>
			<rect x="457.6" y="2230.6" width="2213.2" height="10.9"/>
		</g>
	</g>
	<g>
		<g>
			<path class="st25" d="M1404,682.4c-42-2.4-140.5-6.6-226.1,0.6c-35.4,3-66-25.3-65.2-60.8c0.3-14.5,5.5-31.5,19-50.6
				c52-73.8,142.4-3.3,141.5,34.2c0,0,18.3-56.4,73.8-46.6c55.5,9.9,35.9,92,35.9,92s17.9-3.8,30.3,4.7
				C1425.3,664.1,1418.7,683.2,1404,682.4z"/>
		</g>
	</g>
	<g>
		<g>
			<path class="st25" d="M545.1,920.7c34-1.8,150.4-6.7,230,5.1c10.3,1.5,16.9-10.8,9.8-18.5c-4.2-4.5-11.3-8.1-23.3-8.9
				c0,0,4.1-74.3-52-79.3c-64.4-5.6-65.2,67.4-65.2,67.4s-29.3-27.8-50.4,7.4c0,0-36.5-21.1-54.9,17.9
				C537.1,916.1,540.4,920.9,545.1,920.7z"/>
		</g>
	</g>
	<g>
		<path class="st8" d="M1184.4,2036c-13.3,7.4-27.3,11.2-42.1,11.2c-9.4,0-17.7-1.6-25.2-4.8c-7.4-3.2-13.8-7.7-19-13.4
			c-5.2-5.7-9.2-12.6-12-20.5c-2.8-7.9-4.2-16.7-4.2-26.2c0-6.3,0.7-12.4,2-18.2c1.3-5.8,3.3-11.3,5.9-16.4
			c2.6-5.1,5.8-9.7,9.6-13.9c3.8-4.1,8.1-7.7,13-10.7c4.9-3,10.3-5.3,16.1-6.9c5.9-1.6,12.2-2.4,19-2.4c12.8,0,24.2,2.3,34.2,6.8
			v13.2c-11-6.1-22.9-9.2-35.6-9.2c-7.9,0-15,1.4-21.3,4.3c-6.4,2.9-11.8,6.8-16.2,11.9c-4.5,5-7.9,11-10.4,17.9
			c-2.5,6.9-3.7,14.3-3.8,22.3c-0.1,8,1,15.3,3.1,22.1c2.1,6.7,5.3,12.6,9.5,17.5c4.2,4.9,9.4,8.8,15.6,11.5
			c6.2,2.8,13.3,4.1,21.4,4.1c10.9,0,20.4-2.3,28.4-6.8v-39.3h-29.3v-10.9h41.3L1184.4,2036L1184.4,2036z"/>
		<path class="st8" d="M1226.2,2044.9h-12v-129h12V2044.9z"/>
		<path class="st8" d="M1271.7,1926.9v48.6h47.1v10.9h-47.1v58.5h-12v-129h62.9v11H1271.7z"/>
		<path class="st8" d="M1385.7,1926.9v118h-12v-118h-37.1v-11h86.3v11H1385.7z"/>
		<path class="st8" d="M1581.3,2040.1c-10,4.7-21.3,7-34.1,7c-9.1,0-17.4-1.6-24.8-4.8c-7.4-3.2-13.8-7.7-19-13.4
			c-5.2-5.7-9.3-12.5-12.1-20.3c-2.8-7.9-4.3-16.4-4.3-25.7c0-9.8,1.5-18.9,4.5-27.3c3-8.4,7.4-15.7,13-21.9
			c5.6-6.2,12.5-11.1,20.5-14.6c8-3.5,17-5.3,26.9-5.3c11,0,20.8,1.7,29.4,5v12.8c-9.2-4.6-19.1-6.9-29.6-6.9
			c-8.3,0-15.7,1.4-22.2,4.3c-6.5,2.9-11.9,6.9-16.4,12c-4.4,5.1-7.8,11.2-10.2,18.2c-2.3,7-3.5,14.6-3.5,22.9c0,7.4,1,14.4,3.1,21
			c2.1,6.6,5.2,12.3,9.3,17.2c4.1,4.9,9.2,8.8,15.3,11.7c6.1,2.9,13.2,4.3,21.3,4.3c12.4,0,23.3-2.6,32.7-7.8L1581.3,2040.1
			L1581.3,2040.1z"/>
		<path class="st8" d="M1692.4,2044.9l-14.2-38.1h-55.3l-13.9,38.1h-13.3l49.1-129h12.1l48.8,129H1692.4z M1653.1,1938.5
			c-0.4-1.1-0.9-2.5-1.3-4c-0.4-1.5-0.8-3.2-1.1-5.1h-0.4c-0.4,1.9-0.8,3.6-1.2,5.1c-0.4,1.5-0.9,2.8-1.3,4l-20.9,57.4h47.2
			L1653.1,1938.5z"/>
		<path class="st8" d="M1796.3,2044.9l-19.4-37c-1.9-3.7-3.8-6.7-5.6-9.2c-1.8-2.5-3.7-4.4-5.6-5.9c-1.9-1.5-4-2.5-6.2-3.1
			c-2.2-0.6-4.6-0.9-7.3-0.9H1738v56.1h-12v-129h37.1c4.9,0,9.5,0.7,14.1,2.2c4.5,1.4,8.6,3.6,12.1,6.4c3.5,2.8,6.4,6.4,8.5,10.6
			c2.1,4.3,3.2,9.2,3.2,14.8c0,4.6-0.7,8.8-2.1,12.6c-1.4,3.8-3.3,7.2-5.9,10.2c-2.5,3-5.6,5.5-9.3,7.6c-3.6,2.1-7.7,3.6-12.3,4.6
			v0.4c1.7,0.7,3.3,1.6,4.8,2.8c1.4,1.1,2.8,2.5,4.2,4.1c1.3,1.6,2.7,3.5,4,5.6c1.3,2.1,2.7,4.5,4.1,7.2l21.7,39.9L1796.3,2044.9
			L1796.3,2044.9z M1738,1926.9v51h21.4c4.3,0,8.3-0.6,11.9-1.9c3.6-1.3,6.7-3.1,9.2-5.4c2.5-2.3,4.5-5.2,5.9-8.5
			c1.4-3.3,2.1-7,2.1-11.2c0-7.5-2.4-13.4-7.2-17.7c-4.8-4.3-11.8-6.4-20.9-6.4L1738,1926.9L1738,1926.9z"/>
		<path class="st8" d="M1832.2,2044.9v-129h33.9c22.1,0,38.7,5.3,50,15.9c11.3,10.6,16.9,26.2,16.9,46.9c0,10-1.6,19-4.7,27.2
			c-3.1,8.2-7.7,15.1-13.6,20.9c-5.9,5.8-13.1,10.3-21.6,13.4c-8.5,3.1-18,4.7-28.6,4.7L1832.2,2044.9L1832.2,2044.9z
			 M1844.2,1926.9V2034h19.8c8.9,0,16.8-1.2,23.8-3.6c7-2.4,12.9-5.9,17.8-10.6c4.9-4.6,8.6-10.4,11.1-17.2
			c2.5-6.8,3.8-14.7,3.8-23.6c0-34.8-18.4-52.2-55.1-52.2H1844.2z"/>
	</g>
</g>
</svg>
