<?xml version="1.0" encoding="utf-8"?>
<!-- Generator: Adobe Illustrator 27.3.1, SVG Export Plug-In . SVG Version: 6.00 Build 0)  -->
<svg version="1.1" id="Layer_1" xmlns="http://www.w3.org/2000/svg" xmlns:xlink="http://www.w3.org/1999/xlink" x="0px" y="0px"
	 viewBox="0 0 2233.1 350" style="enable-background:new 0 0 2233.1 350;" xml:space="preserve">
<style type="text/css">
	.st0{fill:#FFFFFF;}
</style>
<g id="Artwork">
	<path class="st0" d="M268.6,89.6c-0.6-0.5-1.4-0.9-2.1-1.3c-0.1,0-0.2,0-0.3-0.2c0,0-0.1,0-0.1-0.1l0,0c-0.2-0.1-0.4-0.2-0.5-0.3
		c-0.4-0.3-0.9-0.6-1.4-0.8c-1.2-0.7-2.3-1.4-3.5-2c-0.4-0.3-0.7-0.5-1.1-0.7c-1.2-0.7-2.4-1.5-3.7-2.1c-0.5-0.4-1.1-0.7-1.6-1
		c-1.3-0.8-2.6-1.6-4-2.3c-0.1,0-0.2,0-0.3-0.1c-0.1,0-0.1-0.1-0.2-0.1l-0.1-0.1c-1.6-1-3.2-1.9-4.8-2.8c-0.6-0.4-1.3-0.8-2-1.1
		c-0.5-0.4-1.1-0.7-1.7-1c-0.1,0-0.2,0-0.3-0.1c-0.8-0.6-1.7-1-2.6-1.5c-0.7-0.4-1.4-0.8-2.1-1.1c-0.2-0.2-0.5-0.4-0.8-0.5
		c-7.4-4.3-14.8-8.5-22.2-12.8c-16.4-9.7-32.8-19.3-49.2-28.9c-0.8-0.5-1.6-0.8-2.5-1v-0.1h-1.4c0,0,0,0.1,0,0.1
		c-1.1,0.3-2.2,0.7-3.2,1.3c-4.3,2.5-8.6,5-12.9,7.5c-15.9,9.2-31.8,18.4-47.7,27.6c-17.5,10.1-35,20.2-52.5,30.3
		c-2.5,1.5-5.1,2.9-7.6,4.4c-2,1.1-3.4,2.6-3.8,5c-0.2,0.1,0,0.4-0.3,0.6v3.5c0.2,0.2,0.1,0.5,0.1,0.7v6.6c0,0.2-0.1,0.5,0.1,0.7
		c0,0.3,0,0.6,0,0.8v20.6c0,1.9,0.2,3.7,0.5,5.5c0,0.2,0,0.4,0.2,0.5c0.1,0,0.2-0.1,0.3-0.1c1.6-0.9,3.3-1.8,4.9-2.7
		c15.5-8.9,31-17.9,46.4-26.8c12.1-7,24.3-14,36.4-21c11.9-6.9,23.8-13.8,35.7-20.7c0.7-0.4,1.4-0.7,2.1-1c0.8-0.3,1.7-0.4,2.6-0.2
		c1,0.2,1.9,0.6,2.8,1.2c1.8,1.2,3.7,2.3,5.6,3.4c8.6,4.9,17.1,9.8,25.7,14.8c0.2,0.1,0.4,0.2,0.6,0.4c-0.1,0.2-0.2,0.2-0.3,0.3
		c-1.4,0.8-2.8,1.7-4.2,2.5c-8.9,5.2-17.9,10.3-26.8,15.5c-18.1,10.5-36.2,20.9-54.3,31.4c-11.2,6.4-22.3,12.9-33.5,19.3l-34.9,20.1
		c-2,1.2-4.1,2.3-6.1,3.5c-2,1.2-3.4,2.9-3.7,5.3c-0.2,0.1-0.1,0.4-0.3,0.6v7.5c0,0,0,0,0,0c0,0,0.1,0,0.1,0h-0.1v48.4
		c0.3,0.2,0,0.6,0.3,0.9c0.3,2.4,1.7,4.1,3.8,5.3l0.2,0.1c2.9,1.6,5.8,3.3,8.7,4.9c1.1,0.6,2.2,1.3,3.3,1.9c0,0,0,0,0,0
		c0.1,0,0.2,0.1,0.2,0.2l0.1,0.1c0,0,0.1,0.1,0.1,0c0.1,0,0.1,0.1,0.2,0.1h0c0.1,0,0.2,0.1,0.2,0.2c0.1,0,0.2,0,0.3,0.2
		c1.1,0.7,2.2,1.4,3.4,2c1.7,1,3.3,2,5.1,3c1.8,1.1,3.5,2.1,5.4,3.1c0.1,0.1,0.1,0.1,0.2,0.2c1.8,1,3.6,2,5.4,3
		c0.1,0.1,0.2,0.1,0.3,0.1c0.1-0.3,0.2-0.6,0.1-0.9c0.1-0.9,0.1-1.9,0.2-2.8c0.1-1.9,0.2-3.9,0.1-5.9c0.1-1.4,0-2.8,0-4.2
		c0.1-0.2,0.1-0.5,0.1-0.8v-8c0-8.5,0-16.9-0.1-25.4c0-1.2,0-2.5,0-3.7c0-2.4,0-4.8,0-7.3c0-2.6,1-4.7,3.2-6.1
		c0.5-0.3,1-0.6,1.5-0.9c8.6-4.9,17.1-9.8,25.7-14.8c13.3-7.7,26.6-15.3,40-23c1.1-0.6,2.2-1.2,3.3-1.9c0,0,0,0,0,0
		c0.1-0.1,0.2-0.1,0.3-0.1c0.1-0.1,0.2-0.2,0.3-0.2c0-0.1,0.1-0.1,0.2-0.1c0,0,0.1,0,0.1,0c0,0,0.1-0.1,0.1-0.1
		c0-0.1,0.1-0.2,0.2-0.2c0,0,0,0,0,0c0.1,0,0.2,0,0.2-0.1c0,0,0,0,0,0l0,0c0,0,0.1-0.1,0.1-0.1c0-0.1,0.1-0.1,0.2-0.1h0
		c0.1-0.1,0.2-0.2,0.3-0.2c0-0.1,0.1-0.1,0.1-0.1c0,0,0,0,0.1,0c0,0,0.1,0,0.1,0c0,0,0.1-0.1,0.1-0.1c0-0.1,0.2-0.2,0.3-0.2
		c0-0.1,0.2-0.2,0.3-0.1l0,0c0,0,0.1-0.1,0.1-0.1h0c0.2-0.1,0.4-0.1,0.6-0.3c3.5-2,6.9-4,10.4-6c1.1-0.6,2.2-1.2,3.3-1.9
		c0.1-0.1,0.1-0.1,0.2-0.1h0c0-0.1,0.1-0.1,0.2-0.1c0,0,0.1,0,0.1,0l0.1-0.1c0-0.1,0.2-0.2,0.3-0.2c0.1-0.1,0.2-0.2,0.3-0.1
		c0.1-0.1,0.1-0.1,0.2-0.1c0,0,0.1,0,0.1,0l0.1-0.1c0-0.1,0.2-0.2,0.3-0.2c0-0.1,0.1-0.1,0.1-0.1h0.1l0,0c0.1-0.1,0.1-0.1,0.2-0.1
		c0,0,0.1,0,0.1,0l0.1-0.1c0-0.1,0.2-0.2,0.3-0.2c0-0.1,0.1-0.1,0.2-0.1c0,0,0.1,0,0.1,0c0,0,0.1-0.1,0.2-0.1c1-0.5,2-1.1,2.9-1.7
		c0-0.1,0.1-0.2,0.2-0.2h0c0,0,0,0,0,0l0,0c0,0,0.1-0.1,0.1-0.1c0,0,0.1,0,0.1,0l0.1-0.1c0-0.1,0.2-0.2,0.3-0.2
		c0.1-0.1,0.2-0.2,0.3-0.2c0.1,0,0.1-0.1,0.2-0.1c0-0.1,0.1-0.1,0.2-0.1h0c0.1-0.1,0.2-0.2,0.3-0.2c0.1-0.1,0.2-0.2,0.3-0.1
		c0.1,0,0.1-0.1,0.2-0.1c0-0.1,0.1-0.2,0.3-0.2h0c0.1-0.1,0.2-0.2,0.3-0.2c0-0.1,0.1-0.1,0.1-0.1h0.1l0,0c0,0,0.1-0.1,0.1-0.1
		c0-0.1,0.1-0.2,0.2-0.2c0,0,0,0,0,0c0-0.1,0.2-0.2,0.3-0.1c0,0,0,0,0,0l0,0c0,0,0.1-0.1,0.1-0.1c0,0,0.1,0,0.1,0
		c0,0,0.1-0.1,0.1-0.1c0-0.1,0.2-0.2,0.3-0.2c0.1-0.1,0.2-0.2,0.3-0.2c0-0.1,0.1-0.1,0.2-0.1c0,0,0,0,0,0c0,0,0.1,0,0.1,0
		c0,0,0.1-0.1,0.1-0.1c0-0.1,0.2-0.2,0.3-0.2c0.1-0.1,0.2-0.2,0.3-0.2c0.1,0,0.1-0.1,0.2-0.1c0-0.1,0.1-0.2,0.2-0.2h0
		c0.1-0.1,0.2-0.2,0.3-0.1c0,0,0,0,0,0c0,0,0,0,0,0c0,0,0,0,0.1,0h0.1l0,0c0,0,0.1-0.1,0.2-0.1c0-0.1,0.1-0.1,0.3-0.1
		c0-0.1,0.2-0.2,0.3-0.1c0-0.1,0.1-0.1,0.2-0.1c0,0,0.1,0,0.1,0c0,0,0.1-0.1,0.1-0.1v-0.2h0.3c0.1-0.1,0.2-0.2,0.3-0.2
		c0,0,0.1-0.1,0.2-0.1c0-0.1,0.2-0.2,0.3-0.2c0-0.1,0.2-0.2,0.3-0.1c0-0.1,0.1-0.1,0.1-0.1h0.1l0,0c0-0.1,0.1-0.1,0.2-0.1
		c0.2-0.1,0.3-0.1,0.4-0.2c4.4-2.6,8.7-5.1,12.9-7.6c1.2-0.7,2.3-1.3,3.4-2c0-0.1,0.1-0.1,0.2-0.1c0,0,0,0,0,0c0.1,0,0.2,0,0.2-0.1
		h0l0,0c0,0,0.1-0.1,0.1-0.1c0-0.1,0.1-0.1,0.2-0.1h0c0.1-0.1,0.2-0.2,0.3-0.2c0,0,0,0,0,0c0,0,0,0,0,0c0,0,0.1-0.1,0.1-0.1
		c0.2-0.1,0.4-0.2,0.6-0.3c5.8-3.4,11.6-6.7,17.4-10.1c1.1-0.6,2.2-1.2,3.2-1.9c0-0.1,0.1-0.1,0.2-0.1c0,0,0,0,0,0
		c0-0.1,0.1-0.1,0.1-0.1h0.1l0,0c0,0,0.1-0.1,0.1-0.1c0-0.1,0.1-0.1,0.3-0.1h0c0.1-0.1,0.2-0.2,0.3-0.2c0,0,0,0,0,0
		c0,0,0.1-0.1,0.1-0.1c0,0,0.1,0,0.1,0c0,0,0.1-0.1,0.1-0.1c0-0.1,0.2-0.2,0.3-0.2c0.1-0.1,0.2-0.2,0.3-0.1c0-0.1,0.1-0.1,0.2-0.1
		c0,0,0.1,0,0.1,0c0,0,0.1-0.1,0.1-0.1c0-0.1,0.1-0.2,0.2-0.2c0,0,0,0,0,0c0-0.1,0.2-0.2,0.3-0.2c0.1-0.1,0.1-0.1,0.2-0.1
		c0.1-0.1,0.3-0.1,0.4-0.2c3.7-2.1,7.4-4.3,11.2-6.5c0.9-0.5,1.8-1,2.6-1.5c0,0,0,0,0-0.1c0,0,0.1-0.1,0.2-0.1c0,0,0.1,0,0.1,0
		c0,0,0.1-0.1,0.1-0.1c0-0.1,0.2-0.1,0.3-0.1c0.1-0.1,0.2-0.2,0.3-0.2c0-0.1,0.1-0.1,0.2-0.1c0,0,0.1,0,0.1,0c0,0,0.1-0.1,0.1-0.1
		c0-0.1,0.2-0.2,0.3-0.2c0.1-0.1,0.2-0.2,0.3-0.2c0.1,0,0.1-0.1,0.2-0.1c0-0.1,0.1-0.1,0.2-0.1h0c0-0.1,0.2-0.2,0.3-0.1
		c0-0.1,0.1-0.1,0.1-0.1c0,0,0,0,0.1,0h0l0,0c0-0.1,0.1-0.1,0.2-0.1c0.2-0.1,0.3-0.1,0.4-0.2c3.7-2.1,7.3-4.2,11-6.3
		c1.2-0.7,2.5-1.4,3.7-2.2c0,0,0-0.1,0.1-0.1c0.1,0,0.1,0,0.2,0c0-0.1,0.2-0.2,0.3-0.2c0-0.1,0.1-0.1,0.1-0.1c0,0,0,0,0.1,0h0l0,0
		c0,0,0.1-0.1,0.1-0.1c0.1,0,0.2-0.1,0.3-0.2c0.1,0,0.2-0.1,0.3-0.2c0-0.1,0.1-0.1,0.2-0.1c0,0,0.1,0,0.1,0c0.1,0,0.1-0.1,0.1-0.1
		c0.1,0,0.2-0.1,0.3-0.2c0.1,0,0.2,0,0.2-0.1l0,0c0,0,0,0,0,0c0,0,0.1-0.1,0.1-0.1c0-0.1,0.1-0.2,0.2-0.2h0c0.1,0,0.2-0.1,0.3-0.2
		c0,0,0,0,0,0c0,0,0.1-0.1,0.1-0.1c0.1,0,0.2-0.1,0.3-0.1l14-8.1c0.1-0.1,0.2-0.1,0.2-0.3C269.7,90.4,269.2,90,268.6,89.6z
		 M69.8,243.4c-0.1,0.1-0.1,0.1-0.2,0.2v-0.2C69.7,243.4,69.8,243.4,69.8,243.4z M239.6,234.3l0.4-0.2
		C239.8,234.1,239.7,234.2,239.6,234.3z M289,205.8v39.4l0,0c-0.1,0.1-0.1,0.3-0.1,0.4v0.1c-0.1,1.4-0.7,2.8-1.7,3.8
		c-0.8,0.8-1.7,1.5-2.7,2c-7.3,4.2-14.6,8.4-21.9,12.6c-11.9,6.9-23.8,13.7-35.7,20.6c-0.2,0.2-0.5,0.3-0.8,0.4
		c-0.1,0.1-0.3,0.2-0.5,0.3l-21.3,12.3c-0.1,0.1-0.3,0.1-0.4,0.2c-0.1,0-0.2,0-0.3,0.2c-0.1,0-0.1,0-0.2,0.1l0,0h-0.1
		c-0.1,0-0.1,0-0.1,0.1c0,0,0,0,0,0c-0.1,0-0.2,0-0.3,0.2h0c-0.1,0-0.2,0-0.2,0.2c-0.1,0-0.1,0.1-0.2,0.1c-0.1,0-0.2,0-0.3,0.1
		c-0.1,0-0.2,0-0.3,0.2c-0.1,0-0.2,0-0.3,0.2h0c0,0-0.1,0-0.1,0.1c0,0,0,0,0,0c-0.1,0-0.2,0-0.3,0.2h0c-0.1,0-0.2,0-0.2,0.2
		c0,0-0.1,0-0.1,0.1l0,0l0,0h-0.1c0,0-0.1,0-0.1,0l0,0c0,0,0,0,0,0c-0.5,0.3-1,0.6-1.5,0.9c-3.4,2-6.8,3.9-10.2,5.9
		c-0.2,0.1-0.4,0.2-0.6,0.3c-0.1,0-0.2,0-0.2,0.1c-0.1,0-0.2,0-0.3,0.1c-0.1,0-0.2,0-0.3,0.2c-0.1,0-0.1,0-0.2,0.1l0,0h0
		c0,0,0,0-0.1,0c-0.1,0-0.1,0.1-0.1,0.1c-0.1,0.1-0.2,0.2-0.3,0.2h0c-0.1,0-0.2,0-0.2,0.2c-0.1,0-0.1,0-0.2,0.1h0
		c-0.1,0-0.2,0.1-0.2,0.1c-0.1,0-0.2,0-0.3,0.2c-0.1,0.1-0.2,0.2-0.3,0.2h0c-0.1,0-0.1,0-0.1,0.1c-0.1,0-0.2,0-0.3,0.2h0
		c-0.1,0-0.2,0-0.2,0.2c-0.1,0-0.1,0-0.2,0.1l0,0h0c0,0,0,0-0.1,0c-0.1,0-0.1,0.1-0.1,0.1c0,0,0,0,0,0c-0.1,0-0.2,0.1-0.2,0.2
		c-0.1,0-0.2,0-0.3,0.2c-0.1,0-0.1,0-0.2,0.1c-0.1,0-0.2,0-0.3,0.2c-0.1,0-0.2,0-0.3,0.2c-0.1,0-0.2,0-0.3,0.2h-0.1
		c-0.1,0-0.1,0.1-0.1,0.1h0c-0.1,0-0.2,0.1-0.2,0.1c-0.1,0.1-0.2,0.2-0.4,0.3l-13.7,8c-0.1,0.1-0.3,0.1-0.4,0.2
		c-0.1,0-0.2,0-0.3,0.2c-0.1,0-0.2,0-0.3,0.2c-0.1,0-0.2,0-0.3,0.2h0c-0.1,0-0.1,0.1-0.1,0.1c-0.1,0-0.2,0-0.3,0.2h0
		c-0.1,0-0.2,0-0.2,0.2c-0.1,0-0.1,0.1-0.2,0.1c-0.1,0-0.2,0.1-0.3,0.2c-0.1,0-0.2,0-0.3,0.2c-0.1,0-0.2,0-0.3,0.2h0
		c0,0-0.1,0-0.1,0.1c0,0,0,0,0,0c-0.1,0-0.2,0.1-0.3,0.2c-0.1,0-0.2,0-0.3,0.2c-0.1,0-0.2,0-0.3,0.1h-0.2c0,0,0,0-0.1,0h0
		c0,0,0,0,0,0c0,0,0,0,0,0c0,0-0.1,0-0.1,0c-0.6,0.4-1.3,0.7-2,0.8h-0.3c-0.2,0-0.4-0.1-0.6,0.1h-1.1c-0.2-0.2-0.4-0.1-0.6-0.1h-0.3
		c-1.4-0.4-2.8-1.1-4-2c-1.5-0.8-2.9-1.7-4.4-2.6c0,0-0.1-0.1-0.1-0.1c0-0.1-0.2-0.2-0.3-0.2c-0.1-0.1-0.1-0.2-0.3-0.2h0
		c-0.1,0-0.1-0.1-0.2-0.1c-0.7-0.3-1.3-0.7-2-1.1c-0.7-0.3-1.3-0.7-2-1.1c-0.4-0.2-0.8-0.4-1.1-0.7c0-0.1-0.2-0.2-0.3-0.2
		c0-0.1-0.1-0.1-0.1-0.1c0,0,0,0-0.1,0h0l0,0c0-0.1-0.1-0.1-0.2-0.1c0-0.1-0.2-0.2-0.3-0.2c0-0.1-0.1-0.1-0.2-0.1h0
		c-0.1,0-0.1,0-0.2-0.1c0-0.2-0.1-0.2-0.3-0.2c-0.1,0-0.2-0.1-0.3-0.2c-0.7-0.4-1.5-0.8-2.1-1.2c-0.5-0.2-0.9-0.4-1.3-0.7
		c0-0.1-0.1-0.2-0.2-0.2h0c-0.1,0-0.1-0.1-0.2-0.1c0-0.2-0.2-0.2-0.3-0.2c0-0.1-0.1-0.2-0.2-0.2h0c-1.5-0.8-3-1.7-4.5-2.6
		c-1.2-0.6-2.4-1.3-3.6-2c-0.8-0.4-1.6-0.9-2.3-1.4c-1.1-0.5-2.2-1.2-3.3-1.8c-0.6-0.3-1.2-0.6-1.7-1c-1.1-0.5-2.1-1.2-3.2-1.8
		c-0.6-0.3-1.2-0.7-1.7-1c-0.6-0.3-1.3-0.6-1.8-1c-1.5-0.8-3-1.6-4.4-2.5c-1.4-0.7-2.8-1.5-4-2.4c-0.7-0.5-1.2-1.1-1.6-1.8
		c-0.6-0.9-0.9-2-0.9-3.1c-0.1-1.5,0-3,0-4.5c0-0.1,0-0.1,0.1-0.2c-0.1-1,0-1.9,0-2.9c0-1.2,0-2.4,0-3.6c0-0.2,0-0.4,0-0.6
		c0-0.1,0-0.3,0-0.4v-14.5c0-0.2,0.1-0.4,0-0.5c0-0.1,0-0.3,0-0.4V249c0-0.2,0-0.4,0.1-0.6c0.1,0,0.2,0,0.3,0.1
		c2.5,1.3,5,2.6,7.4,4.1c0.1,0,0.1,0.1,0.2,0.1c1.1,0.5,2.2,1.2,3.3,1.8c0.7,0.4,1.4,0.8,2.1,1.3c1.1,0.5,2.2,1.2,3.2,1.8
		c0.5,0.2,1,0.5,1.4,0.9c1.4,0.7,2.8,1.5,4.2,2.4c1.8,0.9,3.5,2,5.2,3c0.1,0,0.1,0.1,0.1,0.1c0,0.1,0.1,0.1,0.2,0.1h0
		c0,0.1,0.1,0.1,0.2,0.1c0,0,0,0,0,0c0,0,0.1,0,0.1,0c0,0,0.1,0.1,0.1,0.1c0.1,0,0.2,0.1,0.3,0.2c1.4,0.7,2.7,1.5,4,2.3
		c0.3,0.1,0.6,0.3,0.9,0.6c1.5,0.8,3,1.7,4.5,2.6c0.6,0.3,1.2,0.7,1.7,1c1.6,0.8,3.1,1.8,4.7,2.7c0.1,0,0.1,0.1,0.2,0.1
		c1.6,0.9,3.2,1.8,4.8,2.8c0.1,0,0.2,0.1,0.3,0.2c0.1,0,0.1,0.1,0.2,0.1c0,0.1,0.1,0.2,0.3,0.2c0.1,0,0.2,0.1,0.3,0.2
		c0.5,0.2,1,0.5,1.4,0.8c0.8,0.5,1.7,0.8,2.7,1c0.8,0.1,1.5-0.1,2.3-0.2c2.5-1.1,4.7-2.6,7.1-3.9c2.7-1.6,5.4-3.2,8.2-4.7
		c0.2-0.1,0.4-0.2,0.6-0.3c1.6-1,3.3-1.9,5-2.9c1.2-0.7,2.3-1.4,3.5-2h0c0.1,0,0.2,0,0.2-0.2c0,0,0,0,0,0c0,0,0,0,0.1,0l0,0
		c0,0,0,0,0-0.1h0c0.1,0,0.2-0.1,0.2-0.2c0.1-0.1,0.2-0.2,0.3-0.2c0.1,0,0.1-0.1,0.2-0.1c0,0,0,0,0,0c0,0,0,0,0.1,0c0,0,0,0,0.1,0
		c0.1,0,0.1-0.1,0.1-0.1h0c0.1,0,0.2-0.1,0.2-0.2h0c0.1,0,0.2,0,0.2-0.2c0-0.1,0.1-0.1,0.2-0.1h0c0.1,0,0.2-0.1,0.3-0.2
		c0.1,0,0.2,0,0.3-0.2c0.1-0.1,0.2-0.2,0.3-0.2h0c0,0,0.1,0,0.1,0c0,0,0,0,0-0.1c0.1,0,0.2,0,0.3-0.2h0c0.1,0,0.2,0,0.3-0.2
		c0-0.1,0.1-0.1,0.1-0.1h0c0.1,0,0.2-0.1,0.3-0.2c0.1,0,0.2,0,0.3-0.2c0.1,0,0.2,0,0.3-0.2c1-0.7,2-1.3,3.1-1.8
		c0.5-0.3,1-0.6,1.5-0.9c3-1.8,6.1-3.5,9.1-5.3c0.2-0.1,0.5-0.2,0.7-0.4c0.3-0.2,0.6-0.4,1-0.6c2.2-1.3,4.4-2.5,6.5-3.8
		c0.2-0.1,0.4-0.2,0.6-0.3c0.1,0,0.1-0.1,0.2-0.1c0,0,0,0,0.1,0c0,0,0,0,0.1,0c0.1,0,0.1-0.1,0.1-0.1c0.1,0,0.2,0,0.3-0.2h0
		c0.1,0,0.2,0,0.2-0.1c0.1,0,0.1,0,0.2-0.1l0,0h0c0-0.1,0.1-0.1,0.2-0.1c0,0,0,0,0,0c0.1,0,0.2-0.1,0.2-0.2h0c0.1,0,0.2,0,0.2-0.2
		c0.1,0,0.1-0.1,0.2-0.1c0.1,0,0.2-0.1,0.3-0.2c0,0,0,0,0,0c0.1,0,0.2-0.1,0.2-0.2c0.1,0,0.2,0,0.3-0.2c0.1,0,0.1,0,0.2-0.1
		c0.1,0,0.2,0,0.3-0.2c0.1,0,0.2,0,0.3-0.2c0.1,0,0.2,0,0.3-0.2h0c0.1,0,0.1-0.1,0.1-0.1c0.1,0,0.2,0,0.3-0.2h0c0.1,0,0.2,0,0.2-0.2
		c0.1,0,0.1,0,0.2-0.1l0,0h0c0,0,0,0,0.1,0c0.1,0,0.1-0.1,0.2-0.1c0.1,0,0.2,0,0.3-0.2c0.1,0,0.2,0,0.3-0.2c0.1,0,0.1-0.1,0.2-0.1h0
		c0.1,0,0.2-0.1,0.3-0.2c0.1-0.1,0.1-0.2,0.3-0.2h0c0.1,0,0.2,0,0.3-0.2c0.1,0,0.1,0,0.2-0.1c0.1,0,0.2,0,0.3-0.2
		c0.1-0.1,0.2-0.2,0.3-0.2c0.4-0.3,0.8-0.5,1.2-0.7c5.6-3.2,11.2-6.5,16.8-9.7h0l0.7-0.4l0.4-0.2c0.1,0,0.1-0.1,0.2-0.1
		c0.3-0.2,0.6-0.4,0.9-0.6l0.9-0.5l0.1-0.1c0.4-0.2,0.8-0.4,1.2-0.7c1.3-0.8,2.6-1.5,3.9-2.2c0.2-0.1,0.4-0.2,0.6-0.4L289,205.8z
		 M240,234l-0.4,0.2C239.7,234.2,239.8,234.1,240,234z M216.7,136.6v6.3l-40.5,23.4l-5.7-3.3v-6.3l40.5-23.4L216.7,136.6z
		 M251.3,140.6v6.3l-40.5,23.4l-5.7-3.3v-6.3l40.5-23.4L251.3,140.6z M259,161v6.4l-40.4,23.4l-5.4-3.2V181l32.3-18.7l7.9-4.6h0
		L259,161z M202.9,186.9l-31.2-18h0l-11.2-6.5l-42.4,24.5l-5.6,3.2v53.1l11.4,6.6l30.8,17.8v0l5.7,3.3l5.7-3.3v0l30.9-17.9l11.4-6.6
		v-53L202.9,186.9z M154.9,254.9L124,237.1v-33.8l30.8,17.8V254.9z M154.9,208.1l-25.4-14.7l31.2-18l31.2,18l-25.4,14.7l-5.7,3.3
		L154.9,208.1z M197.2,237l-30.9,17.9V221l30.9-17.9V237z M259,207.8v6.2l-0.6,0.3l-39.8,23l-5.5-3.2v-6.4l40.2-23.3L259,207.8z
		 M272.5,177.7v6.2l-0.6,0.3l-39.8,23l-5.5-3.2v-6.4l40.2-23.3L272.5,177.7z"/>
	<path class="st0" d="M501.2,151.9c0,5.3-1,10.3-3.1,15c-2,4.7-4.8,8.9-8.4,12.4c-3.6,3.6-7.7,6.3-12.3,8.4c-4.7,2-9.8,3.1-15.1,3.1
		H349.9V249h-31.4v-89.6h143.8c2,0,3.7-0.7,5.2-2.2c1.5-1.4,2.3-3.2,2.3-5.3v-12c0-2.1-0.8-3.9-2.3-5.3c-1.5-1.4-3.3-2.2-5.2-2.2
		H318.5v-31.4h143.8c5.3,0,10.4,1,15.1,3.1c4.7,2,8.8,4.8,12.3,8.4s6.3,7.7,8.4,12.3c2,4.7,3.1,9.8,3.1,15.1V151.9z M562.2,249
		h-31.4V101.1h31.4V249z M860.8,249h-56l-82.5-55l-82.3,55h-56l110.3-74l-110.3-74h56l82.3,55.2l82.5-55.2h56l-110.5,74L860.8,249z
		 M1069.7,132.4H890.4v-31.4h179.3V132.4z M1069.7,249H890.4v-89.6h179.3v31.4H921.8v27h147.9V249z M1277.3,249h-139.1
		c-5.3,0-10.3-1-15-3.1c-4.7-2-8.9-4.8-12.4-8.3c-3.6-3.5-6.3-7.6-8.4-12.3c-2-4.7-3.1-9.7-3.1-15V101.1h31.4v109.3
		c0,2,0.7,3.7,2.2,5.2c1.4,1.5,3.2,2.3,5.3,2.3h139.1V249z M1338.2,249h-31.4V101.1h31.4V249z M1545.7,249h-139.1
		c-5.3,0-10.3-1-15-3.1c-4.7-2-8.9-4.8-12.4-8.3c-3.6-3.5-6.3-7.6-8.4-12.3c-2-4.7-3.1-9.7-3.1-15v-70.4c0-5.3,1-10.4,3.1-15.1
		c2-4.7,4.8-8.8,8.4-12.3s7.7-6.3,12.4-8.4c4.7-2,9.7-3.1,15-3.1h139.1v31.4h-139.1c-2.1,0-3.9,0.7-5.3,2.2
		c-1.4,1.4-2.2,3.2-2.2,5.3v70.4c0,2,0.7,3.7,2.2,5.2c1.4,1.5,3.2,2.3,5.3,2.3h139.1V249z M1760.4,249H1729v-58.2h-122.3V249h-31.4
		V140.3c0-5.4,1-10.5,3.1-15.3c2-4.7,4.8-8.9,8.4-12.4s7.7-6.4,12.4-8.5c4.7-2,9.8-3.1,15.2-3.1h106.7c5.4,0,10.5,1,15.3,3.1
		c4.7,2.1,8.9,4.9,12.4,8.5s6.4,7.7,8.5,12.4c2,4.8,3.1,9.9,3.1,15.3V249z M1729,159.4v-19.1c0-2.2-0.8-4-2.3-5.6
		c-1.6-1.5-3.5-2.3-5.6-2.3h-106.7c-2.1,0-3.9,0.8-5.4,2.3c-1.5,1.6-2.3,3.5-2.3,5.6v19.1H1729z M2008.5,249h-67.7l-150.9-79.9v-9.7
		h143.8c2,0,3.7-0.7,5.2-2.2c1.5-1.4,2.3-3.2,2.3-5.3v-12c0-2.1-0.8-3.9-2.3-5.3c-1.5-1.4-3.3-2.2-5.2-2.2h-143.8v-31.4h143.8
		c5.3,0,10.4,1,15.1,3.1c4.7,2,8.8,4.8,12.3,8.4s6.3,7.7,8.4,12.3c2,4.7,3.1,9.8,3.1,15.1v12c0,5.3-1,10.3-3.1,15
		c-2,4.7-4.8,8.9-8.4,12.4c-3.6,3.6-7.7,6.3-12.3,8.4c-4.7,2-9.8,3.1-15.1,3.1h-37.3L2008.5,249z M2195.3,132.4h-184.8v-31.4h184.8
		V132.4z M2118.6,249h-31.4v-89.6h31.4V249z"/>
</g>
</svg>
