<?xml version="1.0" encoding="utf-8"?>
<!-- Generator: Adobe Illustrator 27.3.1, SVG Export Plug-In . SVG Version: 6.00 Build 0)  -->
<svg version="1.1" id="Layer_1" xmlns="http://www.w3.org/2000/svg" xmlns:xlink="http://www.w3.org/1999/xlink" x="0px" y="0px"
	 viewBox="0 0 1200 1200" style="enable-background:new 0 0 1200 1200;" xml:space="preserve">
<style type="text/css">
	.st0{fill:url(#SVGID_1_);}
	.st1{fill:#FFFFFF;}
</style>
<g id="Artwork">
	
		<linearGradient id="SVGID_1_" gradientUnits="userSpaceOnUse" x1="1109.2588" y1="90.7412" x2="90.7412" y2="1109.2588" gradientTransform="matrix(1 0 0 -1 0 1200)">
		<stop  offset="0.39" style="stop-color:#992C8D"/>
		<stop  offset="0.44" style="stop-color:#A02D8C"/>
		<stop  offset="1" style="stop-color:#E63B86"/>
	</linearGradient>
	<path class="st0" d="M309.8,0h580.4C1061.3,0,1200,138.7,1200,309.8v580.4c0,171.1-138.7,309.8-309.8,309.8H309.8
		C138.7,1200,0,1061.3,0,890.2V309.8C0,138.7,138.7,0,309.8,0z"/>
	<path class="st1" d="M893.5,368.2c-1.8-1.4-3.7-2.5-5.7-3.5c-0.3,0-0.7,0-0.8-0.4c-0.1,0-0.2-0.1-0.3-0.2l-0.1-0.1
		c-0.5-0.3-1-0.5-1.5-0.8c-1.2-0.9-2.4-1.6-3.7-2.3c-3.2-1.8-6.3-3.8-9.6-5.4c-1-0.7-2-1.4-3.1-1.9c-3.4-1.9-6.6-4-10.1-5.7
		c-1.4-1-2.9-1.9-4.4-2.6c-3.6-2-7.2-4.3-10.9-6.1c-0.3,0-0.6,0-0.8-0.4c-0.2-0.1-0.3-0.2-0.4-0.3l-0.3-0.2
		c-4.3-2.6-8.6-5.1-13.1-7.5c-1.7-1.2-3.5-2.2-5.3-3.1c-1.4-1-3-1.9-4.6-2.7c-0.3,0-0.6,0-0.7-0.4c-2.2-1.6-4.6-2.8-7-4.1
		c-1.8-1.1-3.7-2.2-5.6-3.1c-0.6-0.5-1.3-1-2-1.3c-20-11.6-40.1-23.2-60.1-34.7c-44.4-26.3-88.9-52.4-133.5-78.3
		c-2.1-1.3-4.4-2.2-6.9-2.8V200h-3.8c0,0.1,0,0.2,0,0.4c-3,0.7-5.9,1.9-8.6,3.6c-11.6,6.7-23.2,13.5-34.9,20.2
		c-43.1,24.9-86.2,49.8-129.3,74.7c-47.4,27.4-94.9,54.7-142.3,82c-6.9,4-13.8,8-20.7,11.9c-5.4,3.1-9.2,7.2-10.2,13.5
		c-0.6,0.4-0.1,1.2-0.7,1.5v9.6c0.6,0.6,0.4,1.3,0.4,2v17.9c0,0.7-0.2,1.4,0.3,2c0,0.8,0.1,1.5,0.1,2.3v55.9c0.1,5,0.5,10.1,1.4,15
		c0.1,0.5,0,1,0.5,1.4c0.3-0.1,0.6-0.3,0.9-0.4c4.5-2.4,9-4.8,13.4-7.4c42-24.2,84-48.5,125.9-72.7c32.9-19,65.8-38,98.7-57
		c32.3-18.7,64.6-37.4,96.8-56.1c1.8-1.1,3.7-1.9,5.7-2.6c2.2-0.8,4.6-1,7-0.6c2.7,0.5,5.3,1.6,7.5,3.2c4.9,3.2,9.9,6.2,15.1,9.1
		c23.3,13.2,46.5,26.6,69.6,40.1c0.5,0.3,1.2,0.5,1.5,1c-0.2,0.4-0.5,0.6-0.9,0.8c-3.8,2.3-7.5,4.6-11.3,6.8
		c-24.2,14-48.5,28-72.7,42c-49.1,28.3-98.2,56.7-147.3,85c-30.3,17.5-60.5,34.9-90.8,52.4l-94.5,54.5c-5.5,3.2-11.1,6.3-16.5,9.6
		c-5.5,3.3-9.2,7.9-10.1,14.3c-0.6,0.4-0.1,1.2-0.7,1.5v20.3c0,0,0,0,0,0c0.1-0.1,0.2-0.1,0.3,0h-0.3v131.3c0.7,0.6,0,1.7,0.7,2.3
		c0.8,6.6,4.5,11.2,10.2,14.3l0.5,0.3c7.9,4.4,15.7,8.9,23.6,13.3c3,1.7,5.9,3.5,9,5c0,0,0.1,0,0.1,0c0.3,0,0.5,0.2,0.7,0.4l0.4,0.3
		c0.1,0.1,0.2,0.1,0.3,0.1c0.2,0.1,0.4,0.2,0.5,0.3h0.1c0.3,0,0.5,0.2,0.7,0.4c0.3-0.1,0.6,0.1,0.8,0.4c3,1.9,6.1,3.7,9.2,5.3
		c4.5,2.8,9.1,5.5,13.8,8c4.8,3,9.6,5.8,14.6,8.4c0.2,0.2,0.4,0.3,0.6,0.5c4.8,2.7,9.7,5.4,14.5,8.1c0.3,0.1,0.5,0.4,0.9,0.2
		c0.3-0.8,0.4-1.6,0.4-2.4c0.2-2.5,0.3-5.1,0.6-7.6c0.4-5.3,0.5-10.6,0.3-15.9c0.2-3.8,0.1-7.6,0-11.4c0.2-0.7,0.3-1.4,0.2-2v-21.8
		c0-23,0.1-45.9-0.1-68.9c0-3.3,0-6.6-0.1-10c0-6.6-0.1-13.1-0.1-19.7c0.1-7,2.8-12.6,8.7-16.6c1.3-0.9,2.7-1.7,4.1-2.5
		c23.2-13.4,46.4-26.7,69.6-40.1c36.1-20.8,72.3-41.6,108.3-62.4c2.9-1.8,6-3.3,8.8-5.3c0,0,0,0,0-0.1c0.1-0.3,0.4-0.4,0.7-0.4
		c0.1-0.3,0.4-0.4,0.7-0.4c0.1-0.2,0.3-0.3,0.5-0.3c0.1,0,0.2,0,0.3-0.1c0.1-0.1,0.2-0.2,0.4-0.3c0.1-0.3,0.4-0.4,0.6-0.4
		c0,0,0.1,0,0.1,0c0.3,0,0.5-0.1,0.6-0.3c0,0,0.1-0.1,0.1-0.1l0.1-0.1c0.1-0.1,0.2-0.2,0.3-0.2c0.1-0.3,0.4-0.4,0.7-0.4h0.1
		c0.1-0.3,0.4-0.4,0.7-0.4c0.1-0.1,0.2-0.3,0.4-0.3c0.1,0,0.1,0,0.2,0c0.1,0,0.2,0,0.2-0.1c0.1-0.1,0.3-0.2,0.4-0.3
		c0.1-0.4,0.4-0.4,0.8-0.4c0.1-0.3,0.4-0.4,0.7-0.4l0.1-0.1c0.1-0.1,0.2-0.2,0.4-0.2h0.1c0.6-0.2,1.1-0.4,1.5-0.7
		c9.4-5.4,18.8-10.8,28.1-16.2c3-1.7,6-3.3,8.8-5.2c0.1-0.2,0.4-0.4,0.7-0.4h0.1c0.1-0.2,0.3-0.3,0.5-0.3c0.1,0,0.2,0,0.2-0.1
		l0.4-0.3c0.1-0.3,0.4-0.5,0.8-0.4c0.1-0.3,0.4-0.4,0.7-0.4c0.1-0.2,0.3-0.3,0.5-0.3c0.1,0,0.2,0,0.3-0.1l0.4-0.3
		c0.1-0.3,0.4-0.5,0.7-0.4c0.1-0.2,0.2-0.3,0.4-0.3h0.3l0.1-0.1c0.1-0.1,0.3-0.2,0.5-0.3c0.1,0,0.2,0,0.3-0.1l0.4-0.3
		c0.1-0.3,0.4-0.5,0.7-0.4c0.1-0.2,0.3-0.3,0.5-0.3c0.1,0,0.2,0,0.2-0.1c0.1-0.1,0.3-0.2,0.5-0.3c2.7-1.4,5.4-2.9,7.9-4.6
		c0.1-0.3,0.4-0.4,0.7-0.4h0.1c0,0,0-0.1,0.1-0.1l0.1-0.1c0.1-0.1,0.2-0.2,0.4-0.2c0.1,0,0.2,0,0.2-0.1l0.4-0.3
		c0.1-0.4,0.4-0.4,0.7-0.4c0.1-0.3,0.4-0.4,0.7-0.4c0.1-0.1,0.2-0.3,0.4-0.3c0.1-0.3,0.4-0.4,0.7-0.4h0.1c0.1-0.3,0.4-0.5,0.8-0.4
		c0.1-0.3,0.4-0.4,0.7-0.4c0.2-0.1,0.3-0.3,0.4-0.3c0.1-0.3,0.4-0.4,0.7-0.4h0.1c0.1-0.3,0.4-0.4,0.7-0.4c0.1-0.1,0.2-0.3,0.4-0.3
		h0.3l0.1-0.1c0.1-0.1,0.2-0.2,0.4-0.3c0.1-0.3,0.4-0.4,0.6-0.4c0,0,0.1,0,0.1,0c0.1-0.3,0.4-0.4,0.7-0.4c0,0,0.1-0.1,0.1-0.1
		l0.1-0.1c0.1-0.1,0.2-0.2,0.4-0.2c0.1,0,0.2,0,0.2-0.1c0.1-0.1,0.3-0.2,0.4-0.3c0.1-0.3,0.4-0.5,0.8-0.4c0.1-0.3,0.4-0.4,0.7-0.4
		c0.1-0.2,0.3-0.3,0.5-0.3c0,0,0.1,0,0.1,0c0.1,0,0.1-0.1,0.2-0.1c0.1-0.1,0.2-0.2,0.4-0.3c0.1-0.3,0.4-0.5,0.8-0.4
		c0.1-0.3,0.4-0.4,0.7-0.4c0.2-0.1,0.3-0.2,0.4-0.3c0.1-0.3,0.4-0.4,0.7-0.4h0.1c0.1-0.3,0.4-0.4,0.7-0.4c0,0,0.1-0.1,0.1-0.1
		c0,0,0.1-0.1,0.1-0.1c0.1-0.1,0.1-0.1,0.2-0.1h0.2l0.1-0.1c0.1-0.1,0.3-0.2,0.4-0.3c0.1-0.3,0.4-0.4,0.7-0.4
		c0.1-0.3,0.4-0.4,0.7-0.4c0.1-0.2,0.3-0.3,0.5-0.3c0.1,0,0.2,0,0.3-0.1c0.1-0.1,0.3-0.2,0.4-0.3v-0.4h0.8c0.1-0.3,0.4-0.4,0.7-0.4
		c0.1-0.1,0.3-0.2,0.4-0.3c0.1-0.4,0.4-0.4,0.7-0.4c0.1-0.3,0.4-0.5,0.7-0.4c0.1-0.2,0.2-0.3,0.4-0.3h0.3l0.1-0.1
		c0.1-0.1,0.3-0.2,0.5-0.3c0.4-0.2,0.8-0.3,1.2-0.6c11.8-7,23.5-13.8,35.1-20.5c3.1-1.8,6.3-3.5,9.3-5.5c0.1-0.2,0.4-0.4,0.6-0.4
		c0,0,0.1,0,0.1,0c0.2,0,0.5-0.1,0.6-0.3h0.1l0.1-0.1c0.1-0.1,0.2-0.2,0.4-0.3c0.1-0.3,0.4-0.4,0.7-0.4h0.1c0.1-0.3,0.4-0.4,0.7-0.4
		c0,0,0.1-0.1,0.1-0.1c0,0,0-0.1,0.1-0.1c0.1-0.1,0.2-0.2,0.4-0.2c0.6-0.2,1.2-0.5,1.7-0.8c15.8-9.1,31.5-18.2,47.3-27.3
		c2.9-1.7,5.9-3.2,8.7-5.1c0.1-0.2,0.4-0.4,0.6-0.4c0,0,0.1,0,0.1,0c0.1-0.2,0.2-0.3,0.4-0.3h0.3l0.1-0.1c0.1-0.1,0.2-0.2,0.4-0.3
		c0.1-0.3,0.4-0.4,0.7-0.4h0.1c0.1-0.3,0.4-0.4,0.7-0.4c0,0,0.1-0.1,0.1-0.1c0.1-0.1,0.2-0.2,0.4-0.2c0.1,0,0.2,0,0.2-0.1
		c0.1-0.1,0.2-0.2,0.4-0.3c0.1-0.4,0.4-0.4,0.8-0.4c0.1-0.3,0.4-0.4,0.7-0.4c0.1-0.2,0.3-0.3,0.5-0.3c0.1,0,0.2,0,0.2-0.1
		c0.1-0.1,0.3-0.2,0.4-0.3c0.1-0.3,0.4-0.4,0.6-0.4c0,0,0.1,0,0.1,0c0.1-0.3,0.4-0.4,0.7-0.4c0.1-0.1,0.3-0.2,0.5-0.3
		c0.4-0.2,0.8-0.3,1.2-0.6c10.1-5.8,20.2-11.7,30.3-17.5c2.4-1.4,4.8-2.6,7-4.2c0-0.1,0.1-0.1,0.1-0.2c0.1-0.1,0.3-0.2,0.4-0.2
		c0.1,0,0.2,0,0.2-0.1c0.1-0.1,0.3-0.2,0.4-0.3c0.1-0.3,0.4-0.4,0.7-0.4c0.1-0.3,0.4-0.4,0.7-0.4c0.1-0.2,0.3-0.3,0.5-0.3
		c0.1,0,0.2,0,0.2-0.1c0.1-0.1,0.3-0.2,0.4-0.3c0.1-0.3,0.4-0.5,0.8-0.4c0.1-0.3,0.4-0.4,0.7-0.4c0.2-0.1,0.2-0.3,0.4-0.3
		c0.1-0.3,0.4-0.4,0.7-0.4h0.1c0.1-0.3,0.4-0.4,0.7-0.4c0.1-0.2,0.2-0.3,0.4-0.3c0.1,0,0.1,0,0.2,0h0.1l0.1-0.1
		c0.1-0.1,0.3-0.2,0.5-0.3c0.4-0.2,0.8-0.3,1.2-0.6c9.9-5.7,19.8-11.5,29.7-17.2c3.3-1.9,6.8-3.7,10-5.9c0-0.1,0.1-0.2,0.2-0.3
		c0.2-0.1,0.3-0.1,0.5-0.1c0.1-0.3,0.4-0.5,0.7-0.4c0.1-0.2,0.2-0.3,0.4-0.3c0.1,0,0.1,0,0.2,0h0.1l0.1-0.1c0.1-0.1,0.2-0.2,0.3-0.3
		c0.3,0,0.6-0.2,0.7-0.4c0.3,0,0.6-0.2,0.7-0.4c0.1-0.2,0.3-0.3,0.5-0.3c0.1,0,0.2,0,0.2-0.1c0.1-0.1,0.3-0.2,0.4-0.3
		c0.3,0,0.6-0.2,0.7-0.4c0.3,0,0.5-0.1,0.7-0.3l0.1-0.1c0,0,0.1-0.1,0.1-0.1c0.1-0.1,0.2-0.2,0.3-0.2c0.1-0.3,0.4-0.4,0.7-0.4h0.1
		c0.3,0,0.6-0.2,0.7-0.4c0,0,0.1-0.1,0.1-0.1c0.1-0.1,0.2-0.2,0.4-0.2c0.3-0.1,0.6-0.2,0.9-0.4l38-22.1c0.2-0.2,0.6-0.2,0.6-0.8
		C896.4,370.4,895,369.3,893.5,368.2z M354.5,785.3c-0.2,0.2-0.3,0.4-0.5,0.6v-0.5C354.1,785.4,354.3,785.3,354.5,785.3z
		 M814.7,760.5l1.1-0.6C815.4,760.1,815,760.3,814.7,760.5z M948.7,683.4v106.9l-0.1,0.1c-0.3,0.3-0.4,0.8-0.3,1.2v0.3
		c-0.3,3.9-2,7.5-4.7,10.2c-2.2,2.2-4.6,4-7.4,5.5c-19.9,11.4-39.7,22.8-59.5,34.2c-32.2,18.6-64.5,37.2-96.7,55.7
		c-0.6,0.5-1.3,0.8-2,1c-0.3,0.4-0.8,0.7-1.2,0.8L719,932.7c-0.4,0.2-0.8,0.4-1.2,0.6c-0.3,0-0.6,0.1-0.8,0.4
		c-0.2,0-0.3,0.1-0.4,0.3l-0.1,0.1h-0.3c-0.1,0-0.3,0.1-0.4,0.2c0,0-0.1,0.1-0.1,0.1c-0.3,0-0.6,0.1-0.7,0.4h-0.1
		c-0.3,0-0.6,0.1-0.7,0.4c-0.2,0-0.3,0.2-0.4,0.3c-0.3,0-0.6,0.1-0.7,0.4c-0.3,0-0.6,0.1-0.7,0.4c-0.3,0-0.6,0-0.7,0.4h-0.1
		c-0.1,0-0.2,0.1-0.3,0.2c0,0,0,0.1-0.1,0.1c-0.3,0-0.6,0.1-0.7,0.4h-0.1c-0.3,0-0.6,0.1-0.7,0.4c-0.1,0-0.2,0.1-0.3,0.2l-0.1,0.1
		l-0.1,0.1h-0.2c-0.1,0-0.2,0.1-0.3,0.1l-0.1,0.1c0,0-0.1,0.1-0.1,0.1c-1.3,0.9-2.7,1.8-4.1,2.5c-9.2,5.3-18.4,10.6-27.6,16
		c-0.5,0.3-1,0.6-1.5,0.7c-0.2,0-0.4,0.1-0.5,0.3c-0.3,0-0.6,0.1-0.7,0.4c-0.3,0-0.6,0.1-0.7,0.4c-0.2,0-0.3,0.1-0.4,0.3l-0.1,0.1
		h-0.1c-0.1,0-0.1,0-0.2,0c-0.2,0-0.3,0.2-0.4,0.3c-0.2,0.3-0.4,0.4-0.7,0.4h-0.1c-0.3,0-0.5,0.1-0.6,0.4c-0.2,0-0.3,0.1-0.4,0.3
		h-0.1c-0.3,0-0.5,0.2-0.6,0.4c-0.3,0-0.6,0.1-0.7,0.4c-0.2,0.3-0.4,0.4-0.7,0.4h-0.1c-0.2,0-0.3,0.1-0.4,0.3
		c-0.3,0-0.6,0.1-0.7,0.4h-0.1c-0.3,0-0.6,0.1-0.7,0.4c-0.2,0-0.3,0.1-0.4,0.3l-0.1,0.1h-0.1c-0.1,0-0.1,0-0.2,0
		c-0.2,0-0.3,0.2-0.4,0.3c0,0-0.1,0-0.1,0c-0.3,0-0.5,0.2-0.6,0.4c-0.3,0-0.6,0.1-0.7,0.4c-0.2,0-0.4,0.1-0.4,0.3
		c-0.3,0-0.6,0.1-0.7,0.4c-0.3,0-0.6,0.1-0.7,0.4c-0.3,0-0.6,0-0.7,0.4h-0.3c-0.1,0-0.3,0.1-0.3,0.3h-0.1c-0.3,0-0.5,0.1-0.7,0.4
		c-0.3,0.3-0.6,0.6-1,0.7l-37.2,21.6c-0.4,0.2-0.8,0.4-1.2,0.6c-0.3,0-0.6,0.1-0.7,0.4c-0.3,0-0.6,0.1-0.8,0.4c-0.3,0-0.6,0-0.7,0.4
		h-0.1c-0.2,0-0.3,0.1-0.4,0.3c-0.3,0-0.6,0.1-0.7,0.4h-0.1c-0.3,0-0.6,0.1-0.7,0.4c-0.2,0-0.3,0.2-0.4,0.3c-0.3,0-0.6,0.1-0.7,0.4
		c-0.3-0.1-0.6,0.1-0.7,0.4c-0.3,0-0.6,0-0.7,0.4h-0.1c-0.1,0-0.2,0.1-0.3,0.2c0,0-0.1,0.1-0.1,0.1c-0.3,0-0.6,0.1-0.7,0.4
		c-0.3,0-0.6,0.1-0.7,0.4c-0.3,0-0.6,0-0.7,0.4h-0.5c-0.1,0-0.1,0-0.2,0.1H610c0,0-0.1,0.1-0.1,0.1c0,0,0,0,0,0
		c0,0.1-0.2,0.1-0.2,0.1c-1.7,1-3.6,1.8-5.5,2.3h-0.8c-0.5,0-1.1-0.2-1.6,0.4h-3.1c-0.4-0.5-1-0.4-1.5-0.4h-0.8
		c-3.8-1.2-7.5-3-10.7-5.4c-4-2.2-8-4.5-11.9-7c-0.1-0.1-0.3-0.2-0.4-0.3c-0.1-0.4-0.4-0.4-0.7-0.4c-0.1-0.3-0.4-0.4-0.7-0.4h0
		c-0.2-0.1-0.3-0.3-0.5-0.3c-1.9-0.8-3.6-1.9-5.3-3.1c-1.9-0.9-3.7-1.9-5.3-3.1c-1.1-0.5-2.1-1.1-3.1-1.8c-0.1-0.3-0.4-0.5-0.7-0.4
		c-0.1-0.2-0.2-0.3-0.4-0.3c-0.1,0-0.1,0-0.2,0h-0.1l-0.1-0.1c-0.1-0.2-0.2-0.3-0.4-0.3c-0.1-0.3-0.4-0.4-0.7-0.4
		c-0.1-0.2-0.4-0.4-0.7-0.4h-0.1c-0.2,0-0.4-0.1-0.4-0.3c-0.1-0.4-0.4-0.4-0.7-0.4c-0.3,0-0.6-0.2-0.7-0.4c-2-1-3.9-2.1-5.8-3.4
		c-1.2-0.5-2.4-1.2-3.4-2c-0.1-0.3-0.4-0.4-0.7-0.4h-0.1c-0.2-0.1-0.2-0.3-0.4-0.3c-0.1-0.4-0.4-0.4-0.7-0.4
		c-0.1-0.3-0.4-0.4-0.7-0.4h-0.1c-4.2-2.3-8.2-4.7-12.3-7.2c-3.3-1.7-6.5-3.7-9.7-5.5c-2.2-1.1-4.3-2.4-6.3-3.8
		c-3-1.5-5.9-3.3-8.8-5c-1.6-0.8-3.1-1.7-4.6-2.7c-3-1.4-5.8-3.2-8.7-4.8c-1.6-0.8-3.2-1.8-4.7-2.8c-1.7-0.8-3.4-1.7-5-2.7
		c-4-2.3-8-4.4-11.8-6.9c-3.8-1.9-7.5-4-11-6.5c-1.8-1.2-3.3-2.9-4.4-4.9c-1.7-2.5-2.6-5.4-2.5-8.4c-0.2-4.1,0-8.1,0-12.2
		c0-0.2,0.1-0.4,0.2-0.5c-0.2-2.6,0-5.2,0-7.8c0-3.2,0.1-6.5,0.1-9.7c-0.1-0.5-0.1-1,0-1.5c-0.1-0.4-0.1-0.8-0.1-1.1v-39.2
		c0-0.5,0.1-1,0.1-1.3c-0.1-0.4-0.1-0.8-0.1-1.1v-29.6c-0.1-0.5,0-1,0.1-1.5c0.3-0.1,0.6,0,0.9,0.2c6.8,3.6,13.5,7.1,20.1,11
		c0.2,0.1,0.3,0.2,0.4,0.4c3.1,1.5,6,3.3,8.9,5c2,1,3.9,2.1,5.7,3.4c3,1.5,5.8,3.3,8.8,4.9c1.4,0.7,2.7,1.5,3.9,2.4
		c3.9,2,7.7,4.2,11.4,6.5c4.8,2.5,9.4,5.4,14.2,8c0.1,0.1,0.3,0.2,0.4,0.4c0.1,0.3,0.4,0.4,0.7,0.4h0.1c0.1,0.2,0.3,0.3,0.5,0.3
		c0,0,0,0,0,0c0.1,0,0.2,0,0.2,0.1c0.1,0.1,0.2,0.2,0.4,0.3c0.3,0,0.6,0.2,0.8,0.4c3.7,1.8,7.3,4.1,10.9,6.1
		c0.9,0.4,1.7,0.9,2.4,1.5c4.2,2.2,8.2,4.7,12.3,7c1.6,0.8,3.2,1.8,4.7,2.8c4.4,2.2,8.5,4.9,12.8,7.3c0.2,0.1,0.3,0.2,0.4,0.4
		c4.4,2.4,8.8,4.9,13,7.6c0.3,0,0.6,0.2,0.7,0.4c0.1,0.1,0.2,0.3,0.4,0.3c0.1,0.4,0.4,0.4,0.7,0.4c0.3,0,0.6,0.2,0.7,0.4
		c1.3,0.6,2.6,1.3,3.8,2.1c2.2,1.3,4.7,2.2,7.2,2.7c2.1,0.3,4.1-0.2,6.1-0.5c6.7-2.9,12.8-7,19.2-10.7c7.4-4.2,14.8-8.6,22.1-12.9
		c0.5-0.3,1-0.5,1.5-0.8c4.4-2.8,8.9-5.3,13.4-7.9c3.2-1.8,6.2-3.8,9.6-5.4h0.1c0.3,0,0.6-0.1,0.7-0.4c0,0,0.1,0,0.1,0
		c0.1,0,0.1,0,0.2-0.1l0.1-0.1c0.1,0,0.1-0.1,0.1-0.2h0.1c0.3,0,0.6-0.2,0.7-0.4c0.2-0.3,0.4-0.4,0.7-0.4c0.2,0,0.3-0.2,0.4-0.3
		c0,0,0,0,0,0c0-0.1,0.1-0.1,0.2-0.1c0.1,0,0.1,0,0.2,0c0.2,0,0.3-0.2,0.4-0.3h0.1c0.3,0,0.5-0.2,0.7-0.4h0.1c0.3,0,0.6-0.1,0.7-0.4
		c0.1-0.2,0.2-0.3,0.4-0.3h0c0.3,0,0.6-0.1,0.7-0.4c0.3,0,0.6-0.1,0.7-0.4c0.2-0.3,0.4-0.4,0.7-0.4h0.1c0.1,0,0.2-0.1,0.2-0.1
		c0.1,0,0.1-0.1,0.1-0.2c0.3,0,0.6-0.1,0.7-0.4h0.1c0.3,0,0.6-0.1,0.7-0.4c0.1-0.2,0.2-0.3,0.4-0.3h0.1c0.3,0,0.6-0.1,0.7-0.4
		c0.3,0,0.6-0.1,0.7-0.4c0.3,0,0.7-0.1,0.8-0.5c2.7-1.8,5.5-3.4,8.4-4.9c1.3-0.9,2.7-1.8,4.1-2.5c8.2-4.8,16.5-9.6,24.7-14.3
		c0.6-0.3,1.2-0.6,1.9-1c0.8-0.6,1.7-1.2,2.6-1.6c5.9-3.4,11.8-6.8,17.7-10.2c0.4-0.3,1-0.6,1.5-0.7c0.2-0.1,0.4-0.2,0.4-0.3
		c0-0.1,0.1-0.1,0.2-0.1c0.1,0,0.1,0,0.2,0c0.2,0,0.3-0.1,0.4-0.3c0.3,0,0.6-0.1,0.7-0.4h0.1c0.3,0,0.5-0.1,0.6-0.4
		c0.2,0,0.3-0.1,0.4-0.3l0.1-0.1h0.1c0.1-0.2,0.3-0.3,0.6-0.3c0,0,0.1,0,0.1,0c0.3,0,0.5-0.2,0.6-0.4h0.1c0.3,0,0.6-0.1,0.7-0.4
		c0.2,0,0.3-0.2,0.4-0.3c0.3,0,0.6-0.1,0.7-0.4c0,0,0.1,0,0.1,0c0.3,0,0.5-0.2,0.6-0.4c0.3,0,0.6,0,0.7-0.4c0.2,0,0.4-0.1,0.4-0.3
		c0.3,0,0.6-0.1,0.7-0.4c0.3,0,0.6-0.1,0.8-0.4c0.3,0,0.6,0,0.7-0.4h0.1c0.2,0,0.3-0.1,0.4-0.3c0.3,0,0.6-0.1,0.7-0.4h0.1
		c0.3,0,0.6-0.1,0.7-0.4c0.2,0,0.3-0.1,0.4-0.3l0.1-0.1h0.1c0.1,0,0.1,0,0.2,0c0.2,0,0.3-0.2,0.4-0.3c0.3,0,0.6-0.1,0.7-0.4
		c0.3,0,0.6,0,0.7-0.4c0.2,0,0.3-0.2,0.4-0.3h0c0.3,0,0.5-0.2,0.7-0.4c0.1-0.3,0.4-0.4,0.7-0.4h0c0.3,0,0.6,0,0.7-0.4
		c0.2,0,0.3-0.1,0.4-0.3c0.3,0,0.6-0.1,0.7-0.4c0.2-0.3,0.5-0.4,0.8-0.4c1-0.8,2.1-1.4,3.2-2c15.2-8.8,30.4-17.5,45.6-26.2h0
		l1.9-1.1l1.1-0.6c0.2-0.1,0.4-0.2,0.6-0.2c0.8-0.6,1.7-1.1,2.5-1.6l2.4-1.4l0.4-0.2c1.1-0.6,2.2-1.2,3.2-1.8c3.5-2,7.1-4,10.6-6.1
		c0.6-0.3,1.2-0.7,1.7-1L948.7,683.4z M815.8,759.9l-1.1,0.6C815,760.3,815.4,760.1,815.8,759.9z M752.7,495.6v17.1l-109.9,63.6
		l-15.5-9v-17.2l109.9-63.6L752.7,495.6z M846.5,506.6v17.1l-109.9,63.6l-15.5-9v-17.2L831,497.6L846.5,506.6z M867.3,561.9v17.4
		l-109.7,63.4l-14.8-8.6v-18l87.7-50.7l21.4-12.4h0L867.3,561.9z M715.3,632.1l-84.5-48.9h0l-30.3-17.5l-114.8,66.4l-15.2,8.8v143.9
		l31,17.9l83.5,48.3v0l15.5,9l15.5-9v0l83.7-48.4l31-17.9V641L715.3,632.1z M585,816.4l-83.5-48.3v-91.7l83.5,48.3V816.4z
		 M585,689.6l-69-39.9l84.5-48.9l84.5,48.9l-69,39.9l-15.5,9L585,689.6z M699.7,768L616,816.4v-91.7l83.7-48.5V768z M867.3,688.8
		v16.9l-1.6,0.9L757.9,769l-15-8.7V743l109.1-63.1L867.3,688.8z M904,607.1V624l-1.6,0.9l-107.8,62.4l-15-8.7v-17.3l109.1-63.1
		L904,607.1z"/>
</g>
</svg>
