<?xml version="1.0" encoding="utf-8"?>
<!-- Generator: Adobe Illustrator 27.3.1, SVG Export Plug-In . SVG Version: 6.00 Build 0)  -->
<svg version="1.1" id="Layer_1" xmlns="http://www.w3.org/2000/svg" xmlns:xlink="http://www.w3.org/1999/xlink" x="0px" y="0px"
	 viewBox="0 0 700 779.1" style="enable-background:new 0 0 700 779.1;" xml:space="preserve">
<style type="text/css">
	.st0{fill:#FFFFFF;}
</style>
<path class="st0" d="M636.1,164.2c-1.7-1.3-3.6-2.5-5.5-3.4c-0.3,0-0.6,0-0.8-0.4c-0.1,0-0.2-0.1-0.3-0.2l-0.1-0.1
	c-0.5-0.3-1-0.5-1.5-0.8c-1.1-0.8-2.4-1.6-3.6-2.2c-3.1-1.8-6.1-3.7-9.4-5.3c-0.9-0.7-1.9-1.3-3-1.8c-3.3-1.9-6.5-3.9-9.8-5.6
	c-1.4-1-2.8-1.8-4.3-2.6c-3.5-2-7-4.2-10.7-6c-0.3,0-0.6,0-0.7-0.4c-0.2-0.1-0.3-0.2-0.4-0.3l-0.3-0.2c-4.2-2.6-8.4-5-12.8-7.3
	c-1.6-1.2-3.4-2.2-5.2-3c-1.4-1-2.9-1.9-4.5-2.6c-0.3,0-0.6,0-0.7-0.4c-2.2-1.5-4.5-2.7-6.8-4c-1.8-1.1-3.6-2.1-5.5-3
	c-0.6-0.5-1.3-1-2-1.3c-19.6-11.3-39.1-22.6-58.7-33.9C446.2,53.8,402.7,28.3,359.2,3c-2.1-1.3-4.3-2.2-6.7-2.7V0h-3.7
	c0,0.1,0,0.2,0,0.4c-3,0.7-5.8,1.9-8.4,3.5C329,10.5,317.6,17,306.2,23.6C264.1,48,222,72.3,179.9,96.6
	c-46.3,26.7-92.6,53.4-139,80.1c-6.7,3.9-13.5,7.8-20.2,11.6c-5.2,3-9,7-10,13.2c-0.5,0.4-0.1,1.2-0.7,1.5v9.4
	c0.6,0.5,0.4,1.3,0.4,1.9v17.5c0,0.6-0.2,1.4,0.3,1.9c0,0.8,0.1,1.5,0.1,2.2v54.6c0.1,4.9,0.5,9.8,1.3,14.7c0.1,0.5,0,1,0.5,1.4
	c0.3-0.1,0.6-0.2,0.8-0.4c4.4-2.4,8.8-4.7,13.1-7.2c41-23.6,82-47.3,123-71c32.1-18.5,64.3-37.1,96.4-55.7
	c31.5-18.2,63.1-36.5,94.6-54.8c1.8-1,3.6-1.9,5.6-2.5c2.2-0.8,4.5-1,6.8-0.6c2.6,0.5,5.1,1.6,7.3,3.1c4.8,3.1,9.7,6.1,14.7,8.9
	c22.8,12.9,45.4,26,68,39.2c0.5,0.3,1.2,0.5,1.5,1c-0.2,0.4-0.5,0.6-0.8,0.7c-3.7,2.2-7.3,4.5-11,6.6c-23.7,13.7-47.3,27.4-71,41
	c-47.9,27.7-95.9,55.4-143.8,83.1c-29.5,17.1-59.1,34.1-88.7,51.2l-92.3,53.2c-5.4,3.1-10.8,6.2-16.1,9.4c-5.3,3.2-8.9,7.7-9.8,14
	c-0.5,0.4-0.1,1.2-0.7,1.5v19.8c0,0,0,0,0,0c0.1,0,0.2,0,0.3,0H10v128.3c0.7,0.6,0,1.7,0.7,2.3c0.8,6.4,4.4,10.9,10,14l0.5,0.3
	c7.7,4.3,15.4,8.7,23,13c2.9,1.6,5.7,3.5,8.8,4.9c0,0,0.1,0,0.1,0c0.3,0,0.5,0.2,0.6,0.4l0.4,0.3c0,0.1,0.2,0.1,0.3,0.1
	c0.2,0.1,0.4,0.2,0.5,0.3h0c0.3,0,0.5,0.2,0.7,0.4c0.3,0,0.6,0.1,0.7,0.4c2.9,1.9,5.9,3.6,9,5.2c4.4,2.8,8.9,5.4,13.5,7.8
	c4.6,2.9,9.4,5.6,14.2,8.2c0.2,0.2,0.4,0.3,0.6,0.4c4.7,2.7,9.5,5.3,14.2,7.9c0.3,0.1,0.5,0.4,0.9,0.2c0.3-0.8,0.4-1.5,0.4-2.3
	c0.2-2.5,0.3-5,0.5-7.4c0.4-5.2,0.5-10.3,0.2-15.5c0.2-3.7,0.1-7.4,0-11.1c0.2-0.6,0.3-1.3,0.2-2v-21.3c0-22.4,0.1-44.9-0.1-67.3
	c0-3.2,0-6.5-0.1-9.7c0-6.4-0.1-12.8,0-19.2c0-6.8,2.7-12.3,8.5-16.2c1.3-0.9,2.6-1.7,4-2.5c22.7-13,45.3-26.1,68-39.1
	c35.3-20.3,70.6-40.6,105.8-61c2.9-1.7,5.8-3.2,8.6-5.1c0,0,0,0,0,0c0.1-0.2,0.4-0.4,0.7-0.4c0.1-0.2,0.4-0.4,0.7-0.4
	c0.1-0.2,0.3-0.3,0.5-0.3c0.1,0,0.2,0,0.3-0.1c0.1-0.1,0.2-0.2,0.4-0.3c0.1-0.2,0.4-0.4,0.6-0.4c0,0,0.1,0,0.1,0
	c0.2,0,0.5-0.1,0.6-0.3c0,0,0.1,0,0.1-0.1l0.1-0.1c0.1-0.1,0.2-0.2,0.3-0.2c0.1-0.3,0.4-0.4,0.7-0.4h0.1c0.1-0.3,0.4-0.4,0.7-0.4
	c0.1-0.1,0.2-0.2,0.4-0.3c0,0,0.1,0,0.2,0c0.1,0,0.2,0,0.2-0.1c0.1-0.1,0.2-0.2,0.4-0.3c0.1-0.4,0.4-0.4,0.7-0.4
	c0.1-0.3,0.4-0.4,0.7-0.4l0.1-0.1c0.1-0.1,0.2-0.2,0.4-0.2h0.1c0.5-0.1,1-0.4,1.5-0.7c9.2-5.3,18.3-10.6,27.5-15.9
	c2.9-1.7,5.9-3.2,8.6-5.1c0.1-0.2,0.4-0.4,0.6-0.4h0c0.1-0.2,0.3-0.3,0.5-0.3c0.1,0,0.2,0,0.2-0.1l0.4-0.3c0.1-0.3,0.4-0.5,0.8-0.4
	c0.1-0.2,0.4-0.4,0.7-0.4c0.1-0.2,0.3-0.2,0.5-0.3c0.1,0,0.2,0,0.3-0.1l0.4-0.3c0.1-0.3,0.4-0.4,0.7-0.4c0.1-0.2,0.2-0.3,0.4-0.3
	h0.3l0.1-0.1c0.1-0.1,0.3-0.2,0.5-0.3c0.1,0,0.2,0,0.3-0.1l0.4-0.3c0.1-0.3,0.4-0.4,0.7-0.4c0.1-0.2,0.3-0.3,0.5-0.3
	c0.1,0,0.2,0,0.2-0.1c0.1-0.1,0.3-0.2,0.5-0.3c2.7-1.3,5.3-2.8,7.8-4.5c0.1-0.2,0.4-0.4,0.7-0.4h0.1c0,0,0-0.1,0.1-0.1l0.1-0.1
	c0.1-0.1,0.2-0.1,0.4-0.1c0.1,0,0.2,0,0.2-0.1l0.4-0.3c0.1-0.4,0.4-0.4,0.7-0.4c0.1-0.3,0.4-0.4,0.7-0.4c0.1-0.1,0.2-0.2,0.4-0.3
	c0.1-0.3,0.4-0.4,0.7-0.4h0.1c0.1-0.3,0.4-0.4,0.7-0.4c0.1-0.2,0.4-0.4,0.7-0.4c0.2-0.1,0.2-0.2,0.4-0.3c0.1-0.3,0.4-0.4,0.7-0.4
	h0.1c0.1-0.3,0.4-0.4,0.7-0.4c0.1-0.1,0.2-0.2,0.4-0.3h0.3l0.1-0.1c0.1-0.1,0.2-0.2,0.4-0.3c0.1-0.2,0.3-0.4,0.6-0.4
	c0,0,0.1,0,0.1,0c0.1-0.3,0.4-0.4,0.7-0.4c0,0,0.1-0.1,0.1-0.1l0.1-0.1c0.1-0.1,0.2-0.2,0.4-0.2c0.1,0,0.2,0,0.2-0.1
	c0.1-0.1,0.2-0.2,0.4-0.3c0.1-0.3,0.4-0.5,0.7-0.4c0.1-0.3,0.4-0.4,0.7-0.4c0.1-0.2,0.3-0.3,0.5-0.3c0,0,0,0,0.1,0
	c0.1,0,0.1-0.1,0.2-0.1c0.1-0.1,0.2-0.2,0.4-0.3c0.1-0.3,0.4-0.5,0.7-0.4c0.1-0.3,0.4-0.4,0.7-0.4c0.1-0.1,0.2-0.2,0.4-0.3
	c0.1-0.3,0.3-0.4,0.7-0.4h0.1c0.1-0.3,0.4-0.4,0.7-0.4c0,0,0-0.1,0.1-0.1c0,0,0.1,0,0.1-0.1c0-0.1,0.1-0.1,0.2-0.1h0.2l0.1-0.1
	c0.1-0.1,0.3-0.2,0.4-0.3c0.1-0.3,0.4-0.4,0.7-0.4c0.1-0.3,0.4-0.4,0.7-0.4c0.1-0.2,0.3-0.3,0.5-0.3c0.1,0,0.2,0,0.2-0.1
	c0.1-0.1,0.2-0.2,0.4-0.3v-0.4h0.8c0.1-0.3,0.4-0.4,0.7-0.4c0.1-0.1,0.3-0.2,0.4-0.3c0.1-0.4,0.4-0.4,0.7-0.4
	c0.1-0.3,0.4-0.4,0.7-0.4c0.1-0.2,0.2-0.3,0.4-0.3h0.3l0.1-0.1c0.1-0.1,0.3-0.2,0.5-0.3c0.4-0.2,0.8-0.3,1.2-0.5
	c11.6-6.8,23-13.5,34.3-20c3-1.8,6.2-3.4,9.1-5.4c0.1-0.2,0.4-0.4,0.6-0.4c0,0,0.1,0,0.1,0c0.2,0,0.4-0.1,0.5-0.3h0.1l0.1-0.1
	c0.1-0.1,0.2-0.2,0.4-0.2c0.1-0.3,0.4-0.4,0.7-0.4h0.1c0.1-0.3,0.4-0.4,0.7-0.4c0,0,0-0.1,0.1-0.1c0,0,0,0,0.1-0.1
	c0.1-0.1,0.2-0.2,0.4-0.2c0.6-0.2,1.2-0.5,1.7-0.8c15.4-8.9,30.8-17.8,46.2-26.7c2.8-1.7,5.8-3.2,8.5-5c0.1-0.2,0.4-0.4,0.6-0.4
	c0,0,0.1,0,0.1,0c0.1-0.2,0.2-0.2,0.4-0.3h0.3l0.1-0.1c0.1-0.1,0.2-0.2,0.4-0.3c0.1-0.3,0.4-0.4,0.7-0.4h0.1
	c0.1-0.3,0.4-0.4,0.7-0.4c0,0,0-0.1,0.1-0.1c0.1-0.1,0.2-0.2,0.4-0.2c0.1,0,0.2,0,0.2-0.1c0.1-0.1,0.2-0.2,0.4-0.3
	c0.1-0.3,0.4-0.4,0.7-0.4c0.1-0.3,0.4-0.4,0.7-0.4c0.1-0.2,0.3-0.3,0.5-0.3c0.1,0,0.2,0,0.2-0.1c0.1-0.1,0.2-0.2,0.4-0.3
	c0.1-0.2,0.4-0.4,0.6-0.4c0,0,0.1,0,0.1,0c0.1-0.3,0.4-0.4,0.7-0.4c0.1-0.1,0.3-0.2,0.5-0.3c0.4-0.2,0.8-0.3,1.2-0.5
	c9.9-5.7,19.7-11.4,29.6-17.1c2.3-1.3,4.7-2.5,6.9-4.1c0,0,0.1-0.1,0.1-0.2c0.1-0.1,0.3-0.2,0.4-0.2c0.1,0,0.2,0,0.2-0.1
	c0.1-0.1,0.2-0.2,0.4-0.3c0.1-0.3,0.4-0.4,0.7-0.4c0.1-0.3,0.4-0.4,0.7-0.4c0.1-0.2,0.3-0.3,0.5-0.3c0.1,0,0.2,0,0.2-0.1
	c0.1-0.1,0.2-0.2,0.4-0.3c0.1-0.3,0.4-0.5,0.7-0.4c0.1-0.3,0.4-0.4,0.7-0.4c0.2-0.1,0.2-0.2,0.4-0.3c0.1-0.3,0.4-0.4,0.7-0.4h0.1
	c0.1-0.3,0.4-0.4,0.7-0.4c0.1-0.1,0.2-0.3,0.4-0.3c0.1,0,0.1,0,0.2,0h0.1l0.1-0.1c0.1-0.1,0.3-0.2,0.5-0.3c0.4-0.2,0.8-0.3,1.2-0.5
	c9.7-5.6,19.3-11.2,29-16.8c3.3-1.9,6.6-3.7,9.8-5.8c0-0.1,0.1-0.2,0.2-0.3c0.2-0.1,0.3-0.1,0.5-0.1c0.1-0.3,0.4-0.4,0.7-0.4
	c0.1-0.1,0.2-0.3,0.4-0.3c0.1,0,0.1,0,0.2,0h0.1l0.1-0.1c0.1-0.1,0.2-0.2,0.3-0.2c0.3,0,0.6-0.2,0.7-0.4c0.3,0,0.6-0.2,0.7-0.4
	c0.1-0.2,0.3-0.3,0.5-0.3c0.1,0,0.2,0,0.2-0.1c0.1-0.1,0.3-0.2,0.4-0.3c0.3,0,0.6-0.2,0.7-0.4c0.2,0,0.5-0.1,0.6-0.3l0.1-0.1
	c0,0,0.1,0,0.1-0.1c0.1-0.1,0.2-0.2,0.3-0.2c0.1-0.3,0.4-0.4,0.7-0.4h0.1c0.3,0,0.6-0.2,0.7-0.4c0,0,0-0.1,0.1-0.1
	c0.1-0.1,0.2-0.2,0.4-0.2c0.3-0.1,0.6-0.2,0.8-0.4l37.1-21.6c0.2-0.2,0.6-0.2,0.5-0.7C639,166.4,637.6,165.3,636.1,164.2z
	 M109.8,571.6c-0.2,0.2-0.3,0.4-0.5,0.6v-0.5C109.4,571.7,109.6,571.6,109.8,571.6z M559.2,547.4l1.1-0.6
	C559.9,547,559.5,547.2,559.2,547.4z M690.1,472.1v104.4l-0.1,0.1c-0.3,0.3-0.4,0.7-0.3,1.1v0.3c-0.3,3.8-1.9,7.3-4.6,10
	c-2.1,2.1-4.5,3.9-7.2,5.3c-19.4,11.1-38.8,22.3-58.1,33.4c-31.5,18.1-63,36.3-94.5,54.4c-0.6,0.4-1.3,0.8-2,1
	c-0.3,0.4-0.8,0.7-1.2,0.8l-56.4,32.6c-0.4,0.2-0.8,0.4-1.2,0.6c-0.3,0-0.6,0.1-0.7,0.4c-0.2,0-0.3,0.1-0.4,0.3l-0.1,0.1h-0.2
	c-0.1,0-0.3,0.1-0.3,0.2c0,0-0.1,0.1-0.1,0.1c-0.3,0-0.6,0.1-0.7,0.4h-0.1c-0.3,0-0.6,0.1-0.7,0.4c-0.2,0-0.3,0.2-0.4,0.3
	c-0.3,0-0.6,0.1-0.7,0.4c-0.3,0-0.6,0.1-0.7,0.4c-0.3,0-0.6,0-0.7,0.4h-0.1c-0.1,0-0.2,0.1-0.3,0.2c0,0,0,0.1-0.1,0.1
	c-0.3,0-0.6,0.1-0.7,0.4h-0.1c-0.3,0-0.6,0.1-0.7,0.4c-0.1,0-0.2,0.1-0.3,0.2l-0.1,0.1l-0.1,0.1h-0.2c-0.1,0-0.2,0-0.3,0.1l-0.1,0.1
	c0,0-0.1,0.1-0.1,0.1c-1.3,0.9-2.6,1.7-4,2.4c-9,5.2-18,10.4-26.9,15.6c-0.4,0.3-0.9,0.6-1.5,0.7c-0.2,0-0.4,0.1-0.5,0.3
	c-0.3,0-0.6,0.1-0.7,0.4c-0.3,0-0.6,0-0.7,0.4c-0.2,0-0.3,0.1-0.4,0.3l-0.1,0.1h-0.1c-0.1,0-0.1,0-0.2,0c-0.2,0-0.3,0.2-0.4,0.3
	c-0.1,0.2-0.4,0.4-0.7,0.4h-0.1c-0.3,0-0.5,0.1-0.6,0.4c-0.2,0-0.3,0.1-0.4,0.3h-0.1c-0.3,0-0.5,0.1-0.6,0.4c-0.3,0-0.6,0.1-0.7,0.4
	c-0.2,0.3-0.4,0.4-0.7,0.4H416c-0.2,0-0.3,0.1-0.4,0.3c-0.3,0-0.6,0.1-0.7,0.4h-0.1c-0.3,0-0.6,0.1-0.7,0.4c-0.2,0-0.3,0.1-0.4,0.3
	l-0.1,0.1h-0.1c-0.1,0-0.1,0-0.2,0c-0.2,0-0.3,0.1-0.4,0.3c0,0-0.1,0-0.1,0c-0.3,0-0.5,0.2-0.6,0.4c-0.3,0-0.6,0-0.7,0.4
	c-0.2,0-0.4,0.1-0.4,0.3c-0.3,0-0.6,0.1-0.7,0.4c-0.3,0-0.6,0-0.7,0.4c-0.3,0-0.6,0-0.7,0.4h-0.2c-0.1,0-0.2,0.1-0.3,0.3h-0.1
	c-0.3,0-0.5,0.1-0.6,0.4c-0.3,0.3-0.6,0.6-1,0.7l-36.4,21.1c-0.4,0.2-0.8,0.4-1.2,0.6c-0.3,0-0.6,0.1-0.7,0.4c-0.3,0-0.6,0-0.7,0.4
	c-0.3,0-0.6,0-0.7,0.4H367c-0.2,0-0.3,0.1-0.4,0.3c-0.3,0-0.6,0.1-0.7,0.4h-0.1c-0.3,0-0.6,0.1-0.7,0.4c-0.2,0-0.3,0.2-0.4,0.3
	c-0.3,0-0.6,0.1-0.7,0.4c-0.3,0-0.6,0.1-0.7,0.4c-0.3,0-0.6,0-0.7,0.4h-0.1c-0.1,0-0.2,0.1-0.3,0.2c0,0,0,0-0.1,0.1
	c-0.3,0-0.6,0.1-0.7,0.4c-0.3,0-0.6,0-0.7,0.4c-0.3,0-0.6,0-0.7,0.4h-0.5c-0.1,0-0.1,0-0.2,0.1h-0.1c0,0-0.1,0.1-0.1,0.1
	c0,0,0,0,0,0c0,0.1-0.2,0.1-0.2,0.1c-1.7,1-3.5,1.7-5.4,2.2h-0.7c-0.5,0-1.1-0.1-1.5,0.3h-3c-0.4-0.5-1-0.3-1.5-0.3h-0.7
	c-3.8-1.2-7.3-2.9-10.5-5.2c-4-2.1-7.8-4.4-11.6-6.8c-0.1-0.1-0.2-0.2-0.4-0.3c-0.1-0.3-0.4-0.4-0.7-0.4c-0.1-0.2-0.4-0.4-0.7-0.4h0
	c-0.1-0.1-0.2-0.3-0.4-0.3c-1.8-0.8-3.6-1.8-5.2-3c-1.8-0.8-3.6-1.8-5.2-3c-1.1-0.4-2.1-1-3-1.8c-0.1-0.3-0.4-0.5-0.7-0.4
	c-0.1-0.1-0.2-0.3-0.4-0.3c-0.1,0-0.1,0-0.2,0H307l-0.1-0.1c-0.1-0.2-0.2-0.3-0.4-0.3c-0.1-0.3-0.4-0.4-0.7-0.4
	c-0.1-0.2-0.4-0.4-0.7-0.4H305c-0.2,0-0.3-0.1-0.4-0.3c-0.1-0.4-0.4-0.4-0.7-0.4c-0.3,0-0.6-0.2-0.7-0.4c-2-1-3.8-2.1-5.6-3.3
	c-1.2-0.5-2.3-1.1-3.3-1.9c-0.1-0.2-0.4-0.4-0.7-0.4h-0.1c-0.1-0.1-0.2-0.3-0.4-0.3c-0.1-0.4-0.4-0.4-0.7-0.4
	c-0.1-0.2-0.4-0.4-0.7-0.4h-0.1c-4.1-2.2-8-4.6-12-7c-3.2-1.6-6.3-3.6-9.5-5.4c-2.1-1.1-4.2-2.3-6.2-3.7c-3-1.4-5.8-3.2-8.6-4.8
	c-1.5-0.8-3-1.7-4.5-2.7c-2.9-1.4-5.7-3.1-8.5-4.7c-1.6-0.8-3.1-1.7-4.6-2.8c-1.7-0.8-3.3-1.7-4.9-2.7c-3.9-2.2-7.8-4.3-11.6-6.7
	c-3.7-1.8-7.3-3.9-10.7-6.3c-1.8-1.2-3.3-2.9-4.3-4.8c-1.6-2.4-2.5-5.3-2.5-8.2c-0.2-4,0-7.9,0-11.9c0-0.2,0.1-0.4,0.2-0.5
	c-0.2-2.6,0-5.1,0-7.7c0-3.2,0.1-6.3,0.1-9.5c-0.1-0.5-0.1-1,0-1.5c-0.1-0.4-0.1-0.7-0.1-1.1v-38.3c0-0.4,0.1-0.9,0.1-1.3
	c-0.1-0.4-0.1-0.7-0.1-1.1v-28.9c-0.1-0.5,0-1,0.1-1.5c0.3-0.1,0.6,0,0.9,0.2c6.6,3.5,13.2,6.9,19.6,10.7c0.2,0.1,0.3,0.2,0.4,0.4
	c3,1.4,5.8,3.2,8.7,4.9c1.9,1,3.8,2.1,5.5,3.3c3,1.4,5.7,3.2,8.6,4.8c1.3,0.7,2.6,1.4,3.8,2.3c3.8,2,7.5,4.1,11.1,6.4
	c4.7,2.4,9.2,5.2,13.8,7.9c0.1,0.1,0.3,0.2,0.4,0.3c0.1,0.2,0.4,0.4,0.6,0.4h0.1c0.1,0.2,0.3,0.3,0.5,0.3c0,0,0,0,0,0
	c0.1,0,0.2,0,0.2,0.1c0.1,0.1,0.2,0.2,0.4,0.3c0.3,0,0.6,0.2,0.7,0.4c3.7,1.8,7.1,4,10.7,6c0.8,0.4,1.6,0.9,2.4,1.5
	c4.1,2.1,8,4.6,12,6.9c1.6,0.8,3.1,1.7,4.6,2.8c4.3,2.2,8.3,4.8,12.5,7.2c0.2,0.1,0.3,0.2,0.4,0.4c4.3,2.3,8.6,4.8,12.7,7.5
	c0.3,0,0.6,0.2,0.7,0.4c0.1,0.1,0.2,0.3,0.4,0.3c0.1,0.4,0.4,0.4,0.7,0.4c0.3,0,0.6,0.1,0.7,0.4c1.3,0.6,2.5,1.3,3.7,2.1
	c2.2,1.3,4.6,2.2,7.1,2.6c2,0.3,4-0.2,6-0.5c6.6-2.9,12.5-6.9,18.7-10.4c7.2-4.1,14.4-8.4,21.6-12.6c0.5-0.3,1-0.5,1.5-0.8
	c4.3-2.7,8.7-5.2,13.1-7.7c3.1-1.8,6.1-3.7,9.3-5.3h0.1c0.3,0,0.5-0.1,0.6-0.4c0,0,0,0,0.1,0c0.1,0,0.1,0,0.2-0.1l0.1-0.1
	c0,0,0.1-0.1,0.1-0.2h0c0.3,0,0.5-0.1,0.7-0.4c0.1-0.2,0.4-0.4,0.7-0.4c0.2,0,0.3-0.2,0.4-0.3c0,0,0,0,0,0c0-0.1,0.1-0.1,0.2-0.1
	c0.1,0,0.1,0,0.2,0c0.2,0,0.3-0.1,0.4-0.3h0.1c0.3,0,0.5-0.2,0.6-0.4h0.1c0.3,0,0.6-0.1,0.7-0.4c0.1-0.2,0.2-0.3,0.4-0.3h0
	c0.3,0,0.6-0.1,0.7-0.4c0.3,0,0.6-0.1,0.7-0.4c0.2-0.2,0.4-0.4,0.7-0.4h0.1c0.1,0,0.2,0,0.2-0.1c0,0,0.1-0.1,0.1-0.2
	c0.3,0,0.6-0.1,0.7-0.4h0.1c0.3,0,0.6-0.1,0.7-0.4c0.1-0.2,0.2-0.2,0.4-0.2h0c0.3,0,0.6-0.1,0.7-0.4c0.3,0,0.6-0.1,0.7-0.4
	c0.3,0,0.6-0.1,0.7-0.5c2.7-1.8,5.4-3.3,8.2-4.8c1.3-0.9,2.6-1.7,4-2.4c8-4.7,16.1-9.3,24.1-14c0.6-0.3,1.2-0.6,1.8-0.9
	c0.8-0.6,1.6-1.1,2.5-1.6c5.8-3.3,11.5-6.7,17.3-10c0.4-0.3,0.9-0.6,1.5-0.7c0.2,0,0.4-0.2,0.4-0.3c0-0.1,0.1-0.1,0.2-0.1
	c0.1,0,0.1,0,0.2,0c0.2,0,0.3-0.1,0.4-0.3c0.3,0,0.6-0.1,0.7-0.4h0.1c0.3,0,0.5-0.1,0.6-0.4c0.2,0,0.3-0.1,0.4-0.3l0.1-0.1h0.1
	c0.1-0.2,0.3-0.3,0.6-0.3c0,0,0.1,0,0.1,0c0.3,0,0.5-0.1,0.6-0.4h0.1c0.3,0,0.5-0.1,0.7-0.4c0.2,0,0.3-0.2,0.4-0.3
	c0.3,0,0.6-0.1,0.7-0.4c0,0,0.1,0,0.1,0c0.3,0,0.5-0.2,0.6-0.4c0.3,0,0.6,0,0.7-0.4c0.2,0,0.4-0.1,0.4-0.3c0.3,0,0.6-0.1,0.7-0.4
	c0.3,0,0.6,0,0.7-0.4c0.3,0,0.6,0,0.7-0.4h0.1c0.2,0,0.3-0.1,0.4-0.3c0.3,0,0.6-0.1,0.7-0.4h0.1c0.3,0,0.5-0.1,0.7-0.4
	c0.2,0,0.3-0.1,0.4-0.3l0.1-0.1h0.1c0.1,0,0.1,0,0.2,0c0.2,0,0.3-0.2,0.4-0.3c0.3,0,0.6-0.1,0.7-0.4c0.3,0,0.6,0,0.7-0.4
	c0.2,0,0.3-0.2,0.4-0.3h0c0.3,0,0.5-0.2,0.7-0.4s0.4-0.4,0.7-0.4h0c0.3,0,0.6,0,0.7-0.4c0.2,0,0.3-0.1,0.4-0.3
	c0.3,0,0.6-0.1,0.7-0.4c0.1-0.3,0.4-0.4,0.7-0.4c1-0.8,2-1.4,3.2-1.9c14.8-8.5,29.7-17.1,44.5-25.6h0l1.9-1.1l1.1-0.6
	c0.2-0.1,0.4-0.2,0.6-0.2c0.8-0.5,1.6-1.1,2.5-1.5l2.3-1.4l0.4-0.2c1-0.6,2.1-1.2,3.2-1.8c3.4-2,6.9-3.9,10.3-5.9
	c0.6-0.3,1.1-0.7,1.7-1L690.1,472.1z M560.3,546.8l-1.1,0.6C559.5,547.2,559.9,547,560.3,546.8z M498.6,288.7v16.7l-107.3,62.1
	l-15.1-8.8V342l107.3-62.1L498.6,288.7z M590.3,299.4v16.7L483,378.2l-15.1-8.8v-16.8l107.3-62.1L590.3,299.4z M610.6,353.5v17
	l-107.1,62L489,424v-17.6l85.6-49.5l20.9-12.1h0L610.6,353.5z M462.1,422l-82.5-47.7h0L350,357.1L237.9,422l-14.9,8.6v140.5
	l30.3,17.5l81.6,47.2v0l15.1,8.8l15.1-8.8v0l81.8-47.3l30.3-17.5V430.7L462.1,422z M334.9,602l-81.6-47.2v-89.6l81.6,47.2V602z
	 M334.9,478.1l-67.4-39l82.5-47.7l82.5,47.7l-67.4,39l-15.1,8.8L334.9,478.1z M446.9,554.7L365.1,602v-89.6l81.8-47.3V554.7z
	 M610.6,477.4v16.5l-1.5,0.9l-105.3,60.9l-14.7-8.5v-16.8l106.5-61.6L610.6,477.4z M646.4,397.6v16.5l-1.5,0.9l-105.3,60.9
	l-14.7-8.5v-16.8l106.5-61.6L646.4,397.6z"/>
</svg>
