<?xml version="1.0" encoding="utf-8"?>
<!-- Generator: Adobe Illustrator 27.3.1, SVG Export Plug-In . SVG Version: 6.00 Build 0)  -->
<svg version="1.1" id="Layer_1" xmlns="http://www.w3.org/2000/svg" xmlns:xlink="http://www.w3.org/1999/xlink" x="0px" y="0px"
	 viewBox="0 0 800 800" style="enable-background:new 0 0 800 800;" xml:space="preserve">
<style type="text/css">
	.st0{fill:none;stroke:#FFFFFF;stroke-width:82;stroke-linecap:round;stroke-linejoin:round;stroke-miterlimit:133.3333;}
</style>
<path class="st0" d="M567.28,253.1h48.5c43.5,0,79.74,33.34,83.35,76.7l27.88,334.56c4.07,48.76-34.42,90.59-83.35,90.59H156.34
	c-48.93,0-87.42-41.82-83.35-90.59l27.88-334.56c3.61-43.35,39.85-76.7,83.35-76.7h48.5 M567.28,253.1H232.72 M567.28,253.1v-41.82
	c0-44.37-17.62-86.92-49-118.29C486.92,61.62,444.37,44,400,44s-86.92,17.62-118.29,49c-31.37,31.37-49,73.92-49,118.29v41.82
	 M567.28,253.1v167.28 M232.72,253.1v167.28"/>
</svg>
