<?xml version="1.0" encoding="utf-8"?>
<!-- Generator: Adobe Illustrator 27.3.1, SVG Export Plug-In . SVG Version: 6.00 Build 0)  -->
<svg version="1.1" id="Layer_1" xmlns="http://www.w3.org/2000/svg" xmlns:xlink="http://www.w3.org/1999/xlink" x="0px" y="0px"
	 viewBox="0 0 800 800" style="enable-background:new 0 0 800 800;" xml:space="preserve">
<style type="text/css">
	.st0{fill-rule:evenodd;clip-rule:evenodd;fill:#FFFFFF;}
</style>
<g id="Page-1">
	<g id="Dribbble-Light-Preview" transform="translate(-140.000000, -2159.000000)">
		<g id="icons" transform="translate(56.000000, 160.000000)">
			<path id="profile_x5F_round-_x5B__x23_1342_x5D_" class="st0" d="M746.5,2719H221.53c-28.26,0-49.12-27.88-38.46-53.52
				C232.51,2546.92,348.68,2479,483.99,2479c135.36,0,251.52,67.92,300.97,186.48C795.62,2691.12,774.76,2719,746.5,2719
				 M320.67,2239c0-88.24,73.29-160,163.33-160c90.08,0,163.33,71.76,163.33,160c0,88.24-73.25,160-163.33,160
				C393.96,2399,320.67,2327.24,320.67,2239 M882.23,2704.44c-29.68-134.36-122.54-233.52-244.75-278.52
				c64.76-51.08,102.53-133.68,88.65-224.12c-16.09-104.92-105.18-188.88-212.73-201.12C364.93,1983.76,239,2096.96,239,2239
				c0,75.6,35.77,142.96,91.55,186.92c-122.25,45-215.06,144.16-244.79,278.52c-10.78,48.84,29.4,94.56,80.4,94.56h635.67
				C852.87,2799,893.05,2753.28,882.23,2704.44"/>
		</g>
	</g>
</g>
</svg>
