<?xml version="1.0" encoding="utf-8"?>
<!-- Generator: Adobe Illustrator 27.3.1, SVG Export Plug-In . SVG Version: 6.00 Build 0)  -->
<svg version="1.1" id="Layer_1" xmlns="http://www.w3.org/2000/svg" xmlns:xlink="http://www.w3.org/1999/xlink" x="0px" y="0px"
	 viewBox="0 0 2500 2421" style="enable-background:new 0 0 2500 2421;" xml:space="preserve">
<style type="text/css">
	.st0{fill:#FFFFFF;}
</style>
<path class="st0" d="M1211.87,32.68c-87.16,94.42-198.52,328.05-248.15,524.15c-21.79,88.37-36.32,459.99-16.95,459.99h319.57
	l305.05,1.21l-1.21-191.26c-1.21-199.73-10.89-257.84-71.42-429.73C1437.02,223.94,1301.45,0,1259.08,0
	C1250.61,0,1228.82,14.53,1211.87,32.68z M19.53,585.88c7.26,113.79,36.31,226.36,90.79,352.26c16.95,39.95,32.68,73.84,33.89,76.26
	c3.63,6.05,731.14,9.68,731.14,3.63c0-13.32-73.84-101.68-156.15-186.42c-165.84-171.89-435.78-318.36-634.3-346.2l-72.63-9.68
	L19.53,585.88z M2422.37,484.2c-168.26,29.05-413.99,151.31-562.88,282.05c-48.42,42.37-221.52,237.26-221.52,249.36
	c0,3.63,162.21,6.05,359.52,4.84l360.73-2.42l27.84-49.63c58.1-100.47,101.68-252.99,107.73-378.89
	c3.63-65.37,2.42-116.21-3.63-116.21C2484.1,474.52,2453.84,479.36,2422.37,484.2L2422.37,484.2z M209.58,1136.66
	c0,4.84,10.89,24.21,25.42,42.37l25.42,31.47l998.66-2.42l998.66-3.63l31.47-39.95l30.26-38.74H1263.92
	C679.25,1125.77,209.58,1130.61,209.58,1136.66L209.58,1136.66z M374.2,1346.08c12.1,15.74,31.47,33.89,41.16,42.37
	c24.21,19.37,1630.54,23,1672.91,2.42c15.74-7.26,37.53-25.42,49.63-42.37l21.79-29.05H351.2L374.2,1346.08L374.2,1346.08z
	 M609.04,1527.65c71.42,60.53,372.83,179.15,456.36,179.15c12.1,0,15.74-21.79,15.74-83.52c0-131.94,20.58-122.26-259.05-122.26
	l-243.31,1.21L609.04,1527.65L609.04,1527.65z M1131.98,1551.86c14.53,29.05,48.42,77.47,73.84,110.16
	c55.68,66.58,55.68,66.58,134.37-44.79c85.95-122.26,90.79-116.21-84.73-116.21h-151.31L1131.98,1551.86L1131.98,1551.86z
	 M1439.44,1538.55c-3.63,20.58-7.26,67.79-7.26,104.1v66.58l46-7.26c134.37-24.21,342.57-110.16,426.1-176.73l30.26-24.21h-486.62
	L1439.44,1538.55L1439.44,1538.55z M837.82,1848.43c0,6.05,0,44.79,1.21,87.16l1.21,77.47l-33.89-8.47
	c-18.16-4.84-43.58-10.89-54.47-14.53c-18.16-4.84-21.79,1.21-21.79,42.37s4.84,50.84,27.84,55.68
	c38.74,10.89,75.05,65.37,75.05,117.42c0,47.21-30.26,89.58-75.05,107.73c-23,8.47-27.84,19.37-27.84,58.1v48.42l50.84-18.16
	c33.89-12.1,53.26-13.32,55.68-4.84c2.42,6.05,25.42,12.11,52.05,12.11h47.21v-568.94h-48.42
	C860.82,1839.96,839.04,1843.59,837.82,1848.43L837.82,1848.43z M1492.71,1925.91c0,83.52-1.21,85.95-26.63,78.68
	c-88.37-24.21-82.31-26.63-82.31,26.63c0,37.53,6.05,50.84,21.79,55.68c77.47,25.42,106.52,135.58,52.05,193.68
	c-15.74,16.95-38.74,33.89-52.05,38.74c-15.74,4.84-21.79,18.16-21.79,54.47c0,25.42,2.42,47.21,6.05,47.21
	c3.63,0,26.63-8.47,52.05-18.16c29.05-12.11,46-14.53,48.42-6.05c2.42,6.05,25.42,12.11,52.05,12.11h47.21v-568.94h-96.84V1925.91z
	 M115.16,2010.64c-69,33.89-116.21,113.79-115,192.47c1.21,92,50.84,162.21,140.42,199.73l44.79,18.16v-54.47
	c0-30.26-6.05-54.47-12.1-54.47c-7.26,0-26.63-13.32-42.37-30.26c-23-21.79-30.26-42.37-30.26-79.89c0-42.37,7.26-56.89,42.37-90.79
	c32.68-30.26,42.37-49.63,42.37-82.31c0-24.21-3.63-43.58-8.47-43.58C170.84,1985.22,144.21,1997.32,115.16,2010.64L115.16,2010.64z
	 M233.79,2032.43c0,37.53,4.84,49.63,19.37,49.63c9.68,0,35.1,15.74,54.47,35.1c61.74,62.95,37.53,179.15-42.37,199.73
	c-24.21,6.05-27.84,13.32-24.21,46c1.21,21.79,3.63,43.58,3.63,48.42c1.21,4.84,24.21,0,52.05-9.68
	c33.89-12.1,53.26-13.32,55.68-4.84c2.42,6.05,23,12.11,46,12.11h41.16v-423.68H397.2c-23,0-42.37,6.05-42.37,13.32
	c0,8.47-12.1,10.89-30.26,6.05c-16.95-3.63-43.58-10.89-60.52-14.53C235,1982.8,233.79,1985.22,233.79,2032.43L233.79,2032.43z
	 M609.04,2008.22c-134.37,71.42-161,246.94-50.84,349.83c23,20.58,59.31,43.58,79.89,48.42c36.32,9.68,37.53,8.47,41.16-32.68
	c3.63-30.26-2.42-47.21-18.16-58.1c-49.63-36.31-64.16-53.26-71.42-82.31c-10.89-46,4.84-90.79,47.21-131.94
	c31.47-30.26,37.53-46,35.1-77.47C667.14,1979.17,664.72,1977.96,609.04,2008.22z M995.19,2178.9
	c-1.21,106.52-2.42,200.94-3.63,208.21c-1.21,9.68,18.16,16.95,50.84,19.37l50.84,3.63v-424.89H996.4L995.19,2178.9L995.19,2178.9z
	 M1263.92,2007.01c-23,10.89-58.1,41.16-78.68,66.58c-32.68,41.16-36.31,54.47-36.31,128.31c1.21,54.47,8.47,92,21.79,112.58
	c23,35.1,95.63,87.16,138,100.47c24.21,7.26,26.63,3.63,26.63-38.74c0-37.53-7.26-52.05-42.37-79.89
	c-52.05-41.16-65.37-98.05-36.31-153.73c10.89-21.79,30.26-42.37,43.58-44.79c18.16-4.84,23-16.95,23-59.31
	c0-29.05-3.63-53.26-8.47-53.26C1308.71,1985.22,1286.92,1994.9,1263.92,2007.01L1263.92,2007.01z M1732.38,2020.32
	c-83.52,53.26-117.42,134.37-96.84,228.78c19.37,82.31,75.05,136.79,169.47,165.84c24.21,7.26,26.63,3.63,26.63-41.16
	c0-42.37-4.84-52.05-37.53-67.79c-43.58-23-71.42-82.31-62.95-130.73c6.05-29.05,65.37-93.21,87.16-93.21
	c4.84,0,8.47-21.79,8.47-48.42C1826.8,1973.11,1809.86,1970.69,1732.38,2020.32L1732.38,2020.32z M1880.07,2033.64
	c0,41.16,4.84,50.84,30.26,60.53c39.95,14.53,69,82.31,58.1,133.15c-3.63,23-23,50.84-47.21,70.21
	c-33.89,26.63-41.16,41.16-41.16,78.68V2421l44.79-18.16c29.05-12.11,47.21-14.53,49.63-6.05c2.42,6.05,25.42,12.11,52.05,12.11
	h47.21v-423.68h-35.1c-19.37,0-43.58,8.47-53.26,18.16c-16.95,15.74-23,15.74-53.26,0
	C1883.7,1977.96,1880.07,1979.17,1880.07,2033.64L1880.07,2033.64z M2212.95,2002.17c-78.68,33.89-105.31,140.42-48.42,193.68
	c31.47,29.05,104.1,55.68,153.73,55.68c39.95,0,73.84,26.63,67.79,55.68c-2.42,18.16-15.74,24.21-67.79,26.63
	c-56.89,3.63-64.16,1.21-77.47-26.63c-10.89-26.63-21.79-31.47-66.58-31.47c-59.31,0-62.95,9.68-27.84,66.58
	c30.26,49.63,84.74,72.63,169.47,72.63c116.21,0,186.42-50.84,184-131.94c-2.42-76.26-52.05-117.42-164.63-134.37
	c-107.73-16.95-133.16-77.47-33.89-82.31c39.95-1.21,54.47,3.63,70.21,25.42c13.32,19.37,30.26,26.63,66.58,26.63
	c54.47,0,58.1-10.89,21.79-62.95C2412.69,1990.06,2297.69,1965.85,2212.95,2002.17L2212.95,2002.17z"/>
</svg>
